G04 #@! TF.GenerationSoftware,KiCad,Pcbnew,9.0.5*
G04 #@! TF.CreationDate,2025-11-08T18:16:22-06:00*
G04 #@! TF.ProjectId,PowerDistributionUnit_Mk1,506f7765-7244-4697-9374-726962757469,rev?*
G04 #@! TF.SameCoordinates,Original*
G04 #@! TF.FileFunction,Copper,L3,Inr*
G04 #@! TF.FilePolarity,Positive*
%FSLAX46Y46*%
G04 Gerber Fmt 4.6, Leading zero omitted, Abs format (unit mm)*
G04 Created by KiCad (PCBNEW 9.0.5) date 2025-11-08 18:16:22*
%MOMM*%
%LPD*%
G01*
G04 APERTURE LIST*
G04 #@! TA.AperFunction,ComponentPad*
%ADD10R,1.700000X1.700000*%
G04 #@! TD*
G04 #@! TA.AperFunction,ComponentPad*
%ADD11C,6.400000*%
G04 #@! TD*
G04 #@! TA.AperFunction,ComponentPad*
%ADD12C,1.752600*%
G04 #@! TD*
G04 #@! TA.AperFunction,HeatsinkPad*
%ADD13C,0.500000*%
G04 #@! TD*
G04 #@! TA.AperFunction,ComponentPad*
%ADD14R,3.000000X3.000000*%
G04 #@! TD*
G04 #@! TA.AperFunction,ComponentPad*
%ADD15C,3.000000*%
G04 #@! TD*
G04 #@! TA.AperFunction,ComponentPad*
%ADD16C,2.780000*%
G04 #@! TD*
G04 #@! TA.AperFunction,ComponentPad*
%ADD17C,1.524000*%
G04 #@! TD*
G04 #@! TA.AperFunction,ComponentPad*
%ADD18C,7.400000*%
G04 #@! TD*
G04 #@! TA.AperFunction,ViaPad*
%ADD19C,0.600000*%
G04 #@! TD*
G04 #@! TA.AperFunction,Conductor*
%ADD20C,0.200000*%
G04 #@! TD*
G04 #@! TA.AperFunction,Conductor*
%ADD21C,0.400000*%
G04 #@! TD*
G04 #@! TA.AperFunction,Conductor*
%ADD22C,0.300000*%
G04 #@! TD*
G04 #@! TA.AperFunction,Conductor*
%ADD23C,0.150000*%
G04 #@! TD*
G04 APERTURE END LIST*
D10*
X179300000Y-167600000D03*
X113600000Y-97100000D03*
D11*
X188800000Y33300000D03*
D10*
X135198000Y-87300000D03*
D12*
X152200000Y-115900000D03*
X152200000Y-113400000D03*
X152200000Y-110900000D03*
X152200000Y-108400000D03*
X152200000Y-105900000D03*
X152200000Y-103400000D03*
X152200000Y-100900000D03*
X152200000Y-98399999D03*
X149700000Y-115900000D03*
X149700000Y-113400000D03*
X149700000Y-110900000D03*
X149700000Y-108400000D03*
X149700000Y-105900000D03*
X149700000Y-103400000D03*
X149700000Y-100900000D03*
X149700000Y-98399999D03*
D10*
X113600000Y-35300000D03*
X190600000Y-33600000D03*
D13*
X127648000Y-109050000D03*
X128848000Y-109050000D03*
X130048000Y-109050000D03*
X131248000Y-109050000D03*
X127648000Y-107850000D03*
X128848000Y-107850000D03*
X130048000Y-107850000D03*
X131248000Y-107850000D03*
X127648000Y-106650000D03*
X128848000Y-106650000D03*
X130048000Y-106650000D03*
X131248000Y-106650000D03*
D10*
X190600000Y-128850000D03*
D14*
X129100000Y-25900000D03*
D15*
X129100000Y-20900000D03*
D10*
X190600000Y-20600000D03*
D11*
X115400000Y-165700000D03*
D13*
X176550000Y-144150000D03*
X175350000Y-144150000D03*
X174150000Y-144150000D03*
X172950000Y-144150000D03*
X176550000Y-145350000D03*
X175350000Y-145350000D03*
X174150000Y-145350000D03*
X172950000Y-145350000D03*
X176550000Y-146550000D03*
X175350000Y-146550000D03*
X174150000Y-146550000D03*
X172950000Y-146550000D03*
D10*
X123800000Y34300000D03*
X135198000Y-151000000D03*
X135198000Y-48300000D03*
X169000000Y-154200000D03*
D13*
X176550000Y-157150000D03*
X175350000Y-157150000D03*
X174150000Y-157150000D03*
X172950000Y-157150000D03*
X176550000Y-158350000D03*
X175350000Y-158350000D03*
X174150000Y-158350000D03*
X172950000Y-158350000D03*
X176550000Y-159550000D03*
X175350000Y-159550000D03*
X174150000Y-159550000D03*
X172950000Y-159550000D03*
D10*
X169000000Y-51800000D03*
X169000000Y-128200000D03*
X135198000Y-74300000D03*
X190600000Y-65350000D03*
X113600000Y-158100000D03*
X169000000Y-115200000D03*
D13*
X176550000Y-67750000D03*
X175350000Y-67750000D03*
X174150000Y-67750000D03*
X172950000Y-67750000D03*
X176550000Y-68950000D03*
X175350000Y-68950000D03*
X174150000Y-68950000D03*
X172950000Y-68950000D03*
X176550000Y-70150000D03*
X175350000Y-70150000D03*
X174150000Y-70150000D03*
X172950000Y-70150000D03*
D10*
X124900000Y-167600000D03*
D11*
X188800000Y-165700000D03*
D12*
X160650000Y-39550000D03*
X158150000Y-39550000D03*
D10*
X190600000Y-97100000D03*
D12*
X117300000Y-16450000D03*
X117300000Y-18950000D03*
X117300000Y-21450000D03*
X117300000Y-23950000D03*
X117300000Y-26450000D03*
X117300000Y-28950000D03*
D16*
X146600000Y-56760000D03*
X150000000Y-56760000D03*
X146600000Y-46840000D03*
X150000000Y-46840000D03*
D17*
X178496600Y30963300D03*
X178496600Y33503300D03*
X175956600Y30963300D03*
X175956600Y33503300D03*
X173416600Y30963300D03*
X173416600Y33503300D03*
X170876600Y30963300D03*
X170876600Y33503300D03*
X168336600Y30963300D03*
X168336600Y33503300D03*
D10*
X125000000Y30100000D03*
X113600000Y-65350000D03*
D13*
X176550000Y-131150000D03*
X175350000Y-131150000D03*
X174150000Y-131150000D03*
X172950000Y-131150000D03*
X176550000Y-132350000D03*
X175350000Y-132350000D03*
X174150000Y-132350000D03*
X172950000Y-132350000D03*
X176550000Y-133550000D03*
X175350000Y-133550000D03*
X174150000Y-133550000D03*
X172950000Y-133550000D03*
X176550000Y-80750000D03*
X175350000Y-80750000D03*
X174150000Y-80750000D03*
X172950000Y-80750000D03*
X176550000Y-81950000D03*
X175350000Y-81950000D03*
X174150000Y-81950000D03*
X172950000Y-81950000D03*
X176550000Y-83150000D03*
X175350000Y-83150000D03*
X174150000Y-83150000D03*
X172950000Y-83150000D03*
D10*
X154000000Y-36400000D03*
X169000000Y-141200000D03*
X135198000Y-61300000D03*
D18*
X188200000Y5800000D03*
D10*
X135198000Y-125000000D03*
D12*
X149550000Y-39540000D03*
X147050000Y-39540000D03*
D16*
X154900000Y-56760000D03*
X158300000Y-56760000D03*
X154900000Y-46840000D03*
X158300000Y-46840000D03*
D10*
X120600000Y30100000D03*
D17*
X186460000Y-13460000D03*
X189000000Y-13460000D03*
X186460000Y-10920000D03*
X189000000Y-10920000D03*
X186460000Y-8380000D03*
X189000000Y-8380000D03*
X186460000Y-5840000D03*
X189000000Y-5840000D03*
X186460000Y-3300000D03*
X189000000Y-3300000D03*
D13*
X127648000Y-58350000D03*
X128848000Y-58350000D03*
X130048000Y-58350000D03*
X131248000Y-58350000D03*
X127648000Y-57150000D03*
X128848000Y-57150000D03*
X130048000Y-57150000D03*
X131248000Y-57150000D03*
X127648000Y-55950000D03*
X128848000Y-55950000D03*
X130048000Y-55950000D03*
X131248000Y-55950000D03*
D10*
X137500000Y-25600000D03*
X113600000Y-128850000D03*
X150400000Y-25600000D03*
D18*
X150200000Y-159700000D03*
D10*
X190600000Y-158100000D03*
D16*
X139040000Y-18300000D03*
X139040000Y-21700000D03*
X148960000Y-18300000D03*
X148960000Y-21700000D03*
D13*
X127648000Y-122050000D03*
X128848000Y-122050000D03*
X130048000Y-122050000D03*
X131248000Y-122050000D03*
X127648000Y-120850000D03*
X128848000Y-120850000D03*
X130048000Y-120850000D03*
X131248000Y-120850000D03*
X127648000Y-119650000D03*
X128848000Y-119650000D03*
X130048000Y-119650000D03*
X131248000Y-119650000D03*
D17*
X186460000Y14720000D03*
X189000000Y14720000D03*
X186460000Y17260000D03*
X189000000Y17260000D03*
X186460000Y19800000D03*
X189000000Y19800000D03*
X186460000Y22340000D03*
X189000000Y22340000D03*
X186460000Y24880000D03*
X189000000Y24880000D03*
D13*
X127648000Y-45350000D03*
X128848000Y-45350000D03*
X130048000Y-45350000D03*
X131248000Y-45350000D03*
X127648000Y-44150000D03*
X128848000Y-44150000D03*
X130048000Y-44150000D03*
X131248000Y-44150000D03*
X127648000Y-42950000D03*
X128848000Y-42950000D03*
X130048000Y-42950000D03*
X131248000Y-42950000D03*
X127648000Y-71350000D03*
X128848000Y-71350000D03*
X130048000Y-71350000D03*
X131248000Y-71350000D03*
X127648000Y-70150000D03*
X128848000Y-70150000D03*
X130048000Y-70150000D03*
X131248000Y-70150000D03*
X127648000Y-68950000D03*
X128848000Y-68950000D03*
X130048000Y-68950000D03*
X131248000Y-68950000D03*
D10*
X135198000Y-138000000D03*
D13*
X176550000Y-118150000D03*
X175350000Y-118150000D03*
X174150000Y-118150000D03*
X172950000Y-118150000D03*
X176550000Y-119350000D03*
X175350000Y-119350000D03*
X174150000Y-119350000D03*
X172950000Y-119350000D03*
X176550000Y-120550000D03*
X175350000Y-120550000D03*
X174150000Y-120550000D03*
X172950000Y-120550000D03*
D10*
X169000000Y-64800000D03*
D12*
X139851000Y30999850D03*
X137351000Y30999850D03*
D13*
X127648000Y-148050000D03*
X128848000Y-148050000D03*
X130048000Y-148050000D03*
X131248000Y-148050000D03*
X127648000Y-146850000D03*
X128848000Y-146850000D03*
X130048000Y-146850000D03*
X131248000Y-146850000D03*
X127648000Y-145650000D03*
X128848000Y-145650000D03*
X130048000Y-145650000D03*
X131248000Y-145650000D03*
X127648000Y-84350000D03*
X128848000Y-84350000D03*
X130048000Y-84350000D03*
X131248000Y-84350000D03*
X127648000Y-83150000D03*
X128848000Y-83150000D03*
X130048000Y-83150000D03*
X131248000Y-83150000D03*
X127648000Y-81950000D03*
X128848000Y-81950000D03*
X130048000Y-81950000D03*
X131248000Y-81950000D03*
D10*
X169000000Y-77800000D03*
D13*
X176550000Y-54750000D03*
X175350000Y-54750000D03*
X174150000Y-54750000D03*
X172950000Y-54750000D03*
X176550000Y-55950000D03*
X175350000Y-55950000D03*
X174150000Y-55950000D03*
X172950000Y-55950000D03*
X176550000Y-57150000D03*
X175350000Y-57150000D03*
X174150000Y-57150000D03*
X172950000Y-57150000D03*
D10*
X135198000Y-112000000D03*
D18*
X129000000Y23100000D03*
X178500000Y23100000D03*
X129000000Y-11400000D03*
X178500000Y-11400000D03*
D12*
X132651000Y30999850D03*
X130151000Y30999850D03*
D10*
X154000000Y-40000000D03*
X169000000Y-90800000D03*
D13*
X127648000Y-135050000D03*
X128848000Y-135050000D03*
X130048000Y-135050000D03*
X131248000Y-135050000D03*
X127648000Y-133850000D03*
X128848000Y-133850000D03*
X130048000Y-133850000D03*
X131248000Y-133850000D03*
X127648000Y-132650000D03*
X128848000Y-132650000D03*
X130048000Y-132650000D03*
X131248000Y-132650000D03*
D11*
X115400000Y33300000D03*
D13*
X176550000Y-93750000D03*
X175350000Y-93750000D03*
X174150000Y-93750000D03*
X172950000Y-93750000D03*
X176550000Y-94950000D03*
X175350000Y-94950000D03*
X174150000Y-94950000D03*
X172950000Y-94950000D03*
X176550000Y-96150000D03*
X175350000Y-96150000D03*
X174150000Y-96150000D03*
X172950000Y-96150000D03*
D17*
X157896600Y30960000D03*
X157896600Y33500000D03*
X155356600Y30960000D03*
X155356600Y33500000D03*
X152816600Y30960000D03*
X152816600Y33500000D03*
X150276600Y30960000D03*
X150276600Y33500000D03*
X147736600Y30960000D03*
X147736600Y33500000D03*
D19*
X123449866Y-78209998D03*
X180200000Y-20200000D03*
X166550000Y-60500000D03*
X180748134Y-60890002D03*
X179698134Y-99890002D03*
X166550000Y-73500000D03*
X166550000Y-163750000D03*
X137648000Y-66450000D03*
X166550000Y-98650000D03*
X137648000Y-142300000D03*
X166550000Y-100350000D03*
X123449866Y-102909998D03*
X134400000Y-128650000D03*
X134400000Y-141650000D03*
X139700000Y-13700000D03*
X166550000Y-86500000D03*
X166550000Y-99500000D03*
X169800000Y-150500000D03*
X139700000Y-15300000D03*
X137648000Y-117150000D03*
X166550000Y-136050000D03*
X124499866Y-115909998D03*
X134400000Y-52000000D03*
X180748134Y-163290002D03*
X137648000Y-130150000D03*
X166550000Y-87350000D03*
X169800000Y-87150000D03*
X179300000Y-20200000D03*
X166550000Y-59650000D03*
X166550000Y-124750000D03*
X179698134Y-73890002D03*
X179698134Y-163290002D03*
X181100000Y-20200000D03*
X166550000Y-162900000D03*
X137648000Y-128450000D03*
X166550000Y-72650000D03*
X157901876Y-17500000D03*
X180748134Y-124290002D03*
X166550000Y-150750000D03*
X137648000Y-115450000D03*
X137648000Y-65600000D03*
X137648000Y-51750000D03*
X137648000Y-53450000D03*
X166550000Y-162050000D03*
X123449866Y-52209998D03*
X137648000Y-103300000D03*
X124499866Y-102909998D03*
X124499866Y-78209998D03*
X124499866Y-65209998D03*
X166550000Y-123900000D03*
X137648000Y-40450000D03*
X137648000Y-129300000D03*
X180748134Y-137290002D03*
X137648000Y-78600000D03*
X137648000Y-77750000D03*
X166550000Y-149050000D03*
X182000000Y-20200000D03*
X180748134Y-86890002D03*
X166550000Y-136900000D03*
X166550000Y-149900000D03*
X137648000Y-39600000D03*
X123449866Y-141909998D03*
X169800000Y-61150000D03*
X123449866Y-65209998D03*
X166550000Y-85650000D03*
X166550000Y-137750000D03*
X179698134Y-60890002D03*
X137648000Y-143150000D03*
X137648000Y-38750000D03*
X137648000Y-104150000D03*
X179698134Y-124290002D03*
X169800000Y-137550000D03*
X166550000Y-61350000D03*
X137648000Y-116300000D03*
X179698134Y-150290002D03*
X166550000Y-123050000D03*
X182900000Y-20200000D03*
X139700000Y-14500000D03*
X180748134Y-73890002D03*
X137648000Y-141450000D03*
X179698134Y-86890002D03*
X134400000Y-115650000D03*
X137648000Y-102450000D03*
X124499866Y-128909998D03*
X134400000Y-102650000D03*
X123449866Y-128909998D03*
X134400000Y-77950000D03*
X180748134Y-150290002D03*
X124499866Y-52209998D03*
X134400000Y-38950000D03*
X166500000Y-16800000D03*
X124499866Y-141909998D03*
X124499866Y-39209998D03*
X169800000Y-124550000D03*
X166550000Y-74350000D03*
X169800000Y-163550000D03*
X137648000Y-52600000D03*
X179698134Y-137290002D03*
X137648000Y-79450000D03*
X123449866Y-115909998D03*
X123449866Y-39209998D03*
X134400000Y-64950000D03*
X180748134Y-99890002D03*
X169800000Y-100150000D03*
X137648000Y-64750000D03*
X169800000Y-74150000D03*
X159600000Y-24400000D03*
X159600000Y-13900000D03*
X179100000Y-106375000D03*
X180771524Y-2228922D03*
X126583891Y-46669713D03*
X135650000Y10750000D03*
X155000000Y12200000D03*
X177614109Y-116830287D03*
X184600000Y31700000D03*
X136600000Y20800000D03*
X163200000Y-149100000D03*
X178150000Y-900000D03*
X171400000Y-3000000D03*
X163100000Y-59625000D03*
X126583891Y-110369713D03*
X173650000Y650000D03*
X133900000Y28500000D03*
X141000000Y-143100000D03*
X163200000Y-72700000D03*
X169400000Y21050000D03*
X140457597Y20700000D03*
X141100000Y-66500000D03*
X125098000Y-159900000D03*
X124250000Y24000000D03*
X183250000Y24250000D03*
X179100000Y-42900000D03*
X177614109Y-155830287D03*
X127300000Y2800000D03*
X166050000Y15150000D03*
X145800000Y27050000D03*
X128500000Y-3500000D03*
X125098000Y-96400000D03*
X177614109Y-66430287D03*
X117650000Y18450000D03*
X162900000Y-10500000D03*
X147050000Y16150000D03*
X131598000Y-97600000D03*
X121000000Y-11550000D03*
X121500000Y-2550000D03*
X126583891Y-123369713D03*
X163200000Y-98700000D03*
X158557872Y10757872D03*
X127329288Y16829288D03*
X163200000Y-162100000D03*
X176350000Y27850000D03*
X141000000Y-79500000D03*
X156700000Y27850000D03*
X183250000Y27850000D03*
X140457597Y24000000D03*
X164600000Y-8300000D03*
X171200000Y27850000D03*
X173850000Y-12350000D03*
X141100000Y-104200000D03*
X159900000Y8000000D03*
X138000000Y-8250000D03*
X177614109Y-79430287D03*
X184600000Y35500000D03*
X172700000Y-41700000D03*
X159000000Y22150000D03*
X126583891Y-59669713D03*
X141000000Y-130100000D03*
X160400000Y15100000D03*
X128500000Y10600000D03*
X177614109Y-92430287D03*
X137900000Y26700000D03*
X135150000Y25550000D03*
X132750000Y-8200000D03*
X120350000Y15900000D03*
X170200000Y25700000D03*
X131398000Y-161100000D03*
X114600000Y20900000D03*
X183550000Y-12300000D03*
X177614109Y-129830287D03*
X138857872Y10757872D03*
X163200000Y-123100000D03*
X114600000Y26400000D03*
X137950000Y-11550000D03*
X120350000Y11450000D03*
X177614109Y-142830287D03*
X126583891Y-149369713D03*
X126583891Y-136369713D03*
X163200000Y-136100000D03*
X140457597Y25600000D03*
X172700000Y-105175000D03*
X140457597Y24800000D03*
X154900000Y16300000D03*
X140457597Y19800000D03*
X167425000Y11600000D03*
X131500000Y6000000D03*
X126583891Y-72669713D03*
X183550000Y-6150000D03*
X154900000Y17800000D03*
X121700000Y5350000D03*
X137900000Y28500000D03*
X163200000Y-85700000D03*
X154800000Y-11550000D03*
X140200000Y8000000D03*
X133300000Y20700000D03*
X141100000Y-40400000D03*
X173200000Y24150000D03*
X113250000Y15350000D03*
X177614109Y-53430287D03*
X141100000Y-53400000D03*
X141100000Y-117100000D03*
X114400000Y28900000D03*
X124250000Y-11550000D03*
X122700000Y26800000D03*
X126583891Y-85669713D03*
X126300000Y4900000D03*
X147555540Y12336582D03*
X167525037Y-8335667D03*
X168203254Y-50190002D03*
X166500000Y-4600000D03*
X168200000Y-63449998D03*
X165300000Y-4600000D03*
X168200000Y-76449998D03*
X163399000Y-4126000D03*
X162199000Y-4100000D03*
X168200000Y-89300000D03*
X133609896Y-37941090D03*
X178380250Y-142600000D03*
X178380250Y-66200000D03*
X133549866Y-113459998D03*
X133998000Y-98500000D03*
X178380250Y-79200000D03*
X133549866Y-62759998D03*
X170600000Y-4972207D03*
X119600000Y20900000D03*
X170648134Y-139740002D03*
X165757015Y-124005731D03*
X138441022Y-78494545D03*
X170300000Y-40800000D03*
X165757015Y-99605731D03*
X138441022Y-52494545D03*
X170648134Y-63340002D03*
X170648134Y-76340002D03*
X170600000Y8677000D03*
X163300000Y6975000D03*
X178667725Y13478160D03*
X125817750Y-123600000D03*
X119600000Y26400000D03*
X125817750Y-149600000D03*
X150191299Y14600000D03*
X125817750Y-59900000D03*
X133549866Y-49759998D03*
X180900000Y-5700000D03*
X138441022Y-142194545D03*
X153405000Y1390000D03*
X170648134Y-89340002D03*
X165757015Y-163005731D03*
X150900000Y8627000D03*
X165759300Y-73621647D03*
X178380250Y-92200000D03*
X153275000Y6735000D03*
X178380250Y-129600000D03*
X165757015Y-60605731D03*
X155700000Y20300000D03*
X138441022Y-129194545D03*
X138438755Y-103178718D03*
X133549866Y-75759998D03*
X165757015Y-137005731D03*
X133549866Y-88759998D03*
X125817750Y-136600000D03*
X178380250Y-53200000D03*
X165757015Y-150005731D03*
X170648134Y-113740002D03*
X178380250Y-155600000D03*
X125817750Y-46900000D03*
X168242685Y-9157315D03*
X133549866Y-126459998D03*
X170648134Y-152740002D03*
X125817750Y-85900000D03*
X154500000Y14624000D03*
X170200000Y-104275000D03*
X125817750Y-110600000D03*
X138438755Y-116178718D03*
X133549866Y-139459998D03*
X133898000Y-162000000D03*
X181600000Y1800000D03*
X165757015Y-86605731D03*
X170648134Y-126740002D03*
X133549866Y-152459998D03*
X143600000Y6975000D03*
X138441022Y-65494545D03*
X178380250Y-116600000D03*
X170648134Y-50340002D03*
X138441022Y-39494545D03*
X168400000Y-13500000D03*
X125817750Y-72900000D03*
X151822665Y-2302402D03*
X138600000Y-148900000D03*
X138600000Y-135800000D03*
X151733637Y-1507368D03*
X149000000Y-4000000D03*
X138600000Y-122900000D03*
X145075000Y-3625000D03*
X138600000Y-109900000D03*
X165600000Y-117300000D03*
X160900000Y-4100000D03*
X165600000Y-130300000D03*
X159700000Y-4100000D03*
X155200000Y-656413D03*
X165600000Y-143300000D03*
X154105000Y-1259884D03*
X165600000Y-156300000D03*
X143525000Y-3675000D03*
X138600000Y-85200000D03*
X142579852Y-3725000D03*
X138600000Y-72200000D03*
X136500000Y-62600000D03*
X135275735Y-2875735D03*
X136500000Y-49700000D03*
X133850735Y-4300735D03*
X145100000Y6975000D03*
X144567689Y22150997D03*
X164800000Y6975000D03*
X146100000Y18900000D03*
X145100000Y5400000D03*
X164800000Y5425000D03*
X141200000Y8900000D03*
X160900000Y8900000D03*
X133100000Y-5900000D03*
X134975000Y13000000D03*
X129400000Y-6000000D03*
X117100000Y26400000D03*
X129400000Y8000000D03*
X161100000Y26101000D03*
X118243286Y-9730714D03*
X115426359Y7128359D03*
X114427359Y-9296641D03*
X113926359Y7128359D03*
X117026359Y7128359D03*
X123700000Y4400000D03*
X118954824Y3152879D03*
X118958482Y1153026D03*
X123700000Y2400000D03*
X118953359Y-847187D03*
X123700000Y400000D03*
X118953359Y-2844520D03*
X123700000Y-1600000D03*
X123700000Y-3600000D03*
X118953359Y-4845106D03*
X118962055Y-6846856D03*
X123700000Y-5600000D03*
X118962055Y-8846856D03*
X123700000Y-7600000D03*
X123700000Y-9600000D03*
X118953359Y-10871641D03*
X148400000Y-26400000D03*
X161400000Y-22800000D03*
X121962500Y33500000D03*
X151000000Y24300000D03*
X149300000Y26000000D03*
X151800000Y10277000D03*
X146825000Y8600000D03*
X145300000Y23400000D03*
X152550000Y23850000D03*
X147700000Y26000000D03*
X150821254Y11278000D03*
X160300000Y23300000D03*
X175800000Y-4300000D03*
X147867071Y7645810D03*
X146900000Y26000000D03*
X147800000Y11500000D03*
X148500000Y26000000D03*
X151800000Y11878000D03*
X164322700Y19025830D03*
X170700000Y19025830D03*
X166525000Y8600000D03*
X172800000Y-40800000D03*
X163463909Y22800000D03*
X177399184Y-38036143D03*
X161900000Y23100000D03*
X164496529Y22151998D03*
X149300000Y18800000D03*
X149400000Y21697000D03*
X154325473Y8226000D03*
X165279484Y23151998D03*
X167510298Y7446680D03*
X162700000Y18949937D03*
X171600000Y17700000D03*
X170303000Y18331286D03*
X163500000Y19000000D03*
X133773170Y14326830D03*
X143616689Y23101997D03*
X114064359Y11353359D03*
X139300000Y18900000D03*
X139900000Y18299000D03*
X116064359Y11328359D03*
X116050000Y15750000D03*
X141056760Y26499000D03*
X132300000Y15600000D03*
X142800000Y28300000D03*
X133100000Y-3000000D03*
X146900000Y22800000D03*
X145400000Y18400000D03*
X135006587Y15593413D03*
X143332479Y27702000D03*
X141855525Y26454525D03*
X116925000Y16575000D03*
X118164359Y11353359D03*
X140457597Y17699000D03*
X160200000Y-15050000D03*
X160400000Y-17200000D03*
X180700000Y-46600000D03*
X179949000Y-50124000D03*
X177047638Y-88099999D03*
X160250000Y18050000D03*
X127150362Y-114700001D03*
X127150362Y-64000001D03*
X127150362Y-51000001D03*
X177047638Y-164499999D03*
X177047638Y-138499999D03*
X177047638Y-75099999D03*
X177047638Y-101099999D03*
X177047638Y-62099999D03*
X173100000Y-11200000D03*
X179300000Y3900000D03*
X170700000Y-11200000D03*
X177047638Y-151499999D03*
X177480708Y-5997001D03*
X127150362Y-38000001D03*
X177047638Y-125499999D03*
X127150362Y-140700001D03*
X127150362Y-101700001D03*
X127150362Y-127700001D03*
X127150362Y-77000001D03*
X173100000Y-10000000D03*
X175403079Y-164435596D03*
X128794921Y-38064404D03*
X175403079Y-88035596D03*
X169300001Y-9964155D03*
X128794921Y-64064404D03*
X128794921Y-114764404D03*
X128794921Y-140764404D03*
X175403079Y-151435596D03*
X175403079Y-101035596D03*
X175403079Y-138435596D03*
X179300000Y100000D03*
X158663910Y18800000D03*
X175403079Y-75035596D03*
X175403079Y-125435596D03*
X128794921Y-101764404D03*
X128794921Y-51064404D03*
X128794921Y-77064404D03*
X175403079Y-62035596D03*
X128794921Y-127764404D03*
X176248134Y-151390002D03*
X127949866Y-127809998D03*
X127949866Y-51109998D03*
X176400000Y-5997000D03*
X176248134Y-125390002D03*
X179300000Y7900000D03*
X176248134Y-61990002D03*
X159500000Y18800000D03*
X176248134Y-100990002D03*
X127949866Y-77109998D03*
X127949866Y-114809998D03*
X176248134Y-87990002D03*
X176248134Y-138390002D03*
X176248134Y-74990002D03*
X127949866Y-64109998D03*
X169900000Y-10600000D03*
X127949866Y-101809998D03*
X127949866Y-140809998D03*
X176248134Y-164390002D03*
X173775735Y-10600000D03*
X127949866Y-38109998D03*
X179793108Y-51414105D03*
X178700000Y-46600000D03*
X174156268Y-51750002D03*
X176604217Y-51892726D03*
X179949000Y-63124000D03*
X176700000Y-46600000D03*
X179793108Y-64414105D03*
X174700000Y-46600000D03*
X174156268Y-64750002D03*
X176604217Y-64892726D03*
X179949000Y-76124000D03*
X172700000Y-46600000D03*
X170200000Y-6800000D03*
X162623528Y27875000D03*
X173100000Y-6800000D03*
X170700000Y-46600000D03*
X179793108Y-77414105D03*
X174156268Y-77750002D03*
X176604217Y-77892726D03*
X168700000Y-46600000D03*
X179949000Y-89124000D03*
X179793108Y-90414105D03*
X180900000Y-43795000D03*
X174156268Y-90750002D03*
X176604217Y-90892726D03*
X124249000Y-152676000D03*
X123498000Y-156200000D03*
X125498000Y-156200000D03*
X124404892Y-151385895D03*
X130041732Y-151049998D03*
X127593783Y-137907274D03*
X124249000Y-139676000D03*
X127498000Y-156200000D03*
X129498000Y-156200000D03*
X124404892Y-138385895D03*
X130041732Y-138049998D03*
X127593783Y-150907274D03*
X131498000Y-156200000D03*
X124249000Y-126676000D03*
X124404892Y-125385895D03*
X133498000Y-156200000D03*
X130041732Y-125049998D03*
X127593783Y-111907274D03*
X135498000Y-156200000D03*
X124249000Y-113676000D03*
X124404892Y-112385895D03*
X123298000Y-159100000D03*
X130041732Y-112049998D03*
X176604217Y-128292726D03*
X179949000Y-113524000D03*
X180700000Y-110075000D03*
X178700000Y-110075000D03*
X179793108Y-114814105D03*
X174156268Y-115150002D03*
X176604217Y-115292726D03*
X179949000Y-126524000D03*
X176700000Y-110075000D03*
X174700000Y-110075000D03*
X179793108Y-127814105D03*
X174156268Y-128150002D03*
X176604217Y-154292726D03*
X179949000Y-139524000D03*
X172700000Y-110075000D03*
X179793108Y-140814105D03*
X170700000Y-110075000D03*
X174156268Y-141150002D03*
X176604217Y-141292726D03*
X179949000Y-152524000D03*
X168700000Y-110075000D03*
X180900000Y-107200000D03*
X179793108Y-153814105D03*
X174156268Y-154150002D03*
X127593783Y-124907274D03*
X124249000Y-88976000D03*
X123498000Y-92700000D03*
X125498000Y-92700000D03*
X124404892Y-87685895D03*
X130041732Y-87349998D03*
X127593783Y-74207274D03*
X124249000Y-75976000D03*
X127498000Y-92700000D03*
X124404892Y-74685895D03*
X129498000Y-92700000D03*
X130041732Y-74349998D03*
X127593783Y-87207274D03*
X124249000Y-62976000D03*
X131498000Y-92700000D03*
X133498000Y-92700000D03*
X124404892Y-61685895D03*
X130041732Y-61349998D03*
X127593783Y-48207274D03*
X135498000Y-92700000D03*
X124249000Y-49976000D03*
X124404892Y-48685895D03*
X123298000Y-95600000D03*
X130041732Y-48349998D03*
X127593783Y-61207274D03*
X153400000Y-4190000D03*
X148521496Y21697000D03*
X149996238Y-2396238D03*
X148500000Y18800000D03*
X176600000Y-38000000D03*
X176600000Y-104300000D03*
X179800000Y-104900000D03*
X127598000Y-162000000D03*
X176600000Y-40800000D03*
X182700000Y-4500000D03*
X127598000Y-98500000D03*
X128798000Y-98500000D03*
X128799000Y-162000000D03*
X175400000Y-40800000D03*
X161100000Y19000000D03*
X175300000Y-104300000D03*
X131398000Y-162000000D03*
X180800000Y-102675000D03*
X180800000Y-39200000D03*
X172800000Y-104275000D03*
X131398000Y-98500000D03*
X123398000Y-163600000D03*
X128198000Y-161400000D03*
X177900000Y-104300000D03*
X176000000Y-41401000D03*
X162724585Y16299000D03*
X180500000Y-104300000D03*
X179300000Y11900000D03*
X126298000Y-98500000D03*
X174400000Y-104300000D03*
X156000000Y-4190000D03*
X145149001Y4462889D03*
X169900000Y-49590002D03*
X175756274Y-51750002D03*
X175756274Y-64750002D03*
X171348134Y-62600000D03*
X169948134Y-62590002D03*
X143951128Y4362666D03*
X175756274Y-77750002D03*
X171348134Y-75642825D03*
X142500000Y4100000D03*
X169948134Y-75590002D03*
X175756274Y-90750002D03*
X128441726Y-151049998D03*
X169948134Y-88590002D03*
X149800000Y-600000D03*
X128441726Y-138049998D03*
X134249866Y-153209998D03*
X152100000Y-7600000D03*
X128441726Y-125049998D03*
X134249866Y-140209998D03*
X150900000Y-7600000D03*
X128441726Y-112049998D03*
X175756274Y-115150002D03*
X134249866Y-127209998D03*
X149600000Y-7600000D03*
X175756274Y-128150002D03*
X175756274Y-141150002D03*
X134249866Y-114209998D03*
X148400000Y-7600000D03*
X175756274Y-154150002D03*
X149627300Y1025000D03*
X169900000Y-112990002D03*
X128441726Y-87349998D03*
X128441726Y-74349998D03*
X128441726Y-61349998D03*
X150474000Y1025000D03*
X169948134Y-125990002D03*
X128441726Y-48349998D03*
X169948134Y-138990002D03*
X150430413Y-56413D03*
X169948134Y-151990002D03*
X151125000Y-988172D03*
X147100000Y-7600000D03*
X134400000Y-89600000D03*
X134249866Y-76500000D03*
X145800000Y-7600000D03*
X144589118Y-7631519D03*
X134249866Y-63500000D03*
X134249866Y-50476274D03*
X143300000Y-7600000D03*
X132849866Y-50460220D03*
X123398000Y-100100000D03*
X123700000Y6400000D03*
X115002359Y-10501109D03*
X123700000Y8400000D03*
X115353565Y-8847178D03*
X123700000Y10400000D03*
X115362055Y-6846856D03*
X115353359Y-4845106D03*
X123700000Y12400000D03*
X123700000Y14400000D03*
X115353359Y-2847187D03*
X123700000Y16400000D03*
X115353359Y-847187D03*
X123700000Y18400000D03*
X115353359Y1154894D03*
X127328288Y15600000D03*
X115353359Y3152813D03*
X123700000Y20400000D03*
X177050000Y-60150000D03*
X176249997Y-60150000D03*
X175449994Y-60150000D03*
X177050000Y-73150000D03*
X176249997Y-73150000D03*
X175449994Y-73150000D03*
X176249997Y-86150000D03*
X175449994Y-86150000D03*
X177050000Y-86150000D03*
X176249997Y-99150000D03*
X177050000Y-99150000D03*
X175449994Y-99150000D03*
X127148000Y-142650000D03*
X128748006Y-142650000D03*
X127948003Y-142650000D03*
X127948003Y-129650000D03*
X128748006Y-129650000D03*
X127148000Y-129650000D03*
X128748006Y-116650000D03*
X127948003Y-116650000D03*
X127148000Y-116650000D03*
X128748006Y-103650000D03*
X127948003Y-103650000D03*
X127148000Y-103650000D03*
X175449994Y-123550000D03*
X177050000Y-123550000D03*
X176249997Y-123550000D03*
X176249997Y-136550000D03*
X175449994Y-136550000D03*
X177050000Y-136550000D03*
X177050000Y-149550000D03*
X175449994Y-149550000D03*
X176249997Y-149550000D03*
X175449994Y-162550000D03*
X177050000Y-162550000D03*
X176249997Y-162550000D03*
X127148000Y-78950000D03*
X127948003Y-78950000D03*
X128748006Y-78950000D03*
X127148000Y-65950000D03*
X127948003Y-65950000D03*
X128748006Y-65950000D03*
X127148000Y-52950000D03*
X127948003Y-52950000D03*
X128748006Y-52950000D03*
X128748006Y-39950000D03*
X127148000Y-39950000D03*
X127948003Y-39950000D03*
X174956271Y-51750002D03*
X174956271Y-64750002D03*
X174956271Y-77750002D03*
X174956271Y-90750002D03*
X129241729Y-151049998D03*
X129241729Y-138049998D03*
X129241729Y-125049998D03*
X174956271Y-115150002D03*
X174956271Y-128150002D03*
X174956271Y-141150002D03*
X174956271Y-154150002D03*
X129241729Y-112049998D03*
X129241729Y-87349998D03*
X129241729Y-74349998D03*
X129241729Y-61349998D03*
X129241729Y-48349998D03*
X165700000Y-59700000D03*
X165737087Y-72789061D03*
X165765310Y-85805773D03*
X165765312Y-98805772D03*
X165765310Y-123205774D03*
X165765312Y-136205772D03*
X165765312Y-149205772D03*
X165765312Y-162205772D03*
X138432745Y-129994504D03*
X138432745Y-142994503D03*
X138463128Y-104011170D03*
X138429439Y-116978666D03*
X138432745Y-79294504D03*
X138432745Y-66294503D03*
X138432745Y-53294503D03*
X138432745Y-40294503D03*
D20*
X159600000Y-23400000D02*
X159599000Y-23399000D01*
X159599000Y-23399000D02*
X159599000Y-14101000D01*
X159600000Y-24400000D02*
X159600000Y-23400000D01*
X159600000Y-14100000D02*
X159600000Y-13900000D01*
X159599000Y-14101000D02*
X159600000Y-14100000D01*
X168999000Y-36168100D02*
X169001000Y-36166100D01*
X169001000Y-33692100D02*
X167299000Y-31990100D01*
X165798000Y-45326379D02*
X168999000Y-42125378D01*
X168999000Y-42125378D02*
X168999000Y-36168100D01*
X166500000Y-8867100D02*
X166500000Y-4600000D01*
X167299000Y-9666100D02*
X166500000Y-8867100D01*
X165798000Y-47784748D02*
X165798000Y-45326379D01*
X168203254Y-50190002D02*
X165798000Y-47784748D01*
X167299000Y-31990100D02*
X167299000Y-9666100D01*
X169001000Y-36166100D02*
X169001000Y-33692100D01*
X166240800Y-32100000D02*
X166240800Y-21077400D01*
X164996000Y-44994179D02*
X168197000Y-41793178D01*
X168197000Y-34056200D02*
X166240800Y-32100000D01*
X165399000Y-20235600D02*
X165399000Y-4699000D01*
X167399000Y-52975040D02*
X167399000Y-50816100D01*
X168200000Y-63449998D02*
X168799000Y-62850998D01*
X168799000Y-54375040D02*
X167399000Y-52975040D01*
X164996000Y-48413100D02*
X164996000Y-44994179D01*
X168197000Y-41793178D02*
X168197000Y-34056200D01*
X168799000Y-62850998D02*
X168799000Y-54375040D01*
X165399000Y-4699000D02*
X165300000Y-4600000D01*
X167399000Y-50816100D02*
X164996000Y-48413100D01*
X166240800Y-21077400D02*
X165399000Y-20235600D01*
X166597000Y-51148300D02*
X164194000Y-48745300D01*
X164597000Y-20567800D02*
X164597000Y-9714043D01*
X167198000Y-65765100D02*
X167198000Y-63034955D01*
X168200000Y-74408968D02*
X168199000Y-74407968D01*
X168199000Y-74407968D02*
X168199000Y-66766100D01*
X166597000Y-53307240D02*
X166597000Y-51148300D01*
X167916478Y-54626718D02*
X166597000Y-53307240D01*
X167395000Y-34424000D02*
X165438800Y-32467800D01*
X164194000Y-44661979D02*
X167395000Y-41460979D01*
X165438800Y-32467800D02*
X165438800Y-21409600D01*
X167198000Y-63034955D02*
X167916478Y-62316477D01*
X167395000Y-41460979D02*
X167395000Y-34424000D01*
X168200000Y-76449998D02*
X168200000Y-74408968D01*
X167916478Y-62316477D02*
X167916478Y-54626718D01*
X168199000Y-66766100D02*
X167198000Y-65765100D01*
X165438800Y-21409600D02*
X164597000Y-20567800D01*
X164194000Y-48745300D02*
X164194000Y-44661979D01*
X164597000Y-9714043D02*
X163399000Y-8516043D01*
X163399000Y-8516043D02*
X163399000Y-4126000D01*
X166593000Y-34756200D02*
X164636800Y-32800000D01*
X165099000Y-61405755D02*
X165099000Y-50784500D01*
X162199000Y-4100000D02*
X162199000Y-8470100D01*
X166593000Y-41128778D02*
X166593000Y-35900000D01*
X167198000Y-66899300D02*
X166396000Y-66097300D01*
X163392000Y-49077500D02*
X163392000Y-44329779D01*
X163795000Y-10066100D02*
X163795000Y-20900000D01*
X167198000Y-88298000D02*
X167198000Y-66899300D01*
X162199000Y-8470100D02*
X163795000Y-10066100D01*
X164636800Y-21741800D02*
X164636800Y-32800000D01*
X166396000Y-62702755D02*
X165099000Y-61405755D01*
X166593000Y-35900000D02*
X166593000Y-34756200D01*
X165099000Y-50784500D02*
X163392000Y-49077500D01*
X163392000Y-44329779D02*
X166593000Y-41128778D01*
X166396000Y-66097300D02*
X166396000Y-62702755D01*
X168200000Y-89300000D02*
X167198000Y-88298000D01*
X163795000Y-20900000D02*
X164636800Y-21741800D01*
D21*
X141799000Y27501000D02*
X144599000Y24701000D01*
X133549866Y-139459998D02*
X133549866Y-140800000D01*
X170648134Y-101000000D02*
X170648134Y-102343346D01*
X150191299Y14600000D02*
X153300000Y14600000D01*
D20*
X131396142Y-60606274D02*
X133549866Y-62759998D01*
D21*
X133549866Y-140800000D02*
X133549866Y-152459998D01*
X166797000Y-110864663D02*
X166797000Y-109260280D01*
D20*
X138438755Y-116178718D02*
X138438755Y-115390812D01*
X138441022Y-142194545D02*
X138441022Y-141393079D01*
D21*
X133549866Y-152459998D02*
X133549866Y-153651866D01*
D20*
X166350057Y-101000000D02*
X170648134Y-101000000D01*
X133560864Y-114810998D02*
X133549866Y-114800000D01*
X138438755Y-115390812D02*
X137858941Y-114810998D01*
D21*
X170648134Y-138400000D02*
X170648134Y-126740002D01*
X166200000Y-164500000D02*
X165900000Y-164500000D01*
X133549866Y-49759998D02*
X133549866Y-62759998D01*
X170300000Y-42200000D02*
X170300000Y-40800000D01*
D20*
X153275000Y14575000D02*
X153300000Y14600000D01*
X165757015Y-137005731D02*
X165757015Y-137806958D01*
D21*
X170008075Y-112100000D02*
X168000000Y-112100000D01*
D20*
X137896943Y-77149000D02*
X133598866Y-77149000D01*
X170637136Y-151389002D02*
X170648134Y-151400000D01*
D21*
X147408636Y20300000D02*
X155700000Y20300000D01*
D20*
X178380250Y-142600000D02*
X177673976Y-141893726D01*
D21*
X133549866Y-153651866D02*
X133995000Y-154097000D01*
D20*
X166339059Y-151389002D02*
X170637136Y-151389002D01*
D21*
X133549866Y-62759998D02*
X133549866Y-64100000D01*
X170300000Y-102691480D02*
X170300000Y-102700000D01*
D20*
X178380250Y-155600000D02*
X177673976Y-154893726D01*
X166339059Y-138389002D02*
X170637136Y-138389002D01*
X137896943Y-140849000D02*
X133598866Y-140849000D01*
X133600866Y-101849000D02*
X133549866Y-101900000D01*
D21*
X144599000Y23109636D02*
X147408636Y20300000D01*
X133549866Y-38034998D02*
X133609896Y-37974968D01*
D20*
X170597134Y-125351000D02*
X170648134Y-125300000D01*
X178380250Y-129600000D02*
X177673976Y-128893726D01*
D21*
X175401160Y13478160D02*
X170600000Y8677000D01*
X119600000Y26400000D02*
X120700000Y27500000D01*
X170648134Y-125300000D02*
X170648134Y-126740002D01*
X133549866Y-64100000D02*
X133549866Y-75759998D01*
D20*
X138438755Y-102390812D02*
X137896943Y-101849000D01*
D21*
X144599000Y24701000D02*
X144599000Y23109636D01*
X133900000Y-161998000D02*
X133898000Y-162000000D01*
X170648134Y-139740002D02*
X170648134Y-138400000D01*
D20*
X131396142Y-47606274D02*
X133549866Y-49759998D01*
X177673976Y-52493726D02*
X172801858Y-52493726D01*
D21*
X181600000Y-5000000D02*
X181600000Y1800000D01*
D20*
X133598866Y-77149000D02*
X133549866Y-77100000D01*
D21*
X166797000Y-109260280D02*
X166800000Y-109257279D01*
X170648134Y-76340002D02*
X170648134Y-89340002D01*
D20*
X138441022Y-65494545D02*
X138441022Y-64693079D01*
D21*
X170648134Y-92000000D02*
X170648134Y-101000000D01*
D20*
X172801858Y-91493726D02*
X170648134Y-89340002D01*
D21*
X166200000Y-164500000D02*
X136398000Y-164500000D01*
X133900000Y-160540720D02*
X133900000Y-161998000D01*
X168200000Y-48800000D02*
X166700000Y-47300000D01*
D20*
X165757015Y-86605731D02*
X165757015Y-89859015D01*
X126524024Y-47606274D02*
X131396142Y-47606274D01*
D21*
X133995000Y-154097000D02*
X136087663Y-154097000D01*
D20*
X172801858Y-128893726D02*
X170648134Y-126740002D01*
X172801858Y-65493726D02*
X170648134Y-63340002D01*
X177673976Y-91493726D02*
X172801858Y-91493726D01*
D21*
X170200000Y-102800000D02*
X170200000Y-104275000D01*
X133549866Y-114800000D02*
X133549866Y-126459998D01*
X170648134Y-152740002D02*
X170648134Y-163751866D01*
D20*
X138441022Y-141393079D02*
X137896943Y-140849000D01*
D21*
X166700000Y-47300000D02*
X166700000Y-45800000D01*
D20*
X165757015Y-124806958D02*
X166301057Y-125351000D01*
D21*
X168000000Y-112100000D02*
X166800000Y-110900000D01*
D20*
X125817750Y-72900000D02*
X126524024Y-73606274D01*
D21*
X133549866Y-127900000D02*
X133549866Y-139459998D01*
D20*
X177673976Y-141893726D02*
X172801858Y-141893726D01*
X126524024Y-150306274D02*
X131396142Y-150306274D01*
D21*
X137695981Y-93714852D02*
X137695981Y-91641283D01*
X134148504Y-90400000D02*
X133549866Y-89801362D01*
X170648134Y-63340002D02*
X170648134Y-76340002D01*
D20*
X165757015Y-124005731D02*
X165757015Y-124806958D01*
X177673976Y-154893726D02*
X172801858Y-154893726D01*
X125817750Y-59900000D02*
X126524024Y-60606274D01*
X138438755Y-103178718D02*
X138438755Y-102390812D01*
D21*
X133549866Y-113459998D02*
X133549866Y-114800000D01*
X166800000Y-110900000D02*
X166800000Y-110867664D01*
D20*
X165757015Y-137806958D02*
X166339059Y-138389002D01*
D21*
X133998000Y-97412833D02*
X137695981Y-93714852D01*
D20*
X125817750Y-46900000D02*
X126524024Y-47606274D01*
D21*
X120700000Y27500000D02*
X141798000Y27500000D01*
X137695981Y-91641283D02*
X136454698Y-90400000D01*
X170108075Y-48800000D02*
X168200000Y-48800000D01*
D20*
X138441022Y-128393079D02*
X137896943Y-127849000D01*
X133598866Y-140849000D02*
X133549866Y-140800000D01*
X126524024Y-60606274D02*
X131396142Y-60606274D01*
D21*
X141798000Y27500000D02*
X141799000Y27501000D01*
D20*
X131396142Y-137306274D02*
X133549866Y-139459998D01*
X126524024Y-111306274D02*
X131396142Y-111306274D01*
D21*
X170648134Y-113740002D02*
X170648134Y-112740059D01*
X170200000Y-105857280D02*
X170200000Y-104275000D01*
X133549866Y-88759998D02*
X133549866Y-89759941D01*
D20*
X131396142Y-124306274D02*
X133549866Y-126459998D01*
D21*
X170300000Y-33300000D02*
X168400000Y-31400000D01*
D20*
X131396142Y-73606274D02*
X133549866Y-75759998D01*
X172801858Y-154893726D02*
X170648134Y-152740002D01*
D21*
X170300000Y-102700000D02*
X170200000Y-102800000D01*
X153300000Y14600000D02*
X154476000Y14600000D01*
D20*
X178380250Y-66200000D02*
X177673976Y-65493726D01*
X178380250Y-116600000D02*
X177673976Y-115893726D01*
D21*
X170648134Y-50340002D02*
X170648134Y-49340059D01*
D20*
X177673976Y-65493726D02*
X172801858Y-65493726D01*
X131396142Y-150306274D02*
X133549866Y-152459998D01*
D21*
X170648134Y-89340002D02*
X170648134Y-92000000D01*
D20*
X165757015Y-164357015D02*
X165900000Y-164500000D01*
X133560864Y-64110998D02*
X133549866Y-64100000D01*
X177673976Y-115893726D02*
X172801858Y-115893726D01*
D21*
X133549866Y-99350134D02*
X133998000Y-98902000D01*
X133549866Y-49759998D02*
X133549866Y-38034998D01*
X180900000Y-5700000D02*
X181600000Y-5000000D01*
D20*
X178380250Y-92200000D02*
X177673976Y-91493726D01*
X131396142Y-86606274D02*
X133549866Y-88759998D01*
D21*
X170648134Y-151400000D02*
X170648134Y-139740002D01*
X170648134Y-49340059D02*
X170108075Y-48800000D01*
X133549866Y-75759998D02*
X133549866Y-77100000D01*
X153275000Y6735000D02*
X153275000Y14575000D01*
X170648134Y-163751866D02*
X169900000Y-164500000D01*
X170648134Y-102343346D02*
X170300000Y-102691480D01*
D20*
X133600866Y-127849000D02*
X133549866Y-127900000D01*
X172801858Y-141893726D02*
X170648134Y-139740002D01*
X165757015Y-163005731D02*
X165757015Y-164357015D01*
D21*
X169900000Y-164500000D02*
X166200000Y-164500000D01*
X133549866Y-113459998D02*
X133549866Y-101900000D01*
X137402000Y-155411337D02*
X137402000Y-157038720D01*
X166700000Y-45800000D02*
X170300000Y-42200000D01*
D20*
X178380250Y-53200000D02*
X177673976Y-52493726D01*
X126524024Y-137306274D02*
X131396142Y-137306274D01*
X170637136Y-138389002D02*
X170648134Y-138400000D01*
D21*
X170648134Y-50340002D02*
X170648134Y-61900000D01*
D20*
X165757015Y-89859015D02*
X167898000Y-92000000D01*
D21*
X133549866Y-77100000D02*
X133549866Y-88759998D01*
D20*
X131396142Y-111306274D02*
X133549866Y-113459998D01*
X138441022Y-78494545D02*
X138441022Y-77693079D01*
D21*
X166800000Y-109257279D02*
X170200000Y-105857280D01*
X170648134Y-112740059D02*
X170008075Y-112100000D01*
X119600000Y26400000D02*
X119600000Y20900000D01*
X136087663Y-154097000D02*
X137402000Y-155411337D01*
X136454698Y-90400000D02*
X134148504Y-90400000D01*
X168400000Y-31400000D02*
X168400000Y-13500000D01*
X170648134Y-152740002D02*
X170648134Y-151400000D01*
D20*
X138441022Y-64693079D02*
X137858941Y-64110998D01*
X165757015Y-150005731D02*
X165757015Y-150806958D01*
X125817750Y-85900000D02*
X126524024Y-86606274D01*
D21*
X133998000Y-98500000D02*
X133998000Y-97412833D01*
D20*
X138441022Y-77693079D02*
X137896943Y-77149000D01*
D21*
X166800000Y-110867664D02*
X166797000Y-110864663D01*
X178667725Y13478160D02*
X175401160Y13478160D01*
D20*
X167898000Y-92000000D02*
X170648134Y-92000000D01*
X165757015Y-100406958D02*
X166350057Y-101000000D01*
D21*
X170648134Y-113740002D02*
X170648134Y-125300000D01*
D20*
X166301057Y-125351000D02*
X170597134Y-125351000D01*
X125817750Y-136600000D02*
X126524024Y-137306274D01*
X125817750Y-123600000D02*
X126524024Y-124306274D01*
X126524024Y-86606274D02*
X131396142Y-86606274D01*
X172801858Y-52493726D02*
X170648134Y-50340002D01*
X172801858Y-115893726D02*
X170648134Y-113740002D01*
X137896943Y-101849000D02*
X133600866Y-101849000D01*
D21*
X170300000Y-40800000D02*
X170300000Y-33300000D01*
D20*
X165757015Y-150806958D02*
X166339059Y-151389002D01*
D21*
X133998000Y-98902000D02*
X133998000Y-98500000D01*
D20*
X172801858Y-78493726D02*
X170648134Y-76340002D01*
X137858941Y-64110998D02*
X133560864Y-64110998D01*
D21*
X136398000Y-164500000D02*
X133898000Y-162000000D01*
D20*
X177673976Y-128893726D02*
X172801858Y-128893726D01*
X125817750Y-149600000D02*
X126524024Y-150306274D01*
X177673976Y-78493726D02*
X172801858Y-78493726D01*
D21*
X170648134Y-61900000D02*
X170648134Y-63340002D01*
D20*
X137858941Y-114810998D02*
X133560864Y-114810998D01*
D21*
X133549866Y-126459998D02*
X133549866Y-127900000D01*
D22*
X170600000Y8677000D02*
X170600000Y-4972207D01*
D20*
X154476000Y14600000D02*
X154500000Y14624000D01*
X138441022Y-129194545D02*
X138441022Y-128393079D01*
X137896943Y-127849000D02*
X133600866Y-127849000D01*
X126524024Y-124306274D02*
X131396142Y-124306274D01*
X126524024Y-73606274D02*
X131396142Y-73606274D01*
X178380250Y-79200000D02*
X177673976Y-78493726D01*
X125817750Y-110600000D02*
X126524024Y-111306274D01*
X165757015Y-99605731D02*
X165757015Y-100406958D01*
D21*
X133549866Y-101900000D02*
X133549866Y-99350134D01*
X137402000Y-157038720D02*
X133900000Y-160540720D01*
D20*
X146364000Y-32536000D02*
X143304000Y-35596000D01*
X151500000Y-2625067D02*
X151500000Y-12432900D01*
X143304000Y-35596000D02*
X143304000Y-45400000D01*
X151822665Y-2302402D02*
X151500000Y-2625067D01*
X151500000Y-12432900D02*
X146364000Y-17568900D01*
X144107000Y-46203000D02*
X144107000Y-143393000D01*
X144107000Y-143393000D02*
X138600000Y-148900000D01*
X143304000Y-45400000D02*
X144107000Y-46203000D01*
X146364000Y-17568900D02*
X146364000Y-32536000D01*
X145562000Y-17236700D02*
X150200000Y-12598700D01*
X150200000Y-12598700D02*
X150200000Y-7849943D01*
X150201000Y-7848943D02*
X150201000Y-7351057D01*
X143305000Y-46536900D02*
X142502000Y-45733900D01*
X145562000Y-32172200D02*
X145562000Y-17236700D01*
X150200000Y-7350057D02*
X150200000Y-3041005D01*
X138600000Y-135800000D02*
X143305000Y-131095000D01*
X150200000Y-3041005D02*
X151733637Y-1507368D01*
X143305000Y-131095000D02*
X143305000Y-46536900D01*
X142502000Y-45733900D02*
X142502000Y-35232200D01*
X142502000Y-35232200D02*
X145562000Y-32172200D01*
X150201000Y-7351057D02*
X150200000Y-7350057D01*
X150200000Y-7849943D02*
X150201000Y-7848943D01*
X138600000Y-122900000D02*
X142503000Y-118997000D01*
X144760000Y-16840000D02*
X149000000Y-12600000D01*
X141700000Y-46100000D02*
X141700000Y-34900000D01*
X149000000Y-12600000D02*
X149000000Y-4000000D01*
X142503000Y-118997000D02*
X142503000Y-46903000D01*
X141700000Y-34900000D02*
X144760000Y-31840000D01*
X144760000Y-31840000D02*
X144760000Y-16840000D01*
X142503000Y-46903000D02*
X141700000Y-46100000D01*
X147800000Y-12665800D02*
X147800000Y-6350000D01*
X141701000Y-106799000D02*
X141701000Y-47264200D01*
X147800000Y-6350000D02*
X145075000Y-3625000D01*
X141701000Y-47264200D02*
X139902000Y-45465200D01*
X138600000Y-109900000D02*
X141701000Y-106799000D01*
X139902000Y-35534800D02*
X143958000Y-31478800D01*
X143958000Y-31478800D02*
X143958000Y-16507800D01*
X139902000Y-45465200D02*
X139902000Y-35534800D01*
X143958000Y-16507800D02*
X147800000Y-12665800D01*
X165600000Y-110975620D02*
X164297000Y-109672620D01*
X162993000Y-12010043D02*
X160900000Y-9917043D01*
X164297000Y-109672620D02*
X164297000Y-51116700D01*
X165600000Y-117300000D02*
X165600000Y-110975620D01*
X163804000Y-22085657D02*
X162993000Y-21274657D01*
X160900000Y-9917043D02*
X160900000Y-4100000D01*
X162993000Y-21274657D02*
X162993000Y-12010043D01*
X165791000Y-35088400D02*
X163804000Y-33101400D01*
X162590000Y-43997579D02*
X165791000Y-40796579D01*
X162590000Y-49409700D02*
X162590000Y-43997579D01*
X165791000Y-40796579D02*
X165791000Y-35088400D01*
X163804000Y-33101400D02*
X163804000Y-22085657D01*
X164297000Y-51116700D02*
X162590000Y-49409700D01*
X162499000Y-50495000D02*
X162499000Y-111531900D01*
X164201000Y-128901000D02*
X165600000Y-130300000D01*
X161788000Y-49784000D02*
X162499000Y-50495000D01*
X163002000Y-22417857D02*
X163002000Y-33433600D01*
X164989000Y-35420600D02*
X164989000Y-40464379D01*
X159700000Y-4100000D02*
X159700000Y-9851243D01*
X163002000Y-33433600D02*
X164989000Y-35420600D01*
X164989000Y-40464379D02*
X161788000Y-43665379D01*
X162191000Y-12342243D02*
X162191000Y-21606857D01*
X162499000Y-111531900D02*
X164201000Y-113233900D01*
X159700000Y-9851243D02*
X162191000Y-12342243D01*
X164201000Y-113233900D02*
X164201000Y-128901000D01*
X161788000Y-43665379D02*
X161788000Y-49784000D01*
X162191000Y-21606857D02*
X163002000Y-22417857D01*
X158699000Y-4155413D02*
X155200000Y-656413D01*
X161389000Y-21939057D02*
X161389000Y-12674443D01*
X160986000Y-50116200D02*
X160986000Y-43333179D01*
X164187000Y-35752800D02*
X162200000Y-33765800D01*
X160986000Y-43333179D02*
X164187000Y-40132179D01*
X164187000Y-40132179D02*
X164187000Y-35752800D01*
X158699000Y-9984443D02*
X158699000Y-4155413D01*
X161389000Y-12674443D02*
X158699000Y-9984443D01*
X162200000Y-22750057D02*
X161389000Y-21939057D01*
X161697000Y-50827200D02*
X160986000Y-50116200D01*
X162200000Y-33765800D02*
X162200000Y-22750057D01*
X165600000Y-143300000D02*
X161697000Y-139397000D01*
X161697000Y-139397000D02*
X161697000Y-50827200D01*
X160184000Y-43000979D02*
X163385000Y-39799979D01*
X163385000Y-36085000D02*
X158522729Y-31222729D01*
X160895000Y-151595000D02*
X160895000Y-51159400D01*
X160184000Y-50448400D02*
X160184000Y-43000979D01*
X158522729Y-10942371D02*
X157896999Y-10316643D01*
X165600000Y-156300000D02*
X160895000Y-151595000D01*
X157896999Y-10316643D02*
X157897000Y-5051884D01*
X160895000Y-51159400D02*
X160184000Y-50448400D01*
X157897000Y-5051884D02*
X154105000Y-1259884D01*
X163385000Y-39799979D02*
X163385000Y-36085000D01*
X158522729Y-31222729D02*
X158522729Y-10942371D01*
X143156000Y-16175600D02*
X146499000Y-12832600D01*
X139100000Y-45797400D02*
X139100000Y-35202600D01*
X138600000Y-85200000D02*
X139901000Y-83899000D01*
X143156000Y-31146600D02*
X143156000Y-16175600D01*
X139901000Y-46598400D02*
X139100000Y-45797400D01*
X146499000Y-12832600D02*
X146499000Y-6649000D01*
X146499000Y-6649000D02*
X143525000Y-3675000D01*
X139100000Y-35202600D02*
X143156000Y-31146600D01*
X139901000Y-83899000D02*
X139901000Y-46598400D01*
X145200000Y-6345148D02*
X145200000Y-12997400D01*
X136604000Y-44435600D02*
X136604000Y-36564400D01*
X138600000Y-72200000D02*
X139042022Y-71757978D01*
X145200000Y-12997400D02*
X145198700Y-12998700D01*
X142579852Y-3725000D02*
X145200000Y-6345148D01*
X136604000Y-36564400D02*
X142354000Y-30814400D01*
X139042022Y-46873622D02*
X136604000Y-44435600D01*
X142354000Y-15843400D02*
X145198700Y-12998700D01*
X142354000Y-30814400D02*
X142354000Y-15843400D01*
X139042022Y-71757978D02*
X139042022Y-46873622D01*
X135802000Y-36232200D02*
X135802000Y-44767800D01*
X141375000Y-3900000D02*
X143988118Y-6513118D01*
X135802000Y-44767800D02*
X137502000Y-46467800D01*
X141552000Y-30482200D02*
X135802000Y-36232200D01*
X137502000Y-46467800D02*
X137502000Y-50115043D01*
X136500000Y-51117043D02*
X136500000Y-62600000D01*
X135275735Y-2875735D02*
X136300000Y-3900000D01*
X143988118Y-6513118D02*
X143988118Y-13075082D01*
X143988118Y-13075082D02*
X141552000Y-15511200D01*
X137502000Y-50115043D02*
X136500000Y-51117043D01*
X141552000Y-15511200D02*
X141552000Y-30482200D01*
X136300000Y-3900000D02*
X141375000Y-3900000D01*
X133850735Y-4300735D02*
X140475735Y-4300735D01*
X140750000Y-30150000D02*
X135000000Y-35900000D01*
X142700000Y-6525000D02*
X142700000Y-13229000D01*
X135000000Y-35900000D02*
X135000000Y-45100000D01*
X140750000Y-15179000D02*
X140750000Y-30150000D01*
X135000000Y-45100000D02*
X136500000Y-46600000D01*
X140475735Y-4300735D02*
X142700000Y-6525000D01*
X142700000Y-13229000D02*
X140750000Y-15179000D01*
X136500000Y-46600000D02*
X136500000Y-49700000D01*
X156550000Y15225000D02*
X154748943Y15225000D01*
X145100000Y6975000D02*
X145100000Y17250000D01*
X150572943Y19401000D02*
X146601000Y19401000D01*
X146601000Y19401000D02*
X146100000Y18900000D01*
X154748943Y15225000D02*
X150572943Y19401000D01*
X144567689Y22150997D02*
X146100000Y20618686D01*
X146100000Y20618686D02*
X146100000Y18900000D01*
X164800000Y6975000D02*
X156550000Y15225000D01*
X145100000Y17250000D02*
X146100000Y18250000D01*
X146100000Y18250000D02*
X146100000Y18900000D01*
X132458762Y28000000D02*
X137958762Y33500000D01*
X129975000Y8000000D02*
X134975000Y13000000D01*
X147443300Y33400000D02*
X147840000Y33003300D01*
X129400000Y8000000D02*
X129975000Y8000000D01*
X118700000Y28000000D02*
X132458762Y28000000D01*
X117100000Y26400000D02*
X118700000Y28000000D01*
X137958762Y33500000D02*
X147736600Y33500000D01*
D23*
X118243286Y-9730714D02*
X118184213Y-9671641D01*
X114763771Y-11077109D02*
X116896891Y-11077109D01*
X114427359Y-10740697D02*
X114763771Y-11077109D01*
X114427359Y-9296641D02*
X114427359Y-10740697D01*
X116896891Y-11077109D02*
X118243286Y-9730714D01*
X123700000Y4400000D02*
X120201945Y4400000D01*
X120201945Y4400000D02*
X118954824Y3152879D01*
X120205456Y2400000D02*
X123700000Y2400000D01*
X118958482Y1153026D02*
X120205456Y2400000D01*
X120200546Y400000D02*
X118953359Y-847187D01*
X123700000Y400000D02*
X120200546Y400000D01*
X118953359Y-2844520D02*
X120197879Y-1600000D01*
X120197879Y-1600000D02*
X123700000Y-1600000D01*
D20*
X120198465Y-3600000D02*
X118953359Y-4845106D01*
X123700000Y-3600000D02*
X120198465Y-3600000D01*
D23*
X118962055Y-6846856D02*
X120208911Y-5600000D01*
X120208911Y-5600000D02*
X123700000Y-5600000D01*
D20*
X123700000Y-7600000D02*
X120208911Y-7600000D01*
D23*
X118962055Y-8846856D02*
X119251144Y-8846856D01*
D20*
X120208911Y-7600000D02*
X118962055Y-8846856D01*
D23*
X118953359Y-10871641D02*
X120225000Y-9600000D01*
X118953359Y-10871641D02*
X119226359Y-10871641D01*
X120225000Y-9600000D02*
X123700000Y-9600000D01*
D20*
X151000000Y24300000D02*
X151800000Y25100000D01*
X172300000Y32386700D02*
X173416600Y33503300D01*
X166987200Y25101000D02*
X172300000Y30413800D01*
X153233900Y25101000D02*
X166987200Y25101000D01*
X172300000Y30413800D02*
X172300000Y32386700D01*
X153232900Y25100000D02*
X153233900Y25101000D01*
X151800000Y25100000D02*
X153232900Y25100000D01*
X149300000Y26000000D02*
X159900000Y26000000D01*
X162497000Y28597000D02*
X167897000Y28597000D01*
X167897000Y28597000D02*
X169700000Y30400000D01*
X159900000Y26000000D02*
X162497000Y28597000D01*
X169700000Y30400000D02*
X169700000Y32326700D01*
X169700000Y32326700D02*
X170876600Y33503300D01*
X146500000Y22200000D02*
X145300000Y23400000D01*
X148174553Y22200000D02*
X146500000Y22200000D01*
X149075553Y23101000D02*
X148174553Y22200000D01*
X151801000Y23101000D02*
X149075553Y23101000D01*
X152550000Y23850000D02*
X153400000Y24700000D01*
X153400000Y24700000D02*
X167153300Y24700000D01*
X167153300Y24700000D02*
X173416600Y30963300D01*
X152550000Y23850000D02*
X151801000Y23101000D01*
X159899000Y26599000D02*
X164263300Y30963300D01*
X148748943Y26601000D02*
X148750943Y26599000D01*
X149051057Y26601000D02*
X149548943Y26601000D01*
X147700000Y26000000D02*
X147700000Y26049943D01*
X148750943Y26599000D02*
X149049057Y26599000D01*
X149550943Y26599000D02*
X159899000Y26599000D01*
X149548943Y26601000D02*
X149550943Y26599000D01*
X147700000Y26049943D02*
X148251057Y26601000D01*
X148251057Y26601000D02*
X148748943Y26601000D01*
X149049057Y26599000D02*
X149051057Y26601000D01*
X164263300Y30963300D02*
X168336600Y30963300D01*
X185667100Y15900000D02*
X187640000Y15900000D01*
X160300000Y18950057D02*
X162351057Y16899000D01*
X179150000Y10901000D02*
X180000000Y11751000D01*
X180000000Y11751000D02*
X180000000Y13850000D01*
X187640000Y15900000D02*
X189000000Y17260000D01*
X177950000Y15898000D02*
X179250000Y15898000D01*
X177401000Y10901000D02*
X179150000Y10901000D01*
X181600000Y15898000D02*
X185665100Y15898000D01*
X180000000Y13850000D02*
X177952000Y15898000D01*
X177952000Y15898000D02*
X177950000Y15898000D01*
X180000000Y15898000D02*
X181600000Y15898000D01*
X162351057Y16899000D02*
X170733900Y16899000D01*
X171734900Y15898000D02*
X177950000Y15898000D01*
X160300000Y23300000D02*
X160300000Y18950057D01*
X170733900Y16899000D02*
X171734900Y15898000D01*
X175800000Y9300000D02*
X177401000Y10901000D01*
X179250000Y15898000D02*
X180000000Y15898000D01*
X175800000Y-4300000D02*
X175800000Y9300000D01*
X185665100Y15898000D02*
X185667100Y15900000D01*
X159700000Y27000000D02*
X166203300Y33503300D01*
X146900000Y26000000D02*
X146900000Y26049943D01*
X166203300Y33503300D02*
X168336600Y33503300D01*
X146900000Y26049943D02*
X147852057Y27002000D01*
X147852057Y27002000D02*
X159698000Y27002000D01*
X159698000Y27002000D02*
X159700000Y27000000D01*
X149650943Y25501000D02*
X149548943Y25399000D01*
X149051057Y25399000D02*
X148500000Y25950057D01*
X148500000Y25950057D02*
X148500000Y26000000D01*
X149548943Y25399000D02*
X149051057Y25399000D01*
X165414300Y25501000D02*
X149650943Y25501000D01*
X170876600Y30963300D02*
X165414300Y25501000D01*
X170700000Y19025830D02*
X164322700Y19025830D01*
X182657690Y17501000D02*
X186433690Y21277000D01*
X171691213Y19025830D02*
X173216043Y17501000D01*
X170700000Y19025830D02*
X171691213Y19025830D01*
X186433690Y21277000D02*
X187937000Y21277000D01*
X173216043Y17501000D02*
X182657690Y17501000D01*
X187937000Y21277000D02*
X189000000Y22340000D01*
X180919690Y18303000D02*
X186216690Y23600000D01*
X177399184Y-36200816D02*
X189000000Y-24600000D01*
X169348002Y22551998D02*
X173597000Y18303000D01*
X164946472Y22551998D02*
X169348002Y22551998D01*
X189000000Y-24600000D02*
X189000000Y-15783550D01*
X190500000Y-7723300D02*
X190500000Y-7340000D01*
X164246586Y22751998D02*
X164247586Y22752998D01*
X186216690Y23600000D02*
X187720000Y23600000D01*
X164247586Y22752998D02*
X164745472Y22752998D01*
X190500000Y-7340000D02*
X189000000Y-5840000D01*
X190501000Y-14282550D02*
X190501000Y-7724300D01*
X189000000Y-15783550D02*
X190501000Y-14282550D01*
X173597000Y18303000D02*
X180919690Y18303000D01*
X163463909Y22800000D02*
X163511911Y22751998D01*
X177399184Y-38036143D02*
X177399184Y-36200816D01*
X164745472Y22752998D02*
X164946472Y22551998D01*
X163511911Y22751998D02*
X164246586Y22751998D01*
X187720000Y23600000D02*
X189000000Y24880000D01*
X190501000Y-7724300D02*
X190500000Y-7723300D01*
X164496529Y22151998D02*
X164495529Y22150998D01*
X164497529Y22150998D02*
X169151002Y22150998D01*
X182022000Y17902000D02*
X186460000Y22340000D01*
X164496529Y22151998D02*
X164497529Y22150998D01*
X162849002Y22150998D02*
X161900000Y23100000D01*
X164495529Y22150998D02*
X162849002Y22150998D01*
X173400000Y17902000D02*
X182022000Y17902000D01*
X169151002Y22150998D02*
X173400000Y17902000D01*
X149400000Y18650057D02*
X149300000Y18750057D01*
X170397630Y23900000D02*
X175956600Y29458970D01*
X153523943Y6134000D02*
X154325473Y6935530D01*
X153000000Y22300000D02*
X154600000Y23900000D01*
X149400000Y9277057D02*
X149400000Y18650057D01*
X154600000Y23900000D02*
X170397630Y23900000D01*
X149400000Y21697000D02*
X150003000Y22300000D01*
X151088528Y7588528D02*
X149400000Y9277057D01*
X175956600Y29458970D02*
X175956600Y30963300D01*
X149300000Y18750057D02*
X149300000Y18800000D01*
X154325473Y6935530D02*
X154325473Y8226000D01*
X151088528Y7588528D02*
X152543056Y6134000D01*
X150003000Y22300000D02*
X153000000Y22300000D01*
X152543056Y6134000D02*
X153523943Y6134000D01*
X173782528Y18704000D02*
X180284000Y18704000D01*
X180284000Y18704000D02*
X186460000Y24880000D01*
X169334530Y23151998D02*
X173782528Y18704000D01*
X165279484Y23151998D02*
X169334530Y23151998D01*
X163732900Y17700000D02*
X171300000Y17700000D01*
X187300000Y18500000D02*
X186000000Y18500000D01*
X184200000Y16700000D02*
X172600000Y16700000D01*
X171300000Y17700000D02*
X171600000Y17700000D01*
X189000000Y19800000D02*
X188600000Y19800000D01*
X162700000Y18732900D02*
X163732900Y17700000D01*
X186000000Y18500000D02*
X184200000Y16700000D01*
X188600000Y19800000D02*
X187300000Y18500000D01*
X172600000Y16700000D02*
X171600000Y17700000D01*
X162700000Y18949937D02*
X162700000Y18732900D01*
X170303000Y18331286D02*
X164168714Y18331286D01*
X183400000Y17100000D02*
X183760000Y17100000D01*
X170303000Y18331286D02*
X171818657Y18331286D01*
X173049943Y17100000D02*
X183400000Y17100000D01*
X171818657Y18331286D02*
X173049943Y17100000D01*
X164168714Y18331286D02*
X163500000Y19000000D01*
X183760000Y17100000D02*
X186460000Y19800000D01*
X143616689Y23101997D02*
X143616689Y17516689D01*
X143616689Y17516689D02*
X141300000Y15200000D01*
X141300000Y15200000D02*
X137100000Y15200000D01*
X136226830Y14326830D02*
X133773170Y14326830D01*
X137100000Y15200000D02*
X136226830Y14326830D01*
X127184143Y18900000D02*
X124281143Y21803000D01*
X115450000Y14250000D02*
X115450000Y15500057D01*
X128698000Y32500000D02*
X131648000Y35450000D01*
X153406600Y35450000D02*
X155356600Y33500000D01*
X131719800Y35451000D02*
X151432700Y35451000D01*
X139300000Y18900000D02*
X127184143Y18900000D01*
X123103000Y21803000D02*
X115500000Y14200000D01*
X115450000Y28367100D02*
X119582900Y32500000D01*
X115449000Y15998943D02*
X115450000Y15999943D01*
X124281143Y21803000D02*
X123103000Y21803000D01*
X151432700Y35451000D02*
X151433700Y35450000D01*
X131648000Y35450000D02*
X131718800Y35450000D01*
X115450000Y15500057D02*
X115449000Y15501057D01*
X151433700Y35450000D02*
X153406600Y35450000D01*
X115449000Y15501057D02*
X115449000Y15998943D01*
X114064359Y12764359D02*
X114064359Y11353359D01*
X115450000Y15999943D02*
X115450000Y28367100D01*
X131718800Y35450000D02*
X131719800Y35451000D01*
X115500000Y14200000D02*
X115450000Y14250000D01*
X115500000Y14200000D02*
X114064359Y12764359D01*
X119582900Y32500000D02*
X128698000Y32500000D01*
X124115043Y21402000D02*
X123284957Y21402000D01*
X116050000Y28400000D02*
X119749000Y32099000D01*
X116064359Y14181401D02*
X116064359Y11328359D01*
X131815100Y35050000D02*
X151266600Y35050000D01*
X151266600Y35050000D02*
X152816600Y33500000D01*
X119749000Y32099000D02*
X128864100Y32099000D01*
X139900000Y18299000D02*
X127218043Y18299000D01*
X127218043Y18299000D02*
X124115043Y21402000D01*
X128864100Y32099000D02*
X131815100Y35050000D01*
X123284957Y21402000D02*
X116064359Y14181401D01*
X116050000Y15750000D02*
X116050000Y28400000D01*
X140408079Y16508079D02*
X133208079Y16508079D01*
X133208079Y16508079D02*
X132300000Y15600000D01*
X142802000Y28302000D02*
X147450000Y28302000D01*
X147618600Y28302000D02*
X150276600Y30960000D01*
X141056760Y26499000D02*
X141057597Y26498163D01*
X141057597Y17157597D02*
X140408079Y16508079D01*
X141057597Y26498163D02*
X141057597Y17157597D01*
X142800000Y28300000D02*
X142802000Y28302000D01*
X147450000Y28302000D02*
X147618600Y28302000D01*
X133100000Y6000000D02*
X133100000Y-3000000D01*
X147299000Y27500000D02*
X146299000Y26500000D01*
X146299000Y26500000D02*
X146299000Y23401000D01*
X145400000Y18300000D02*
X133100000Y6000000D01*
X155356600Y30960000D02*
X151896600Y27500000D01*
X146299000Y23401000D02*
X146900000Y22800000D01*
X145400000Y18400000D02*
X145400000Y18300000D01*
X151896600Y27500000D02*
X147299000Y27500000D01*
X141855525Y26454525D02*
X141855525Y17355525D01*
X152816600Y30960000D02*
X149757600Y27901000D01*
X149757600Y27901000D02*
X144016240Y27901000D01*
X144016240Y27901000D02*
X143817240Y27702000D01*
X141855525Y17355525D02*
X140600000Y16100000D01*
X143817240Y27702000D02*
X143332479Y27702000D01*
X135513174Y16100000D02*
X135006587Y15593413D01*
X140600000Y16100000D02*
X135513174Y16100000D01*
X118164359Y15714302D02*
X118164359Y11353359D01*
X140457597Y17699000D02*
X127250943Y17699000D01*
X116500000Y17000000D02*
X116500000Y28150000D01*
X127250943Y17699000D02*
X123948943Y21001000D01*
X123451057Y21001000D02*
X118500029Y16049971D01*
X120048000Y31698000D02*
X129030200Y31698000D01*
X123948943Y21001000D02*
X123451057Y21001000D01*
X118500029Y16049971D02*
X118164359Y15714302D01*
X129030200Y31698000D02*
X131982200Y34650000D01*
X149126600Y34650000D02*
X150276600Y33500000D01*
X116925000Y16575000D02*
X116500000Y17000000D01*
X116500000Y28150000D02*
X120048000Y31698000D01*
X131982200Y34650000D02*
X149126600Y34650000D01*
D23*
X160300000Y-17100000D02*
X160300000Y-15150000D01*
X160400000Y-17200000D02*
X160300000Y-17100000D01*
X160300000Y-15150000D02*
X160200000Y-15050000D01*
D20*
X179949000Y-50124000D02*
X180700000Y-49373000D01*
X180700000Y-49373000D02*
X180700000Y-46600000D01*
X125215750Y-65544114D02*
X126759863Y-64000001D01*
X123974866Y-47041258D02*
X123974866Y-40784998D01*
X125215750Y-116244114D02*
X126759863Y-114700001D01*
X129633608Y-155400000D02*
X135547943Y-155400000D01*
X123974866Y-53784998D02*
X125215750Y-52544114D01*
X123974866Y-143484998D02*
X123974866Y-149741258D01*
X178982250Y-99555886D02*
X177438137Y-101099999D01*
X132398000Y-96649943D02*
X132398000Y-98349943D01*
X177047638Y-62099999D02*
X177438137Y-62099999D01*
X186076700Y-10920000D02*
X186460000Y-10920000D01*
X174025678Y-11200000D02*
X174100000Y-11200000D01*
X136099000Y-156499000D02*
X132495000Y-160103000D01*
X123974866Y-104484998D02*
X125215750Y-103244114D01*
X172800000Y-102037596D02*
X176110041Y-102037596D01*
X174400000Y-10900000D02*
X174400000Y-8800000D01*
X127150362Y-114700001D02*
X127150362Y-113916754D01*
X180223134Y-98315002D02*
X178982250Y-99555886D01*
X126759863Y-38000001D02*
X127150362Y-38000001D01*
X135547943Y-155400000D02*
X136099000Y-155951057D01*
X170700000Y-11200000D02*
X170700000Y-9631900D01*
X168100000Y-109800000D02*
X171603000Y-106297000D01*
X136099000Y-92451057D02*
X136099000Y-92948943D01*
X127150362Y-139916754D02*
X127150362Y-140700001D01*
X180223134Y-79058742D02*
X177047638Y-75883246D01*
X168635059Y-47385002D02*
X168099000Y-46848943D01*
X123974866Y-40784998D02*
X125215750Y-39544114D01*
X126759863Y-77000001D02*
X123974866Y-79784998D01*
X178982250Y-123955886D02*
X180223134Y-122715002D01*
X180223134Y-148715002D02*
X180223134Y-142458742D01*
X177438137Y-164499999D02*
X177047638Y-164499999D01*
X175801000Y-7399000D02*
X182555700Y-7399000D01*
X177438137Y-88099999D02*
X177047638Y-88099999D01*
X135350943Y-91703000D02*
X136099000Y-92451057D01*
X130047943Y-100700000D02*
X128150363Y-100700000D01*
X174549394Y-110785002D02*
X168560059Y-110785002D01*
X180223134Y-116458742D02*
X174549394Y-110785002D01*
X178982250Y-73555886D02*
X180223134Y-72315002D01*
X168100000Y-110324943D02*
X168100000Y-109800000D01*
X123974866Y-66784998D02*
X125215750Y-65544114D01*
X180223134Y-59315002D02*
X180223134Y-53058742D01*
X125215750Y-129244114D02*
X126759863Y-127700001D01*
X177047638Y-75883246D02*
X177047638Y-75099999D01*
X180223134Y-129458742D02*
X178698134Y-127933742D01*
X123974866Y-123741258D02*
X123974866Y-117484998D01*
X168099000Y-46848943D02*
X168099000Y-46351057D01*
X171703000Y-32320305D02*
X170102000Y-30719305D01*
X127150362Y-127700001D02*
X127150362Y-126916754D01*
X123974866Y-117484998D02*
X125215750Y-116244114D01*
X178982250Y-123955886D02*
X177438137Y-125499999D01*
X129800000Y-91703000D02*
X135350943Y-91703000D01*
X176110041Y-102037596D02*
X177047638Y-101099999D01*
X127150362Y-113916754D02*
X123974866Y-110741258D01*
X127150362Y-51000001D02*
X127150362Y-50216754D01*
X178982250Y-162955886D02*
X177438137Y-164499999D01*
X177047638Y-139283246D02*
X178698134Y-140933742D01*
X178982250Y-136955886D02*
X180223134Y-135715002D01*
X123974866Y-86041258D02*
X129336608Y-91403000D01*
X127150362Y-63216754D02*
X123974866Y-60041258D01*
X177438137Y-138499999D02*
X177047638Y-138499999D01*
X127150362Y-126916754D02*
X123974866Y-123741258D01*
X180223134Y-53058742D02*
X174549394Y-47385002D01*
X171603000Y-103234596D02*
X172800000Y-102037596D01*
X180223134Y-92058742D02*
X180223134Y-98315002D01*
X180223134Y-72315002D02*
X180223134Y-66058742D01*
X127150362Y-76216754D02*
X123974866Y-73041258D01*
X177047638Y-62883246D02*
X177047638Y-62099999D01*
X127150362Y-77000001D02*
X126759863Y-77000001D01*
X171603000Y-106297000D02*
X171603000Y-103234596D01*
X169002000Y-7933900D02*
X169002000Y8848650D01*
X136099000Y-155951057D02*
X136099000Y-156499000D01*
X177047638Y-138499999D02*
X177047638Y-139283246D01*
X182555700Y-7399000D02*
X186076700Y-10920000D01*
X136099000Y-92948943D02*
X132398000Y-96649943D01*
X177047638Y-88099999D02*
X177047638Y-88883246D01*
X174024678Y-11201000D02*
X174025678Y-11200000D01*
X135809856Y-165896000D02*
X175651637Y-165896000D01*
X174400000Y-8800000D02*
X175801000Y-7399000D01*
X170102000Y-11798000D02*
X170700000Y-11200000D01*
X177047638Y-126283246D02*
X178698134Y-127933742D01*
X177438137Y-125499999D02*
X177047638Y-125499999D01*
X171703000Y-42747057D02*
X171703000Y-32320305D01*
X123974866Y-149741258D02*
X129633608Y-155400000D01*
X128150363Y-100700000D02*
X127150362Y-101700001D01*
X125215750Y-103244114D02*
X126759863Y-101700001D01*
X180223134Y-85315002D02*
X180223134Y-79058742D01*
X177047638Y-125499999D02*
X177047638Y-126283246D01*
X178982250Y-149955886D02*
X177438137Y-151499999D01*
X180223134Y-135715002D02*
X180223134Y-129458742D01*
X126759863Y-114700001D02*
X127150362Y-114700001D01*
X125215750Y-52544114D02*
X126759863Y-51000001D01*
X178982250Y-86555886D02*
X177438137Y-88099999D01*
X126759863Y-127700001D02*
X127150362Y-127700001D01*
X173100000Y-11200000D02*
X173525792Y-11200000D01*
X168099000Y-46351057D02*
X171703000Y-42747057D01*
X180223134Y-66058742D02*
X177047638Y-62883246D01*
X126759863Y-51000001D02*
X127150362Y-51000001D01*
X180223134Y-142458742D02*
X178698134Y-140933742D01*
X123974866Y-79784998D02*
X123974866Y-86041258D01*
X178982250Y-136955886D02*
X177438137Y-138499999D01*
X123974866Y-110741258D02*
X123974866Y-104484998D01*
X170700000Y-9631900D02*
X169002000Y-7933900D01*
X173526792Y-11201000D02*
X174024678Y-11201000D01*
X174100000Y-11200000D02*
X174400000Y-10900000D01*
X132398000Y-98349943D02*
X130047943Y-100700000D01*
X175651637Y-165896000D02*
X177047638Y-164499999D01*
X169002000Y8848650D02*
X160250000Y17600650D01*
X123974866Y-60041258D02*
X123974866Y-53784998D01*
X123974866Y-73041258D02*
X123974866Y-66784998D01*
X129336608Y-91405708D02*
X129633900Y-91703000D01*
X180223134Y-155458742D02*
X180223134Y-161715002D01*
X160250000Y17600650D02*
X160250000Y18050000D01*
X180223134Y-161715002D02*
X178982250Y-162955886D01*
X125215750Y-39544114D02*
X126759863Y-38000001D01*
X127150362Y-64000001D02*
X127150362Y-63216754D01*
X177047638Y-88883246D02*
X180223134Y-92058742D01*
X177438137Y-62099999D02*
X180223134Y-59315002D01*
X125215750Y-129244114D02*
X123974866Y-130484998D01*
X177438137Y-151499999D02*
X177047638Y-151499999D01*
X132495000Y-160103000D02*
X132495000Y-162581143D01*
X126759863Y-101700001D02*
X127150362Y-101700001D01*
X180223134Y-122715002D02*
X180223134Y-116458742D01*
X178982250Y-86555886D02*
X180223134Y-85315002D01*
X123974866Y-136741258D02*
X127150362Y-139916754D01*
X170102000Y-30719305D02*
X170102000Y-11798000D01*
X127150362Y-50216754D02*
X123974866Y-47041258D01*
X168560059Y-110785002D02*
X168100000Y-110324943D01*
X177438137Y-75099999D02*
X177047638Y-75099999D01*
X126759863Y-64000001D02*
X127150362Y-64000001D01*
X129336608Y-91403000D02*
X129336608Y-91405708D01*
X177438137Y-101099999D02*
X177047638Y-101099999D01*
X173525792Y-11200000D02*
X173526792Y-11201000D01*
X177480708Y2080708D02*
X179300000Y3900000D01*
X177047638Y-152283246D02*
X180223134Y-155458742D01*
X132495000Y-162581143D02*
X135809856Y-165896000D01*
X174549394Y-47385002D02*
X168635059Y-47385002D01*
X123974866Y-130484998D02*
X123974866Y-136741258D01*
X177480708Y-5997001D02*
X177480708Y2080708D01*
X127150362Y-140700001D02*
X126759863Y-140700001D01*
X178982250Y-149955886D02*
X180223134Y-148715002D01*
X177047638Y-151499999D02*
X177047638Y-152283246D01*
X126759863Y-140700001D02*
X123974866Y-143484998D01*
X129633900Y-91703000D02*
X129800000Y-91703000D01*
X178982250Y-73555886D02*
X177438137Y-75099999D01*
X127150362Y-77000001D02*
X127150362Y-76216754D01*
X128794921Y-76727113D02*
X124776866Y-72709058D01*
X128794921Y-140814886D02*
X127907806Y-141702001D01*
X128794921Y-51064404D02*
X128794921Y-50727113D01*
X174217194Y-48187002D02*
X168302859Y-48187002D01*
X175403079Y-87985114D02*
X175403079Y-88035596D01*
X133200000Y-96982143D02*
X136901000Y-93281143D01*
X127149866Y-141702001D02*
X124776866Y-144075001D01*
X127907806Y-115702001D02*
X128794921Y-114814886D01*
X179421134Y-148124999D02*
X177048134Y-150497999D01*
X128794921Y-38114886D02*
X128794921Y-38064404D01*
X133297000Y-160435200D02*
X133297000Y-162248943D01*
X128794921Y-114764404D02*
X128794921Y-114427113D01*
X127907806Y-128702001D02*
X128794921Y-127814886D01*
X176290194Y-87097999D02*
X175403079Y-87985114D01*
X130117739Y-101764404D02*
X133200000Y-98682143D01*
X179421134Y-155790942D02*
X179421134Y-161124999D01*
X179300000Y-6597000D02*
X182947000Y-6597000D01*
X136901000Y-92118857D02*
X135683143Y-90901000D01*
X184730000Y-8380000D02*
X186460000Y-8380000D01*
X177048134Y-163497999D02*
X176290194Y-163497999D01*
X175403079Y-125772887D02*
X179421134Y-129790942D01*
X182947000Y-6597000D02*
X184730000Y-8380000D01*
X124776866Y-46709058D02*
X124776866Y-41375001D01*
X128794921Y-114814886D02*
X128794921Y-114764404D01*
X179421134Y-122124999D02*
X179421134Y-116790942D01*
X176290194Y-74097999D02*
X175403079Y-74985114D01*
X179421134Y-142790942D02*
X179421134Y-148124999D01*
X169300000Y-9366100D02*
X168200000Y-8266100D01*
X176290194Y-61097999D02*
X177048134Y-61097999D01*
X179421134Y-116790942D02*
X174217194Y-111587002D01*
X172664404Y-101035596D02*
X170801000Y-102899000D01*
X128794921Y-127427113D02*
X124776866Y-123409058D01*
X127149866Y-128702001D02*
X127907806Y-128702001D01*
X128794921Y-114427113D02*
X124776866Y-110409058D01*
X175403079Y-75035596D02*
X175403079Y-75372887D01*
X124776866Y-110409058D02*
X124776866Y-105075001D01*
X175403079Y-125385114D02*
X176290194Y-124497999D01*
X124776866Y-41375001D02*
X127149866Y-39002001D01*
X175403079Y-62372887D02*
X179421134Y-66390942D01*
X124776866Y-144075001D02*
X124776866Y-149409058D01*
X124776866Y-59709058D02*
X124776866Y-54375001D01*
X127149866Y-65002001D02*
X127907806Y-65002001D01*
X127907806Y-78002001D02*
X128794921Y-77114886D01*
X124776866Y-80375001D02*
X127149866Y-78002001D01*
X175403079Y-125435596D02*
X175403079Y-125385114D01*
X174217194Y-111587002D02*
X168227859Y-111587002D01*
X124776866Y-131075001D02*
X127149866Y-128702001D01*
X128794921Y-127764404D02*
X128794921Y-127427113D01*
X177048134Y-61097999D02*
X179421134Y-58724999D01*
X175403079Y-151772887D02*
X179421134Y-155790942D01*
X127149866Y-78002001D02*
X127907806Y-78002001D01*
X128794921Y-101764404D02*
X130117739Y-101764404D01*
X175403079Y-74985114D02*
X175403079Y-75035596D01*
X179421134Y-71724999D02*
X177048134Y-74097999D01*
X135880143Y-154598000D02*
X136901000Y-155618857D01*
X124776866Y-105075001D02*
X127149866Y-102702001D01*
X128794921Y-140764404D02*
X128794921Y-140814886D01*
X175403079Y-100985114D02*
X175403079Y-101035596D01*
X167297000Y-47181143D02*
X167297000Y-46018857D01*
X168200000Y-8266100D02*
X168200000Y8516450D01*
X129968808Y-90901000D02*
X124776866Y-85709058D01*
X175403079Y-138435596D02*
X175403079Y-138772887D01*
X136901000Y-156831200D02*
X133297000Y-160435200D01*
X136901000Y-93281143D02*
X136901000Y-92118857D01*
X179421134Y-135124999D02*
X177048134Y-137497999D01*
X127149866Y-102702001D02*
X127907806Y-102702001D01*
X127149866Y-115702001D02*
X127907806Y-115702001D01*
X128794921Y-64114886D02*
X128794921Y-64064404D01*
X179421134Y-79390942D02*
X179421134Y-84724999D01*
X128794921Y-140427113D02*
X124776866Y-136409058D01*
X179300000Y100000D02*
X179300000Y-6597000D01*
X169300001Y-9964155D02*
X169300000Y-9366100D01*
X127907806Y-39002001D02*
X128794921Y-38114886D01*
X135683143Y-90901000D02*
X129968808Y-90901000D01*
X175403079Y-151385114D02*
X175403079Y-151435596D01*
X158663910Y18052540D02*
X158663910Y18800000D01*
X127149866Y-39002001D02*
X127907806Y-39002001D01*
X176290194Y-124497999D02*
X177048134Y-124497999D01*
X175403079Y-75372887D02*
X179421134Y-79390942D01*
X124776866Y-72709058D02*
X124776866Y-67375001D01*
X128794921Y-77064404D02*
X128794921Y-76727113D01*
X170901000Y-32652505D02*
X169300000Y-31051505D01*
X167297000Y-46018857D02*
X170901000Y-42414857D01*
X177048134Y-100097999D02*
X176290194Y-100097999D01*
X179421134Y-97724999D02*
X177048134Y-100097999D01*
X128794921Y-77114886D02*
X128794921Y-77064404D01*
X179421134Y-84724999D02*
X177048134Y-87097999D01*
X124776866Y-123409058D02*
X124776866Y-118075001D01*
X168227859Y-111587002D02*
X167298000Y-110657143D01*
X175403079Y-88035596D02*
X175403079Y-88372887D01*
X173099999Y-8741422D02*
X175244421Y-6597000D01*
X179421134Y-161124999D02*
X177048134Y-163497999D01*
X176290194Y-163497999D02*
X175403079Y-164385114D01*
X177048134Y-124497999D02*
X179421134Y-122124999D01*
X168302859Y-48187002D02*
X167297000Y-47181143D01*
X170901000Y-42414857D02*
X170901000Y-32652505D01*
X128794921Y-63727113D02*
X124776866Y-59709058D01*
X179421134Y-92390942D02*
X179421134Y-97724999D01*
X170801000Y-105964800D02*
X170801000Y-103100000D01*
X128794921Y-51114886D02*
X128794921Y-51064404D01*
X167298000Y-109467800D02*
X170801000Y-105964800D01*
X177048134Y-137497999D02*
X176290194Y-137497999D01*
X175403079Y-151435596D02*
X175403079Y-151772887D01*
X169300000Y-31051505D02*
X169300000Y-9964156D01*
X124776866Y-149409058D02*
X129965808Y-154598000D01*
X175403079Y-101035596D02*
X172664404Y-101035596D01*
X175403079Y-138441143D02*
X175403079Y-138491625D01*
X136142057Y-165094000D02*
X174744675Y-165094000D01*
X175403079Y-138772887D02*
X179421134Y-142790942D01*
X169300000Y-9964156D02*
X169300001Y-9964155D01*
X127907806Y-102702001D02*
X128794921Y-101814886D01*
X133200000Y-98682143D02*
X133200000Y-96982143D01*
X179421134Y-66390942D02*
X179421134Y-71724999D01*
X175244421Y-6597000D02*
X179300000Y-6597000D01*
X174744675Y-165094000D02*
X175403079Y-164435596D01*
X127149866Y-52002001D02*
X127907806Y-52002001D01*
X175403079Y-88372887D02*
X179421134Y-92390942D01*
X170801000Y-102899000D02*
X170801000Y-103100000D01*
X177048134Y-87097999D02*
X176290194Y-87097999D01*
X133297000Y-162248943D02*
X136142057Y-165094000D01*
X175403079Y-125435596D02*
X175403079Y-125772887D01*
X124776866Y-118075001D02*
X127149866Y-115702001D01*
X127907806Y-141702001D02*
X127149866Y-141702001D01*
X175403079Y-61985114D02*
X176290194Y-61097999D01*
X179421134Y-129790942D02*
X179421134Y-135124999D01*
X179421134Y-58724999D02*
X179421134Y-53390942D01*
X128794921Y-50727113D02*
X124776866Y-46709058D01*
X176290194Y-150497999D02*
X175403079Y-151385114D01*
X124776866Y-136409058D02*
X124776866Y-131075001D01*
X179421134Y-53390942D02*
X174217194Y-48187002D01*
X176290194Y-137497999D02*
X175403079Y-138385114D01*
X136901000Y-155618857D02*
X136901000Y-156831200D01*
X127907806Y-65002001D02*
X128794921Y-64114886D01*
X128794921Y-140764404D02*
X128794921Y-140427113D01*
X167298000Y-110657143D02*
X167298000Y-109467800D01*
X176290194Y-100097999D02*
X175403079Y-100985114D01*
X124776866Y-85709058D02*
X124776866Y-80375001D01*
X128794921Y-101814886D02*
X128794921Y-101764404D01*
X128794921Y-64064404D02*
X128794921Y-63727113D01*
X175403079Y-62035596D02*
X175403079Y-62372887D01*
X124776866Y-67375001D02*
X127149866Y-65002001D01*
X127907806Y-52002001D02*
X128794921Y-51114886D01*
X177048134Y-74097999D02*
X176290194Y-74097999D01*
X168200000Y8516450D02*
X158663910Y18052540D01*
X173099999Y-9751470D02*
X173099999Y-8741422D01*
X129965808Y-154598000D02*
X135880143Y-154598000D01*
X124776866Y-54375001D02*
X127149866Y-52002001D01*
X128794921Y-127814886D02*
X128794921Y-127764404D01*
X175403079Y-62035596D02*
X175403079Y-61985114D01*
X177048134Y-150497999D02*
X176290194Y-150497999D01*
X126983766Y-77601001D02*
X124375866Y-80208901D01*
X179822134Y-142624842D02*
X179822134Y-148316002D01*
X124375866Y-41183998D02*
X126958863Y-38601001D01*
X124375866Y-143908901D02*
X124375866Y-149575158D01*
X176248134Y-139050842D02*
X179822134Y-142624842D01*
X176446638Y-87990002D02*
X176248134Y-87990002D01*
X124375866Y-110575158D02*
X124375866Y-104883998D01*
X175193618Y-165495000D02*
X135975958Y-165495000D01*
X169901001Y-9715212D02*
X169900000Y-9714211D01*
X127949866Y-101809998D02*
X127949866Y-101759516D01*
X126958863Y-115301001D02*
X127399305Y-115301001D01*
X127751362Y-51109998D02*
X127949866Y-51109998D01*
X168393959Y-111186002D02*
X167699000Y-110491043D01*
X176739137Y-100498999D02*
X177239137Y-100498999D01*
X179822134Y-97916002D02*
X179822134Y-92224842D01*
X130151639Y-101163404D02*
X132799000Y-98516043D01*
X179822134Y-155624842D02*
X179822134Y-161316002D01*
X127751362Y-77109998D02*
X127751362Y-77248944D01*
X167698000Y-46184957D02*
X171302000Y-42580957D01*
X176353321Y-62756029D02*
X179822134Y-66224842D01*
X175502000Y-6998000D02*
X182721800Y-6998000D01*
X169900000Y-9714211D02*
X169900000Y-9399000D01*
X126984767Y-141300000D02*
X124375866Y-143908901D01*
X136500000Y-92284957D02*
X135517043Y-91302000D01*
X169901001Y-10213098D02*
X169901001Y-9715212D01*
X176446638Y-138446031D02*
X176248134Y-138446031D01*
X135975958Y-165495000D02*
X132896000Y-162415043D01*
X171302000Y-32486405D02*
X169701000Y-30885405D01*
X127949866Y-50449158D02*
X124375866Y-46875158D01*
X127949866Y-76449158D02*
X124375866Y-72875158D01*
X172633900Y-101636596D02*
X175652022Y-101636596D01*
X179822134Y-148316002D02*
X177239137Y-150898999D01*
X174383294Y-111186002D02*
X168393959Y-111186002D01*
X176248134Y-164440484D02*
X175193618Y-165495000D01*
X176798695Y-87498999D02*
X176446638Y-87851056D01*
X176248134Y-74990002D02*
X176248134Y-75650842D01*
X176446638Y-87851056D02*
X176446638Y-87990002D01*
X177079708Y-5317292D02*
X177079708Y2246808D01*
X176739137Y-124898999D02*
X177239137Y-124898999D01*
X169900000Y-9399000D02*
X168601000Y-8100000D01*
X177239137Y-100498999D02*
X179822134Y-97916002D01*
X176446638Y-61851056D02*
X176798695Y-61498999D01*
X124375866Y-72875158D02*
X124375866Y-67183998D01*
X179822134Y-161316002D02*
X177239137Y-163898999D01*
X124375866Y-59875158D02*
X124375866Y-54183998D01*
X136500000Y-93115043D02*
X136500000Y-92284957D01*
X176353321Y-61889748D02*
X176353321Y-62756029D01*
X127844679Y-140043971D02*
X124375866Y-136575158D01*
X126958863Y-64601001D02*
X127399305Y-64601001D01*
X126958863Y-51601001D02*
X127399305Y-51601001D01*
X127751362Y-140948944D02*
X127399305Y-141301001D01*
X176798695Y-163898999D02*
X176446638Y-164251056D01*
X124375866Y-117883998D02*
X126958863Y-115301001D01*
X171302000Y-42580957D02*
X171302000Y-32486405D01*
X176446638Y-74990002D02*
X176248134Y-74990002D01*
X176446638Y-74851056D02*
X176446638Y-74990002D01*
X124375866Y-136575158D02*
X124375866Y-130883998D01*
X179822134Y-84916002D02*
X177239137Y-87498999D01*
X176798695Y-74498999D02*
X176446638Y-74851056D01*
X126958863Y-38601001D02*
X127399305Y-38601001D01*
X127751362Y-38248944D02*
X127751362Y-38109998D01*
X173775735Y-8724265D02*
X175502000Y-6998000D01*
X176798695Y-150898999D02*
X176446638Y-151251056D01*
X127399305Y-64601001D02*
X127751362Y-64248944D01*
X136500000Y-156665100D02*
X132896000Y-160269100D01*
X167699000Y-110491043D02*
X167699000Y-109633900D01*
X179822134Y-53224842D02*
X174383294Y-47786002D01*
X127751362Y-64109998D02*
X127949866Y-64109998D01*
X126999001Y-141301001D02*
X126998000Y-141300000D01*
X127949866Y-114149158D02*
X124375866Y-110575158D01*
X176248134Y-126050842D02*
X179822134Y-129624842D01*
X135714043Y-154999000D02*
X136500000Y-155784957D01*
X169900000Y-11101000D02*
X169900000Y-10600000D01*
X177239137Y-163898999D02*
X176798695Y-163898999D01*
X129800000Y-91299292D02*
X129800000Y-91302000D01*
X136500000Y-155784957D02*
X136500000Y-156665100D01*
X171202000Y-103068496D02*
X172633900Y-101636596D01*
X176446638Y-164390002D02*
X176248134Y-164390002D01*
X176400000Y-5997000D02*
X177079708Y-5317292D01*
X182721800Y-6998000D02*
X185323800Y-9600000D01*
X129799708Y-154999000D02*
X135714043Y-154999000D01*
X127399305Y-141301001D02*
X126999001Y-141301001D01*
X185323800Y-9600000D02*
X187780000Y-9600000D01*
X132799000Y-98516043D02*
X132799000Y-96816043D01*
X127949866Y-140649562D02*
X127949866Y-140809998D01*
X176248134Y-101040484D02*
X176248134Y-100990002D01*
X124375866Y-85875158D02*
X129800000Y-91299292D01*
X176248134Y-151390002D02*
X176248134Y-152050842D01*
X124375866Y-46875158D02*
X124375866Y-41183998D01*
X132896000Y-162415043D02*
X132896000Y-160269100D01*
X124375866Y-80208901D02*
X124375866Y-85875158D01*
X126998000Y-141300000D02*
X126984767Y-141300000D01*
X167699000Y-109633900D02*
X171202000Y-106130900D01*
X132799000Y-96816043D02*
X136500000Y-93115043D01*
X176248134Y-138390002D02*
X176248134Y-139050842D01*
X124375866Y-104883998D02*
X126958863Y-102301001D01*
X177100000Y2267100D02*
X177100000Y5700000D01*
X127751362Y-114809998D02*
X127949866Y-114809998D01*
X135517043Y-91302000D02*
X129800000Y-91302000D01*
X127399305Y-102301001D02*
X127751362Y-101948944D01*
X176798695Y-61498999D02*
X177239137Y-61498999D01*
X179822134Y-122316002D02*
X179822134Y-116624842D01*
X127844679Y-140910252D02*
X127844679Y-140043971D01*
X127751362Y-140809998D02*
X127751362Y-140948944D01*
X177239137Y-150898999D02*
X176798695Y-150898999D01*
X127751362Y-127948944D02*
X127751362Y-127809998D01*
X127949866Y-127809998D02*
X127949866Y-127149158D01*
X176446638Y-164251056D02*
X176446638Y-164390002D01*
X159500000Y17783550D02*
X159500000Y18800000D01*
X174383294Y-47786002D02*
X168468959Y-47786002D01*
X127751362Y-101948944D02*
X127751362Y-101809998D01*
X127949866Y-64109998D02*
X127949866Y-63449158D01*
X126958863Y-102301001D02*
X127399305Y-102301001D01*
X168468959Y-47786002D02*
X167698000Y-47015043D01*
X169900000Y-10600000D02*
X169900000Y-10214099D01*
X127949866Y-114809998D02*
X127949866Y-114149158D01*
X176446638Y-138307085D02*
X176446638Y-138446031D01*
X128545978Y-101163404D02*
X130151639Y-101163404D01*
X127751362Y-127809998D02*
X127949866Y-127809998D01*
X124375866Y-130883998D02*
X126958863Y-128301001D01*
X179822134Y-135316002D02*
X177239137Y-137898999D01*
X127949866Y-63449158D02*
X124375866Y-59875158D01*
X176446638Y-61990002D02*
X176446638Y-61851056D01*
X177239137Y-61498999D02*
X179822134Y-58916002D01*
X127949866Y-140809998D02*
X127751362Y-140809998D01*
X127949866Y-101649562D02*
X127949866Y-101809998D01*
X168601000Y8682550D02*
X159500000Y17783550D01*
X176446638Y-151251056D02*
X176446638Y-151390002D01*
X127949866Y-127149158D02*
X124375866Y-123575158D01*
X127399305Y-115301001D02*
X127751362Y-114948944D01*
X179822134Y-129624842D02*
X179822134Y-135316002D01*
X179822134Y-116624842D02*
X174383294Y-111186002D01*
X127751362Y-51248944D02*
X127751362Y-51109998D01*
X176248134Y-88650842D02*
X176248134Y-87990002D01*
X169900000Y-10214099D02*
X169901001Y-10213098D01*
X176248134Y-164550438D02*
X176248134Y-164390002D01*
X127949866Y-77109998D02*
X127949866Y-76449158D01*
X169701000Y-11300000D02*
X169900000Y-11101000D01*
X179822134Y-66224842D02*
X179822134Y-71916002D01*
X176798695Y-137898999D02*
X176446638Y-138251056D01*
X127399305Y-77601001D02*
X126983766Y-77601001D01*
X176248134Y-100990002D02*
X176739137Y-100498999D01*
X168601000Y-8100000D02*
X168601000Y8682550D01*
X126958863Y-128301001D02*
X127399305Y-128301001D01*
X127949866Y-101759516D02*
X128545978Y-101163404D01*
X127399305Y-38601001D02*
X127751362Y-38248944D01*
X127751362Y-38109998D02*
X127949866Y-38109998D01*
X124375866Y-67183998D02*
X126958863Y-64601001D01*
X124375866Y-149575158D02*
X129799708Y-154999000D01*
X169701000Y-30885405D02*
X169701000Y-11300000D01*
X127751362Y-114948944D02*
X127751362Y-114809998D01*
X179822134Y-58916002D02*
X179822134Y-53224842D01*
X176248134Y-75650842D02*
X179822134Y-79224842D01*
X176248134Y-61990002D02*
X176446638Y-61990002D01*
X179822134Y-92224842D02*
X176248134Y-88650842D01*
X124375866Y-123575158D02*
X124375866Y-117883998D01*
X127399305Y-128301001D02*
X127751362Y-127948944D01*
X175652022Y-101636596D02*
X176248134Y-101040484D01*
X127949866Y-37949562D02*
X127949866Y-38109998D01*
X177239137Y-137898999D02*
X176798695Y-137898999D01*
X127751362Y-64248944D02*
X127751362Y-64109998D01*
X187780000Y-9600000D02*
X189000000Y-8380000D01*
X179822134Y-79224842D02*
X179822134Y-84916002D01*
X127949866Y-51109998D02*
X127949866Y-50449158D01*
X171202000Y-106130900D02*
X171202000Y-103068496D01*
X173775735Y-10600000D02*
X173775735Y-8724265D01*
X127949866Y-77109998D02*
X127751362Y-77109998D01*
X127751362Y-101809998D02*
X127949866Y-101809998D01*
X124375866Y-54183998D02*
X126958863Y-51601001D01*
X176248134Y-125390002D02*
X176739137Y-124898999D01*
X177079708Y2246808D02*
X177100000Y2267100D01*
X167698000Y-47015043D02*
X167698000Y-46184957D01*
X127751362Y-77248944D02*
X127399305Y-77601001D01*
X176248134Y-152050842D02*
X179822134Y-155624842D01*
X176248134Y-125390002D02*
X176248134Y-126050842D01*
X176248134Y-62150438D02*
X176248134Y-61990002D01*
X176446638Y-151390002D02*
X176248134Y-151390002D01*
X177239137Y-87498999D02*
X176798695Y-87498999D01*
X177239137Y-74498999D02*
X176798695Y-74498999D01*
X177100000Y5700000D02*
X179300000Y7900000D01*
X176248134Y-164390002D02*
X176248134Y-164440484D01*
X177239137Y-124898999D02*
X179822134Y-122316002D01*
X179822134Y-71916002D02*
X177239137Y-74498999D01*
X127399305Y-51601001D02*
X127751362Y-51248944D01*
X178700000Y-46600000D02*
X178700000Y-50320997D01*
X178700000Y-50320997D02*
X179793108Y-51414105D01*
X177301000Y-45999000D02*
X180948943Y-45999000D01*
X176700000Y-46600000D02*
X177301000Y-45999000D01*
X181349134Y-61723866D02*
X179949000Y-63124000D01*
X181349134Y-46399191D02*
X181349134Y-61723866D01*
X180948943Y-45999000D02*
X181349134Y-46399191D01*
X181115043Y-45598000D02*
X181750134Y-46233091D01*
X174700000Y-46600000D02*
X175702000Y-45598000D01*
X181750134Y-62457079D02*
X179793108Y-64414105D01*
X181750134Y-46233091D02*
X181750134Y-62457079D01*
X175702000Y-45598000D02*
X181115043Y-45598000D01*
X172700000Y-46600000D02*
X174103000Y-45197000D01*
X174103000Y-45197000D02*
X181281143Y-45197000D01*
X182151134Y-73921866D02*
X179949000Y-76124000D01*
X182151134Y-46066991D02*
X182151134Y-73921866D01*
X181281143Y-45197000D02*
X182151134Y-46066991D01*
X173100000Y-6800000D02*
X170200000Y-6800000D01*
X172504000Y-44796000D02*
X181447243Y-44796000D01*
X181447243Y-44796000D02*
X182552134Y-45900891D01*
X170700000Y-46600000D02*
X172504000Y-44796000D01*
X182552134Y-74655079D02*
X179793108Y-77414105D01*
X182552134Y-45900891D02*
X182552134Y-74655079D01*
X181613343Y-44395000D02*
X182953134Y-45734791D01*
X182953134Y-45734791D02*
X182953134Y-86119866D01*
X168700000Y-46600000D02*
X170905000Y-44395000D01*
X170905000Y-44395000D02*
X181613343Y-44395000D01*
X182953134Y-86119866D02*
X179949000Y-89124000D01*
X183354134Y-86853079D02*
X179793108Y-90414105D01*
X180900000Y-43795000D02*
X181580443Y-43795000D01*
X181580443Y-43795000D02*
X183354134Y-45568691D01*
X183354134Y-45568691D02*
X183354134Y-86853079D01*
X123498000Y-156200000D02*
X123498000Y-153427000D01*
X123498000Y-153427000D02*
X124249000Y-152676000D01*
X125498000Y-152479003D02*
X125498000Y-156200000D01*
X124404892Y-151385895D02*
X125498000Y-152479003D01*
X124249000Y-139676000D02*
X122848866Y-141076134D01*
X126897000Y-156801000D02*
X127498000Y-156200000D01*
X122848866Y-156400809D02*
X123249057Y-156801000D01*
X123249057Y-156801000D02*
X126897000Y-156801000D01*
X122848866Y-141076134D02*
X122848866Y-156400809D01*
X128496000Y-157202000D02*
X129498000Y-156200000D01*
X122447866Y-156566909D02*
X123082957Y-157202000D01*
X122447866Y-140342921D02*
X122447866Y-156566909D01*
X123082957Y-157202000D02*
X128496000Y-157202000D01*
X124404892Y-138385895D02*
X122447866Y-140342921D01*
X122046866Y-128878134D02*
X122046866Y-156733009D01*
X122046866Y-156733009D02*
X122916857Y-157603000D01*
X122916857Y-157603000D02*
X130095000Y-157603000D01*
X130095000Y-157603000D02*
X131498000Y-156200000D01*
X124249000Y-126676000D02*
X122046866Y-128878134D01*
X121645866Y-128144921D02*
X121645866Y-156899109D01*
X131694000Y-158004000D02*
X133498000Y-156200000D01*
X124404892Y-125385895D02*
X121645866Y-128144921D01*
X122750757Y-158004000D02*
X131694000Y-158004000D01*
X121645866Y-156899109D02*
X122750757Y-158004000D01*
X121244866Y-157065209D02*
X121244866Y-116680134D01*
X135498000Y-156200000D02*
X133293000Y-158405000D01*
X122584657Y-158405000D02*
X121244866Y-157065209D01*
X121244866Y-116680134D02*
X124249000Y-113676000D01*
X133293000Y-158405000D02*
X122584657Y-158405000D01*
X120843866Y-157231309D02*
X122712557Y-159100000D01*
X120843866Y-115946921D02*
X120843866Y-157231309D01*
X124404892Y-112385895D02*
X120843866Y-115946921D01*
X122712557Y-159100000D02*
X123298000Y-159100000D01*
X180700000Y-110075000D02*
X180700000Y-112773000D01*
X180700000Y-112773000D02*
X179949000Y-113524000D01*
X179793108Y-114814105D02*
X178700000Y-113720997D01*
X178700000Y-113720997D02*
X178700000Y-110075000D01*
X176700000Y-110075000D02*
X177301000Y-109474000D01*
X177301000Y-109474000D02*
X180948943Y-109474000D01*
X181349134Y-125123866D02*
X179949000Y-126524000D01*
X181349134Y-109874191D02*
X181349134Y-125123866D01*
X180948943Y-109474000D02*
X181349134Y-109874191D01*
X174700000Y-110075000D02*
X175702000Y-109073000D01*
X181115043Y-109073000D02*
X181750134Y-109708091D01*
X181750134Y-125857079D02*
X179793108Y-127814105D01*
X181750134Y-109708091D02*
X181750134Y-125857079D01*
X175702000Y-109073000D02*
X181115043Y-109073000D01*
X182151134Y-109541991D02*
X181281143Y-108672000D01*
X174103000Y-108672000D02*
X181281143Y-108672000D01*
X179949000Y-139524000D02*
X182151134Y-137321866D01*
X182151134Y-137321866D02*
X182151134Y-109541991D01*
X172700000Y-110075000D02*
X174103000Y-108672000D01*
X181447244Y-108271000D02*
X172504000Y-108271000D01*
X179793108Y-140814105D02*
X182552134Y-138055079D01*
X182552134Y-138055079D02*
X182552134Y-109375891D01*
X182552134Y-109375891D02*
X181447244Y-108271000D01*
X172504000Y-108271000D02*
X170700000Y-110075000D01*
X181613343Y-107870000D02*
X182953134Y-109209791D01*
X179949000Y-152524000D02*
X182953134Y-149519866D01*
X168700000Y-110075000D02*
X170905000Y-107870000D01*
X170905000Y-107870000D02*
X181613343Y-107870000D01*
X182953134Y-149519866D02*
X182953134Y-109209791D01*
X183354134Y-109043691D02*
X181510443Y-107200000D01*
X179793108Y-153814105D02*
X183354134Y-150253079D01*
X183354134Y-150253079D02*
X183354134Y-109043691D01*
X181510443Y-107200000D02*
X180900000Y-107200000D01*
X123498000Y-89727000D02*
X124249000Y-88976000D01*
X123498000Y-92400000D02*
X123498000Y-89727000D01*
X125498000Y-88779003D02*
X125498000Y-92400000D01*
X124404892Y-87685895D02*
X125498000Y-88779003D01*
X122848866Y-92900809D02*
X123249057Y-93301000D01*
X124249000Y-75976000D02*
X122848866Y-77376134D01*
X126897000Y-93301000D02*
X127498000Y-92700000D01*
X123249057Y-93301000D02*
X126897000Y-93301000D01*
X122848866Y-77376134D02*
X122848866Y-92900809D01*
X128496000Y-93702000D02*
X129498000Y-92700000D01*
X124404892Y-74685895D02*
X122447866Y-76642921D01*
X123082957Y-93702000D02*
X128496000Y-93702000D01*
X122447866Y-93066909D02*
X123082957Y-93702000D01*
X122447866Y-76642921D02*
X122447866Y-93066909D01*
X122916857Y-94103000D02*
X130095000Y-94103000D01*
X122046866Y-65178134D02*
X122046866Y-93233009D01*
X122046866Y-93233009D02*
X122916857Y-94103000D01*
X124249000Y-62976000D02*
X122046866Y-65178134D01*
X130095000Y-94103000D02*
X131498000Y-92700000D01*
X121645866Y-93399109D02*
X122750757Y-94504000D01*
X122750757Y-94504000D02*
X131694000Y-94504000D01*
X124404892Y-61685895D02*
X121645866Y-64444921D01*
X131694000Y-94504000D02*
X133498000Y-92700000D01*
X121645866Y-64444921D02*
X121645866Y-93399109D01*
X121244866Y-93565209D02*
X122584657Y-94905000D01*
X122584657Y-94905000D02*
X133293000Y-94905000D01*
X124249000Y-49976000D02*
X121244866Y-52980134D01*
X121244866Y-52980134D02*
X121244866Y-93565209D01*
X133293000Y-94905000D02*
X135498000Y-92700000D01*
X122590894Y-95600000D02*
X123298000Y-95600000D01*
X120843866Y-52246921D02*
X120843866Y-93852972D01*
X124404892Y-48685895D02*
X120843866Y-52246921D01*
X120843866Y-93852972D02*
X122590894Y-95600000D01*
X148500000Y11124943D02*
X148500000Y18800000D01*
X174800000Y32346700D02*
X175956600Y33503300D01*
X152832900Y22700000D02*
X154432900Y24300000D01*
X146100000Y8724943D02*
X147587528Y10212472D01*
X146100000Y6798787D02*
X146100000Y8724943D01*
X141500000Y4025057D02*
X143574943Y6100000D01*
X143574943Y6100000D02*
X145401213Y6100000D01*
X154432900Y24300000D02*
X170150000Y24300000D01*
X148521496Y21697000D02*
X149524496Y22700000D01*
X145401213Y6100000D02*
X146100000Y6798787D01*
X170150000Y24300000D02*
X174800000Y28950000D01*
X174800000Y28950000D02*
X174800000Y32346700D01*
X149524496Y22700000D02*
X152832900Y22700000D01*
X141500000Y-800000D02*
X141500000Y4025057D01*
X142200000Y-1500000D02*
X141500000Y-800000D01*
X149100000Y-1500000D02*
X142200000Y-1500000D01*
X147587528Y10212472D02*
X148500000Y11124943D01*
X149996238Y-2396238D02*
X149100000Y-1500000D01*
X188599000Y-15617450D02*
X190100000Y-14116450D01*
X182763800Y-4500000D02*
X182700000Y-4500000D01*
X184200000Y-41700000D02*
X184200000Y-98000000D01*
X180665291Y-164292002D02*
X181163177Y-164292002D01*
X188599000Y-24133084D02*
X188599000Y-15617450D01*
X125397000Y-164201000D02*
X123149057Y-164201000D01*
X127598000Y-162000000D02*
X127598000Y-161649943D01*
X129299000Y-160799000D02*
X135198000Y-166698000D01*
X120041866Y-161093809D02*
X120041866Y-104900955D01*
X120041866Y-104900955D02*
X123034823Y-101907998D01*
X184156134Y-161299045D02*
X184156134Y-108689034D01*
X135198000Y-166698000D02*
X176369100Y-166698000D01*
X184156134Y-108689034D02*
X181666100Y-106199000D01*
X180656293Y-164301000D02*
X180665291Y-164292002D01*
X176600000Y-103900000D02*
X176600000Y-104300000D01*
X181099000Y-106199000D02*
X179800000Y-104900000D01*
X177770337Y-165301999D02*
X178771336Y-164301000D01*
X190100000Y-14116450D02*
X190100000Y-7890400D01*
X190100000Y-7890400D02*
X189309600Y-7100000D01*
X176600000Y-38000000D02*
X176600000Y-36132084D01*
X178771336Y-164301000D02*
X180656293Y-164301000D01*
X127597000Y-161648943D02*
X127597000Y-161151057D01*
X179500000Y-101000000D02*
X176600000Y-103900000D01*
X184200000Y-98000000D02*
X181200000Y-101000000D01*
X181666100Y-106199000D02*
X181099000Y-106199000D01*
X185363800Y-7100000D02*
X182763800Y-4500000D01*
X180200000Y-38600000D02*
X181100000Y-38600000D01*
X181163177Y-164292002D02*
X184156134Y-161299045D01*
X176600000Y-40800000D02*
X178000000Y-40800000D01*
X127598000Y-162000000D02*
X125397000Y-164201000D01*
X123034823Y-101907998D02*
X124690002Y-101907998D01*
X127598000Y-99000000D02*
X127598000Y-98500000D01*
X181100000Y-38600000D02*
X184200000Y-41700000D01*
X178000000Y-40800000D02*
X180200000Y-38600000D01*
X176600000Y-36132084D02*
X188599000Y-24133084D01*
X127597000Y-161151057D02*
X127949057Y-160799000D01*
X123149057Y-164201000D02*
X120041866Y-161093809D01*
X176369100Y-166698000D02*
X177765101Y-165301999D01*
X127949057Y-160799000D02*
X129299000Y-160799000D01*
X124690002Y-101907998D02*
X127598000Y-99000000D01*
X189309600Y-7100000D02*
X185363800Y-7100000D01*
X127598000Y-161649943D02*
X127597000Y-161648943D01*
X181200000Y-101000000D02*
X179500000Y-101000000D01*
X177765101Y-165301999D02*
X177770337Y-165301999D01*
X187060000Y17260000D02*
X186460000Y17260000D01*
X178102537Y-166103999D02*
X179103536Y-165103000D01*
X181532200Y-101802000D02*
X185002000Y-98332200D01*
X119198000Y-161384143D02*
X122816857Y-165003000D01*
X170904000Y-12413043D02*
X171702000Y-11615043D01*
X128798000Y-98500000D02*
X128198000Y-97900000D01*
X171702000Y-9248056D02*
X176500000Y-4450057D01*
X126012043Y-165003000D02*
X128799000Y-162216043D01*
X178032900Y-39600000D02*
X174200000Y-39600000D01*
X184958134Y-161631245D02*
X184958134Y-108191034D01*
X161100000Y19000000D02*
X162800000Y17300000D01*
X179103536Y-165103000D02*
X180988493Y-165103000D01*
X128799000Y-162000000D02*
X129365800Y-162000000D01*
X128799000Y-162216043D02*
X128799000Y-162000000D01*
X181466100Y-37799000D02*
X179833900Y-37799000D01*
X170904000Y-30387105D02*
X170904000Y-12413043D01*
X172505000Y-37905000D02*
X172505000Y-31988105D01*
X178600000Y-103100000D02*
X178600000Y-104449943D01*
X185002000Y-98000000D02*
X185001000Y-97999000D01*
X184958134Y-108191034D02*
X181500000Y-104732900D01*
X176701300Y-167500000D02*
X178097301Y-166103999D01*
X190300000Y13650090D02*
X190300000Y17463310D01*
X180988493Y-165103000D02*
X180997491Y-165094002D01*
X185001000Y-41333900D02*
X181466100Y-37799000D01*
X172505000Y-31988105D02*
X170904000Y-30387105D01*
X122673028Y-101100000D02*
X119198000Y-104575028D01*
X162800000Y17300000D02*
X170900000Y17300000D01*
X185002000Y-98332200D02*
X185002000Y-98000000D01*
X128198000Y-97900000D02*
X125898000Y-97900000D01*
X181500000Y-101834200D02*
X181532200Y-101802000D01*
X178148943Y-104901000D02*
X175901000Y-104901000D01*
X187149910Y10500000D02*
X190300000Y13650090D01*
X171901000Y16299000D02*
X184800000Y16299000D01*
X177600000Y10500000D02*
X187149910Y10500000D01*
X185001000Y-97999000D02*
X185001000Y-41333900D01*
X178600000Y-104449943D02*
X178148943Y-104901000D01*
X184800000Y16299000D02*
X185499000Y16299000D01*
X179833900Y-37799000D02*
X178032900Y-39600000D01*
X119198000Y-104575028D02*
X119198000Y-161384143D01*
X176500000Y-4450057D02*
X176500000Y9400000D01*
X122816857Y-165003000D02*
X126012043Y-165003000D01*
X129365800Y-162000000D02*
X134865800Y-167500000D01*
X175901000Y-104901000D02*
X175300000Y-104300000D01*
X173200000Y-38600000D02*
X175400000Y-40800000D01*
X181495377Y-165094002D02*
X184958134Y-161631245D01*
X125498000Y-98300000D02*
X125498000Y-99965800D01*
X125498000Y-99965800D02*
X124363800Y-101100000D01*
X190300000Y17463310D02*
X189440310Y18323000D01*
X174200000Y-39600000D02*
X173200000Y-38600000D01*
X124363800Y-101100000D02*
X122673028Y-101100000D01*
X181532200Y-101802000D02*
X179898000Y-101802000D01*
X179898000Y-101802000D02*
X178600000Y-103100000D01*
X188123000Y18323000D02*
X187060000Y17260000D01*
X170900000Y17300000D02*
X171901000Y16299000D01*
X180997491Y-165094002D02*
X181495377Y-165094002D01*
X125898000Y-97900000D02*
X125498000Y-98300000D01*
X181500000Y-104732900D02*
X181500000Y-101834200D01*
X178097301Y-166103999D02*
X178102537Y-166103999D01*
X134865800Y-167500000D02*
X176701300Y-167500000D01*
X173200000Y-38600000D02*
X172505000Y-37905000D01*
X171702000Y-11615043D02*
X171702000Y-9248056D01*
X185499000Y16299000D02*
X186460000Y17260000D01*
X189440310Y18323000D02*
X188123000Y18323000D01*
X176500000Y9400000D02*
X177600000Y10500000D01*
X180600000Y-106600000D02*
X181500000Y-106600000D01*
X135643756Y-166297000D02*
X131398000Y-162051244D01*
X179199000Y-105199000D02*
X180600000Y-106600000D01*
X177599001Y-164900999D02*
X176203000Y-166297000D01*
X178605236Y-163900000D02*
X177604237Y-164900999D01*
X177604237Y-164900999D02*
X177599001Y-164900999D01*
X183755134Y-108855134D02*
X183755134Y-161132945D01*
X131398000Y-162051244D02*
X131398000Y-162000000D01*
X179199000Y-104276000D02*
X179199000Y-105199000D01*
X180997077Y-163891002D02*
X180499191Y-163891002D01*
X180490193Y-163900000D02*
X178605236Y-163900000D01*
X183755134Y-161132945D02*
X180997077Y-163891002D01*
X176203000Y-166297000D02*
X135643756Y-166297000D01*
X180499191Y-163891002D02*
X180490193Y-163900000D01*
X181500000Y-106600000D02*
X183755134Y-108855134D01*
X180800000Y-102675000D02*
X179199000Y-104276000D01*
X176332900Y-103600000D02*
X173475000Y-103600000D01*
X180800000Y-39200000D02*
X183755134Y-42155134D01*
X183755134Y-97844866D02*
X181001000Y-100599000D01*
X183755134Y-42155134D02*
X183755134Y-97844866D01*
X179333900Y-100599000D02*
X176332900Y-103600000D01*
X173475000Y-103600000D02*
X172800000Y-104275000D01*
X181001000Y-100599000D02*
X179333900Y-100599000D01*
X123200923Y-102308998D02*
X124856102Y-102308998D01*
X120442866Y-105067055D02*
X123200923Y-102308998D01*
X127965100Y-99200000D02*
X130698000Y-99200000D01*
X130698000Y-99200000D02*
X131398000Y-98500000D01*
X120442866Y-160644866D02*
X120442866Y-105067055D01*
X124856102Y-102308998D02*
X127965100Y-99200000D01*
X123398000Y-163600000D02*
X120442866Y-160644866D01*
X169403000Y-7767800D02*
X169403000Y9014750D01*
X128199000Y-161751057D02*
X128199000Y-162248943D01*
X184557134Y-161465145D02*
X181329277Y-164693002D01*
X176000000Y-41401000D02*
X175101000Y-41401000D01*
X180500000Y-104300000D02*
X184557134Y-108357134D01*
X169403000Y9014750D02*
X169400000Y9017750D01*
X177931201Y-165702999D02*
X176535200Y-167099000D01*
X178937436Y-164702000D02*
X177936437Y-165702999D01*
X135031900Y-167099000D02*
X129332900Y-161400000D01*
X162724585Y16275415D02*
X162724585Y16299000D01*
X167574943Y12300000D02*
X166700000Y12300000D01*
X129048943Y-161400000D02*
X129047943Y-161399000D01*
X176000000Y-40205290D02*
X176202645Y-40002645D01*
X177703000Y15497000D02*
X171568800Y15497000D01*
X176535200Y-167099000D02*
X135031900Y-167099000D01*
X128549057Y-161400000D02*
X128198000Y-161400000D01*
X184601000Y-98166100D02*
X181366100Y-101401000D01*
X171301000Y-9665800D02*
X169403000Y-7767800D01*
X181329277Y-164693002D02*
X180831391Y-164693002D01*
X177900000Y-103200000D02*
X177900000Y-104300000D01*
X129047943Y-161399000D02*
X128550057Y-161399000D01*
X169400000Y9017750D02*
X169400000Y10474943D01*
X122982957Y-164602000D02*
X119640866Y-161259909D01*
X171568800Y15497000D02*
X170766800Y16299000D01*
X170766800Y16299000D02*
X162724585Y16299000D01*
X179300000Y13900000D02*
X177703000Y15497000D01*
X170503000Y-12246943D02*
X171301000Y-11448943D01*
X119640866Y-104734855D02*
X122868723Y-101506998D01*
X180831391Y-164693002D02*
X180822393Y-164702000D01*
X128199000Y-162248943D02*
X125845943Y-164602000D01*
X171301000Y-11448943D02*
X171301000Y-9665800D01*
X175101000Y-41401000D02*
X172104000Y-38404000D01*
X119640866Y-161259909D02*
X119640866Y-104734855D01*
X128198000Y-161750057D02*
X128199000Y-161751057D01*
X184557134Y-108357134D02*
X184557134Y-161465145D01*
X177936437Y-165702999D02*
X177931201Y-165702999D01*
X122868723Y-101506998D02*
X124523902Y-101506998D01*
X125845943Y-164602000D02*
X122982957Y-164602000D01*
X181300000Y-38200000D02*
X184600000Y-41500000D01*
X170503000Y-30553205D02*
X170503000Y-12246943D01*
X126298000Y-99732900D02*
X126298000Y-98500000D01*
X179699000Y-101401000D02*
X177900000Y-103200000D01*
X176000000Y-41401000D02*
X176000000Y-40205290D01*
X180000000Y-38200000D02*
X181300000Y-38200000D01*
X128198000Y-161400000D02*
X128198000Y-161750057D01*
X181366100Y-101401000D02*
X179699000Y-101401000D01*
X124523902Y-101506998D02*
X126298000Y-99732900D01*
X128550057Y-161399000D02*
X128549057Y-161400000D01*
X176202645Y-40002645D02*
X178197355Y-40002645D01*
X172104000Y-32154205D02*
X170503000Y-30553205D01*
X178197355Y-40002645D02*
X180000000Y-38200000D01*
X166700000Y12300000D02*
X162724585Y16275415D01*
X169400000Y10474943D02*
X167574943Y12300000D01*
X129332900Y-161400000D02*
X129048943Y-161400000D01*
X172104000Y-38404000D02*
X172104000Y-32154205D01*
X179300000Y11900000D02*
X179300000Y13900000D01*
X184600000Y-41500000D02*
X184600000Y-98165100D01*
X180822393Y-164702000D02*
X178937436Y-164702000D01*
X184600000Y-98165100D02*
X184601000Y-98166100D01*
X167700000Y-9500000D02*
X166901000Y-8701000D01*
X167100000Y-3400000D02*
X159237111Y4462889D01*
X169402000Y-33526000D02*
X167700000Y-31824000D01*
X166199000Y-47607520D02*
X166199000Y-45492479D01*
X169402000Y-36332200D02*
X169402000Y-33526000D01*
X167100000Y-4350057D02*
X167100000Y-3400000D01*
X166199000Y-45492479D02*
X169400000Y-42291478D01*
X159237111Y4462889D02*
X145149001Y4462889D01*
X168452197Y-49589002D02*
X168180481Y-49589002D01*
X169400000Y-36334200D02*
X169402000Y-36332200D01*
X167101000Y-4351057D02*
X167100000Y-4350057D01*
X168453197Y-49590002D02*
X168452197Y-49589002D01*
X169400000Y-42291478D02*
X169400000Y-36334200D01*
X169900000Y-49590002D02*
X168453197Y-49590002D01*
X166901000Y-8701000D02*
X166901000Y-5048943D01*
X167101000Y-4848943D02*
X167101000Y-4351057D01*
X166901000Y-5048943D02*
X167101000Y-4848943D01*
X167700000Y-31824000D02*
X167700000Y-9500000D01*
X168180481Y-49589002D02*
X166199000Y-47607520D01*
X169200000Y-54208940D02*
X167800000Y-52808940D01*
X167800000Y-50650000D02*
X165397000Y-48247000D01*
X165397000Y-45160279D02*
X168598000Y-41959278D01*
X168598000Y-36002000D02*
X168600000Y-36000000D01*
X166641800Y-31900000D02*
X166641800Y-20911300D01*
X144451905Y3861889D02*
X143951128Y4362666D01*
X168600000Y-33858200D02*
X166641800Y-31900000D01*
X169200000Y-61841868D02*
X169200000Y-54208940D01*
X166641800Y-20911300D02*
X165900000Y-20169500D01*
X165900000Y-2767100D02*
X159271011Y3861889D01*
X169948134Y-62590002D02*
X169200000Y-61841868D01*
X159271011Y3861889D02*
X144451905Y3861889D01*
X168600000Y-36000000D02*
X168600000Y-33858200D01*
X168598000Y-41959278D02*
X168598000Y-36002000D01*
X165900000Y-20169500D02*
X165900000Y-2767100D01*
X167800000Y-52808940D02*
X167800000Y-50650000D01*
X165397000Y-48247000D02*
X165397000Y-45160279D01*
X142500000Y4100000D02*
X143200000Y3400000D01*
X168398000Y-54541140D02*
X166998000Y-53141140D01*
X164595000Y-44828079D02*
X167796000Y-41627078D01*
X164998000Y-9547943D02*
X164998000Y-9600000D01*
X165839800Y-21243500D02*
X164998000Y-20401700D01*
X159100000Y3400000D02*
X163999000Y-1499000D01*
X168600000Y-66600000D02*
X167599000Y-65599000D01*
X143200000Y3400000D02*
X159100000Y3400000D01*
X166998000Y-50982200D02*
X164595000Y-48579200D01*
X164998000Y-20401700D02*
X164998000Y-9600000D01*
X163999000Y-1499000D02*
X163999000Y-8548943D01*
X166998000Y-53141140D02*
X166998000Y-50982200D01*
X167599000Y-63201055D02*
X168398000Y-62402055D01*
X167796000Y-34257900D02*
X165839800Y-32301700D01*
X164595000Y-48579200D02*
X164595000Y-44828079D01*
X165839800Y-32301700D02*
X165839800Y-21243500D01*
X167796000Y-41627078D02*
X167796000Y-34257900D01*
X163999000Y-8548943D02*
X164998000Y-9547943D01*
X168398000Y-62402055D02*
X168398000Y-54541140D01*
X169948134Y-75590002D02*
X168600000Y-74241868D01*
X167599000Y-65599000D02*
X167599000Y-63201055D01*
X168600000Y-74241868D02*
X168600000Y-66600000D01*
X149026300Y1273943D02*
X149026300Y173700D01*
X166797000Y-65931200D02*
X166797000Y-62868855D01*
X162799000Y-1949056D02*
X158457943Y2392000D01*
X163793000Y-44495879D02*
X166994000Y-41294879D01*
X162799000Y-8503000D02*
X162799000Y-1949056D01*
X169200000Y-86900057D02*
X169200000Y-80302000D01*
X169200000Y-87841868D02*
X169200000Y-87399943D01*
X169199000Y-87398943D02*
X169199000Y-86901057D01*
X166196000Y-53473340D02*
X166196000Y-51314400D01*
X158457943Y2392000D02*
X150144357Y2392000D01*
X169200000Y-87399943D02*
X169199000Y-87398943D01*
X163793000Y-48911400D02*
X163793000Y-44495879D01*
X166994000Y-41294879D02*
X166994000Y-34590100D01*
X169199000Y-86901057D02*
X169200000Y-86900057D01*
X169948134Y-88590002D02*
X169200000Y-87841868D01*
X167515478Y-54792818D02*
X166196000Y-53473340D01*
X165037800Y-32633900D02*
X165037800Y-21575700D01*
X169200000Y-80302000D02*
X167599000Y-78701000D01*
X167599000Y-78701000D02*
X167599000Y-66733200D01*
X164196000Y-9900000D02*
X162799000Y-8503000D01*
X150144357Y2392000D02*
X149026300Y1273943D01*
X166994000Y-34590100D02*
X165037800Y-32633900D01*
X167599000Y-66733200D02*
X166797000Y-65931200D01*
X149026300Y173700D02*
X149800000Y-600000D01*
X167515478Y-62150377D02*
X167515478Y-54792818D01*
X164196000Y-20733900D02*
X164196000Y-9900000D01*
X165037800Y-21575700D02*
X164196000Y-20733900D01*
X166797000Y-62868855D02*
X167515478Y-62150377D01*
X166196000Y-51314400D02*
X163793000Y-48911400D01*
X144508000Y-46036900D02*
X144508000Y-144192000D01*
X146765000Y-32702100D02*
X143705000Y-35762100D01*
X152100000Y-7600000D02*
X152100000Y-12400000D01*
X143705000Y-45233900D02*
X144508000Y-46036900D01*
X143705000Y-35762100D02*
X143705000Y-45233900D01*
X144508000Y-144192000D02*
X135490002Y-153209998D01*
X135490002Y-153209998D02*
X134249866Y-153209998D01*
X152100000Y-12400000D02*
X146765000Y-17735000D01*
X146765000Y-17735000D02*
X146765000Y-32702100D01*
X135690002Y-140209998D02*
X143706000Y-132194000D01*
X134249866Y-140209998D02*
X135690002Y-140209998D01*
X150900000Y-12465800D02*
X150900000Y-7600000D01*
X145963000Y-17402800D02*
X150900000Y-12465800D01*
X145963000Y-32338300D02*
X145963000Y-17402800D01*
X143706000Y-132194000D02*
X143706000Y-46370800D01*
X142903000Y-45567800D02*
X142903000Y-35398300D01*
X143706000Y-46370800D02*
X142903000Y-45567800D01*
X142903000Y-35398300D02*
X145963000Y-32338300D01*
X145161000Y-17070600D02*
X149600000Y-12631600D01*
X142904000Y-119596000D02*
X142904000Y-46703000D01*
X135290002Y-127209998D02*
X142904000Y-119596000D01*
X142101000Y-35066100D02*
X145161000Y-32006100D01*
X149600000Y-12631600D02*
X149600000Y-7600000D01*
X145161000Y-32006100D02*
X145161000Y-17070600D01*
X142904000Y-46703000D02*
X142101000Y-45900000D01*
X142101000Y-45900000D02*
X142101000Y-35066100D01*
X134249866Y-127209998D02*
X135290002Y-127209998D01*
X142102000Y-47098100D02*
X140303000Y-45299100D01*
X134249866Y-114209998D02*
X135290002Y-114209998D01*
X135290002Y-114209998D02*
X142102000Y-107398000D01*
X144359000Y-16673900D02*
X148400000Y-12632900D01*
X142102000Y-107398000D02*
X142102000Y-47098100D01*
X140303000Y-35700900D02*
X144359000Y-31644900D01*
X148400000Y-12632900D02*
X148400000Y-7600000D01*
X140303000Y-45299100D02*
X140303000Y-35700900D01*
X144359000Y-31644900D02*
X144359000Y-16673900D01*
X166192000Y-40962679D02*
X166192000Y-34922300D01*
X164698000Y-109506520D02*
X164698000Y-50950600D01*
X161500000Y-9949943D02*
X161500000Y-4349943D01*
X164698000Y-50950600D02*
X162991000Y-49243600D01*
X149627300Y1028243D02*
X149627300Y1025000D01*
X167791480Y-112600000D02*
X164698000Y-109506520D01*
X163394000Y-21108557D02*
X163394000Y-11843943D01*
X162991000Y-44163679D02*
X166192000Y-40962679D01*
X162991000Y-49243600D02*
X162991000Y-44163679D01*
X169900000Y-112990002D02*
X169509998Y-112600000D01*
X161500000Y-3850057D02*
X161500000Y-2000000D01*
X164205000Y-21919557D02*
X163394000Y-21108557D01*
X166192000Y-34922300D02*
X164205000Y-32935300D01*
X161501000Y-4348943D02*
X161501000Y-3851057D01*
X163394000Y-11843943D02*
X161500000Y-9949943D01*
X164205000Y-32935300D02*
X164205000Y-21919557D01*
X161500000Y-4349943D02*
X161501000Y-4348943D01*
X157509000Y1991000D02*
X150590057Y1991000D01*
X150590057Y1991000D02*
X149627300Y1028243D01*
X161500000Y-2000000D02*
X157509000Y1991000D01*
X169509998Y-112600000D02*
X167791480Y-112600000D01*
X161501000Y-3851057D02*
X161500000Y-3850057D01*
X162189000Y-49575800D02*
X162189000Y-43831478D01*
X160300000Y-9884143D02*
X160300000Y-3400000D01*
X162592000Y-12176143D02*
X160300000Y-9884143D01*
X169948134Y-125990002D02*
X166372959Y-125990002D01*
X162592000Y-21440757D02*
X162592000Y-12176143D01*
X165390000Y-35254500D02*
X163403000Y-33267500D01*
X151154413Y344587D02*
X150474000Y1025000D01*
X163403000Y-22251757D02*
X162592000Y-21440757D01*
X164978640Y-110921360D02*
X163896000Y-109838720D01*
X163896000Y-51282800D02*
X162189000Y-49575800D01*
X165390000Y-40630479D02*
X165390000Y-35254500D01*
X166372959Y-125990002D02*
X164978640Y-124595683D01*
X160300000Y-3400000D02*
X156555413Y344587D01*
X162189000Y-43831478D02*
X165390000Y-40630479D01*
X163896000Y-109838720D02*
X163896000Y-51282800D01*
X156555413Y344587D02*
X151154413Y344587D01*
X164978640Y-124595683D02*
X164978640Y-110921360D01*
X163403000Y-33267500D02*
X163403000Y-22251757D01*
X162098000Y-50661100D02*
X161387000Y-49950100D01*
X162601000Y-33599700D02*
X162601000Y-22583957D01*
X169948134Y-138990002D02*
X166372959Y-138990002D01*
X159100000Y-2767100D02*
X156389313Y-56413D01*
X162098000Y-134097999D02*
X162098000Y-50661100D01*
X163801000Y-136418042D02*
X163801000Y-135800999D01*
X156389313Y-56413D02*
X155449943Y-56413D01*
X154951057Y-55413D02*
X154950057Y-56413D01*
X159100000Y-9818343D02*
X159100000Y-2767100D01*
X161387000Y-49950100D02*
X161387000Y-43499279D01*
X155449943Y-56413D02*
X155448943Y-55413D01*
X155448943Y-55413D02*
X154951057Y-55413D01*
X162601000Y-22583957D02*
X161790000Y-21772957D01*
X154950057Y-56413D02*
X150430413Y-56413D01*
X166372959Y-138990002D02*
X163801000Y-136418042D01*
X164588000Y-35586700D02*
X162601000Y-33599700D01*
X161387000Y-43499279D02*
X164588000Y-40298279D01*
X164588000Y-40298279D02*
X164588000Y-35586700D01*
X161790000Y-21772957D02*
X161790000Y-12508343D01*
X163801000Y-135800999D02*
X162098000Y-134097999D01*
X161790000Y-12508343D02*
X159100000Y-9818343D01*
X169948134Y-151990002D02*
X166372959Y-151990002D01*
X163786000Y-39966079D02*
X163786000Y-35918900D01*
X160585000Y-43167079D02*
X163786000Y-39966079D01*
X154200000Y-500000D02*
X151613172Y-500000D01*
X166372959Y-151990002D02*
X164841478Y-150458521D01*
X161296000Y-146346057D02*
X161296000Y-50993300D01*
X163786000Y-35918900D02*
X158923729Y-31056629D01*
X151613172Y-500000D02*
X151125000Y-988172D01*
X160585000Y-50282300D02*
X160585000Y-43167079D01*
X158298000Y-10150543D02*
X158298000Y-4604356D01*
X161296000Y-50993300D02*
X160585000Y-50282300D01*
X158923729Y-31056629D02*
X158923729Y-10776271D01*
X158923729Y-10776271D02*
X158298000Y-10150543D01*
X164841478Y-150458521D02*
X164841478Y-149891535D01*
X158298000Y-4604356D02*
X154200000Y-506356D01*
X164841478Y-149891535D02*
X161296000Y-146346057D01*
X154200000Y-506356D02*
X154200000Y-500000D01*
X139501000Y-35368700D02*
X143557000Y-31312700D01*
X139501000Y-45631300D02*
X139501000Y-35368700D01*
X135200000Y-89600000D02*
X140302000Y-84498000D01*
X143557000Y-16341700D02*
X147100000Y-12798700D01*
X147100000Y-12798700D02*
X147100000Y-7600000D01*
X140302000Y-46432300D02*
X139501000Y-45631300D01*
X134400000Y-89600000D02*
X135200000Y-89600000D01*
X140302000Y-84498000D02*
X140302000Y-46432300D01*
X143557000Y-31312700D02*
X143557000Y-16341700D01*
X142755000Y-16009500D02*
X145785000Y-12979500D01*
X137005000Y-44269500D02*
X137005000Y-36730500D01*
X134259864Y-76509998D02*
X135290002Y-76509998D01*
X139500000Y-72300000D02*
X139500000Y-46764500D01*
X145785000Y-12979500D02*
X145785000Y-7615000D01*
X135290002Y-76509998D02*
X139500000Y-72300000D01*
X134249866Y-76500000D02*
X134259864Y-76509998D01*
X142755000Y-30980500D02*
X142755000Y-16009500D01*
X137005000Y-36730500D02*
X142755000Y-30980500D01*
X145785000Y-7615000D02*
X145800000Y-7600000D01*
X139500000Y-46764500D02*
X137005000Y-44269500D01*
X136942072Y-62192129D02*
X136942072Y-51242071D01*
X137101000Y-62848943D02*
X137101000Y-62351057D01*
X141953000Y-15677300D02*
X144600000Y-13030300D01*
X136203000Y-36398300D02*
X141953000Y-30648300D01*
X136449943Y-63500000D02*
X137101000Y-62848943D01*
X141953000Y-30648300D02*
X141953000Y-15677300D01*
X137101000Y-62351057D02*
X136942072Y-62192129D01*
X144600000Y-7663038D02*
X144631519Y-7631519D01*
X144600000Y-13030300D02*
X144600000Y-7663038D01*
X137903000Y-46301700D02*
X136203000Y-44601700D01*
X136203000Y-44601700D02*
X136203000Y-36398300D01*
X136942072Y-51242071D02*
X137903000Y-50281143D01*
X137903000Y-50281143D02*
X137903000Y-46301700D01*
X144631519Y-7631519D02*
X144589118Y-7631519D01*
X134249866Y-63500000D02*
X136449943Y-63500000D01*
X137101000Y-49948943D02*
X137101000Y-46633900D01*
X134249866Y-50476274D02*
X136573669Y-50476274D01*
X135401000Y-36066100D02*
X141151000Y-30316100D01*
X143300000Y-13196100D02*
X143300000Y-7600000D01*
X137101000Y-46633900D02*
X135401000Y-44933900D01*
X135401000Y-44933900D02*
X135401000Y-36066100D01*
X136573669Y-50476274D02*
X137101000Y-49948943D01*
X141151000Y-15345100D02*
X143300000Y-13196100D01*
X141151000Y-30316100D02*
X141151000Y-15345100D01*
D23*
X115002359Y-10501109D02*
X118377359Y-7126109D01*
X121387357Y6400000D02*
X123700000Y6400000D01*
X118377359Y-7126109D02*
X118377359Y3390002D01*
X118377359Y3390002D02*
X121387357Y6400000D01*
X118026359Y-6174384D02*
X118026359Y3535390D01*
X118026359Y3535390D02*
X122890969Y8400000D01*
X115353565Y-8847178D02*
X118026359Y-6174384D01*
X122890969Y8400000D02*
X123700000Y8400000D01*
X117675359Y-4533552D02*
X117675359Y3680778D01*
X115362055Y-6846856D02*
X117675359Y-4533552D01*
X117675359Y3680778D02*
X123700000Y9705419D01*
X123700000Y9705419D02*
X123700000Y10400000D01*
X123124000Y11824000D02*
X123700000Y12400000D01*
X115353359Y-4845106D02*
X117324359Y-2874106D01*
X123124000Y9625806D02*
X123124000Y11824000D01*
X117324359Y-2874106D02*
X117324359Y3826166D01*
X117324359Y3826166D02*
X123124000Y9625806D01*
X115353359Y-2847187D02*
X116973359Y-1227187D01*
X116973359Y3971555D02*
X122773000Y9771195D01*
X122773000Y9771195D02*
X122773000Y13473000D01*
X116973359Y-1227187D02*
X116973359Y3971555D01*
X122773000Y13473000D02*
X123700000Y14400000D01*
X122422000Y15122000D02*
X123700000Y16400000D01*
X115353359Y-847187D02*
X116622359Y421813D01*
X122422000Y9916584D02*
X122422000Y15122000D01*
X116622359Y4116942D02*
X122422000Y9916584D01*
X116622359Y421813D02*
X116622359Y4116942D01*
X116271359Y2072894D02*
X116271359Y4262331D01*
X122071000Y10061972D02*
X122071000Y16771000D01*
X122071000Y16771000D02*
X123700000Y18400000D01*
X116271359Y4262331D02*
X122071000Y10061972D01*
X115353359Y1154894D02*
X116271359Y2072894D01*
X121720000Y10207360D02*
X121720000Y18420000D01*
X115353359Y3840719D02*
X121720000Y10207360D01*
X121720000Y18420000D02*
X123700000Y20400000D01*
D20*
X127328288Y15600000D02*
X126728288Y16200000D01*
X126728288Y16200000D02*
X126728288Y17371712D01*
D23*
X115353359Y3152813D02*
X115353359Y3840719D01*
D20*
X126728288Y17371712D02*
X123700000Y20400000D01*
M02*
