%TF.GenerationSoftware,KiCad,Pcbnew,9.0.5*%
%TF.CreationDate,2025-11-08T18:30:54-06:00*%
%TF.ProjectId,PowerDistributionUnit_Mk1,506f7765-7244-4697-9374-726962757469,rev?*%
%TF.SameCoordinates,Original*%
%TF.FileFunction,Drillmap*%
%TF.FilePolarity,Positive*%
%FSLAX45Y45*%
G04 Gerber Fmt 4.5, Leading zero omitted, Abs format (unit mm)*
G04 Created by KiCad (PCBNEW 9.0.5) date 2025-11-08 18:30:54*
%MOMM*%
%LPD*%
G01*
G04 APERTURE LIST*
%ADD10C,0.050000*%
%ADD11C,0.200000*%
%ADD12C,0.134620*%
%ADD13C,0.165100*%
G04 APERTURE END LIST*
D10*
X11190000Y-16620000D02*
X11190000Y3380000D01*
X11490000Y-16920000D02*
G75*
G02*
X11190000Y-16620000I0J300000D01*
G01*
X11190000Y3380000D02*
G75*
G02*
X11490000Y3680000I300000J0D01*
G01*
X18930000Y3680000D02*
G75*
G02*
X19230000Y3380000I0J-300000D01*
G01*
X19230000Y-16620000D02*
G75*
G02*
X18930000Y-16920000I-300000J0D01*
G01*
X18930000Y-16920000D02*
X11490000Y-16920000D01*
X11490000Y3680000D02*
X18930000Y3680000D01*
X19230000Y3380000D02*
X19230000Y-16620000D01*
D11*
D12*
X11528690Y-2202690D02*
X11663310Y-2337310D01*
X11663310Y-2202690D02*
X11528690Y-2337310D01*
X13072790Y3301295D02*
X13207410Y3166675D01*
X13207410Y3301295D02*
X13072790Y3166675D01*
X13792790Y3301295D02*
X13927410Y3166675D01*
X13927410Y3301295D02*
X13792790Y3166675D01*
X14762690Y-3752690D02*
X14897310Y-3887310D01*
X14897310Y-3752690D02*
X14762690Y-3887310D01*
X15872690Y-3753690D02*
X16007310Y-3888310D01*
X16007310Y-3753690D02*
X15872690Y-3888310D01*
D13*
X15302550Y-9623000D02*
G75*
G02*
X15137450Y-9623000I-82550J0D01*
G01*
X15137450Y-9623000D02*
G75*
G02*
X15302550Y-9623000I82550J0D01*
G01*
X15302550Y-11807000D02*
G75*
G02*
X15137450Y-11807000I-82550J0D01*
G01*
X15137450Y-11807000D02*
G75*
G02*
X15302550Y-11807000I82550J0D01*
G01*
D11*
X11448277Y-17233984D02*
X11448277Y-17033984D01*
X11448277Y-17033984D02*
X11495896Y-17033984D01*
X11495896Y-17033984D02*
X11524467Y-17043508D01*
X11524467Y-17043508D02*
X11543515Y-17062555D01*
X11543515Y-17062555D02*
X11553039Y-17081603D01*
X11553039Y-17081603D02*
X11562562Y-17119698D01*
X11562562Y-17119698D02*
X11562562Y-17148270D01*
X11562562Y-17148270D02*
X11553039Y-17186365D01*
X11553039Y-17186365D02*
X11543515Y-17205412D01*
X11543515Y-17205412D02*
X11524467Y-17224460D01*
X11524467Y-17224460D02*
X11495896Y-17233984D01*
X11495896Y-17233984D02*
X11448277Y-17233984D01*
X11648277Y-17233984D02*
X11648277Y-17100650D01*
X11648277Y-17138746D02*
X11657801Y-17119698D01*
X11657801Y-17119698D02*
X11667324Y-17110174D01*
X11667324Y-17110174D02*
X11686372Y-17100650D01*
X11686372Y-17100650D02*
X11705420Y-17100650D01*
X11772086Y-17233984D02*
X11772086Y-17100650D01*
X11772086Y-17033984D02*
X11762562Y-17043508D01*
X11762562Y-17043508D02*
X11772086Y-17053031D01*
X11772086Y-17053031D02*
X11781610Y-17043508D01*
X11781610Y-17043508D02*
X11772086Y-17033984D01*
X11772086Y-17033984D02*
X11772086Y-17053031D01*
X11895896Y-17233984D02*
X11876848Y-17224460D01*
X11876848Y-17224460D02*
X11867324Y-17205412D01*
X11867324Y-17205412D02*
X11867324Y-17033984D01*
X12000658Y-17233984D02*
X11981610Y-17224460D01*
X11981610Y-17224460D02*
X11972086Y-17205412D01*
X11972086Y-17205412D02*
X11972086Y-17033984D01*
X12229229Y-17233984D02*
X12229229Y-17033984D01*
X12229229Y-17033984D02*
X12295896Y-17176841D01*
X12295896Y-17176841D02*
X12362562Y-17033984D01*
X12362562Y-17033984D02*
X12362562Y-17233984D01*
X12543515Y-17233984D02*
X12543515Y-17129222D01*
X12543515Y-17129222D02*
X12533991Y-17110174D01*
X12533991Y-17110174D02*
X12514943Y-17100650D01*
X12514943Y-17100650D02*
X12476848Y-17100650D01*
X12476848Y-17100650D02*
X12457801Y-17110174D01*
X12543515Y-17224460D02*
X12524467Y-17233984D01*
X12524467Y-17233984D02*
X12476848Y-17233984D01*
X12476848Y-17233984D02*
X12457801Y-17224460D01*
X12457801Y-17224460D02*
X12448277Y-17205412D01*
X12448277Y-17205412D02*
X12448277Y-17186365D01*
X12448277Y-17186365D02*
X12457801Y-17167317D01*
X12457801Y-17167317D02*
X12476848Y-17157793D01*
X12476848Y-17157793D02*
X12524467Y-17157793D01*
X12524467Y-17157793D02*
X12543515Y-17148270D01*
X12638753Y-17100650D02*
X12638753Y-17300650D01*
X12638753Y-17110174D02*
X12657801Y-17100650D01*
X12657801Y-17100650D02*
X12695896Y-17100650D01*
X12695896Y-17100650D02*
X12714943Y-17110174D01*
X12714943Y-17110174D02*
X12724467Y-17119698D01*
X12724467Y-17119698D02*
X12733991Y-17138746D01*
X12733991Y-17138746D02*
X12733991Y-17195889D01*
X12733991Y-17195889D02*
X12724467Y-17214936D01*
X12724467Y-17214936D02*
X12714943Y-17224460D01*
X12714943Y-17224460D02*
X12695896Y-17233984D01*
X12695896Y-17233984D02*
X12657801Y-17233984D01*
X12657801Y-17233984D02*
X12638753Y-17224460D01*
X12819705Y-17214936D02*
X12829229Y-17224460D01*
X12829229Y-17224460D02*
X12819705Y-17233984D01*
X12819705Y-17233984D02*
X12810182Y-17224460D01*
X12810182Y-17224460D02*
X12819705Y-17214936D01*
X12819705Y-17214936D02*
X12819705Y-17233984D01*
X12819705Y-17110174D02*
X12829229Y-17119698D01*
X12829229Y-17119698D02*
X12819705Y-17129222D01*
X12819705Y-17129222D02*
X12810182Y-17119698D01*
X12810182Y-17119698D02*
X12819705Y-17110174D01*
X12819705Y-17110174D02*
X12819705Y-17129222D01*
D12*
X11052880Y-17495190D02*
X11187500Y-17629810D01*
X11187500Y-17495190D02*
X11052880Y-17629810D01*
D11*
X11553039Y-17653984D02*
X11438753Y-17653984D01*
X11495896Y-17653984D02*
X11495896Y-17453984D01*
X11495896Y-17453984D02*
X11476848Y-17482555D01*
X11476848Y-17482555D02*
X11457801Y-17501603D01*
X11457801Y-17501603D02*
X11438753Y-17511127D01*
X11638753Y-17634936D02*
X11648277Y-17644460D01*
X11648277Y-17644460D02*
X11638753Y-17653984D01*
X11638753Y-17653984D02*
X11629229Y-17644460D01*
X11629229Y-17644460D02*
X11638753Y-17634936D01*
X11638753Y-17634936D02*
X11638753Y-17653984D01*
X11714943Y-17453984D02*
X11838753Y-17453984D01*
X11838753Y-17453984D02*
X11772086Y-17530174D01*
X11772086Y-17530174D02*
X11800658Y-17530174D01*
X11800658Y-17530174D02*
X11819705Y-17539698D01*
X11819705Y-17539698D02*
X11829229Y-17549222D01*
X11829229Y-17549222D02*
X11838753Y-17568270D01*
X11838753Y-17568270D02*
X11838753Y-17615889D01*
X11838753Y-17615889D02*
X11829229Y-17634936D01*
X11829229Y-17634936D02*
X11819705Y-17644460D01*
X11819705Y-17644460D02*
X11800658Y-17653984D01*
X11800658Y-17653984D02*
X11743515Y-17653984D01*
X11743515Y-17653984D02*
X11724467Y-17644460D01*
X11724467Y-17644460D02*
X11714943Y-17634936D01*
X12010182Y-17520650D02*
X12010182Y-17653984D01*
X11962562Y-17444460D02*
X11914943Y-17587317D01*
X11914943Y-17587317D02*
X12038753Y-17587317D01*
X12200658Y-17453984D02*
X12162562Y-17453984D01*
X12162562Y-17453984D02*
X12143515Y-17463508D01*
X12143515Y-17463508D02*
X12133991Y-17473031D01*
X12133991Y-17473031D02*
X12114943Y-17501603D01*
X12114943Y-17501603D02*
X12105420Y-17539698D01*
X12105420Y-17539698D02*
X12105420Y-17615889D01*
X12105420Y-17615889D02*
X12114943Y-17634936D01*
X12114943Y-17634936D02*
X12124467Y-17644460D01*
X12124467Y-17644460D02*
X12143515Y-17653984D01*
X12143515Y-17653984D02*
X12181610Y-17653984D01*
X12181610Y-17653984D02*
X12200658Y-17644460D01*
X12200658Y-17644460D02*
X12210182Y-17634936D01*
X12210182Y-17634936D02*
X12219705Y-17615889D01*
X12219705Y-17615889D02*
X12219705Y-17568270D01*
X12219705Y-17568270D02*
X12210182Y-17549222D01*
X12210182Y-17549222D02*
X12200658Y-17539698D01*
X12200658Y-17539698D02*
X12181610Y-17530174D01*
X12181610Y-17530174D02*
X12143515Y-17530174D01*
X12143515Y-17530174D02*
X12124467Y-17539698D01*
X12124467Y-17539698D02*
X12114943Y-17549222D01*
X12114943Y-17549222D02*
X12105420Y-17568270D01*
X12305420Y-17653984D02*
X12305420Y-17520650D01*
X12305420Y-17539698D02*
X12314943Y-17530174D01*
X12314943Y-17530174D02*
X12333991Y-17520650D01*
X12333991Y-17520650D02*
X12362563Y-17520650D01*
X12362563Y-17520650D02*
X12381610Y-17530174D01*
X12381610Y-17530174D02*
X12391134Y-17549222D01*
X12391134Y-17549222D02*
X12391134Y-17653984D01*
X12391134Y-17549222D02*
X12400658Y-17530174D01*
X12400658Y-17530174D02*
X12419705Y-17520650D01*
X12419705Y-17520650D02*
X12448277Y-17520650D01*
X12448277Y-17520650D02*
X12467324Y-17530174D01*
X12467324Y-17530174D02*
X12476848Y-17549222D01*
X12476848Y-17549222D02*
X12476848Y-17653984D01*
X12572086Y-17653984D02*
X12572086Y-17520650D01*
X12572086Y-17539698D02*
X12581610Y-17530174D01*
X12581610Y-17530174D02*
X12600658Y-17520650D01*
X12600658Y-17520650D02*
X12629229Y-17520650D01*
X12629229Y-17520650D02*
X12648277Y-17530174D01*
X12648277Y-17530174D02*
X12657801Y-17549222D01*
X12657801Y-17549222D02*
X12657801Y-17653984D01*
X12657801Y-17549222D02*
X12667324Y-17530174D01*
X12667324Y-17530174D02*
X12686372Y-17520650D01*
X12686372Y-17520650D02*
X12714943Y-17520650D01*
X12714943Y-17520650D02*
X12733991Y-17530174D01*
X12733991Y-17530174D02*
X12743515Y-17549222D01*
X12743515Y-17549222D02*
X12743515Y-17653984D01*
X13133991Y-17444460D02*
X12962563Y-17701603D01*
X13391134Y-17453984D02*
X13410182Y-17453984D01*
X13410182Y-17453984D02*
X13429229Y-17463508D01*
X13429229Y-17463508D02*
X13438753Y-17473031D01*
X13438753Y-17473031D02*
X13448277Y-17492079D01*
X13448277Y-17492079D02*
X13457801Y-17530174D01*
X13457801Y-17530174D02*
X13457801Y-17577793D01*
X13457801Y-17577793D02*
X13448277Y-17615889D01*
X13448277Y-17615889D02*
X13438753Y-17634936D01*
X13438753Y-17634936D02*
X13429229Y-17644460D01*
X13429229Y-17644460D02*
X13410182Y-17653984D01*
X13410182Y-17653984D02*
X13391134Y-17653984D01*
X13391134Y-17653984D02*
X13372086Y-17644460D01*
X13372086Y-17644460D02*
X13362563Y-17634936D01*
X13362563Y-17634936D02*
X13353039Y-17615889D01*
X13353039Y-17615889D02*
X13343515Y-17577793D01*
X13343515Y-17577793D02*
X13343515Y-17530174D01*
X13343515Y-17530174D02*
X13353039Y-17492079D01*
X13353039Y-17492079D02*
X13362563Y-17473031D01*
X13362563Y-17473031D02*
X13372086Y-17463508D01*
X13372086Y-17463508D02*
X13391134Y-17453984D01*
X13543515Y-17634936D02*
X13553039Y-17644460D01*
X13553039Y-17644460D02*
X13543515Y-17653984D01*
X13543515Y-17653984D02*
X13533991Y-17644460D01*
X13533991Y-17644460D02*
X13543515Y-17634936D01*
X13543515Y-17634936D02*
X13543515Y-17653984D01*
X13676848Y-17453984D02*
X13695896Y-17453984D01*
X13695896Y-17453984D02*
X13714944Y-17463508D01*
X13714944Y-17463508D02*
X13724467Y-17473031D01*
X13724467Y-17473031D02*
X13733991Y-17492079D01*
X13733991Y-17492079D02*
X13743515Y-17530174D01*
X13743515Y-17530174D02*
X13743515Y-17577793D01*
X13743515Y-17577793D02*
X13733991Y-17615889D01*
X13733991Y-17615889D02*
X13724467Y-17634936D01*
X13724467Y-17634936D02*
X13714944Y-17644460D01*
X13714944Y-17644460D02*
X13695896Y-17653984D01*
X13695896Y-17653984D02*
X13676848Y-17653984D01*
X13676848Y-17653984D02*
X13657801Y-17644460D01*
X13657801Y-17644460D02*
X13648277Y-17634936D01*
X13648277Y-17634936D02*
X13638753Y-17615889D01*
X13638753Y-17615889D02*
X13629229Y-17577793D01*
X13629229Y-17577793D02*
X13629229Y-17530174D01*
X13629229Y-17530174D02*
X13638753Y-17492079D01*
X13638753Y-17492079D02*
X13648277Y-17473031D01*
X13648277Y-17473031D02*
X13657801Y-17463508D01*
X13657801Y-17463508D02*
X13676848Y-17453984D01*
X13924467Y-17453984D02*
X13829229Y-17453984D01*
X13829229Y-17453984D02*
X13819706Y-17549222D01*
X13819706Y-17549222D02*
X13829229Y-17539698D01*
X13829229Y-17539698D02*
X13848277Y-17530174D01*
X13848277Y-17530174D02*
X13895896Y-17530174D01*
X13895896Y-17530174D02*
X13914944Y-17539698D01*
X13914944Y-17539698D02*
X13924467Y-17549222D01*
X13924467Y-17549222D02*
X13933991Y-17568270D01*
X13933991Y-17568270D02*
X13933991Y-17615889D01*
X13933991Y-17615889D02*
X13924467Y-17634936D01*
X13924467Y-17634936D02*
X13914944Y-17644460D01*
X13914944Y-17644460D02*
X13895896Y-17653984D01*
X13895896Y-17653984D02*
X13848277Y-17653984D01*
X13848277Y-17653984D02*
X13829229Y-17644460D01*
X13829229Y-17644460D02*
X13819706Y-17634936D01*
X14000658Y-17453984D02*
X14124467Y-17453984D01*
X14124467Y-17453984D02*
X14057801Y-17530174D01*
X14057801Y-17530174D02*
X14086372Y-17530174D01*
X14086372Y-17530174D02*
X14105420Y-17539698D01*
X14105420Y-17539698D02*
X14114944Y-17549222D01*
X14114944Y-17549222D02*
X14124467Y-17568270D01*
X14124467Y-17568270D02*
X14124467Y-17615889D01*
X14124467Y-17615889D02*
X14114944Y-17634936D01*
X14114944Y-17634936D02*
X14105420Y-17644460D01*
X14105420Y-17644460D02*
X14086372Y-17653984D01*
X14086372Y-17653984D02*
X14029229Y-17653984D01*
X14029229Y-17653984D02*
X14010182Y-17644460D01*
X14010182Y-17644460D02*
X14000658Y-17634936D01*
X14248277Y-17453984D02*
X14267325Y-17453984D01*
X14267325Y-17453984D02*
X14286372Y-17463508D01*
X14286372Y-17463508D02*
X14295896Y-17473031D01*
X14295896Y-17473031D02*
X14305420Y-17492079D01*
X14305420Y-17492079D02*
X14314944Y-17530174D01*
X14314944Y-17530174D02*
X14314944Y-17577793D01*
X14314944Y-17577793D02*
X14305420Y-17615889D01*
X14305420Y-17615889D02*
X14295896Y-17634936D01*
X14295896Y-17634936D02*
X14286372Y-17644460D01*
X14286372Y-17644460D02*
X14267325Y-17653984D01*
X14267325Y-17653984D02*
X14248277Y-17653984D01*
X14248277Y-17653984D02*
X14229229Y-17644460D01*
X14229229Y-17644460D02*
X14219706Y-17634936D01*
X14219706Y-17634936D02*
X14210182Y-17615889D01*
X14210182Y-17615889D02*
X14200658Y-17577793D01*
X14200658Y-17577793D02*
X14200658Y-17530174D01*
X14200658Y-17530174D02*
X14210182Y-17492079D01*
X14210182Y-17492079D02*
X14219706Y-17473031D01*
X14219706Y-17473031D02*
X14229229Y-17463508D01*
X14229229Y-17463508D02*
X14248277Y-17453984D01*
X14391134Y-17453984D02*
X14391134Y-17492079D01*
X14467325Y-17453984D02*
X14467325Y-17492079D01*
X14762563Y-17730174D02*
X14753039Y-17720650D01*
X14753039Y-17720650D02*
X14733991Y-17692079D01*
X14733991Y-17692079D02*
X14724468Y-17673031D01*
X14724468Y-17673031D02*
X14714944Y-17644460D01*
X14714944Y-17644460D02*
X14705420Y-17596841D01*
X14705420Y-17596841D02*
X14705420Y-17558746D01*
X14705420Y-17558746D02*
X14714944Y-17511127D01*
X14714944Y-17511127D02*
X14724468Y-17482555D01*
X14724468Y-17482555D02*
X14733991Y-17463508D01*
X14733991Y-17463508D02*
X14753039Y-17434936D01*
X14753039Y-17434936D02*
X14762563Y-17425412D01*
X14933991Y-17453984D02*
X14838753Y-17453984D01*
X14838753Y-17453984D02*
X14829229Y-17549222D01*
X14829229Y-17549222D02*
X14838753Y-17539698D01*
X14838753Y-17539698D02*
X14857801Y-17530174D01*
X14857801Y-17530174D02*
X14905420Y-17530174D01*
X14905420Y-17530174D02*
X14924468Y-17539698D01*
X14924468Y-17539698D02*
X14933991Y-17549222D01*
X14933991Y-17549222D02*
X14943515Y-17568270D01*
X14943515Y-17568270D02*
X14943515Y-17615889D01*
X14943515Y-17615889D02*
X14933991Y-17634936D01*
X14933991Y-17634936D02*
X14924468Y-17644460D01*
X14924468Y-17644460D02*
X14905420Y-17653984D01*
X14905420Y-17653984D02*
X14857801Y-17653984D01*
X14857801Y-17653984D02*
X14838753Y-17644460D01*
X14838753Y-17644460D02*
X14829229Y-17634936D01*
X15181610Y-17653984D02*
X15181610Y-17453984D01*
X15267325Y-17653984D02*
X15267325Y-17549222D01*
X15267325Y-17549222D02*
X15257801Y-17530174D01*
X15257801Y-17530174D02*
X15238753Y-17520650D01*
X15238753Y-17520650D02*
X15210182Y-17520650D01*
X15210182Y-17520650D02*
X15191134Y-17530174D01*
X15191134Y-17530174D02*
X15181610Y-17539698D01*
X15391134Y-17653984D02*
X15372087Y-17644460D01*
X15372087Y-17644460D02*
X15362563Y-17634936D01*
X15362563Y-17634936D02*
X15353039Y-17615889D01*
X15353039Y-17615889D02*
X15353039Y-17558746D01*
X15353039Y-17558746D02*
X15362563Y-17539698D01*
X15362563Y-17539698D02*
X15372087Y-17530174D01*
X15372087Y-17530174D02*
X15391134Y-17520650D01*
X15391134Y-17520650D02*
X15419706Y-17520650D01*
X15419706Y-17520650D02*
X15438753Y-17530174D01*
X15438753Y-17530174D02*
X15448277Y-17539698D01*
X15448277Y-17539698D02*
X15457801Y-17558746D01*
X15457801Y-17558746D02*
X15457801Y-17615889D01*
X15457801Y-17615889D02*
X15448277Y-17634936D01*
X15448277Y-17634936D02*
X15438753Y-17644460D01*
X15438753Y-17644460D02*
X15419706Y-17653984D01*
X15419706Y-17653984D02*
X15391134Y-17653984D01*
X15572087Y-17653984D02*
X15553039Y-17644460D01*
X15553039Y-17644460D02*
X15543515Y-17625412D01*
X15543515Y-17625412D02*
X15543515Y-17453984D01*
X15724468Y-17644460D02*
X15705420Y-17653984D01*
X15705420Y-17653984D02*
X15667325Y-17653984D01*
X15667325Y-17653984D02*
X15648277Y-17644460D01*
X15648277Y-17644460D02*
X15638753Y-17625412D01*
X15638753Y-17625412D02*
X15638753Y-17549222D01*
X15638753Y-17549222D02*
X15648277Y-17530174D01*
X15648277Y-17530174D02*
X15667325Y-17520650D01*
X15667325Y-17520650D02*
X15705420Y-17520650D01*
X15705420Y-17520650D02*
X15724468Y-17530174D01*
X15724468Y-17530174D02*
X15733991Y-17549222D01*
X15733991Y-17549222D02*
X15733991Y-17568270D01*
X15733991Y-17568270D02*
X15638753Y-17587317D01*
X15810182Y-17644460D02*
X15829230Y-17653984D01*
X15829230Y-17653984D02*
X15867325Y-17653984D01*
X15867325Y-17653984D02*
X15886372Y-17644460D01*
X15886372Y-17644460D02*
X15895896Y-17625412D01*
X15895896Y-17625412D02*
X15895896Y-17615889D01*
X15895896Y-17615889D02*
X15886372Y-17596841D01*
X15886372Y-17596841D02*
X15867325Y-17587317D01*
X15867325Y-17587317D02*
X15838753Y-17587317D01*
X15838753Y-17587317D02*
X15819706Y-17577793D01*
X15819706Y-17577793D02*
X15810182Y-17558746D01*
X15810182Y-17558746D02*
X15810182Y-17549222D01*
X15810182Y-17549222D02*
X15819706Y-17530174D01*
X15819706Y-17530174D02*
X15838753Y-17520650D01*
X15838753Y-17520650D02*
X15867325Y-17520650D01*
X15867325Y-17520650D02*
X15886372Y-17530174D01*
X15962563Y-17730174D02*
X15972087Y-17720650D01*
X15972087Y-17720650D02*
X15991134Y-17692079D01*
X15991134Y-17692079D02*
X16000658Y-17673031D01*
X16000658Y-17673031D02*
X16010182Y-17644460D01*
X16010182Y-17644460D02*
X16019706Y-17596841D01*
X16019706Y-17596841D02*
X16019706Y-17558746D01*
X16019706Y-17558746D02*
X16010182Y-17511127D01*
X16010182Y-17511127D02*
X16000658Y-17482555D01*
X16000658Y-17482555D02*
X15991134Y-17463508D01*
X15991134Y-17463508D02*
X15972087Y-17434936D01*
X15972087Y-17434936D02*
X15962563Y-17425412D01*
X16324468Y-17730174D02*
X16314944Y-17720650D01*
X16314944Y-17720650D02*
X16295896Y-17692079D01*
X16295896Y-17692079D02*
X16286372Y-17673031D01*
X16286372Y-17673031D02*
X16276849Y-17644460D01*
X16276849Y-17644460D02*
X16267325Y-17596841D01*
X16267325Y-17596841D02*
X16267325Y-17558746D01*
X16267325Y-17558746D02*
X16276849Y-17511127D01*
X16276849Y-17511127D02*
X16286372Y-17482555D01*
X16286372Y-17482555D02*
X16295896Y-17463508D01*
X16295896Y-17463508D02*
X16314944Y-17434936D01*
X16314944Y-17434936D02*
X16324468Y-17425412D01*
X16400658Y-17520650D02*
X16400658Y-17653984D01*
X16400658Y-17539698D02*
X16410182Y-17530174D01*
X16410182Y-17530174D02*
X16429230Y-17520650D01*
X16429230Y-17520650D02*
X16457801Y-17520650D01*
X16457801Y-17520650D02*
X16476849Y-17530174D01*
X16476849Y-17530174D02*
X16486372Y-17549222D01*
X16486372Y-17549222D02*
X16486372Y-17653984D01*
X16610182Y-17653984D02*
X16591134Y-17644460D01*
X16591134Y-17644460D02*
X16581611Y-17634936D01*
X16581611Y-17634936D02*
X16572087Y-17615889D01*
X16572087Y-17615889D02*
X16572087Y-17558746D01*
X16572087Y-17558746D02*
X16581611Y-17539698D01*
X16581611Y-17539698D02*
X16591134Y-17530174D01*
X16591134Y-17530174D02*
X16610182Y-17520650D01*
X16610182Y-17520650D02*
X16638753Y-17520650D01*
X16638753Y-17520650D02*
X16657801Y-17530174D01*
X16657801Y-17530174D02*
X16667325Y-17539698D01*
X16667325Y-17539698D02*
X16676849Y-17558746D01*
X16676849Y-17558746D02*
X16676849Y-17615889D01*
X16676849Y-17615889D02*
X16667325Y-17634936D01*
X16667325Y-17634936D02*
X16657801Y-17644460D01*
X16657801Y-17644460D02*
X16638753Y-17653984D01*
X16638753Y-17653984D02*
X16610182Y-17653984D01*
X16733992Y-17520650D02*
X16810182Y-17520650D01*
X16762563Y-17453984D02*
X16762563Y-17625412D01*
X16762563Y-17625412D02*
X16772087Y-17644460D01*
X16772087Y-17644460D02*
X16791134Y-17653984D01*
X16791134Y-17653984D02*
X16810182Y-17653984D01*
X17029230Y-17520650D02*
X17029230Y-17720650D01*
X17029230Y-17530174D02*
X17048277Y-17520650D01*
X17048277Y-17520650D02*
X17086373Y-17520650D01*
X17086373Y-17520650D02*
X17105420Y-17530174D01*
X17105420Y-17530174D02*
X17114944Y-17539698D01*
X17114944Y-17539698D02*
X17124468Y-17558746D01*
X17124468Y-17558746D02*
X17124468Y-17615889D01*
X17124468Y-17615889D02*
X17114944Y-17634936D01*
X17114944Y-17634936D02*
X17105420Y-17644460D01*
X17105420Y-17644460D02*
X17086373Y-17653984D01*
X17086373Y-17653984D02*
X17048277Y-17653984D01*
X17048277Y-17653984D02*
X17029230Y-17644460D01*
X17238754Y-17653984D02*
X17219706Y-17644460D01*
X17219706Y-17644460D02*
X17210182Y-17625412D01*
X17210182Y-17625412D02*
X17210182Y-17453984D01*
X17400658Y-17653984D02*
X17400658Y-17549222D01*
X17400658Y-17549222D02*
X17391135Y-17530174D01*
X17391135Y-17530174D02*
X17372087Y-17520650D01*
X17372087Y-17520650D02*
X17333992Y-17520650D01*
X17333992Y-17520650D02*
X17314944Y-17530174D01*
X17400658Y-17644460D02*
X17381611Y-17653984D01*
X17381611Y-17653984D02*
X17333992Y-17653984D01*
X17333992Y-17653984D02*
X17314944Y-17644460D01*
X17314944Y-17644460D02*
X17305420Y-17625412D01*
X17305420Y-17625412D02*
X17305420Y-17606365D01*
X17305420Y-17606365D02*
X17314944Y-17587317D01*
X17314944Y-17587317D02*
X17333992Y-17577793D01*
X17333992Y-17577793D02*
X17381611Y-17577793D01*
X17381611Y-17577793D02*
X17400658Y-17568270D01*
X17467325Y-17520650D02*
X17543515Y-17520650D01*
X17495896Y-17453984D02*
X17495896Y-17625412D01*
X17495896Y-17625412D02*
X17505420Y-17644460D01*
X17505420Y-17644460D02*
X17524468Y-17653984D01*
X17524468Y-17653984D02*
X17543515Y-17653984D01*
X17686373Y-17644460D02*
X17667325Y-17653984D01*
X17667325Y-17653984D02*
X17629230Y-17653984D01*
X17629230Y-17653984D02*
X17610182Y-17644460D01*
X17610182Y-17644460D02*
X17600658Y-17625412D01*
X17600658Y-17625412D02*
X17600658Y-17549222D01*
X17600658Y-17549222D02*
X17610182Y-17530174D01*
X17610182Y-17530174D02*
X17629230Y-17520650D01*
X17629230Y-17520650D02*
X17667325Y-17520650D01*
X17667325Y-17520650D02*
X17686373Y-17530174D01*
X17686373Y-17530174D02*
X17695896Y-17549222D01*
X17695896Y-17549222D02*
X17695896Y-17568270D01*
X17695896Y-17568270D02*
X17600658Y-17587317D01*
X17867325Y-17653984D02*
X17867325Y-17453984D01*
X17867325Y-17644460D02*
X17848277Y-17653984D01*
X17848277Y-17653984D02*
X17810182Y-17653984D01*
X17810182Y-17653984D02*
X17791135Y-17644460D01*
X17791135Y-17644460D02*
X17781611Y-17634936D01*
X17781611Y-17634936D02*
X17772087Y-17615889D01*
X17772087Y-17615889D02*
X17772087Y-17558746D01*
X17772087Y-17558746D02*
X17781611Y-17539698D01*
X17781611Y-17539698D02*
X17791135Y-17530174D01*
X17791135Y-17530174D02*
X17810182Y-17520650D01*
X17810182Y-17520650D02*
X17848277Y-17520650D01*
X17848277Y-17520650D02*
X17867325Y-17530174D01*
X17943516Y-17730174D02*
X17953039Y-17720650D01*
X17953039Y-17720650D02*
X17972087Y-17692079D01*
X17972087Y-17692079D02*
X17981611Y-17673031D01*
X17981611Y-17673031D02*
X17991135Y-17644460D01*
X17991135Y-17644460D02*
X18000658Y-17596841D01*
X18000658Y-17596841D02*
X18000658Y-17558746D01*
X18000658Y-17558746D02*
X17991135Y-17511127D01*
X17991135Y-17511127D02*
X17981611Y-17482555D01*
X17981611Y-17482555D02*
X17972087Y-17463508D01*
X17972087Y-17463508D02*
X17953039Y-17434936D01*
X17953039Y-17434936D02*
X17943516Y-17425412D01*
D13*
X11187500Y-17826500D02*
G75*
G02*
X11022400Y-17826500I-82550J0D01*
G01*
X11022400Y-17826500D02*
G75*
G02*
X11187500Y-17826500I82550J0D01*
G01*
D11*
X11553039Y-17917984D02*
X11438753Y-17917984D01*
X11495896Y-17917984D02*
X11495896Y-17717984D01*
X11495896Y-17717984D02*
X11476848Y-17746555D01*
X11476848Y-17746555D02*
X11457801Y-17765603D01*
X11457801Y-17765603D02*
X11438753Y-17775127D01*
X11638753Y-17898936D02*
X11648277Y-17908460D01*
X11648277Y-17908460D02*
X11638753Y-17917984D01*
X11638753Y-17917984D02*
X11629229Y-17908460D01*
X11629229Y-17908460D02*
X11638753Y-17898936D01*
X11638753Y-17898936D02*
X11638753Y-17917984D01*
X11819705Y-17717984D02*
X11781610Y-17717984D01*
X11781610Y-17717984D02*
X11762562Y-17727508D01*
X11762562Y-17727508D02*
X11753039Y-17737031D01*
X11753039Y-17737031D02*
X11733991Y-17765603D01*
X11733991Y-17765603D02*
X11724467Y-17803698D01*
X11724467Y-17803698D02*
X11724467Y-17879889D01*
X11724467Y-17879889D02*
X11733991Y-17898936D01*
X11733991Y-17898936D02*
X11743515Y-17908460D01*
X11743515Y-17908460D02*
X11762562Y-17917984D01*
X11762562Y-17917984D02*
X11800658Y-17917984D01*
X11800658Y-17917984D02*
X11819705Y-17908460D01*
X11819705Y-17908460D02*
X11829229Y-17898936D01*
X11829229Y-17898936D02*
X11838753Y-17879889D01*
X11838753Y-17879889D02*
X11838753Y-17832270D01*
X11838753Y-17832270D02*
X11829229Y-17813222D01*
X11829229Y-17813222D02*
X11819705Y-17803698D01*
X11819705Y-17803698D02*
X11800658Y-17794174D01*
X11800658Y-17794174D02*
X11762562Y-17794174D01*
X11762562Y-17794174D02*
X11743515Y-17803698D01*
X11743515Y-17803698D02*
X11733991Y-17813222D01*
X11733991Y-17813222D02*
X11724467Y-17832270D01*
X12019705Y-17717984D02*
X11924467Y-17717984D01*
X11924467Y-17717984D02*
X11914943Y-17813222D01*
X11914943Y-17813222D02*
X11924467Y-17803698D01*
X11924467Y-17803698D02*
X11943515Y-17794174D01*
X11943515Y-17794174D02*
X11991134Y-17794174D01*
X11991134Y-17794174D02*
X12010182Y-17803698D01*
X12010182Y-17803698D02*
X12019705Y-17813222D01*
X12019705Y-17813222D02*
X12029229Y-17832270D01*
X12029229Y-17832270D02*
X12029229Y-17879889D01*
X12029229Y-17879889D02*
X12019705Y-17898936D01*
X12019705Y-17898936D02*
X12010182Y-17908460D01*
X12010182Y-17908460D02*
X11991134Y-17917984D01*
X11991134Y-17917984D02*
X11943515Y-17917984D01*
X11943515Y-17917984D02*
X11924467Y-17908460D01*
X11924467Y-17908460D02*
X11914943Y-17898936D01*
X12219705Y-17917984D02*
X12105420Y-17917984D01*
X12162562Y-17917984D02*
X12162562Y-17717984D01*
X12162562Y-17717984D02*
X12143515Y-17746555D01*
X12143515Y-17746555D02*
X12124467Y-17765603D01*
X12124467Y-17765603D02*
X12105420Y-17775127D01*
X12305420Y-17917984D02*
X12305420Y-17784650D01*
X12305420Y-17803698D02*
X12314943Y-17794174D01*
X12314943Y-17794174D02*
X12333991Y-17784650D01*
X12333991Y-17784650D02*
X12362563Y-17784650D01*
X12362563Y-17784650D02*
X12381610Y-17794174D01*
X12381610Y-17794174D02*
X12391134Y-17813222D01*
X12391134Y-17813222D02*
X12391134Y-17917984D01*
X12391134Y-17813222D02*
X12400658Y-17794174D01*
X12400658Y-17794174D02*
X12419705Y-17784650D01*
X12419705Y-17784650D02*
X12448277Y-17784650D01*
X12448277Y-17784650D02*
X12467324Y-17794174D01*
X12467324Y-17794174D02*
X12476848Y-17813222D01*
X12476848Y-17813222D02*
X12476848Y-17917984D01*
X12572086Y-17917984D02*
X12572086Y-17784650D01*
X12572086Y-17803698D02*
X12581610Y-17794174D01*
X12581610Y-17794174D02*
X12600658Y-17784650D01*
X12600658Y-17784650D02*
X12629229Y-17784650D01*
X12629229Y-17784650D02*
X12648277Y-17794174D01*
X12648277Y-17794174D02*
X12657801Y-17813222D01*
X12657801Y-17813222D02*
X12657801Y-17917984D01*
X12657801Y-17813222D02*
X12667324Y-17794174D01*
X12667324Y-17794174D02*
X12686372Y-17784650D01*
X12686372Y-17784650D02*
X12714943Y-17784650D01*
X12714943Y-17784650D02*
X12733991Y-17794174D01*
X12733991Y-17794174D02*
X12743515Y-17813222D01*
X12743515Y-17813222D02*
X12743515Y-17917984D01*
X13133991Y-17708460D02*
X12962563Y-17965603D01*
X13391134Y-17717984D02*
X13410182Y-17717984D01*
X13410182Y-17717984D02*
X13429229Y-17727508D01*
X13429229Y-17727508D02*
X13438753Y-17737031D01*
X13438753Y-17737031D02*
X13448277Y-17756079D01*
X13448277Y-17756079D02*
X13457801Y-17794174D01*
X13457801Y-17794174D02*
X13457801Y-17841793D01*
X13457801Y-17841793D02*
X13448277Y-17879889D01*
X13448277Y-17879889D02*
X13438753Y-17898936D01*
X13438753Y-17898936D02*
X13429229Y-17908460D01*
X13429229Y-17908460D02*
X13410182Y-17917984D01*
X13410182Y-17917984D02*
X13391134Y-17917984D01*
X13391134Y-17917984D02*
X13372086Y-17908460D01*
X13372086Y-17908460D02*
X13362563Y-17898936D01*
X13362563Y-17898936D02*
X13353039Y-17879889D01*
X13353039Y-17879889D02*
X13343515Y-17841793D01*
X13343515Y-17841793D02*
X13343515Y-17794174D01*
X13343515Y-17794174D02*
X13353039Y-17756079D01*
X13353039Y-17756079D02*
X13362563Y-17737031D01*
X13362563Y-17737031D02*
X13372086Y-17727508D01*
X13372086Y-17727508D02*
X13391134Y-17717984D01*
X13543515Y-17898936D02*
X13553039Y-17908460D01*
X13553039Y-17908460D02*
X13543515Y-17917984D01*
X13543515Y-17917984D02*
X13533991Y-17908460D01*
X13533991Y-17908460D02*
X13543515Y-17898936D01*
X13543515Y-17898936D02*
X13543515Y-17917984D01*
X13676848Y-17717984D02*
X13695896Y-17717984D01*
X13695896Y-17717984D02*
X13714944Y-17727508D01*
X13714944Y-17727508D02*
X13724467Y-17737031D01*
X13724467Y-17737031D02*
X13733991Y-17756079D01*
X13733991Y-17756079D02*
X13743515Y-17794174D01*
X13743515Y-17794174D02*
X13743515Y-17841793D01*
X13743515Y-17841793D02*
X13733991Y-17879889D01*
X13733991Y-17879889D02*
X13724467Y-17898936D01*
X13724467Y-17898936D02*
X13714944Y-17908460D01*
X13714944Y-17908460D02*
X13695896Y-17917984D01*
X13695896Y-17917984D02*
X13676848Y-17917984D01*
X13676848Y-17917984D02*
X13657801Y-17908460D01*
X13657801Y-17908460D02*
X13648277Y-17898936D01*
X13648277Y-17898936D02*
X13638753Y-17879889D01*
X13638753Y-17879889D02*
X13629229Y-17841793D01*
X13629229Y-17841793D02*
X13629229Y-17794174D01*
X13629229Y-17794174D02*
X13638753Y-17756079D01*
X13638753Y-17756079D02*
X13648277Y-17737031D01*
X13648277Y-17737031D02*
X13657801Y-17727508D01*
X13657801Y-17727508D02*
X13676848Y-17717984D01*
X13914944Y-17717984D02*
X13876848Y-17717984D01*
X13876848Y-17717984D02*
X13857801Y-17727508D01*
X13857801Y-17727508D02*
X13848277Y-17737031D01*
X13848277Y-17737031D02*
X13829229Y-17765603D01*
X13829229Y-17765603D02*
X13819706Y-17803698D01*
X13819706Y-17803698D02*
X13819706Y-17879889D01*
X13819706Y-17879889D02*
X13829229Y-17898936D01*
X13829229Y-17898936D02*
X13838753Y-17908460D01*
X13838753Y-17908460D02*
X13857801Y-17917984D01*
X13857801Y-17917984D02*
X13895896Y-17917984D01*
X13895896Y-17917984D02*
X13914944Y-17908460D01*
X13914944Y-17908460D02*
X13924467Y-17898936D01*
X13924467Y-17898936D02*
X13933991Y-17879889D01*
X13933991Y-17879889D02*
X13933991Y-17832270D01*
X13933991Y-17832270D02*
X13924467Y-17813222D01*
X13924467Y-17813222D02*
X13914944Y-17803698D01*
X13914944Y-17803698D02*
X13895896Y-17794174D01*
X13895896Y-17794174D02*
X13857801Y-17794174D01*
X13857801Y-17794174D02*
X13838753Y-17803698D01*
X13838753Y-17803698D02*
X13829229Y-17813222D01*
X13829229Y-17813222D02*
X13819706Y-17832270D01*
X14114944Y-17717984D02*
X14019706Y-17717984D01*
X14019706Y-17717984D02*
X14010182Y-17813222D01*
X14010182Y-17813222D02*
X14019706Y-17803698D01*
X14019706Y-17803698D02*
X14038753Y-17794174D01*
X14038753Y-17794174D02*
X14086372Y-17794174D01*
X14086372Y-17794174D02*
X14105420Y-17803698D01*
X14105420Y-17803698D02*
X14114944Y-17813222D01*
X14114944Y-17813222D02*
X14124467Y-17832270D01*
X14124467Y-17832270D02*
X14124467Y-17879889D01*
X14124467Y-17879889D02*
X14114944Y-17898936D01*
X14114944Y-17898936D02*
X14105420Y-17908460D01*
X14105420Y-17908460D02*
X14086372Y-17917984D01*
X14086372Y-17917984D02*
X14038753Y-17917984D01*
X14038753Y-17917984D02*
X14019706Y-17908460D01*
X14019706Y-17908460D02*
X14010182Y-17898936D01*
X14248277Y-17717984D02*
X14267325Y-17717984D01*
X14267325Y-17717984D02*
X14286372Y-17727508D01*
X14286372Y-17727508D02*
X14295896Y-17737031D01*
X14295896Y-17737031D02*
X14305420Y-17756079D01*
X14305420Y-17756079D02*
X14314944Y-17794174D01*
X14314944Y-17794174D02*
X14314944Y-17841793D01*
X14314944Y-17841793D02*
X14305420Y-17879889D01*
X14305420Y-17879889D02*
X14295896Y-17898936D01*
X14295896Y-17898936D02*
X14286372Y-17908460D01*
X14286372Y-17908460D02*
X14267325Y-17917984D01*
X14267325Y-17917984D02*
X14248277Y-17917984D01*
X14248277Y-17917984D02*
X14229229Y-17908460D01*
X14229229Y-17908460D02*
X14219706Y-17898936D01*
X14219706Y-17898936D02*
X14210182Y-17879889D01*
X14210182Y-17879889D02*
X14200658Y-17841793D01*
X14200658Y-17841793D02*
X14200658Y-17794174D01*
X14200658Y-17794174D02*
X14210182Y-17756079D01*
X14210182Y-17756079D02*
X14219706Y-17737031D01*
X14219706Y-17737031D02*
X14229229Y-17727508D01*
X14229229Y-17727508D02*
X14248277Y-17717984D01*
X14391134Y-17717984D02*
X14391134Y-17756079D01*
X14467325Y-17717984D02*
X14467325Y-17756079D01*
X14762563Y-17994174D02*
X14753039Y-17984650D01*
X14753039Y-17984650D02*
X14733991Y-17956079D01*
X14733991Y-17956079D02*
X14724468Y-17937031D01*
X14724468Y-17937031D02*
X14714944Y-17908460D01*
X14714944Y-17908460D02*
X14705420Y-17860841D01*
X14705420Y-17860841D02*
X14705420Y-17822746D01*
X14705420Y-17822746D02*
X14714944Y-17775127D01*
X14714944Y-17775127D02*
X14724468Y-17746555D01*
X14724468Y-17746555D02*
X14733991Y-17727508D01*
X14733991Y-17727508D02*
X14753039Y-17698936D01*
X14753039Y-17698936D02*
X14762563Y-17689412D01*
X14829229Y-17737031D02*
X14838753Y-17727508D01*
X14838753Y-17727508D02*
X14857801Y-17717984D01*
X14857801Y-17717984D02*
X14905420Y-17717984D01*
X14905420Y-17717984D02*
X14924468Y-17727508D01*
X14924468Y-17727508D02*
X14933991Y-17737031D01*
X14933991Y-17737031D02*
X14943515Y-17756079D01*
X14943515Y-17756079D02*
X14943515Y-17775127D01*
X14943515Y-17775127D02*
X14933991Y-17803698D01*
X14933991Y-17803698D02*
X14819706Y-17917984D01*
X14819706Y-17917984D02*
X14943515Y-17917984D01*
X15181610Y-17917984D02*
X15181610Y-17717984D01*
X15267325Y-17917984D02*
X15267325Y-17813222D01*
X15267325Y-17813222D02*
X15257801Y-17794174D01*
X15257801Y-17794174D02*
X15238753Y-17784650D01*
X15238753Y-17784650D02*
X15210182Y-17784650D01*
X15210182Y-17784650D02*
X15191134Y-17794174D01*
X15191134Y-17794174D02*
X15181610Y-17803698D01*
X15391134Y-17917984D02*
X15372087Y-17908460D01*
X15372087Y-17908460D02*
X15362563Y-17898936D01*
X15362563Y-17898936D02*
X15353039Y-17879889D01*
X15353039Y-17879889D02*
X15353039Y-17822746D01*
X15353039Y-17822746D02*
X15362563Y-17803698D01*
X15362563Y-17803698D02*
X15372087Y-17794174D01*
X15372087Y-17794174D02*
X15391134Y-17784650D01*
X15391134Y-17784650D02*
X15419706Y-17784650D01*
X15419706Y-17784650D02*
X15438753Y-17794174D01*
X15438753Y-17794174D02*
X15448277Y-17803698D01*
X15448277Y-17803698D02*
X15457801Y-17822746D01*
X15457801Y-17822746D02*
X15457801Y-17879889D01*
X15457801Y-17879889D02*
X15448277Y-17898936D01*
X15448277Y-17898936D02*
X15438753Y-17908460D01*
X15438753Y-17908460D02*
X15419706Y-17917984D01*
X15419706Y-17917984D02*
X15391134Y-17917984D01*
X15572087Y-17917984D02*
X15553039Y-17908460D01*
X15553039Y-17908460D02*
X15543515Y-17889412D01*
X15543515Y-17889412D02*
X15543515Y-17717984D01*
X15724468Y-17908460D02*
X15705420Y-17917984D01*
X15705420Y-17917984D02*
X15667325Y-17917984D01*
X15667325Y-17917984D02*
X15648277Y-17908460D01*
X15648277Y-17908460D02*
X15638753Y-17889412D01*
X15638753Y-17889412D02*
X15638753Y-17813222D01*
X15638753Y-17813222D02*
X15648277Y-17794174D01*
X15648277Y-17794174D02*
X15667325Y-17784650D01*
X15667325Y-17784650D02*
X15705420Y-17784650D01*
X15705420Y-17784650D02*
X15724468Y-17794174D01*
X15724468Y-17794174D02*
X15733991Y-17813222D01*
X15733991Y-17813222D02*
X15733991Y-17832270D01*
X15733991Y-17832270D02*
X15638753Y-17851317D01*
X15810182Y-17908460D02*
X15829230Y-17917984D01*
X15829230Y-17917984D02*
X15867325Y-17917984D01*
X15867325Y-17917984D02*
X15886372Y-17908460D01*
X15886372Y-17908460D02*
X15895896Y-17889412D01*
X15895896Y-17889412D02*
X15895896Y-17879889D01*
X15895896Y-17879889D02*
X15886372Y-17860841D01*
X15886372Y-17860841D02*
X15867325Y-17851317D01*
X15867325Y-17851317D02*
X15838753Y-17851317D01*
X15838753Y-17851317D02*
X15819706Y-17841793D01*
X15819706Y-17841793D02*
X15810182Y-17822746D01*
X15810182Y-17822746D02*
X15810182Y-17813222D01*
X15810182Y-17813222D02*
X15819706Y-17794174D01*
X15819706Y-17794174D02*
X15838753Y-17784650D01*
X15838753Y-17784650D02*
X15867325Y-17784650D01*
X15867325Y-17784650D02*
X15886372Y-17794174D01*
X15962563Y-17994174D02*
X15972087Y-17984650D01*
X15972087Y-17984650D02*
X15991134Y-17956079D01*
X15991134Y-17956079D02*
X16000658Y-17937031D01*
X16000658Y-17937031D02*
X16010182Y-17908460D01*
X16010182Y-17908460D02*
X16019706Y-17860841D01*
X16019706Y-17860841D02*
X16019706Y-17822746D01*
X16019706Y-17822746D02*
X16010182Y-17775127D01*
X16010182Y-17775127D02*
X16000658Y-17746555D01*
X16000658Y-17746555D02*
X15991134Y-17727508D01*
X15991134Y-17727508D02*
X15972087Y-17698936D01*
X15972087Y-17698936D02*
X15962563Y-17689412D01*
X16324468Y-17994174D02*
X16314944Y-17984650D01*
X16314944Y-17984650D02*
X16295896Y-17956079D01*
X16295896Y-17956079D02*
X16286372Y-17937031D01*
X16286372Y-17937031D02*
X16276849Y-17908460D01*
X16276849Y-17908460D02*
X16267325Y-17860841D01*
X16267325Y-17860841D02*
X16267325Y-17822746D01*
X16267325Y-17822746D02*
X16276849Y-17775127D01*
X16276849Y-17775127D02*
X16286372Y-17746555D01*
X16286372Y-17746555D02*
X16295896Y-17727508D01*
X16295896Y-17727508D02*
X16314944Y-17698936D01*
X16314944Y-17698936D02*
X16324468Y-17689412D01*
X16400658Y-17784650D02*
X16400658Y-17917984D01*
X16400658Y-17803698D02*
X16410182Y-17794174D01*
X16410182Y-17794174D02*
X16429230Y-17784650D01*
X16429230Y-17784650D02*
X16457801Y-17784650D01*
X16457801Y-17784650D02*
X16476849Y-17794174D01*
X16476849Y-17794174D02*
X16486372Y-17813222D01*
X16486372Y-17813222D02*
X16486372Y-17917984D01*
X16610182Y-17917984D02*
X16591134Y-17908460D01*
X16591134Y-17908460D02*
X16581611Y-17898936D01*
X16581611Y-17898936D02*
X16572087Y-17879889D01*
X16572087Y-17879889D02*
X16572087Y-17822746D01*
X16572087Y-17822746D02*
X16581611Y-17803698D01*
X16581611Y-17803698D02*
X16591134Y-17794174D01*
X16591134Y-17794174D02*
X16610182Y-17784650D01*
X16610182Y-17784650D02*
X16638753Y-17784650D01*
X16638753Y-17784650D02*
X16657801Y-17794174D01*
X16657801Y-17794174D02*
X16667325Y-17803698D01*
X16667325Y-17803698D02*
X16676849Y-17822746D01*
X16676849Y-17822746D02*
X16676849Y-17879889D01*
X16676849Y-17879889D02*
X16667325Y-17898936D01*
X16667325Y-17898936D02*
X16657801Y-17908460D01*
X16657801Y-17908460D02*
X16638753Y-17917984D01*
X16638753Y-17917984D02*
X16610182Y-17917984D01*
X16733992Y-17784650D02*
X16810182Y-17784650D01*
X16762563Y-17717984D02*
X16762563Y-17889412D01*
X16762563Y-17889412D02*
X16772087Y-17908460D01*
X16772087Y-17908460D02*
X16791134Y-17917984D01*
X16791134Y-17917984D02*
X16810182Y-17917984D01*
X17029230Y-17784650D02*
X17029230Y-17984650D01*
X17029230Y-17794174D02*
X17048277Y-17784650D01*
X17048277Y-17784650D02*
X17086373Y-17784650D01*
X17086373Y-17784650D02*
X17105420Y-17794174D01*
X17105420Y-17794174D02*
X17114944Y-17803698D01*
X17114944Y-17803698D02*
X17124468Y-17822746D01*
X17124468Y-17822746D02*
X17124468Y-17879889D01*
X17124468Y-17879889D02*
X17114944Y-17898936D01*
X17114944Y-17898936D02*
X17105420Y-17908460D01*
X17105420Y-17908460D02*
X17086373Y-17917984D01*
X17086373Y-17917984D02*
X17048277Y-17917984D01*
X17048277Y-17917984D02*
X17029230Y-17908460D01*
X17238754Y-17917984D02*
X17219706Y-17908460D01*
X17219706Y-17908460D02*
X17210182Y-17889412D01*
X17210182Y-17889412D02*
X17210182Y-17717984D01*
X17400658Y-17917984D02*
X17400658Y-17813222D01*
X17400658Y-17813222D02*
X17391135Y-17794174D01*
X17391135Y-17794174D02*
X17372087Y-17784650D01*
X17372087Y-17784650D02*
X17333992Y-17784650D01*
X17333992Y-17784650D02*
X17314944Y-17794174D01*
X17400658Y-17908460D02*
X17381611Y-17917984D01*
X17381611Y-17917984D02*
X17333992Y-17917984D01*
X17333992Y-17917984D02*
X17314944Y-17908460D01*
X17314944Y-17908460D02*
X17305420Y-17889412D01*
X17305420Y-17889412D02*
X17305420Y-17870365D01*
X17305420Y-17870365D02*
X17314944Y-17851317D01*
X17314944Y-17851317D02*
X17333992Y-17841793D01*
X17333992Y-17841793D02*
X17381611Y-17841793D01*
X17381611Y-17841793D02*
X17400658Y-17832270D01*
X17467325Y-17784650D02*
X17543515Y-17784650D01*
X17495896Y-17717984D02*
X17495896Y-17889412D01*
X17495896Y-17889412D02*
X17505420Y-17908460D01*
X17505420Y-17908460D02*
X17524468Y-17917984D01*
X17524468Y-17917984D02*
X17543515Y-17917984D01*
X17686373Y-17908460D02*
X17667325Y-17917984D01*
X17667325Y-17917984D02*
X17629230Y-17917984D01*
X17629230Y-17917984D02*
X17610182Y-17908460D01*
X17610182Y-17908460D02*
X17600658Y-17889412D01*
X17600658Y-17889412D02*
X17600658Y-17813222D01*
X17600658Y-17813222D02*
X17610182Y-17794174D01*
X17610182Y-17794174D02*
X17629230Y-17784650D01*
X17629230Y-17784650D02*
X17667325Y-17784650D01*
X17667325Y-17784650D02*
X17686373Y-17794174D01*
X17686373Y-17794174D02*
X17695896Y-17813222D01*
X17695896Y-17813222D02*
X17695896Y-17832270D01*
X17695896Y-17832270D02*
X17600658Y-17851317D01*
X17867325Y-17917984D02*
X17867325Y-17717984D01*
X17867325Y-17908460D02*
X17848277Y-17917984D01*
X17848277Y-17917984D02*
X17810182Y-17917984D01*
X17810182Y-17917984D02*
X17791135Y-17908460D01*
X17791135Y-17908460D02*
X17781611Y-17898936D01*
X17781611Y-17898936D02*
X17772087Y-17879889D01*
X17772087Y-17879889D02*
X17772087Y-17822746D01*
X17772087Y-17822746D02*
X17781611Y-17803698D01*
X17781611Y-17803698D02*
X17791135Y-17794174D01*
X17791135Y-17794174D02*
X17810182Y-17784650D01*
X17810182Y-17784650D02*
X17848277Y-17784650D01*
X17848277Y-17784650D02*
X17867325Y-17794174D01*
X17943516Y-17994174D02*
X17953039Y-17984650D01*
X17953039Y-17984650D02*
X17972087Y-17956079D01*
X17972087Y-17956079D02*
X17981611Y-17937031D01*
X17981611Y-17937031D02*
X17991135Y-17908460D01*
X17991135Y-17908460D02*
X18000658Y-17860841D01*
X18000658Y-17860841D02*
X18000658Y-17822746D01*
X18000658Y-17822746D02*
X17991135Y-17775127D01*
X17991135Y-17775127D02*
X17981611Y-17746555D01*
X17981611Y-17746555D02*
X17972087Y-17727508D01*
X17972087Y-17727508D02*
X17953039Y-17698936D01*
X17953039Y-17698936D02*
X17943516Y-17689412D01*
M02*
