M48
; DRILL file {KiCad 9.0.5} date 2025-11-08T18:30:54-0600
; FORMAT={-:-/ absolute / metric / decimal}
; #@! TF.CreationDate,2025-11-08T18:30:54-06:00
; #@! TF.GenerationSoftware,Kicad,Pcbnew,9.0.5
; #@! TF.FileFunction,Plated,1,4,PTH
FMAT,2
METRIC
; #@! TA.AperFunction,Plated,PTH,ComponentDrill
T1C0.200
; #@! TA.AperFunction,Plated,PTH,ViaDrill
T2C0.300
; #@! TA.AperFunction,Plated,PTH,ComponentDrill
T3C1.000
; #@! TA.AperFunction,Plated,PTH,ComponentDrill
T4C1.016
; #@! TA.AperFunction,Plated,PTH,ComponentDrill
T5C1.245
; #@! TA.AperFunction,Plated,PTH,ComponentDrill
T6C1.780
; #@! TA.AperFunction,Plated,PTH,ComponentDrill
T7C1.800
; #@! TA.AperFunction,Plated,PTH,ComponentDrill
T8C3.200
; #@! TA.AperFunction,Plated,PTH,ComponentDrill
T9C4.400
%
G90
G05
T1
X127.648Y-42.95
X127.648Y-44.15
X127.648Y-45.35
X127.648Y-55.95
X127.648Y-57.15
X127.648Y-58.35
X127.648Y-68.95
X127.648Y-70.15
X127.648Y-71.35
X127.648Y-81.95
X127.648Y-83.15
X127.648Y-84.35
X127.648Y-106.65
X127.648Y-107.85
X127.648Y-109.05
X127.648Y-119.65
X127.648Y-120.85
X127.648Y-122.05
X127.648Y-132.65
X127.648Y-133.85
X127.648Y-135.05
X127.648Y-145.65
X127.648Y-146.85
X127.648Y-148.05
X128.848Y-42.95
X128.848Y-44.15
X128.848Y-45.35
X128.848Y-55.95
X128.848Y-57.15
X128.848Y-58.35
X128.848Y-68.95
X128.848Y-70.15
X128.848Y-71.35
X128.848Y-81.95
X128.848Y-83.15
X128.848Y-84.35
X128.848Y-106.65
X128.848Y-107.85
X128.848Y-109.05
X128.848Y-119.65
X128.848Y-120.85
X128.848Y-122.05
X128.848Y-132.65
X128.848Y-133.85
X128.848Y-135.05
X128.848Y-145.65
X128.848Y-146.85
X128.848Y-148.05
X130.048Y-42.95
X130.048Y-44.15
X130.048Y-45.35
X130.048Y-55.95
X130.048Y-57.15
X130.048Y-58.35
X130.048Y-68.95
X130.048Y-70.15
X130.048Y-71.35
X130.048Y-81.95
X130.048Y-83.15
X130.048Y-84.35
X130.048Y-106.65
X130.048Y-107.85
X130.048Y-109.05
X130.048Y-119.65
X130.048Y-120.85
X130.048Y-122.05
X130.048Y-132.65
X130.048Y-133.85
X130.048Y-135.05
X130.048Y-145.65
X130.048Y-146.85
X130.048Y-148.05
X131.248Y-42.95
X131.248Y-44.15
X131.248Y-45.35
X131.248Y-55.95
X131.248Y-57.15
X131.248Y-58.35
X131.248Y-68.95
X131.248Y-70.15
X131.248Y-71.35
X131.248Y-81.95
X131.248Y-83.15
X131.248Y-84.35
X131.248Y-106.65
X131.248Y-107.85
X131.248Y-109.05
X131.248Y-119.65
X131.248Y-120.85
X131.248Y-122.05
X131.248Y-132.65
X131.248Y-133.85
X131.248Y-135.05
X131.248Y-145.65
X131.248Y-146.85
X131.248Y-148.05
X172.95Y-54.75
X172.95Y-55.95
X172.95Y-57.15
X172.95Y-67.75
X172.95Y-68.95
X172.95Y-70.15
X172.95Y-80.75
X172.95Y-81.95
X172.95Y-83.15
X172.95Y-93.75
X172.95Y-94.95
X172.95Y-96.15
X172.95Y-118.15
X172.95Y-119.35
X172.95Y-120.55
X172.95Y-131.15
X172.95Y-132.35
X172.95Y-133.55
X172.95Y-144.15
X172.95Y-145.35
X172.95Y-146.55
X172.95Y-157.15
X172.95Y-158.35
X172.95Y-159.55
X174.15Y-54.75
X174.15Y-55.95
X174.15Y-57.15
X174.15Y-67.75
X174.15Y-68.95
X174.15Y-70.15
X174.15Y-80.75
X174.15Y-81.95
X174.15Y-83.15
X174.15Y-93.75
X174.15Y-94.95
X174.15Y-96.15
X174.15Y-118.15
X174.15Y-119.35
X174.15Y-120.55
X174.15Y-131.15
X174.15Y-132.35
X174.15Y-133.55
X174.15Y-144.15
X174.15Y-145.35
X174.15Y-146.55
X174.15Y-157.15
X174.15Y-158.35
X174.15Y-159.55
X175.35Y-54.75
X175.35Y-55.95
X175.35Y-57.15
X175.35Y-67.75
X175.35Y-68.95
X175.35Y-70.15
X175.35Y-80.75
X175.35Y-81.95
X175.35Y-83.15
X175.35Y-93.75
X175.35Y-94.95
X175.35Y-96.15
X175.35Y-118.15
X175.35Y-119.35
X175.35Y-120.55
X175.35Y-131.15
X175.35Y-132.35
X175.35Y-133.55
X175.35Y-144.15
X175.35Y-145.35
X175.35Y-146.55
X175.35Y-157.15
X175.35Y-158.35
X175.35Y-159.55
X176.55Y-54.75
X176.55Y-55.95
X176.55Y-57.15
X176.55Y-67.75
X176.55Y-68.95
X176.55Y-70.15
X176.55Y-80.75
X176.55Y-81.95
X176.55Y-83.15
X176.55Y-93.75
X176.55Y-94.95
X176.55Y-96.15
X176.55Y-118.15
X176.55Y-119.35
X176.55Y-120.55
X176.55Y-131.15
X176.55Y-132.35
X176.55Y-133.55
X176.55Y-144.15
X176.55Y-145.35
X176.55Y-146.55
X176.55Y-157.15
X176.55Y-158.35
X176.55Y-159.55
T2
X113.25Y15.35
X113.926Y7.128
X114.064Y11.353
X114.4Y28.9
X114.427Y-9.297
X114.6Y26.4
X114.6Y20.9
X115.002Y-10.501
X115.353Y3.153
X115.353Y1.155
X115.353Y-0.847
X115.353Y-2.847
X115.353Y-4.845
X115.354Y-8.847
X115.362Y-6.847
X115.426Y7.128
X116.05Y15.75
X116.064Y11.328
X116.925Y16.575
X117.026Y7.128
X117.1Y26.4
X117.65Y18.45
X118.164Y11.353
X118.243Y-9.731
X118.953Y-0.847
X118.953Y-2.845
X118.953Y-4.845
X118.953Y-10.872
X118.955Y3.153
X118.958Y1.153
X118.962Y-6.847
X118.962Y-8.847
X119.6Y26.4
X119.6Y20.9
X120.35Y15.9
X120.35Y11.45
X121.0Y-11.55
X121.5Y-2.55
X121.7Y5.35
X121.962Y33.5
X122.7Y26.8
X123.298Y-95.6
X123.298Y-159.1
X123.398Y-100.1
X123.398Y-163.6
X123.45Y-39.21
X123.45Y-52.21
X123.45Y-65.21
X123.45Y-78.21
X123.45Y-102.91
X123.45Y-115.91
X123.45Y-128.91
X123.45Y-141.91
X123.498Y-92.7
X123.498Y-156.2
X123.7Y20.4
X123.7Y18.4
X123.7Y16.4
X123.7Y14.4
X123.7Y12.4
X123.7Y10.4
X123.7Y8.4
X123.7Y6.4
X123.7Y4.4
X123.7Y2.4
X123.7Y0.4
X123.7Y-1.6
X123.7Y-3.6
X123.7Y-5.6
X123.7Y-7.6
X123.7Y-9.6
X124.249Y-49.976
X124.249Y-62.976
X124.249Y-75.976
X124.249Y-88.976
X124.249Y-113.676
X124.249Y-126.676
X124.249Y-139.676
X124.249Y-152.676
X124.25Y24.0
X124.25Y-11.55
X124.405Y-48.686
X124.405Y-61.686
X124.405Y-74.686
X124.405Y-87.686
X124.405Y-112.386
X124.405Y-125.386
X124.405Y-138.386
X124.405Y-151.386
X124.5Y-39.21
X124.5Y-52.21
X124.5Y-65.21
X124.5Y-78.21
X124.5Y-102.91
X124.5Y-115.91
X124.5Y-128.91
X124.5Y-141.91
X125.098Y-96.4
X125.098Y-159.9
X125.498Y-92.7
X125.498Y-156.2
X125.818Y-46.9
X125.818Y-59.9
X125.818Y-72.9
X125.818Y-85.9
X125.818Y-110.6
X125.818Y-123.6
X125.818Y-136.6
X125.818Y-149.6
X126.298Y-98.5
X126.3Y4.9
X126.584Y-46.67
X126.584Y-59.67
X126.584Y-72.67
X126.584Y-85.67
X126.584Y-110.37
X126.584Y-123.37
X126.584Y-136.37
X126.584Y-149.37
X127.148Y-39.95
X127.148Y-52.95
X127.148Y-65.95
X127.148Y-78.95
X127.148Y-103.65
X127.148Y-116.65
X127.148Y-129.65
X127.148Y-142.65
X127.15Y-38.0
X127.15Y-51.0
X127.15Y-64.0
X127.15Y-77.0
X127.15Y-101.7
X127.15Y-114.7
X127.15Y-127.7
X127.15Y-140.7
X127.3Y2.8
X127.328Y15.6
X127.329Y16.829
X127.498Y-92.7
X127.498Y-156.2
X127.594Y-48.207
X127.594Y-61.207
X127.594Y-74.207
X127.594Y-87.207
X127.594Y-111.907
X127.594Y-124.907
X127.594Y-137.907
X127.594Y-150.907
X127.598Y-98.5
X127.598Y-162.0
X127.948Y-39.95
X127.948Y-52.95
X127.948Y-65.95
X127.948Y-78.95
X127.948Y-103.65
X127.948Y-116.65
X127.948Y-129.65
X127.948Y-142.65
X127.95Y-38.11
X127.95Y-51.11
X127.95Y-64.11
X127.95Y-77.11
X127.95Y-101.81
X127.95Y-114.81
X127.95Y-127.81
X127.95Y-140.81
X128.198Y-161.4
X128.442Y-48.35
X128.442Y-61.35
X128.442Y-74.35
X128.442Y-87.35
X128.442Y-112.05
X128.442Y-125.05
X128.442Y-138.05
X128.442Y-151.05
X128.5Y10.6
X128.5Y-3.5
X128.748Y-39.95
X128.748Y-52.95
X128.748Y-65.95
X128.748Y-78.95
X128.748Y-103.65
X128.748Y-116.65
X128.748Y-129.65
X128.748Y-142.65
X128.795Y-38.064
X128.795Y-51.064
X128.795Y-64.064
X128.795Y-77.064
X128.795Y-101.764
X128.795Y-114.764
X128.795Y-127.764
X128.795Y-140.764
X128.798Y-98.5
X128.799Y-162.0
X129.242Y-48.35
X129.242Y-61.35
X129.242Y-74.35
X129.242Y-87.35
X129.242Y-112.05
X129.242Y-125.05
X129.242Y-138.05
X129.242Y-151.05
X129.4Y8.0
X129.4Y-6.0
X129.498Y-92.7
X129.498Y-156.2
X130.042Y-48.35
X130.042Y-61.35
X130.042Y-74.35
X130.042Y-87.35
X130.042Y-112.05
X130.042Y-125.05
X130.042Y-138.05
X130.042Y-151.05
X131.398Y-98.5
X131.398Y-161.1
X131.398Y-162.0
X131.498Y-92.7
X131.498Y-156.2
X131.5Y6.0
X131.598Y-97.6
X132.3Y15.6
X132.75Y-8.2
X132.85Y-50.46
X133.1Y-3.0
X133.1Y-5.9
X133.3Y20.7
X133.498Y-92.7
X133.498Y-156.2
X133.55Y-49.76
X133.55Y-62.76
X133.55Y-75.76
X133.55Y-88.76
X133.55Y-113.46
X133.55Y-126.46
X133.55Y-139.46
X133.55Y-152.46
X133.61Y-37.941
X133.773Y14.327
X133.851Y-4.301
X133.898Y-162.0
X133.9Y28.5
X133.998Y-98.5
X134.25Y-50.476
X134.25Y-63.5
X134.25Y-76.5
X134.25Y-114.21
X134.25Y-127.21
X134.25Y-140.21
X134.25Y-153.21
X134.4Y-38.95
X134.4Y-52.0
X134.4Y-64.95
X134.4Y-77.95
X134.4Y-89.6
X134.4Y-102.65
X134.4Y-115.65
X134.4Y-128.65
X134.4Y-141.65
X134.975Y13.0
X135.007Y15.593
X135.15Y25.55
X135.276Y-2.876
X135.498Y-92.7
X135.498Y-156.2
X135.65Y10.75
X136.5Y-49.7
X136.5Y-62.6
X136.6Y20.8
X137.648Y-38.75
X137.648Y-39.6
X137.648Y-40.45
X137.648Y-51.75
X137.648Y-52.6
X137.648Y-53.45
X137.648Y-64.75
X137.648Y-65.6
X137.648Y-66.45
X137.648Y-77.75
X137.648Y-78.6
X137.648Y-79.45
X137.648Y-102.45
X137.648Y-103.3
X137.648Y-104.15
X137.648Y-115.45
X137.648Y-116.3
X137.648Y-117.15
X137.648Y-128.45
X137.648Y-129.3
X137.648Y-130.15
X137.648Y-141.45
X137.648Y-142.3
X137.648Y-143.15
X137.9Y28.5
X137.9Y26.7
X137.95Y-11.55
X138.0Y-8.25
X138.429Y-116.979
X138.433Y-40.295
X138.433Y-53.295
X138.433Y-66.295
X138.433Y-79.295
X138.433Y-129.995
X138.433Y-142.995
X138.439Y-103.179
X138.439Y-116.179
X138.441Y-39.495
X138.441Y-52.495
X138.441Y-65.495
X138.441Y-78.495
X138.441Y-129.195
X138.441Y-142.195
X138.463Y-104.011
X138.6Y-72.2
X138.6Y-85.2
X138.6Y-109.9
X138.6Y-122.9
X138.6Y-135.8
X138.6Y-148.9
X138.858Y10.758
X139.3Y18.9
X139.7Y-13.7
X139.7Y-14.5
X139.7Y-15.3
X139.9Y18.299
X140.2Y8.0
X140.458Y25.6
X140.458Y24.8
X140.458Y24.0
X140.458Y20.7
X140.458Y19.8
X140.458Y17.699
X141.0Y-79.5
X141.0Y-130.1
X141.0Y-143.1
X141.057Y26.499
X141.1Y-40.4
X141.1Y-53.4
X141.1Y-66.5
X141.1Y-104.2
X141.1Y-117.1
X141.2Y8.9
X141.856Y26.455
X142.5Y4.1
X142.58Y-3.725
X142.8Y28.3
X143.3Y-7.6
X143.332Y27.702
X143.525Y-3.675
X143.6Y6.975
X143.617Y23.102
X143.951Y4.363
X144.568Y22.151
X144.589Y-7.632
X145.075Y-3.625
X145.1Y6.975
X145.1Y5.4
X145.149Y4.463
X145.3Y23.4
X145.4Y18.4
X145.8Y27.05
X145.8Y-7.6
X146.1Y18.9
X146.825Y8.6
X146.9Y26.0
X146.9Y22.8
X147.05Y16.15
X147.1Y-7.6
X147.556Y12.337
X147.7Y26.0
X147.8Y11.5
X147.867Y7.646
X148.4Y-7.6
X148.4Y-26.4
X148.5Y26.0
X148.5Y18.8
X148.521Y21.697
X149.0Y-4.0
X149.3Y26.0
X149.3Y18.8
X149.4Y21.697
X149.6Y-7.6
X149.627Y1.025
X149.8Y-0.6
X149.996Y-2.396
X150.191Y14.6
X150.43Y-0.056
X150.474Y1.025
X150.821Y11.278
X150.9Y8.627
X150.9Y-7.6
X151.0Y24.3
X151.125Y-0.988
X151.734Y-1.507
X151.8Y11.878
X151.8Y10.277
X151.823Y-2.302
X152.1Y-7.6
X152.55Y23.85
X153.275Y6.735
X153.4Y-4.19
X153.405Y1.39
X154.105Y-1.26
X154.325Y8.226
X154.5Y14.624
X154.8Y-11.55
X154.9Y17.8
X154.9Y16.3
X155.0Y12.2
X155.2Y-0.656
X155.7Y20.3
X156.0Y-4.19
X156.7Y27.85
X157.902Y-17.5
X158.558Y10.758
X158.664Y18.8
X159.0Y22.15
X159.5Y18.8
X159.6Y-13.9
X159.6Y-24.4
X159.7Y-4.1
X159.9Y8.0
X160.2Y-15.05
X160.25Y18.05
X160.3Y23.3
X160.4Y15.1
X160.4Y-17.2
X160.9Y8.9
X160.9Y-4.1
X161.1Y26.101
X161.1Y19.0
X161.4Y-22.8
X161.9Y23.1
X162.199Y-4.1
X162.624Y27.875
X162.7Y18.95
X162.725Y16.299
X162.9Y-10.5
X163.1Y-59.625
X163.2Y-72.7
X163.2Y-85.7
X163.2Y-98.7
X163.2Y-123.1
X163.2Y-136.1
X163.2Y-149.1
X163.2Y-162.1
X163.3Y6.975
X163.399Y-4.126
X163.464Y22.8
X163.5Y19.0
X164.323Y19.026
X164.497Y22.152
X164.6Y-8.3
X164.8Y6.975
X164.8Y5.425
X165.279Y23.152
X165.3Y-4.6
X165.6Y-117.3
X165.6Y-130.3
X165.6Y-143.3
X165.6Y-156.3
X165.7Y-59.7
X165.737Y-72.789
X165.757Y-60.606
X165.757Y-86.606
X165.757Y-99.606
X165.757Y-124.006
X165.757Y-137.006
X165.757Y-150.006
X165.757Y-163.006
X165.759Y-73.622
X165.765Y-85.806
X165.765Y-123.206
X165.765Y-98.806
X165.765Y-136.206
X165.765Y-149.206
X165.765Y-162.206
X166.05Y15.15
X166.5Y-4.6
X166.5Y-16.8
X166.525Y8.6
X166.55Y-59.65
X166.55Y-60.5
X166.55Y-61.35
X166.55Y-72.65
X166.55Y-73.5
X166.55Y-74.35
X166.55Y-85.65
X166.55Y-86.5
X166.55Y-87.35
X166.55Y-98.65
X166.55Y-99.5
X166.55Y-100.35
X166.55Y-123.05
X166.55Y-123.9
X166.55Y-124.75
X166.55Y-136.05
X166.55Y-136.9
X166.55Y-137.75
X166.55Y-149.05
X166.55Y-149.9
X166.55Y-150.75
X166.55Y-162.05
X166.55Y-162.9
X166.55Y-163.75
X167.425Y11.6
X167.51Y7.447
X167.525Y-8.336
X168.2Y-63.45
X168.2Y-76.45
X168.2Y-89.3
X168.203Y-50.19
X168.243Y-9.157
X168.4Y-13.5
X168.7Y-46.6
X168.7Y-110.075
X169.3Y-9.964
X169.4Y21.05
X169.8Y-61.15
X169.8Y-74.15
X169.8Y-87.15
X169.8Y-100.15
X169.8Y-124.55
X169.8Y-137.55
X169.8Y-150.5
X169.8Y-163.55
X169.9Y-10.6
X169.9Y-49.59
X169.9Y-112.99
X169.948Y-62.59
X169.948Y-75.59
X169.948Y-88.59
X169.948Y-125.99
X169.948Y-138.99
X169.948Y-151.99
X170.2Y25.7
X170.2Y-6.8
X170.2Y-104.275
X170.3Y-40.8
X170.303Y18.331
X170.6Y8.677
X170.6Y-4.972
X170.648Y-50.34
X170.648Y-63.34
X170.648Y-76.34
X170.648Y-89.34
X170.648Y-113.74
X170.648Y-126.74
X170.648Y-139.74
X170.648Y-152.74
X170.7Y19.026
X170.7Y-11.2
X170.7Y-46.6
X170.7Y-110.075
X171.2Y27.85
X171.348Y-62.6
X171.348Y-75.643
X171.4Y-3.0
X171.6Y17.7
X172.7Y-41.7
X172.7Y-46.6
X172.7Y-105.175
X172.7Y-110.075
X172.8Y-40.8
X172.8Y-104.275
X173.1Y-6.8
X173.1Y-10.0
X173.1Y-11.2
X173.2Y24.15
X173.65Y0.65
X173.776Y-10.6
X173.85Y-12.35
X174.156Y-51.75
X174.156Y-64.75
X174.156Y-77.75
X174.156Y-90.75
X174.156Y-115.15
X174.156Y-128.15
X174.156Y-141.15
X174.156Y-154.15
X174.4Y-104.3
X174.7Y-46.6
X174.7Y-110.075
X174.956Y-51.75
X174.956Y-64.75
X174.956Y-77.75
X174.956Y-90.75
X174.956Y-115.15
X174.956Y-128.15
X174.956Y-141.15
X174.956Y-154.15
X175.3Y-104.3
X175.4Y-40.8
X175.403Y-62.036
X175.403Y-75.036
X175.403Y-88.036
X175.403Y-101.036
X175.403Y-125.436
X175.403Y-138.436
X175.403Y-151.436
X175.403Y-164.436
X175.45Y-60.15
X175.45Y-73.15
X175.45Y-86.15
X175.45Y-99.15
X175.45Y-123.55
X175.45Y-136.55
X175.45Y-149.55
X175.45Y-162.55
X175.756Y-51.75
X175.756Y-64.75
X175.756Y-77.75
X175.756Y-90.75
X175.756Y-115.15
X175.756Y-128.15
X175.756Y-141.15
X175.756Y-154.15
X175.8Y-4.3
X176.0Y-41.401
X176.248Y-61.99
X176.248Y-74.99
X176.248Y-87.99
X176.248Y-100.99
X176.248Y-125.39
X176.248Y-138.39
X176.248Y-151.39
X176.248Y-164.39
X176.25Y-60.15
X176.25Y-73.15
X176.25Y-86.15
X176.25Y-99.15
X176.25Y-123.55
X176.25Y-136.55
X176.25Y-149.55
X176.25Y-162.55
X176.35Y27.85
X176.4Y-5.997
X176.6Y-38.0
X176.6Y-40.8
X176.6Y-104.3
X176.604Y-51.893
X176.604Y-64.893
X176.604Y-77.893
X176.604Y-90.893
X176.604Y-115.293
X176.604Y-128.293
X176.604Y-141.293
X176.604Y-154.293
X176.7Y-46.6
X176.7Y-110.075
X177.048Y-62.1
X177.048Y-75.1
X177.048Y-88.1
X177.048Y-101.1
X177.048Y-125.5
X177.048Y-138.5
X177.048Y-151.5
X177.048Y-164.5
X177.05Y-60.15
X177.05Y-73.15
X177.05Y-86.15
X177.05Y-99.15
X177.05Y-123.55
X177.05Y-136.55
X177.05Y-149.55
X177.05Y-162.55
X177.399Y-38.036
X177.481Y-5.997
X177.614Y-53.43
X177.614Y-66.43
X177.614Y-79.43
X177.614Y-92.43
X177.614Y-116.83
X177.614Y-129.83
X177.614Y-142.83
X177.614Y-155.83
X177.9Y-104.3
X178.15Y-0.9
X178.38Y-53.2
X178.38Y-66.2
X178.38Y-79.2
X178.38Y-92.2
X178.38Y-116.6
X178.38Y-129.6
X178.38Y-142.6
X178.38Y-155.6
X178.668Y13.478
X178.7Y-46.6
X178.7Y-110.075
X179.1Y-42.9
X179.1Y-106.375
X179.3Y11.9
X179.3Y7.9
X179.3Y3.9
X179.3Y0.1
X179.3Y-20.2
X179.698Y-60.89
X179.698Y-73.89
X179.698Y-86.89
X179.698Y-99.89
X179.698Y-124.29
X179.698Y-137.29
X179.698Y-150.29
X179.698Y-163.29
X179.793Y-51.414
X179.793Y-64.414
X179.793Y-77.414
X179.793Y-90.414
X179.793Y-114.814
X179.793Y-127.814
X179.793Y-140.814
X179.793Y-153.814
X179.8Y-104.9
X179.949Y-50.124
X179.949Y-63.124
X179.949Y-76.124
X179.949Y-89.124
X179.949Y-113.524
X179.949Y-126.524
X179.949Y-139.524
X179.949Y-152.524
X180.2Y-20.2
X180.5Y-104.3
X180.7Y-46.6
X180.7Y-110.075
X180.748Y-60.89
X180.748Y-73.89
X180.748Y-86.89
X180.748Y-99.89
X180.748Y-124.29
X180.748Y-137.29
X180.748Y-150.29
X180.748Y-163.29
X180.772Y-2.229
X180.8Y-39.2
X180.8Y-102.675
X180.9Y-5.7
X180.9Y-43.795
X180.9Y-107.2
X181.1Y-20.2
X181.6Y1.8
X182.0Y-20.2
X182.7Y-4.5
X182.9Y-20.2
X183.25Y27.85
X183.25Y24.25
X183.55Y-6.15
X183.55Y-12.3
X184.6Y35.5
X184.6Y31.7
T3
X113.6Y-35.3
X113.6Y-65.35
X113.6Y-97.1
X113.6Y-128.85
X113.6Y-158.1
X120.6Y30.1
X123.8Y34.3
X124.9Y-167.6
X125.0Y30.1
X135.198Y-48.3
X135.198Y-61.3
X135.198Y-74.3
X135.198Y-87.3
X135.198Y-112.0
X135.198Y-125.0
X135.198Y-138.0
X135.198Y-151.0
X137.5Y-25.6
X150.4Y-25.6
X154.0Y-36.4
X154.0Y-40.0
X169.0Y-51.8
X169.0Y-64.8
X169.0Y-77.8
X169.0Y-90.8
X169.0Y-115.2
X169.0Y-128.2
X169.0Y-141.2
X169.0Y-154.2
X179.3Y-167.6
X190.6Y-20.6
X190.6Y-33.6
X190.6Y-65.35
X190.6Y-97.1
X190.6Y-128.85
X190.6Y-158.1
T4
X147.737Y33.5
X147.737Y30.96
X150.277Y33.5
X150.277Y30.96
X152.817Y33.5
X152.817Y30.96
X155.357Y33.5
X155.357Y30.96
X157.897Y33.5
X157.897Y30.96
X168.337Y33.503
X168.337Y30.963
X170.877Y33.503
X170.877Y30.963
X173.417Y33.503
X173.417Y30.963
X175.957Y33.503
X175.957Y30.963
X178.497Y33.503
X178.497Y30.963
X186.46Y24.88
X186.46Y22.34
X186.46Y19.8
X186.46Y17.26
X186.46Y14.72
X186.46Y-3.3
X186.46Y-5.84
X186.46Y-8.38
X186.46Y-10.92
X186.46Y-13.46
X189.0Y24.88
X189.0Y22.34
X189.0Y19.8
X189.0Y17.26
X189.0Y14.72
X189.0Y-3.3
X189.0Y-5.84
X189.0Y-8.38
X189.0Y-10.92
X189.0Y-13.46
T5
X117.3Y-16.45
X117.3Y-18.95
X117.3Y-21.45
X117.3Y-23.95
X117.3Y-26.45
X117.3Y-28.95
X130.151Y31.0
X132.651Y31.0
X137.351Y31.0
X139.851Y31.0
X147.05Y-39.54
X149.55Y-39.54
X149.7Y-98.4
X149.7Y-100.9
X149.7Y-103.4
X149.7Y-105.9
X149.7Y-108.4
X149.7Y-110.9
X149.7Y-113.4
X149.7Y-115.9
X152.2Y-98.4
X152.2Y-100.9
X152.2Y-103.4
X152.2Y-105.9
X152.2Y-108.4
X152.2Y-110.9
X152.2Y-113.4
X152.2Y-115.9
X158.15Y-39.55
X160.65Y-39.55
T6
X139.04Y-18.3
X139.04Y-21.7
X146.6Y-46.84
X146.6Y-56.76
X148.96Y-18.3
X148.96Y-21.7
X150.0Y-46.84
X150.0Y-56.76
X154.9Y-46.84
X154.9Y-56.76
X158.3Y-46.84
X158.3Y-56.76
T7
X129.1Y-20.9
X129.1Y-25.9
T8
X115.4Y33.3
X115.4Y-165.7
X188.8Y33.3
X188.8Y-165.7
T9
X129.0Y23.1
X129.0Y-11.4
X150.2Y-159.7
X178.5Y23.1
X178.5Y-11.4
X188.2Y5.8
M30
