%TF.GenerationSoftware,KiCad,Pcbnew,10.0.5*%
%TF.CreationDate,2026-09-18T00:59:59-05:00*%
%TF.ProjectId,PS-PowerDistributionUnit,50532d50-6f77-4657-9244-697374726962,rev?*%
%TF.SameCoordinates,Original*%
%TF.FileFunction,Paste,Bot*%
%TF.FilePolarity,Positive*%
%FSLAX46Y46*%
G04 Gerber Fmt 4.6, Leading zero omitted, Abs format (unit mm)*
G04 Created by KiCad (PCBNEW 10.0.5) date 2026-09-18 00:59:59*
%MOMM*%
%LPD*%
G01*
G04 APERTURE LIST*
G04 Aperture macros list*
%AMRoundRect*
0 Rectangle with rounded corners*
0 $1 Rounding radius*
0 $2 $3 $4 $5 $6 $7 $8 $9 X,Y pos of 4 corners*
0 Add a 4 corners polygon primitive as box body*
4,1,4,$2,$3,$4,$5,$6,$7,$8,$9,$2,$3,0*
0 Add four circle primitives for the rounded corners*
1,1,$1+$1,$2,$3*
1,1,$1+$1,$4,$5*
1,1,$1+$1,$6,$7*
1,1,$1+$1,$8,$9*
0 Add four rect primitives between the rounded corners*
20,1,$1+$1,$2,$3,$4,$5,0*
20,1,$1+$1,$4,$5,$6,$7,0*
20,1,$1+$1,$6,$7,$8,$9,0*
20,1,$1+$1,$8,$9,$2,$3,0*%
G04 Aperture macros list end*
%ADD10C,0.000000*%
%ADD11RoundRect,0.237500X0.237500X-0.300000X0.237500X0.300000X-0.237500X0.300000X-0.237500X-0.300000X0*%
%ADD12RoundRect,0.237500X-0.237500X0.300000X-0.237500X-0.300000X0.237500X-0.300000X0.237500X0.300000X0*%
%ADD13RoundRect,0.237500X-0.237500X0.250000X-0.237500X-0.250000X0.237500X-0.250000X0.237500X0.250000X0*%
%ADD14RoundRect,0.237500X-0.250000X-0.237500X0.250000X-0.237500X0.250000X0.237500X-0.250000X0.237500X0*%
%ADD15R,1.670000X1.970000*%
%ADD16RoundRect,0.250000X0.900000X-1.000000X0.900000X1.000000X-0.900000X1.000000X-0.900000X-1.000000X0*%
%ADD17RoundRect,0.237500X0.300000X0.237500X-0.300000X0.237500X-0.300000X-0.237500X0.300000X-0.237500X0*%
%ADD18RoundRect,0.237500X0.250000X0.237500X-0.250000X0.237500X-0.250000X-0.237500X0.250000X-0.237500X0*%
%ADD19RoundRect,0.250000X-0.900000X1.000000X-0.900000X-1.000000X0.900000X-1.000000X0.900000X1.000000X0*%
%ADD20R,0.304800X1.473200*%
%ADD21RoundRect,0.250000X1.000000X0.900000X-1.000000X0.900000X-1.000000X-0.900000X1.000000X-0.900000X0*%
%ADD22RoundRect,0.237500X-0.300000X-0.237500X0.300000X-0.237500X0.300000X0.237500X-0.300000X0.237500X0*%
%ADD23RoundRect,0.250000X-0.475000X0.337500X-0.475000X-0.337500X0.475000X-0.337500X0.475000X0.337500X0*%
%ADD24RoundRect,0.150000X0.300000X-0.150000X0.300000X0.150000X-0.300000X0.150000X-0.300000X-0.150000X0*%
%ADD25RoundRect,0.150000X0.150000X0.300000X-0.150000X0.300000X-0.150000X-0.300000X0.150000X-0.300000X0*%
%ADD26RoundRect,0.125000X0.175000X0.400000X-0.175000X0.400000X-0.175000X-0.400000X0.175000X-0.400000X0*%
%ADD27R,1.200000X0.450000*%
%ADD28RoundRect,0.150000X-0.300000X0.150000X-0.300000X-0.150000X0.300000X-0.150000X0.300000X0.150000X0*%
%ADD29RoundRect,0.150000X-0.150000X-0.300000X0.150000X-0.300000X0.150000X0.300000X-0.150000X0.300000X0*%
%ADD30RoundRect,0.125000X-0.175000X-0.400000X0.175000X-0.400000X0.175000X0.400000X-0.175000X0.400000X0*%
G04 APERTURE END LIST*
D10*
%TO.C,IC8*%
G36*
X77855000Y-137945000D02*
G01*
X76404000Y-137945000D01*
X76404000Y-136760700D01*
X77855000Y-136760700D01*
X77855000Y-137945000D01*
G37*
G36*
X77855000Y-139329300D02*
G01*
X76404000Y-139329300D01*
X76404000Y-138145000D01*
X77855000Y-138145000D01*
X77855000Y-139329300D01*
G37*
G36*
X79506000Y-137945000D02*
G01*
X78055000Y-137945000D01*
X78055000Y-136760700D01*
X79506000Y-136760700D01*
X79506000Y-137945000D01*
G37*
G36*
X79506000Y-139329300D02*
G01*
X78055000Y-139329300D01*
X78055000Y-138145000D01*
X79506000Y-138145000D01*
X79506000Y-139329300D01*
G37*
%TO.C,IC4*%
G36*
X139937334Y-109287500D02*
G01*
X138486334Y-109287500D01*
X138486334Y-108103200D01*
X139937334Y-108103200D01*
X139937334Y-109287500D01*
G37*
G36*
X139937334Y-110671800D02*
G01*
X138486334Y-110671800D01*
X138486334Y-109487500D01*
X139937334Y-109487500D01*
X139937334Y-110671800D01*
G37*
G36*
X141588334Y-109287500D02*
G01*
X140137334Y-109287500D01*
X140137334Y-108103200D01*
X141588334Y-108103200D01*
X141588334Y-109287500D01*
G37*
G36*
X141588334Y-110671800D02*
G01*
X140137334Y-110671800D01*
X140137334Y-109487500D01*
X141588334Y-109487500D01*
X141588334Y-110671800D01*
G37*
%TO.C,IC3*%
G36*
X139720333Y-79436500D02*
G01*
X138269333Y-79436500D01*
X138269333Y-78252200D01*
X139720333Y-78252200D01*
X139720333Y-79436500D01*
G37*
G36*
X139720333Y-80820800D02*
G01*
X138269333Y-80820800D01*
X138269333Y-79636500D01*
X139720333Y-79636500D01*
X139720333Y-80820800D01*
G37*
G36*
X141371333Y-79436500D02*
G01*
X139920333Y-79436500D01*
X139920333Y-78252200D01*
X141371333Y-78252200D01*
X141371333Y-79436500D01*
G37*
G36*
X141371333Y-80820800D02*
G01*
X139920333Y-80820800D01*
X139920333Y-79636500D01*
X141371333Y-79636500D01*
X141371333Y-80820800D01*
G37*
%TO.C,IC6*%
G36*
X79120000Y-77248900D02*
G01*
X77669000Y-77248900D01*
X77669000Y-76064600D01*
X79120000Y-76064600D01*
X79120000Y-77248900D01*
G37*
G36*
X79120000Y-78633200D02*
G01*
X77669000Y-78633200D01*
X77669000Y-77448900D01*
X79120000Y-77448900D01*
X79120000Y-78633200D01*
G37*
G36*
X80771000Y-77248900D02*
G01*
X79320000Y-77248900D01*
X79320000Y-76064600D01*
X80771000Y-76064600D01*
X80771000Y-77248900D01*
G37*
G36*
X80771000Y-78633200D02*
G01*
X79320000Y-78633200D01*
X79320000Y-77448900D01*
X80771000Y-77448900D01*
X80771000Y-78633200D01*
G37*
%TO.C,IC7*%
G36*
X77725249Y-112133500D02*
G01*
X76274249Y-112133500D01*
X76274249Y-110949200D01*
X77725249Y-110949200D01*
X77725249Y-112133500D01*
G37*
G36*
X77725249Y-113517800D02*
G01*
X76274249Y-113517800D01*
X76274249Y-112333500D01*
X77725249Y-112333500D01*
X77725249Y-113517800D01*
G37*
G36*
X79376249Y-112133500D02*
G01*
X77925249Y-112133500D01*
X77925249Y-110949200D01*
X79376249Y-110949200D01*
X79376249Y-112133500D01*
G37*
G36*
X79376249Y-113517800D02*
G01*
X77925249Y-113517800D01*
X77925249Y-112333500D01*
X79376249Y-112333500D01*
X79376249Y-113517800D01*
G37*
%TO.C,IC5*%
G36*
X140164249Y-142494000D02*
G01*
X138713249Y-142494000D01*
X138713249Y-141309700D01*
X140164249Y-141309700D01*
X140164249Y-142494000D01*
G37*
G36*
X140164249Y-143878300D02*
G01*
X138713249Y-143878300D01*
X138713249Y-142694000D01*
X140164249Y-142694000D01*
X140164249Y-143878300D01*
G37*
G36*
X141815249Y-142494000D02*
G01*
X140364249Y-142494000D01*
X140364249Y-141309700D01*
X141815249Y-141309700D01*
X141815249Y-142494000D01*
G37*
G36*
X141815249Y-143878300D02*
G01*
X140364249Y-143878300D01*
X140364249Y-142694000D01*
X141815249Y-142694000D01*
X141815249Y-143878300D01*
G37*
%TD*%
D11*
%TO.C,C64*%
X50050000Y-137487500D03*
X50050000Y-135762500D03*
%TD*%
D12*
%TO.C,C46*%
X166150000Y-143400000D03*
X166150000Y-145125000D03*
%TD*%
D13*
%TO.C,R12*%
X55380000Y-45812500D03*
X55380000Y-47637500D03*
%TD*%
D14*
%TO.C,R37*%
X151102334Y-118365000D03*
X152927334Y-118365000D03*
%TD*%
D15*
%TO.C,D3*%
X55800000Y-42720000D03*
X55800000Y-38670000D03*
%TD*%
D12*
%TO.C,C65*%
X47675000Y-137325000D03*
X47675000Y-139050000D03*
%TD*%
D16*
%TO.C,D26*%
X55396250Y-91210000D03*
X55396250Y-86910000D03*
%TD*%
D17*
%TO.C,C5*%
X50862500Y-42695000D03*
X49137500Y-42695000D03*
%TD*%
%TO.C,C50*%
X138461250Y-135225000D03*
X136736250Y-135225000D03*
%TD*%
D12*
%TO.C,C40*%
X166950000Y-110087500D03*
X166950000Y-111812500D03*
%TD*%
D14*
%TO.C,R46*%
X136352334Y-104402500D03*
X138177334Y-104402500D03*
%TD*%
D16*
%TO.C,D27*%
X88910000Y-80000000D03*
X88910000Y-75700000D03*
%TD*%
D11*
%TO.C,C35*%
X165950000Y-78100000D03*
X165950000Y-76375000D03*
%TD*%
D18*
%TO.C,R58*%
X68972500Y-87091000D03*
X67147500Y-87091000D03*
%TD*%
D11*
%TO.C,C47*%
X166175000Y-141750000D03*
X166175000Y-140025000D03*
%TD*%
D14*
%TO.C,R38*%
X148612500Y-99522500D03*
X150437500Y-99522500D03*
%TD*%
D18*
%TO.C,R66*%
X82660000Y-82491000D03*
X80835000Y-82491000D03*
%TD*%
D19*
%TO.C,D11*%
X156281084Y-63502500D03*
X156281084Y-67802500D03*
%TD*%
D12*
%TO.C,C6*%
X57080000Y-45862500D03*
X57080000Y-47587500D03*
%TD*%
D16*
%TO.C,D10*%
X160021084Y-94500000D03*
X160021084Y-90200000D03*
%TD*%
D18*
%TO.C,R13*%
X60232500Y-40945000D03*
X58407500Y-40945000D03*
%TD*%
D20*
%TO.C,IC8*%
X79607001Y-140966000D03*
X79135000Y-140966000D03*
X78663000Y-140966000D03*
X78191002Y-140966000D03*
X77719001Y-140966000D03*
X77247000Y-140966000D03*
X76775000Y-140966000D03*
X76302999Y-140966000D03*
X76302999Y-135124000D03*
X76775000Y-135124000D03*
X77247000Y-135124000D03*
X77718998Y-135124000D03*
X78190999Y-135124000D03*
X78663000Y-135124000D03*
X79135000Y-135124000D03*
X79607001Y-135124000D03*
%TD*%
%TO.C,IC4*%
X138385333Y-106466500D03*
X138857334Y-106466500D03*
X139329334Y-106466500D03*
X139801332Y-106466500D03*
X140273333Y-106466500D03*
X140745334Y-106466500D03*
X141217334Y-106466500D03*
X141689335Y-106466500D03*
X141689335Y-112308500D03*
X141217334Y-112308500D03*
X140745334Y-112308500D03*
X140273336Y-112308500D03*
X139801335Y-112308500D03*
X139329334Y-112308500D03*
X138857334Y-112308500D03*
X138385333Y-112308500D03*
%TD*%
D11*
%TO.C,C43*%
X133831084Y-108410000D03*
X133831084Y-106685000D03*
%TD*%
D19*
%TO.C,D30*%
X57708500Y-97150000D03*
X57708500Y-101450000D03*
%TD*%
D11*
%TO.C,C37*%
X133871084Y-78342500D03*
X133871084Y-76617500D03*
%TD*%
D14*
%TO.C,R28*%
X147203584Y-69200000D03*
X149028584Y-69200000D03*
%TD*%
%TO.C,R10*%
X58680000Y-46125000D03*
X60505000Y-46125000D03*
%TD*%
D11*
%TO.C,C59*%
X54950000Y-122062500D03*
X54950000Y-120337500D03*
%TD*%
D19*
%TO.C,D12*%
X129875000Y-76550000D03*
X129875000Y-80850000D03*
%TD*%
%TO.C,D35*%
X50470000Y-126530000D03*
X50470000Y-130830000D03*
%TD*%
D11*
%TO.C,C41*%
X166950000Y-108412500D03*
X166950000Y-106687500D03*
%TD*%
D13*
%TO.C,R91*%
X68145000Y-50622500D03*
X68145000Y-52447500D03*
%TD*%
D11*
%TO.C,C48*%
X136195000Y-141452500D03*
X136195000Y-139727500D03*
%TD*%
D16*
%TO.C,D20*%
X161955000Y-156800000D03*
X161955000Y-152500000D03*
%TD*%
D18*
%TO.C,R68*%
X68732250Y-120450000D03*
X66907250Y-120450000D03*
%TD*%
D14*
%TO.C,R48*%
X148451250Y-133665000D03*
X150276250Y-133665000D03*
%TD*%
D12*
%TO.C,C67*%
X82875000Y-139242500D03*
X82875000Y-140967500D03*
%TD*%
%TO.C,C55*%
X83446250Y-78160000D03*
X83446250Y-79885000D03*
%TD*%
D19*
%TO.C,D21*%
X160770000Y-128340000D03*
X160770000Y-132640000D03*
%TD*%
D18*
%TO.C,R77*%
X65707500Y-129105000D03*
X63882500Y-129105000D03*
%TD*%
D12*
%TO.C,C60*%
X85308500Y-113662500D03*
X85308500Y-115387500D03*
%TD*%
D14*
%TO.C,R9*%
X58675000Y-42745000D03*
X60500000Y-42745000D03*
%TD*%
D16*
%TO.C,D37*%
X88565000Y-141125000D03*
X88565000Y-136825000D03*
%TD*%
D11*
%TO.C,C36*%
X135631084Y-78342500D03*
X135631084Y-76617500D03*
%TD*%
D12*
%TO.C,C54*%
X85446250Y-78160000D03*
X85446250Y-79885000D03*
%TD*%
D11*
%TO.C,C42*%
X135821084Y-108380000D03*
X135821084Y-106655000D03*
%TD*%
D18*
%TO.C,R67*%
X66707250Y-101387500D03*
X64882250Y-101387500D03*
%TD*%
D11*
%TO.C,C8*%
X53770000Y-47587500D03*
X53770000Y-45862500D03*
%TD*%
D12*
%TO.C,C53*%
X51850000Y-77125000D03*
X51850000Y-78850000D03*
%TD*%
%TO.C,C58*%
X51908500Y-104675000D03*
X51908500Y-106400000D03*
%TD*%
D19*
%TO.C,D25*%
X55096250Y-63160000D03*
X55096250Y-67460000D03*
%TD*%
D21*
%TO.C,D2*%
X74860000Y-45585000D03*
X70560000Y-45585000D03*
%TD*%
D22*
%TO.C,C9*%
X47517500Y-48395000D03*
X49242500Y-48395000D03*
%TD*%
D18*
%TO.C,R78*%
X67407500Y-146930000D03*
X65582500Y-146930000D03*
%TD*%
D23*
%TO.C,C7*%
X63257500Y-57372500D03*
X63257500Y-59447500D03*
%TD*%
D18*
%TO.C,R86*%
X80945000Y-143350000D03*
X79120000Y-143350000D03*
%TD*%
D16*
%TO.C,D32*%
X88602250Y-115475000D03*
X88602250Y-111175000D03*
%TD*%
D14*
%TO.C,R56*%
X136686250Y-137000000D03*
X138511250Y-137000000D03*
%TD*%
D22*
%TO.C,C3*%
X71320000Y-48675000D03*
X73045000Y-48675000D03*
%TD*%
D11*
%TO.C,C52*%
X54475000Y-77250000D03*
X54475000Y-75525000D03*
%TD*%
D19*
%TO.C,D16*%
X165800000Y-94690000D03*
X165800000Y-98990000D03*
%TD*%
D14*
%TO.C,R36*%
X136532334Y-74587500D03*
X138357334Y-74587500D03*
%TD*%
D12*
%TO.C,C34*%
X165875000Y-80687500D03*
X165875000Y-82412500D03*
%TD*%
%TO.C,C61*%
X83058500Y-113662500D03*
X83058500Y-115387500D03*
%TD*%
D20*
%TO.C,IC3*%
X138168332Y-76615500D03*
X138640333Y-76615500D03*
X139112333Y-76615500D03*
X139584331Y-76615500D03*
X140056332Y-76615500D03*
X140528333Y-76615500D03*
X141000333Y-76615500D03*
X141472334Y-76615500D03*
X141472334Y-82457500D03*
X141000333Y-82457500D03*
X140528333Y-82457500D03*
X140056335Y-82457500D03*
X139584334Y-82457500D03*
X139112333Y-82457500D03*
X138640333Y-82457500D03*
X138168332Y-82457500D03*
%TD*%
D24*
%TO.C,Q1*%
X63080000Y-45025000D03*
X64230000Y-45025000D03*
X65380000Y-45025000D03*
X63080000Y-44175000D03*
X64230000Y-44175000D03*
X65380000Y-44175000D03*
X63080000Y-43325000D03*
X64230000Y-43325000D03*
X65380000Y-43325000D03*
D25*
X62350000Y-41475000D03*
X63630000Y-41475000D03*
X64830000Y-41475000D03*
X66110000Y-41475000D03*
D26*
X66140000Y-47195000D03*
X64870000Y-47195000D03*
X63590000Y-47195000D03*
X62320000Y-47195000D03*
%TD*%
D20*
%TO.C,IC6*%
X80872001Y-80269900D03*
X80400000Y-80269900D03*
X79928000Y-80269900D03*
X79456002Y-80269900D03*
X78984001Y-80269900D03*
X78512000Y-80269900D03*
X78040000Y-80269900D03*
X77567999Y-80269900D03*
X77567999Y-74427900D03*
X78040000Y-74427900D03*
X78512000Y-74427900D03*
X78983998Y-74427900D03*
X79455999Y-74427900D03*
X79928000Y-74427900D03*
X80400000Y-74427900D03*
X80872001Y-74427900D03*
%TD*%
D16*
%TO.C,D36*%
X57645000Y-151757500D03*
X57645000Y-147457500D03*
%TD*%
D22*
%TO.C,C68*%
X79200000Y-145150000D03*
X80925000Y-145150000D03*
%TD*%
D18*
%TO.C,R11*%
X60505000Y-44425000D03*
X58680000Y-44425000D03*
%TD*%
D22*
%TO.C,C56*%
X80910000Y-84266000D03*
X82635000Y-84266000D03*
%TD*%
D19*
%TO.C,D17*%
X129841084Y-105320000D03*
X129841084Y-109620000D03*
%TD*%
%TO.C,D22*%
X131170000Y-137865000D03*
X131170000Y-142165000D03*
%TD*%
D18*
%TO.C,R76*%
X81102250Y-117423500D03*
X79277250Y-117423500D03*
%TD*%
D22*
%TO.C,C62*%
X79327250Y-119123500D03*
X81052250Y-119123500D03*
%TD*%
D12*
%TO.C,C4*%
X53030000Y-39675000D03*
X53030000Y-41400000D03*
%TD*%
D16*
%TO.C,D15*%
X161261084Y-123850000D03*
X161261084Y-119550000D03*
%TD*%
D11*
%TO.C,C49*%
X134520000Y-141465000D03*
X134520000Y-139740000D03*
%TD*%
D16*
%TO.C,D31*%
X50608500Y-122250000D03*
X50608500Y-117950000D03*
%TD*%
D18*
%TO.C,R57*%
X67533750Y-67860000D03*
X65708750Y-67860000D03*
%TD*%
D13*
%TO.C,R14*%
X58430000Y-37355000D03*
X58430000Y-39180000D03*
%TD*%
D27*
%TO.C,IC1*%
X49250000Y-46495000D03*
X49250000Y-45845000D03*
X49250000Y-45195000D03*
X49250000Y-44545000D03*
X51750000Y-44545000D03*
X51750000Y-45195000D03*
X51750000Y-45845000D03*
X51750000Y-46495000D03*
%TD*%
D28*
%TO.C,Q2*%
X65280000Y-51725000D03*
X64130000Y-51725000D03*
X62980000Y-51725000D03*
X65280000Y-52575000D03*
X64130000Y-52575000D03*
X62980000Y-52575000D03*
X65280000Y-53425000D03*
X64130000Y-53425000D03*
X62980000Y-53425000D03*
D29*
X66010000Y-55275000D03*
X64730000Y-55275000D03*
X63530000Y-55275000D03*
X62250000Y-55275000D03*
D30*
X62220000Y-49555000D03*
X63490000Y-49555000D03*
X64770000Y-49555000D03*
X66040000Y-49555000D03*
%TD*%
D14*
%TO.C,R47*%
X152445000Y-151340000D03*
X154270000Y-151340000D03*
%TD*%
D17*
%TO.C,C38*%
X138307334Y-72887500D03*
X136582334Y-72887500D03*
%TD*%
D20*
%TO.C,IC7*%
X79477250Y-115154500D03*
X79005249Y-115154500D03*
X78533249Y-115154500D03*
X78061251Y-115154500D03*
X77589250Y-115154500D03*
X77117249Y-115154500D03*
X76645249Y-115154500D03*
X76173248Y-115154500D03*
X76173248Y-109312500D03*
X76645249Y-109312500D03*
X77117249Y-109312500D03*
X77589247Y-109312500D03*
X78061248Y-109312500D03*
X78533249Y-109312500D03*
X79005249Y-109312500D03*
X79477250Y-109312500D03*
%TD*%
D17*
%TO.C,C44*%
X138127334Y-102627500D03*
X136402334Y-102627500D03*
%TD*%
D14*
%TO.C,R27*%
X147787500Y-88775000D03*
X149612500Y-88775000D03*
%TD*%
D12*
%TO.C,C66*%
X84835000Y-139275000D03*
X84835000Y-141000000D03*
%TD*%
D20*
%TO.C,IC5*%
X138612248Y-139673000D03*
X139084249Y-139673000D03*
X139556249Y-139673000D03*
X140028247Y-139673000D03*
X140500248Y-139673000D03*
X140972249Y-139673000D03*
X141444249Y-139673000D03*
X141916250Y-139673000D03*
X141916250Y-145515000D03*
X141444249Y-145515000D03*
X140972249Y-145515000D03*
X140500251Y-145515000D03*
X140028250Y-145515000D03*
X139556249Y-145515000D03*
X139084249Y-145515000D03*
X138612248Y-145515000D03*
%TD*%
M02*
