%TF.GenerationSoftware,KiCad,Pcbnew,10.0.5*%
%TF.CreationDate,2026-09-18T00:59:59-05:00*%
%TF.ProjectId,PS-PowerDistributionUnit,50532d50-6f77-4657-9244-697374726962,rev?*%
%TF.SameCoordinates,Original*%
%TF.FileFunction,Paste,Top*%
%TF.FilePolarity,Positive*%
%FSLAX46Y46*%
G04 Gerber Fmt 4.6, Leading zero omitted, Abs format (unit mm)*
G04 Created by KiCad (PCBNEW 10.0.5) date 2026-09-18 00:59:59*
%MOMM*%
%LPD*%
G01*
G04 APERTURE LIST*
G04 Aperture macros list*
%AMRoundRect*
0 Rectangle with rounded corners*
0 $1 Rounding radius*
0 $2 $3 $4 $5 $6 $7 $8 $9 X,Y pos of 4 corners*
0 Add a 4 corners polygon primitive as box body*
4,1,4,$2,$3,$4,$5,$6,$7,$8,$9,$2,$3,0*
0 Add four circle primitives for the rounded corners*
1,1,$1+$1,$2,$3*
1,1,$1+$1,$4,$5*
1,1,$1+$1,$6,$7*
1,1,$1+$1,$8,$9*
0 Add four rect primitives between the rounded corners*
20,1,$1+$1,$2,$3,$4,$5,0*
20,1,$1+$1,$4,$5,$6,$7,0*
20,1,$1+$1,$6,$7,$8,$9,0*
20,1,$1+$1,$8,$9,$2,$3,0*%
G04 Aperture macros list end*
%ADD10R,2.500000X9.000000*%
%ADD11RoundRect,0.237500X-0.237500X0.250000X-0.237500X-0.250000X0.237500X-0.250000X0.237500X0.250000X0*%
%ADD12RoundRect,0.237500X0.300000X0.237500X-0.300000X0.237500X-0.300000X-0.237500X0.300000X-0.237500X0*%
%ADD13R,0.700000X0.700000*%
%ADD14R,0.600000X1.250000*%
%ADD15RoundRect,0.237500X0.250000X0.237500X-0.250000X0.237500X-0.250000X-0.237500X0.250000X-0.237500X0*%
%ADD16RoundRect,0.237500X0.237500X-0.250000X0.237500X0.250000X-0.237500X0.250000X-0.237500X-0.250000X0*%
%ADD17RoundRect,0.237500X0.237500X-0.300000X0.237500X0.300000X-0.237500X0.300000X-0.237500X-0.300000X0*%
%ADD18RoundRect,0.218750X-0.218750X-0.256250X0.218750X-0.256250X0.218750X0.256250X-0.218750X0.256250X0*%
%ADD19R,0.400000X0.550000*%
%ADD20R,0.500000X0.700000*%
%ADD21RoundRect,0.237500X-0.300000X-0.237500X0.300000X-0.237500X0.300000X0.237500X-0.300000X0.237500X0*%
%ADD22R,1.000000X0.750000*%
%ADD23RoundRect,0.218750X0.218750X0.256250X-0.218750X0.256250X-0.218750X-0.256250X0.218750X-0.256250X0*%
%ADD24RoundRect,0.250000X-1.100000X0.412500X-1.100000X-0.412500X1.100000X-0.412500X1.100000X0.412500X0*%
%ADD25RoundRect,0.375000X-0.625000X-0.375000X0.625000X-0.375000X0.625000X0.375000X-0.625000X0.375000X0*%
%ADD26RoundRect,0.500000X-0.500000X-1.400000X0.500000X-1.400000X0.500000X1.400000X-0.500000X1.400000X0*%
%ADD27RoundRect,0.225000X-0.225000X-0.375000X0.225000X-0.375000X0.225000X0.375000X-0.225000X0.375000X0*%
%ADD28RoundRect,0.237500X-0.237500X0.300000X-0.237500X-0.300000X0.237500X-0.300000X0.237500X0.300000X0*%
%ADD29RoundRect,0.150000X0.150000X0.425000X-0.150000X0.425000X-0.150000X-0.425000X0.150000X-0.425000X0*%
%ADD30RoundRect,0.075000X0.075000X0.500000X-0.075000X0.500000X-0.075000X-0.500000X0.075000X-0.500000X0*%
%ADD31O,1.000000X2.100000*%
%ADD32O,1.000000X1.800000*%
%ADD33RoundRect,0.218750X0.256250X-0.218750X0.256250X0.218750X-0.256250X0.218750X-0.256250X-0.218750X0*%
%ADD34RoundRect,0.250000X0.337500X0.475000X-0.337500X0.475000X-0.337500X-0.475000X0.337500X-0.475000X0*%
%ADD35RoundRect,0.237500X-0.250000X-0.237500X0.250000X-0.237500X0.250000X0.237500X-0.250000X0.237500X0*%
%ADD36RoundRect,0.250000X-0.337500X-0.475000X0.337500X-0.475000X0.337500X0.475000X-0.337500X0.475000X0*%
%ADD37R,1.200000X2.500000*%
%ADD38R,0.330000X0.360000*%
%ADD39R,0.660000X0.320000*%
%ADD40R,1.100000X0.599999*%
%ADD41R,2.400000X1.900000*%
%ADD42RoundRect,0.250000X-0.475000X0.337500X-0.475000X-0.337500X0.475000X-0.337500X0.475000X0.337500X0*%
%ADD43R,0.990600X2.743200*%
%ADD44R,1.193800X0.304800*%
%ADD45R,0.304800X1.193800*%
%ADD46R,0.650000X1.528000*%
%ADD47RoundRect,0.250000X0.250000X-0.250000X0.250000X0.250000X-0.250000X0.250000X-0.250000X-0.250000X0*%
%ADD48RoundRect,0.112500X-0.187500X-0.112500X0.187500X-0.112500X0.187500X0.112500X-0.187500X0.112500X0*%
G04 APERTURE END LIST*
D10*
%TO.C,L1*%
X99280000Y-45345000D03*
X105680000Y-45345000D03*
%TD*%
D11*
%TO.C,R69*%
X82250000Y-104412500D03*
X82250000Y-106237500D03*
%TD*%
D12*
%TO.C,C28*%
X117775000Y-109500000D03*
X116050000Y-109500000D03*
%TD*%
D13*
%TO.C,D46*%
X36670000Y-80370833D03*
X36670000Y-81470833D03*
X38500000Y-81470833D03*
X38500000Y-80370833D03*
%TD*%
D14*
%TO.C,D4*%
X121586250Y-148487500D03*
X119686250Y-148487500D03*
X120636250Y-150487500D03*
%TD*%
D15*
%TO.C,R87*%
X97487500Y-53800000D03*
X95662500Y-53800000D03*
%TD*%
D11*
%TO.C,R2*%
X114675000Y-93087500D03*
X114675000Y-94912500D03*
%TD*%
%TO.C,R21*%
X110075000Y-110950000D03*
X110075000Y-112775000D03*
%TD*%
D16*
%TO.C,R83*%
X76075000Y-146125000D03*
X76075000Y-144300000D03*
%TD*%
D13*
%TO.C,D43*%
X36670000Y-56725000D03*
X36670000Y-57825000D03*
X38500000Y-57825000D03*
X38500000Y-56725000D03*
%TD*%
D16*
%TO.C,R75*%
X76050000Y-106262500D03*
X76050000Y-104437500D03*
%TD*%
D17*
%TO.C,C18*%
X102150000Y-100095000D03*
X102150000Y-98370000D03*
%TD*%
D18*
%TO.C,D24*%
X63235000Y-87091000D03*
X64810000Y-87091000D03*
%TD*%
D11*
%TO.C,R19*%
X111725000Y-110950000D03*
X111725000Y-112775000D03*
%TD*%
D18*
%TO.C,D33*%
X59807500Y-129105000D03*
X61382500Y-129105000D03*
%TD*%
D19*
%TO.C,D5*%
X110800000Y-107862500D03*
X110800000Y-109212500D03*
D20*
X110075000Y-107787500D03*
X110075000Y-109287500D03*
D19*
X109350000Y-107862500D03*
X109350000Y-109212500D03*
%TD*%
D21*
%TO.C,C16*%
X122186250Y-136737500D03*
X123911250Y-136737500D03*
%TD*%
D22*
%TO.C,SW1*%
X100450000Y-110575000D03*
X95950000Y-110575000D03*
X100450000Y-112725000D03*
X95950000Y-112725000D03*
%TD*%
D23*
%TO.C,D18*%
X158520000Y-151340000D03*
X156945000Y-151340000D03*
%TD*%
D21*
%TO.C,C31*%
X121323750Y-97212500D03*
X123048750Y-97212500D03*
%TD*%
D11*
%TO.C,R53*%
X141528750Y-134637500D03*
X141528750Y-136462500D03*
%TD*%
%TO.C,R59*%
X83650000Y-69512500D03*
X83650000Y-71337500D03*
%TD*%
%TO.C,R88*%
X88825000Y-52387500D03*
X88825000Y-54212500D03*
%TD*%
D16*
%TO.C,R34*%
X143525000Y-87737500D03*
X143525000Y-85912500D03*
%TD*%
D24*
%TO.C,C73*%
X104012500Y-56062500D03*
X104012500Y-59187500D03*
%TD*%
D25*
%TO.C,U1*%
X155200000Y-49110000D03*
X155200000Y-51410000D03*
D26*
X161500000Y-51410000D03*
D25*
X155200000Y-53710000D03*
%TD*%
D11*
%TO.C,R17*%
X123411250Y-146187500D03*
X123411250Y-148012500D03*
%TD*%
%TO.C,R50*%
X138125000Y-134637500D03*
X138125000Y-136462500D03*
%TD*%
D27*
%TO.C,D55*%
X127525000Y-46850000D03*
X130825000Y-46850000D03*
%TD*%
D28*
%TO.C,C29*%
X123120000Y-105877500D03*
X123120000Y-107602500D03*
%TD*%
D13*
%TO.C,D40*%
X36245000Y-129275000D03*
X36245000Y-130375000D03*
X38075000Y-130375000D03*
X38075000Y-129275000D03*
%TD*%
D16*
%TO.C,R52*%
X139450000Y-150512500D03*
X139450000Y-148687500D03*
%TD*%
D13*
%TO.C,D39*%
X36245000Y-132475000D03*
X36245000Y-133575000D03*
X38075000Y-133575000D03*
X38075000Y-132475000D03*
%TD*%
D12*
%TO.C,C32*%
X117772500Y-116130000D03*
X116047500Y-116130000D03*
%TD*%
D11*
%TO.C,R39*%
X135900000Y-115350000D03*
X135900000Y-117175000D03*
%TD*%
D18*
%TO.C,D29*%
X62832250Y-120450000D03*
X64407250Y-120450000D03*
%TD*%
D11*
%TO.C,R30*%
X138125000Y-70787500D03*
X138125000Y-72612500D03*
%TD*%
D23*
%TO.C,D8*%
X152950000Y-88775000D03*
X151375000Y-88775000D03*
%TD*%
D24*
%TO.C,C72*%
X108262500Y-56062500D03*
X108262500Y-59187500D03*
%TD*%
D16*
%TO.C,R63*%
X78000000Y-85462500D03*
X78000000Y-83637500D03*
%TD*%
D29*
%TO.C,J8*%
X138800000Y-43075000D03*
X138000000Y-43075000D03*
D30*
X136850000Y-43075000D03*
X135850000Y-43075000D03*
X135350000Y-43075000D03*
X134350000Y-43075000D03*
D29*
X133200000Y-43075000D03*
X132400000Y-43075000D03*
X132400000Y-43075000D03*
X133200000Y-43075000D03*
D30*
X133850000Y-43075000D03*
X134850000Y-43075000D03*
X136350000Y-43075000D03*
X137350000Y-43075000D03*
D29*
X138000000Y-43075000D03*
X138800000Y-43075000D03*
D31*
X139920000Y-42500000D03*
X131280000Y-42500000D03*
D32*
X131280000Y-38320000D03*
X139920000Y-38320000D03*
%TD*%
D23*
%TO.C,D13*%
X156752334Y-118365000D03*
X155177334Y-118365000D03*
%TD*%
D16*
%TO.C,R35*%
X141725000Y-87712500D03*
X141725000Y-85887500D03*
%TD*%
D33*
%TO.C,D7*%
X101286250Y-85018750D03*
X101286250Y-83443750D03*
%TD*%
D34*
%TO.C,C69*%
X93730000Y-44507500D03*
X91655000Y-44507500D03*
%TD*%
D12*
%TO.C,C70*%
X93380000Y-46507500D03*
X91655000Y-46507500D03*
%TD*%
D28*
%TO.C,C71*%
X96050000Y-48175000D03*
X96050000Y-49900000D03*
%TD*%
D11*
%TO.C,R65*%
X77750000Y-69537500D03*
X77750000Y-71362500D03*
%TD*%
%TO.C,R62*%
X79950000Y-69587500D03*
X79950000Y-71412500D03*
%TD*%
D35*
%TO.C,R8*%
X36247500Y-140675000D03*
X38072500Y-140675000D03*
%TD*%
D13*
%TO.C,D38*%
X36245000Y-136750000D03*
X36245000Y-137850000D03*
X38075000Y-137850000D03*
X38075000Y-136750000D03*
%TD*%
D18*
%TO.C,D28*%
X61169750Y-101387500D03*
X62744750Y-101387500D03*
%TD*%
D16*
%TO.C,R80*%
X79525000Y-146125000D03*
X79525000Y-144300000D03*
%TD*%
%TO.C,R90*%
X132665000Y-48342500D03*
X132665000Y-46517500D03*
%TD*%
D23*
%TO.C,D9*%
X153016084Y-69200000D03*
X151441084Y-69200000D03*
%TD*%
D36*
%TO.C,C21*%
X109475000Y-91625000D03*
X111550000Y-91625000D03*
%TD*%
D35*
%TO.C,R6*%
X107897500Y-120000000D03*
X109722500Y-120000000D03*
%TD*%
D23*
%TO.C,D19*%
X154526250Y-133665000D03*
X152951250Y-133665000D03*
%TD*%
D28*
%TO.C,C30*%
X121460000Y-105885000D03*
X121460000Y-107610000D03*
%TD*%
D16*
%TO.C,R73*%
X76075000Y-120508500D03*
X76075000Y-118683500D03*
%TD*%
D37*
%TO.C,SW2*%
X102736250Y-74556250D03*
X100236250Y-80056250D03*
X97736250Y-74556250D03*
%TD*%
D38*
%TO.C,D56*%
X134987500Y-47960000D03*
X135687500Y-47960000D03*
X135337500Y-46800000D03*
%TD*%
D12*
%TO.C,C26*%
X117775000Y-112925000D03*
X116050000Y-112925000D03*
%TD*%
D39*
%TO.C,U2*%
X132270000Y-54000000D03*
X132270000Y-53500000D03*
X132270000Y-53000000D03*
X132270000Y-52500000D03*
X130800000Y-52500000D03*
X130800000Y-53000000D03*
X130800000Y-53500000D03*
X130800000Y-54000000D03*
%TD*%
D16*
%TO.C,R89*%
X137600000Y-48700000D03*
X137600000Y-46875000D03*
%TD*%
D17*
%TO.C,C45*%
X139850000Y-136412500D03*
X139850000Y-134687500D03*
%TD*%
%TO.C,C19*%
X102150000Y-103582500D03*
X102150000Y-101857500D03*
%TD*%
D11*
%TO.C,R40*%
X137620000Y-100875000D03*
X137620000Y-102700000D03*
%TD*%
D21*
%TO.C,C25*%
X109650000Y-93500000D03*
X111375000Y-93500000D03*
%TD*%
D28*
%TO.C,C15*%
X119111250Y-144137500D03*
X119111250Y-145862500D03*
%TD*%
D11*
%TO.C,R61*%
X81990000Y-69556500D03*
X81990000Y-71381500D03*
%TD*%
%TO.C,R51*%
X137725000Y-148637500D03*
X137725000Y-150462500D03*
%TD*%
D40*
%TO.C,U4*%
X91343772Y-49474999D03*
X91343772Y-50425000D03*
X91343772Y-51375001D03*
X94043756Y-51375001D03*
X94043756Y-50425000D03*
X94043756Y-49474999D03*
%TD*%
D41*
%TO.C,Y1*%
X105937500Y-98875000D03*
X105937500Y-102975000D03*
%TD*%
D16*
%TO.C,R23*%
X110536250Y-76806250D03*
X110536250Y-74981250D03*
%TD*%
D13*
%TO.C,D41*%
X36245000Y-125175000D03*
X36245000Y-126275000D03*
X38075000Y-126275000D03*
X38075000Y-125175000D03*
%TD*%
D12*
%TO.C,C13*%
X132650000Y-55587500D03*
X130925000Y-55587500D03*
%TD*%
D13*
%TO.C,D48*%
X36670000Y-75641667D03*
X36670000Y-76741667D03*
X38500000Y-76741667D03*
X38500000Y-75641667D03*
%TD*%
D11*
%TO.C,R84*%
X74950000Y-130712500D03*
X74950000Y-132537500D03*
%TD*%
%TO.C,R18*%
X123386250Y-149687500D03*
X123386250Y-151512500D03*
%TD*%
D42*
%TO.C,C14*%
X117161250Y-144162500D03*
X117161250Y-146237500D03*
%TD*%
D21*
%TO.C,C22*%
X102305000Y-108119999D03*
X104030000Y-108119999D03*
%TD*%
D11*
%TO.C,R85*%
X76725000Y-130687500D03*
X76725000Y-132512500D03*
%TD*%
D13*
%TO.C,D45*%
X36670000Y-61454167D03*
X36670000Y-62554167D03*
X38500000Y-62554167D03*
X38500000Y-61454167D03*
%TD*%
D16*
%TO.C,R25*%
X104886250Y-85331250D03*
X104886250Y-83506250D03*
%TD*%
D11*
%TO.C,R79*%
X82750000Y-130650000D03*
X82750000Y-132475000D03*
%TD*%
D21*
%TO.C,C11*%
X127453733Y-51150000D03*
X129178733Y-51150000D03*
%TD*%
D35*
%TO.C,R4*%
X113172500Y-121520000D03*
X114997500Y-121520000D03*
%TD*%
D43*
%TO.C,J12*%
X97686248Y-70231249D03*
X97686248Y-65981250D03*
X99686250Y-70231249D03*
X99686250Y-65981250D03*
%TD*%
D18*
%TO.C,D23*%
X60533750Y-67960000D03*
X62108750Y-67960000D03*
%TD*%
D11*
%TO.C,R71*%
X80450000Y-104412500D03*
X80450000Y-106237500D03*
%TD*%
D44*
%TO.C,U3*%
X112186251Y-98712501D03*
X112186251Y-99212500D03*
X112186251Y-99712502D03*
X112186251Y-100212501D03*
X112186251Y-100712500D03*
X112186251Y-101212501D03*
X112186251Y-101712501D03*
X112186251Y-102212502D03*
X112186251Y-102712501D03*
X112186251Y-103212500D03*
X112186251Y-103712502D03*
X112186251Y-104212501D03*
D45*
X113686250Y-105712500D03*
X114186249Y-105712500D03*
X114686251Y-105712500D03*
X115186250Y-105712500D03*
X115686249Y-105712500D03*
X116186250Y-105712500D03*
X116686250Y-105712500D03*
X117186251Y-105712500D03*
X117686250Y-105712500D03*
X118186249Y-105712500D03*
X118686251Y-105712500D03*
X119186250Y-105712500D03*
D44*
X120686249Y-104212501D03*
X120686249Y-103712502D03*
X120686249Y-103212500D03*
X120686249Y-102712501D03*
X120686249Y-102212502D03*
X120686249Y-101712501D03*
X120686249Y-101212501D03*
X120686249Y-100712500D03*
X120686249Y-100212501D03*
X120686249Y-99712502D03*
X120686249Y-99212500D03*
X120686249Y-98712501D03*
D45*
X119186250Y-97212502D03*
X118686251Y-97212502D03*
X118186249Y-97212502D03*
X117686250Y-97212502D03*
X117186251Y-97212502D03*
X116686250Y-97212502D03*
X116186250Y-97212502D03*
X115686249Y-97212502D03*
X115186250Y-97212502D03*
X114686251Y-97212502D03*
X114186249Y-97212502D03*
X113686250Y-97212502D03*
%TD*%
D28*
%TO.C,C51*%
X79750000Y-83750000D03*
X79750000Y-85475000D03*
%TD*%
D11*
%TO.C,R49*%
X136025000Y-148637500D03*
X136025000Y-150462500D03*
%TD*%
D17*
%TO.C,C33*%
X139850000Y-72550000D03*
X139850000Y-70825000D03*
%TD*%
D16*
%TO.C,R5*%
X116580000Y-121532500D03*
X116580000Y-119707500D03*
%TD*%
D46*
%TO.C,IC2*%
X124691250Y-138724000D03*
X123421250Y-138724000D03*
X122151250Y-138724000D03*
X120881250Y-138724000D03*
X120881250Y-144146000D03*
X122151250Y-144146000D03*
X123421250Y-144146000D03*
X124691250Y-144146000D03*
%TD*%
D16*
%TO.C,R32*%
X139500000Y-87587500D03*
X139500000Y-85762500D03*
%TD*%
D11*
%TO.C,R72*%
X78770000Y-104412500D03*
X78770000Y-106237500D03*
%TD*%
D28*
%TO.C,C63*%
X77775000Y-144350000D03*
X77775000Y-146075000D03*
%TD*%
D16*
%TO.C,R70*%
X79450000Y-120546000D03*
X79450000Y-118721000D03*
%TD*%
D35*
%TO.C,R16*%
X119912500Y-157075000D03*
X121737500Y-157075000D03*
%TD*%
D34*
%TO.C,C75*%
X129200000Y-49250000D03*
X127125000Y-49250000D03*
%TD*%
D12*
%TO.C,C24*%
X117775000Y-111225000D03*
X116050000Y-111225000D03*
%TD*%
D47*
%TO.C,D1*%
X155230000Y-46430000D03*
X155230000Y-43930000D03*
%TD*%
D16*
%TO.C,R60*%
X81450000Y-85575000D03*
X81450000Y-83750000D03*
%TD*%
D13*
%TO.C,D47*%
X36670000Y-66183333D03*
X36670000Y-67283333D03*
X38500000Y-67283333D03*
X38500000Y-66183333D03*
%TD*%
D16*
%TO.C,R44*%
X143675000Y-117050000D03*
X143675000Y-115225000D03*
%TD*%
%TO.C,R54*%
X143775000Y-150437500D03*
X143775000Y-148612500D03*
%TD*%
D15*
%TO.C,R20*%
X100455000Y-108119999D03*
X98630000Y-108119999D03*
%TD*%
D36*
%TO.C,C2*%
X150630000Y-53705000D03*
X152705000Y-53705000D03*
%TD*%
D11*
%TO.C,R41*%
X137650000Y-115400000D03*
X137650000Y-117225000D03*
%TD*%
D17*
%TO.C,C39*%
X139350000Y-102650000D03*
X139350000Y-100925000D03*
%TD*%
D11*
%TO.C,R81*%
X81050000Y-130637500D03*
X81050000Y-132462500D03*
%TD*%
D35*
%TO.C,R3*%
X113197500Y-119857500D03*
X115022500Y-119857500D03*
%TD*%
D16*
%TO.C,R31*%
X137550000Y-87587500D03*
X137550000Y-85762500D03*
%TD*%
D11*
%TO.C,R15*%
X129250000Y-52787500D03*
X129250000Y-54612500D03*
%TD*%
D21*
%TO.C,FB1*%
X116887500Y-107790000D03*
X118612500Y-107790000D03*
%TD*%
D28*
%TO.C,C10*%
X127600000Y-52850000D03*
X127600000Y-54575000D03*
%TD*%
D11*
%TO.C,R45*%
X141875000Y-115225000D03*
X141875000Y-117050000D03*
%TD*%
D16*
%TO.C,R24*%
X105036250Y-71293750D03*
X105036250Y-69468750D03*
%TD*%
D23*
%TO.C,D14*%
X153687334Y-99522500D03*
X152112334Y-99522500D03*
%TD*%
D12*
%TO.C,C20*%
X117762500Y-114500000D03*
X116037500Y-114500000D03*
%TD*%
D11*
%TO.C,R29*%
X135875000Y-85812500D03*
X135875000Y-87637500D03*
%TD*%
%TO.C,R82*%
X79325000Y-130650000D03*
X79325000Y-132475000D03*
%TD*%
%TO.C,R33*%
X141525000Y-70737500D03*
X141525000Y-72562500D03*
%TD*%
D21*
%TO.C,C23*%
X109650000Y-95150000D03*
X111375000Y-95150000D03*
%TD*%
D28*
%TO.C,C17*%
X125046250Y-146302500D03*
X125046250Y-148027500D03*
%TD*%
D16*
%TO.C,R26*%
X103061250Y-85318750D03*
X103061250Y-83493750D03*
%TD*%
D36*
%TO.C,C1*%
X150517500Y-49130000D03*
X152592500Y-49130000D03*
%TD*%
D35*
%TO.C,R7*%
X107887500Y-121580000D03*
X109712500Y-121580000D03*
%TD*%
D13*
%TO.C,D42*%
X36245000Y-121025000D03*
X36245000Y-122125000D03*
X38075000Y-122125000D03*
X38075000Y-121025000D03*
%TD*%
D11*
%TO.C,R74*%
X74375000Y-104437500D03*
X74375000Y-106262500D03*
%TD*%
D42*
%TO.C,C74*%
X111625000Y-56040000D03*
X111625000Y-58115000D03*
%TD*%
D11*
%TO.C,R43*%
X141038750Y-100900000D03*
X141038750Y-102725000D03*
%TD*%
D16*
%TO.C,R42*%
X139350000Y-117225000D03*
X139350000Y-115400000D03*
%TD*%
D48*
%TO.C,D6*%
X97511250Y-83681250D03*
X99611250Y-83681250D03*
%TD*%
D11*
%TO.C,R64*%
X76225000Y-69512500D03*
X76225000Y-71337500D03*
%TD*%
D21*
%TO.C,C27*%
X109650000Y-96825000D03*
X111375000Y-96825000D03*
%TD*%
D17*
%TO.C,C12*%
X130975000Y-50887500D03*
X130975000Y-49162500D03*
%TD*%
D18*
%TO.C,D34*%
X61332500Y-146930000D03*
X62907500Y-146930000D03*
%TD*%
D13*
%TO.C,D49*%
X36670000Y-70912500D03*
X36670000Y-72012500D03*
X38500000Y-72012500D03*
X38500000Y-70912500D03*
%TD*%
D21*
%TO.C,FB2*%
X119655000Y-110830000D03*
X121380000Y-110830000D03*
%TD*%
D13*
%TO.C,D44*%
X36670000Y-85100000D03*
X36670000Y-86200000D03*
X38500000Y-86200000D03*
X38500000Y-85100000D03*
%TD*%
D11*
%TO.C,R22*%
X108475000Y-110950000D03*
X108475000Y-112775000D03*
%TD*%
%TO.C,R1*%
X111475000Y-121425000D03*
X111475000Y-123250000D03*
%TD*%
D28*
%TO.C,C57*%
X77775000Y-118733500D03*
X77775000Y-120458500D03*
%TD*%
D11*
%TO.C,R55*%
X142000000Y-148637500D03*
X142000000Y-150462500D03*
%TD*%
M02*
