%TF.GenerationSoftware,KiCad,Pcbnew,10.0.5*%
%TF.CreationDate,2026-09-18T00:59:59-05:00*%
%TF.ProjectId,PS-PowerDistributionUnit,50532d50-6f77-4657-9244-697374726962,rev?*%
%TF.SameCoordinates,Original*%
%TF.FileFunction,Soldermask,Bot*%
%TF.FilePolarity,Negative*%
%FSLAX46Y46*%
G04 Gerber Fmt 4.6, Leading zero omitted, Abs format (unit mm)*
G04 Created by KiCad (PCBNEW 10.0.5) date 2026-09-18 00:59:59*
%MOMM*%
%LPD*%
G01*
G04 APERTURE LIST*
G04 Aperture macros list*
%AMRoundRect*
0 Rectangle with rounded corners*
0 $1 Rounding radius*
0 $2 $3 $4 $5 $6 $7 $8 $9 X,Y pos of 4 corners*
0 Add a 4 corners polygon primitive as box body*
4,1,4,$2,$3,$4,$5,$6,$7,$8,$9,$2,$3,0*
0 Add four circle primitives for the rounded corners*
1,1,$1+$1,$2,$3*
1,1,$1+$1,$4,$5*
1,1,$1+$1,$6,$7*
1,1,$1+$1,$8,$9*
0 Add four rect primitives between the rounded corners*
20,1,$1+$1,$2,$3,$4,$5,0*
20,1,$1+$1,$4,$5,$6,$7,0*
20,1,$1+$1,$6,$7,$8,$9,0*
20,1,$1+$1,$8,$9,$2,$3,0*%
%AMFreePoly0*
4,1,22,0.945671,0.830970,1.026777,0.776777,1.080970,0.695671,1.100000,0.600000,1.100000,-0.600000,1.080970,-0.695671,1.026777,-0.776777,0.945671,-0.830970,0.850000,-0.850000,-0.850000,-0.850000,-0.945671,-0.830970,-1.026777,-0.776777,-1.080970,-0.695671,-1.100000,-0.600000,-1.100000,0.346447,-1.080970,0.442118,-1.026777,0.523224,-0.773224,0.776777,-0.692118,0.830970,-0.596447,0.850000,
0.850000,0.850000,0.945671,0.830970,0.945671,0.830970,$1*%
%AMFreePoly1*
4,1,22,0.945671,0.830970,1.026777,0.776777,1.080970,0.695671,1.100000,0.600000,1.100000,-0.600000,1.080970,-0.695671,1.026777,-0.776777,0.945671,-0.830970,0.850000,-0.850000,-0.850000,-0.850000,-0.945671,-0.830970,-1.026777,-0.776777,-1.080970,-0.695671,-1.100000,-0.600000,-1.100000,0.200000,-1.080970,0.295671,-1.026777,0.376777,-0.626777,0.776777,-0.545671,0.830970,-0.450000,0.850000,
0.850000,0.850000,0.945671,0.830970,0.945671,0.830970,$1*%
%AMFreePoly2*
4,1,9,2.975000,-2.350000,1.425000,-2.350000,1.425000,-2.100000,-1.650000,-2.100000,-1.650000,2.100000,1.425000,2.100000,1.425000,2.350000,2.975000,2.350000,2.975000,-2.350000,2.975000,-2.350000,$1*%
G04 Aperture macros list end*
%ADD10C,3.000000*%
%ADD11R,1.700000X1.700000*%
%ADD12C,1.700000*%
%ADD13C,1.300000*%
%ADD14RoundRect,0.250000X-0.600000X0.850000X-0.600000X-0.850000X0.600000X-0.850000X0.600000X0.850000X0*%
%ADD15O,1.700000X2.200000*%
%ADD16FreePoly0,270.000000*%
%ADD17C,2.400000*%
%ADD18FreePoly1,0.000000*%
%ADD19O,2.200000X1.700000*%
%ADD20RoundRect,0.250000X0.600000X0.600000X-0.600000X0.600000X-0.600000X-0.600000X0.600000X-0.600000X0*%
%ADD21R,0.850000X0.850000*%
%ADD22C,0.850000*%
%ADD23C,0.650000*%
%ADD24O,1.000000X2.100000*%
%ADD25O,1.000000X1.800000*%
%ADD26R,3.000000X3.000000*%
%ADD27C,3.600000*%
%ADD28C,6.400000*%
%ADD29RoundRect,0.237500X0.237500X-0.300000X0.237500X0.300000X-0.237500X0.300000X-0.237500X-0.300000X0*%
%ADD30RoundRect,0.237500X-0.237500X0.300000X-0.237500X-0.300000X0.237500X-0.300000X0.237500X0.300000X0*%
%ADD31RoundRect,0.237500X-0.237500X0.250000X-0.237500X-0.250000X0.237500X-0.250000X0.237500X0.250000X0*%
%ADD32RoundRect,0.237500X-0.250000X-0.237500X0.250000X-0.237500X0.250000X0.237500X-0.250000X0.237500X0*%
%ADD33R,1.670000X1.970000*%
%ADD34RoundRect,0.250000X0.900000X-1.000000X0.900000X1.000000X-0.900000X1.000000X-0.900000X-1.000000X0*%
%ADD35RoundRect,0.237500X0.300000X0.237500X-0.300000X0.237500X-0.300000X-0.237500X0.300000X-0.237500X0*%
%ADD36RoundRect,0.237500X0.250000X0.237500X-0.250000X0.237500X-0.250000X-0.237500X0.250000X-0.237500X0*%
%ADD37RoundRect,0.250000X-0.900000X1.000000X-0.900000X-1.000000X0.900000X-1.000000X0.900000X1.000000X0*%
%ADD38R,0.304800X1.473200*%
%ADD39R,3.302000X2.768600*%
%ADD40RoundRect,0.250000X1.000000X0.900000X-1.000000X0.900000X-1.000000X-0.900000X1.000000X-0.900000X0*%
%ADD41RoundRect,0.237500X-0.300000X-0.237500X0.300000X-0.237500X0.300000X0.237500X-0.300000X0.237500X0*%
%ADD42RoundRect,0.250000X-0.475000X0.337500X-0.475000X-0.337500X0.475000X-0.337500X0.475000X0.337500X0*%
%ADD43RoundRect,0.175000X0.175000X0.400000X-0.175000X0.400000X-0.175000X-0.400000X0.175000X-0.400000X0*%
%ADD44FreePoly2,90.000000*%
%ADD45R,1.200000X0.450000*%
%ADD46RoundRect,0.175000X-0.175000X-0.400000X0.175000X-0.400000X0.175000X0.400000X-0.175000X0.400000X0*%
%ADD47FreePoly2,270.000000*%
G04 APERTURE END LIST*
D10*
%TO.C,TP_3.3V1*%
X155255000Y-57155000D03*
%TD*%
D11*
%TO.C,TP22*%
X156225000Y-41090000D03*
%TD*%
%TO.C,J13*%
X107836250Y-79696250D03*
D12*
X107836250Y-77156250D03*
X107836250Y-74616250D03*
X107836250Y-72076250D03*
%TD*%
D10*
%TO.C,TP37*%
X145600000Y-131750000D03*
%TD*%
D13*
%TO.C,J11*%
X82595000Y-154510000D03*
D14*
X78845000Y-155850000D03*
D15*
X81345000Y-155850000D03*
X83845000Y-155850000D03*
X86345000Y-155850000D03*
%TD*%
D13*
%TO.C,J10*%
X101350000Y-154485000D03*
D16*
X97600000Y-155825000D03*
D15*
X100100000Y-155825000D03*
X102600000Y-155825000D03*
%TD*%
D11*
%TO.C,TP16*%
X85300000Y-104750000D03*
%TD*%
D17*
%TO.C,F8*%
X71750000Y-83016000D03*
X71750000Y-79616000D03*
X58280000Y-83016000D03*
X58280000Y-79616000D03*
%TD*%
D10*
%TO.C,TP18*%
X134800000Y-65200000D03*
%TD*%
D11*
%TO.C,TP7*%
X149330000Y-119575000D03*
%TD*%
%TO.C,TP10*%
X76025000Y-99075000D03*
%TD*%
D17*
%TO.C,F6*%
X148091250Y-136550000D03*
X148091250Y-139950000D03*
X161561250Y-136550000D03*
X161561250Y-139950000D03*
%TD*%
D13*
%TO.C,J1*%
X173995000Y-74700000D03*
D18*
X175335000Y-75950000D03*
D19*
X175335000Y-73450000D03*
%TD*%
D13*
%TO.C,J7*%
X39570000Y-107600000D03*
D20*
X38230000Y-101350000D03*
D12*
X38230000Y-103850000D03*
X38230000Y-106350000D03*
X38230000Y-108850000D03*
X38230000Y-111350000D03*
X38230000Y-113850000D03*
X35730000Y-113850000D03*
X35730000Y-111350000D03*
X35730000Y-108850000D03*
X35730000Y-106350000D03*
X35730000Y-103850000D03*
X35730000Y-101350000D03*
%TD*%
D10*
%TO.C,TP36*%
X129500000Y-152100000D03*
%TD*%
D11*
%TO.C,TP21*%
X165875000Y-41240000D03*
%TD*%
D10*
%TO.C,TP35*%
X145225000Y-121100000D03*
%TD*%
%TO.C,TP46*%
X67140000Y-149875000D03*
%TD*%
%TO.C,TP20*%
X165975000Y-47200000D03*
%TD*%
D21*
%TO.C,J14*%
X110825000Y-127135000D03*
D22*
X109825000Y-127135000D03*
X108825000Y-127135000D03*
X107825000Y-127135000D03*
%TD*%
D23*
%TO.C,J8*%
X138490000Y-42000000D03*
X132710000Y-42000000D03*
D24*
X139920000Y-42500000D03*
X131280000Y-42500000D03*
D25*
X131280000Y-38320000D03*
X139920000Y-38320000D03*
%TD*%
D10*
%TO.C,TP39*%
X88987500Y-65737500D03*
%TD*%
%TO.C,TP34*%
X145850000Y-98900000D03*
%TD*%
%TO.C,TP45*%
X87525000Y-129050000D03*
%TD*%
%TO.C,TP31*%
X143437334Y-65975000D03*
%TD*%
D17*
%TO.C,F7*%
X148086250Y-145025000D03*
X148086250Y-148425000D03*
X161556250Y-145025000D03*
X161556250Y-148425000D03*
%TD*%
D13*
%TO.C,J3*%
X174250000Y-106325000D03*
D18*
X175590000Y-107575000D03*
D19*
X175590000Y-105075000D03*
%TD*%
D17*
%TO.C,F2*%
X147832334Y-73037500D03*
X147832334Y-76437500D03*
X161302334Y-73037500D03*
X161302334Y-76437500D03*
%TD*%
D13*
%TO.C,J4*%
X174360000Y-116475000D03*
D18*
X175700000Y-117725000D03*
D19*
X175700000Y-115225000D03*
%TD*%
D11*
%TO.C,TP11*%
X77250000Y-127500000D03*
%TD*%
%TO.C,TP17*%
X87250000Y-133725000D03*
%TD*%
D13*
%TO.C,J2*%
X173885000Y-84900000D03*
D18*
X175225000Y-86150000D03*
D19*
X175225000Y-83650000D03*
%TD*%
D26*
%TO.C,J0*%
X75150000Y-39875000D03*
D10*
X70150000Y-39875000D03*
%TD*%
%TO.C,TP32*%
X150010000Y-91870187D03*
%TD*%
%TO.C,TP51*%
X93100000Y-57225000D03*
%TD*%
%TO.C,TP30*%
X132225000Y-84825000D03*
%TD*%
%TO.C,TP27*%
X138625000Y-53875000D03*
%TD*%
D11*
%TO.C,JP1*%
X123411250Y-154437500D03*
D12*
X120871250Y-154437500D03*
%TD*%
D17*
%TO.C,F5*%
X148012334Y-111862500D03*
X148012334Y-115262500D03*
X161482334Y-111862500D03*
X161482334Y-115262500D03*
%TD*%
%TO.C,F3*%
X147847334Y-82087500D03*
X147847334Y-85487500D03*
X161317334Y-82087500D03*
X161317334Y-85487500D03*
%TD*%
%TO.C,F13*%
X70125000Y-135455000D03*
X70125000Y-132055000D03*
X56655000Y-135455000D03*
X56655000Y-132055000D03*
%TD*%
D11*
%TO.C,TP9*%
X77575000Y-63125000D03*
%TD*%
D17*
%TO.C,F1*%
X123275000Y-77785000D03*
X126675000Y-77785000D03*
X123275000Y-64315000D03*
X126675000Y-64315000D03*
%TD*%
D10*
%TO.C,TP41*%
X72925000Y-66562500D03*
%TD*%
D17*
%TO.C,F11*%
X69807250Y-108808500D03*
X69807250Y-105408500D03*
X56337250Y-108808500D03*
X56337250Y-105408500D03*
%TD*%
D10*
%TO.C,TP43*%
X71750000Y-121410000D03*
%TD*%
%TO.C,TP28*%
X115480000Y-53607500D03*
%TD*%
D11*
%TO.C,TP15*%
X85200000Y-74525000D03*
%TD*%
D17*
%TO.C,F10*%
X70067250Y-117312500D03*
X70067250Y-113912500D03*
X56597250Y-117312500D03*
X56597250Y-113912500D03*
%TD*%
D13*
%TO.C,J6*%
X174035000Y-147700000D03*
D18*
X175375000Y-148950000D03*
D19*
X175375000Y-146450000D03*
%TD*%
D10*
%TO.C,TP42*%
X89775000Y-107025000D03*
%TD*%
D17*
%TO.C,F12*%
X69945000Y-143785000D03*
X69945000Y-140385000D03*
X56475000Y-143785000D03*
X56475000Y-140385000D03*
%TD*%
D11*
%TO.C,TP8*%
X142250000Y-154775000D03*
%TD*%
%TO.C,TP14*%
X132275000Y-148175000D03*
%TD*%
D10*
%TO.C,TP44*%
X70975000Y-100200000D03*
%TD*%
%TO.C,TP40*%
X71600000Y-88525000D03*
%TD*%
D11*
%TO.C,TP6*%
X145540000Y-90850000D03*
%TD*%
%TO.C,TP12*%
X138260000Y-92050000D03*
%TD*%
D10*
%TO.C,TP48*%
X85630000Y-46157500D03*
%TD*%
%TO.C,TP33*%
X130300000Y-117700000D03*
%TD*%
D27*
%TO.C,H1*%
X37075000Y-41290000D03*
D28*
X37075000Y-41290000D03*
%TD*%
D10*
%TO.C,TP47*%
X71450000Y-128000000D03*
%TD*%
%TO.C,TP38*%
X147330000Y-153675000D03*
%TD*%
D13*
%TO.C,J5*%
X174060000Y-136975000D03*
D18*
X175400000Y-138225000D03*
D19*
X175400000Y-135725000D03*
%TD*%
D10*
%TO.C,TP19*%
X146800000Y-40990000D03*
%TD*%
%TO.C,TP50*%
X85225000Y-50950000D03*
%TD*%
D17*
%TO.C,F9*%
X71860000Y-74591000D03*
X71860000Y-71191000D03*
X58390000Y-74591000D03*
X58390000Y-71191000D03*
%TD*%
D13*
%TO.C,J9*%
X114025000Y-154460000D03*
D16*
X110275000Y-155800000D03*
D15*
X112775000Y-155800000D03*
X115275000Y-155800000D03*
%TD*%
D10*
%TO.C,TP49*%
X88050000Y-57295000D03*
%TD*%
D27*
%TO.C,H2*%
X174900000Y-41290000D03*
D28*
X174900000Y-41290000D03*
%TD*%
D11*
%TO.C,TP4*%
X103450000Y-88350000D03*
%TD*%
D27*
%TO.C,H3*%
X174900000Y-156700000D03*
D28*
X174900000Y-156700000D03*
%TD*%
D11*
%TO.C,TP13*%
X138675000Y-120400000D03*
%TD*%
D27*
%TO.C,H4*%
X37075000Y-156700000D03*
D28*
X37075000Y-156700000D03*
%TD*%
D17*
%TO.C,F4*%
X148042334Y-103327500D03*
X148042334Y-106727500D03*
X161512334Y-103327500D03*
X161512334Y-106727500D03*
%TD*%
D29*
%TO.C,C64*%
X50050000Y-137487500D03*
X50050000Y-135762500D03*
%TD*%
D30*
%TO.C,C46*%
X166150000Y-143400000D03*
X166150000Y-145125000D03*
%TD*%
D31*
%TO.C,R12*%
X55380000Y-45812500D03*
X55380000Y-47637500D03*
%TD*%
D32*
%TO.C,R37*%
X151102334Y-118365000D03*
X152927334Y-118365000D03*
%TD*%
D33*
%TO.C,D3*%
X55800000Y-42720000D03*
X55800000Y-38670000D03*
%TD*%
D30*
%TO.C,C65*%
X47675000Y-137325000D03*
X47675000Y-139050000D03*
%TD*%
D34*
%TO.C,D26*%
X55396250Y-91210000D03*
X55396250Y-86910000D03*
%TD*%
D35*
%TO.C,C5*%
X50862500Y-42695000D03*
X49137500Y-42695000D03*
%TD*%
%TO.C,C50*%
X138461250Y-135225000D03*
X136736250Y-135225000D03*
%TD*%
D30*
%TO.C,C40*%
X166950000Y-110087500D03*
X166950000Y-111812500D03*
%TD*%
D32*
%TO.C,R46*%
X136352334Y-104402500D03*
X138177334Y-104402500D03*
%TD*%
D34*
%TO.C,D27*%
X88910000Y-80000000D03*
X88910000Y-75700000D03*
%TD*%
D29*
%TO.C,C35*%
X165950000Y-78100000D03*
X165950000Y-76375000D03*
%TD*%
D36*
%TO.C,R58*%
X68972500Y-87091000D03*
X67147500Y-87091000D03*
%TD*%
D29*
%TO.C,C47*%
X166175000Y-141750000D03*
X166175000Y-140025000D03*
%TD*%
D32*
%TO.C,R38*%
X148612500Y-99522500D03*
X150437500Y-99522500D03*
%TD*%
D36*
%TO.C,R66*%
X82660000Y-82491000D03*
X80835000Y-82491000D03*
%TD*%
D37*
%TO.C,D11*%
X156281084Y-63502500D03*
X156281084Y-67802500D03*
%TD*%
D30*
%TO.C,C6*%
X57080000Y-45862500D03*
X57080000Y-47587500D03*
%TD*%
D34*
%TO.C,D10*%
X160021084Y-94500000D03*
X160021084Y-90200000D03*
%TD*%
D36*
%TO.C,R13*%
X60232500Y-40945000D03*
X58407500Y-40945000D03*
%TD*%
D38*
%TO.C,IC8*%
X79607001Y-140966000D03*
X79135000Y-140966000D03*
X78663000Y-140966000D03*
X78191002Y-140966000D03*
X77719001Y-140966000D03*
X77247000Y-140966000D03*
X76775000Y-140966000D03*
X76302999Y-140966000D03*
X76302999Y-135124000D03*
X76775000Y-135124000D03*
X77247000Y-135124000D03*
X77718998Y-135124000D03*
X78190999Y-135124000D03*
X78663000Y-135124000D03*
X79135000Y-135124000D03*
X79607001Y-135124000D03*
D39*
X77955000Y-138045000D03*
%TD*%
D38*
%TO.C,IC4*%
X138385333Y-106466500D03*
X138857334Y-106466500D03*
X139329334Y-106466500D03*
X139801332Y-106466500D03*
X140273333Y-106466500D03*
X140745334Y-106466500D03*
X141217334Y-106466500D03*
X141689335Y-106466500D03*
X141689335Y-112308500D03*
X141217334Y-112308500D03*
X140745334Y-112308500D03*
X140273336Y-112308500D03*
X139801335Y-112308500D03*
X139329334Y-112308500D03*
X138857334Y-112308500D03*
X138385333Y-112308500D03*
D39*
X140037334Y-109387500D03*
%TD*%
D29*
%TO.C,C43*%
X133831084Y-108410000D03*
X133831084Y-106685000D03*
%TD*%
D37*
%TO.C,D30*%
X57708500Y-97150000D03*
X57708500Y-101450000D03*
%TD*%
D29*
%TO.C,C37*%
X133871084Y-78342500D03*
X133871084Y-76617500D03*
%TD*%
D32*
%TO.C,R28*%
X147203584Y-69200000D03*
X149028584Y-69200000D03*
%TD*%
%TO.C,R10*%
X58680000Y-46125000D03*
X60505000Y-46125000D03*
%TD*%
D29*
%TO.C,C59*%
X54950000Y-122062500D03*
X54950000Y-120337500D03*
%TD*%
D37*
%TO.C,D12*%
X129875000Y-76550000D03*
X129875000Y-80850000D03*
%TD*%
%TO.C,D35*%
X50470000Y-126530000D03*
X50470000Y-130830000D03*
%TD*%
D29*
%TO.C,C41*%
X166950000Y-108412500D03*
X166950000Y-106687500D03*
%TD*%
D31*
%TO.C,R91*%
X68145000Y-50622500D03*
X68145000Y-52447500D03*
%TD*%
D29*
%TO.C,C48*%
X136195000Y-141452500D03*
X136195000Y-139727500D03*
%TD*%
D34*
%TO.C,D20*%
X161955000Y-156800000D03*
X161955000Y-152500000D03*
%TD*%
D36*
%TO.C,R68*%
X68732250Y-120450000D03*
X66907250Y-120450000D03*
%TD*%
D10*
%TO.C,TP23*%
X72750000Y-52135000D03*
%TD*%
D32*
%TO.C,R48*%
X148451250Y-133665000D03*
X150276250Y-133665000D03*
%TD*%
D30*
%TO.C,C67*%
X82875000Y-139242500D03*
X82875000Y-140967500D03*
%TD*%
%TO.C,C55*%
X83446250Y-78160000D03*
X83446250Y-79885000D03*
%TD*%
D37*
%TO.C,D21*%
X160770000Y-128340000D03*
X160770000Y-132640000D03*
%TD*%
D36*
%TO.C,R77*%
X65707500Y-129105000D03*
X63882500Y-129105000D03*
%TD*%
D30*
%TO.C,C60*%
X85308500Y-113662500D03*
X85308500Y-115387500D03*
%TD*%
D32*
%TO.C,R9*%
X58675000Y-42745000D03*
X60500000Y-42745000D03*
%TD*%
D34*
%TO.C,D37*%
X88565000Y-141125000D03*
X88565000Y-136825000D03*
%TD*%
D10*
%TO.C,TP24*%
X53945000Y-53335000D03*
%TD*%
D29*
%TO.C,C36*%
X135631084Y-78342500D03*
X135631084Y-76617500D03*
%TD*%
D30*
%TO.C,C54*%
X85446250Y-78160000D03*
X85446250Y-79885000D03*
%TD*%
D29*
%TO.C,C42*%
X135821084Y-108380000D03*
X135821084Y-106655000D03*
%TD*%
D36*
%TO.C,R67*%
X66707250Y-101387500D03*
X64882250Y-101387500D03*
%TD*%
D29*
%TO.C,C8*%
X53770000Y-47587500D03*
X53770000Y-45862500D03*
%TD*%
D30*
%TO.C,C53*%
X51850000Y-77125000D03*
X51850000Y-78850000D03*
%TD*%
%TO.C,C58*%
X51908500Y-104675000D03*
X51908500Y-106400000D03*
%TD*%
D37*
%TO.C,D25*%
X55096250Y-63160000D03*
X55096250Y-67460000D03*
%TD*%
D40*
%TO.C,D2*%
X74860000Y-45585000D03*
X70560000Y-45585000D03*
%TD*%
D41*
%TO.C,C9*%
X47517500Y-48395000D03*
X49242500Y-48395000D03*
%TD*%
D36*
%TO.C,R78*%
X67407500Y-146930000D03*
X65582500Y-146930000D03*
%TD*%
D42*
%TO.C,C7*%
X63257500Y-57372500D03*
X63257500Y-59447500D03*
%TD*%
D36*
%TO.C,R86*%
X80945000Y-143350000D03*
X79120000Y-143350000D03*
%TD*%
D34*
%TO.C,D32*%
X88602250Y-115475000D03*
X88602250Y-111175000D03*
%TD*%
D32*
%TO.C,R56*%
X136686250Y-137000000D03*
X138511250Y-137000000D03*
%TD*%
D41*
%TO.C,C3*%
X71320000Y-48675000D03*
X73045000Y-48675000D03*
%TD*%
D29*
%TO.C,C52*%
X54475000Y-77250000D03*
X54475000Y-75525000D03*
%TD*%
D37*
%TO.C,D16*%
X165800000Y-94690000D03*
X165800000Y-98990000D03*
%TD*%
D32*
%TO.C,R36*%
X136532334Y-74587500D03*
X138357334Y-74587500D03*
%TD*%
D30*
%TO.C,C34*%
X165875000Y-80687500D03*
X165875000Y-82412500D03*
%TD*%
%TO.C,C61*%
X83058500Y-113662500D03*
X83058500Y-115387500D03*
%TD*%
D38*
%TO.C,IC3*%
X138168332Y-76615500D03*
X138640333Y-76615500D03*
X139112333Y-76615500D03*
X139584331Y-76615500D03*
X140056332Y-76615500D03*
X140528333Y-76615500D03*
X141000333Y-76615500D03*
X141472334Y-76615500D03*
X141472334Y-82457500D03*
X141000333Y-82457500D03*
X140528333Y-82457500D03*
X140056335Y-82457500D03*
X139584334Y-82457500D03*
X139112333Y-82457500D03*
X138640333Y-82457500D03*
X138168332Y-82457500D03*
D39*
X139820333Y-79536500D03*
%TD*%
D43*
%TO.C,Q1*%
X66140000Y-47195000D03*
X64870000Y-47195000D03*
X63590000Y-47195000D03*
X62320000Y-47195000D03*
D44*
X64230000Y-43925000D03*
%TD*%
D38*
%TO.C,IC6*%
X80872001Y-80269900D03*
X80400000Y-80269900D03*
X79928000Y-80269900D03*
X79456002Y-80269900D03*
X78984001Y-80269900D03*
X78512000Y-80269900D03*
X78040000Y-80269900D03*
X77567999Y-80269900D03*
X77567999Y-74427900D03*
X78040000Y-74427900D03*
X78512000Y-74427900D03*
X78983998Y-74427900D03*
X79455999Y-74427900D03*
X79928000Y-74427900D03*
X80400000Y-74427900D03*
X80872001Y-74427900D03*
D39*
X79220000Y-77348900D03*
%TD*%
D34*
%TO.C,D36*%
X57645000Y-151757500D03*
X57645000Y-147457500D03*
%TD*%
D41*
%TO.C,C68*%
X79200000Y-145150000D03*
X80925000Y-145150000D03*
%TD*%
D36*
%TO.C,R11*%
X60505000Y-44425000D03*
X58680000Y-44425000D03*
%TD*%
D41*
%TO.C,C56*%
X80910000Y-84266000D03*
X82635000Y-84266000D03*
%TD*%
D37*
%TO.C,D17*%
X129841084Y-105320000D03*
X129841084Y-109620000D03*
%TD*%
%TO.C,D22*%
X131170000Y-137865000D03*
X131170000Y-142165000D03*
%TD*%
D36*
%TO.C,R76*%
X81102250Y-117423500D03*
X79277250Y-117423500D03*
%TD*%
D41*
%TO.C,C62*%
X79327250Y-119123500D03*
X81052250Y-119123500D03*
%TD*%
D30*
%TO.C,C4*%
X53030000Y-39675000D03*
X53030000Y-41400000D03*
%TD*%
D34*
%TO.C,D15*%
X161261084Y-123850000D03*
X161261084Y-119550000D03*
%TD*%
D29*
%TO.C,C49*%
X134520000Y-141465000D03*
X134520000Y-139740000D03*
%TD*%
D34*
%TO.C,D31*%
X50608500Y-122250000D03*
X50608500Y-117950000D03*
%TD*%
D36*
%TO.C,R57*%
X67533750Y-67860000D03*
X65708750Y-67860000D03*
%TD*%
D31*
%TO.C,R14*%
X58430000Y-37355000D03*
X58430000Y-39180000D03*
%TD*%
D45*
%TO.C,IC1*%
X49250000Y-46495000D03*
X49250000Y-45845000D03*
X49250000Y-45195000D03*
X49250000Y-44545000D03*
X51750000Y-44545000D03*
X51750000Y-45195000D03*
X51750000Y-45845000D03*
X51750000Y-46495000D03*
%TD*%
D46*
%TO.C,Q2*%
X62220000Y-49555000D03*
X63490000Y-49555000D03*
X64770000Y-49555000D03*
X66040000Y-49555000D03*
D47*
X64130000Y-52825000D03*
%TD*%
D32*
%TO.C,R47*%
X152445000Y-151340000D03*
X154270000Y-151340000D03*
%TD*%
D35*
%TO.C,C38*%
X138307334Y-72887500D03*
X136582334Y-72887500D03*
%TD*%
D38*
%TO.C,IC7*%
X79477250Y-115154500D03*
X79005249Y-115154500D03*
X78533249Y-115154500D03*
X78061251Y-115154500D03*
X77589250Y-115154500D03*
X77117249Y-115154500D03*
X76645249Y-115154500D03*
X76173248Y-115154500D03*
X76173248Y-109312500D03*
X76645249Y-109312500D03*
X77117249Y-109312500D03*
X77589247Y-109312500D03*
X78061248Y-109312500D03*
X78533249Y-109312500D03*
X79005249Y-109312500D03*
X79477250Y-109312500D03*
D39*
X77825249Y-112233500D03*
%TD*%
D35*
%TO.C,C44*%
X138127334Y-102627500D03*
X136402334Y-102627500D03*
%TD*%
D32*
%TO.C,R27*%
X147787500Y-88775000D03*
X149612500Y-88775000D03*
%TD*%
D30*
%TO.C,C66*%
X84835000Y-139275000D03*
X84835000Y-141000000D03*
%TD*%
D38*
%TO.C,IC5*%
X138612248Y-139673000D03*
X139084249Y-139673000D03*
X139556249Y-139673000D03*
X140028247Y-139673000D03*
X140500248Y-139673000D03*
X140972249Y-139673000D03*
X141444249Y-139673000D03*
X141916250Y-139673000D03*
X141916250Y-145515000D03*
X141444249Y-145515000D03*
X140972249Y-145515000D03*
X140500251Y-145515000D03*
X140028250Y-145515000D03*
X139556249Y-145515000D03*
X139084249Y-145515000D03*
X138612248Y-145515000D03*
D39*
X140264249Y-142594000D03*
%TD*%
M02*
