M48
; DRILL file KiCad 10.0.5 date 2026-09-18T00:59:59
; FORMAT={-:-/ absolute / inch / decimal}
; #@! TF.CreationDate,2026-09-18T00:59:59-05:00
; #@! TF.GenerationSoftware,Kicad,Pcbnew,10.0.5
; #@! TF.FileFunction,Plated,1,4,PTH
FMAT,2
INCH
; #@! TA.AperFunction,Plated,PTH,ViaDrill
T1C0.0118
; #@! TA.AperFunction,Plated,PTH,ViaDrill
T2C0.0197
; #@! TA.AperFunction,Plated,PTH,ComponentDrill
T3C0.0197
; #@! TA.AperFunction,Plated,PTH,ComponentDrill
T4C0.0236
; #@! TA.AperFunction,Plated,PTH,ComponentDrill
T5C0.0394
; #@! TA.AperFunction,Plated,PTH,ComponentDrill
T6C0.0472
; #@! TA.AperFunction,Plated,PTH,ComponentDrill
T7C0.0591
; #@! TA.AperFunction,Plated,PTH,ComponentDrill
T8C0.0630
; #@! TA.AperFunction,Plated,PTH,ComponentDrill
T9C0.0709
; #@! TA.AperFunction,Plated,PTH,ComponentDrill
T10C0.1260
%
G90
G05
T1
X1.498Y-5.6122
X1.6535Y-2.1634
X2.3199Y-5.0817
X2.3494Y-2.6722
X2.3681Y-3.9892
X2.376Y-5.7844
X2.436Y-4.7431
X2.4518Y-3.4262
X2.4616Y-5.0817
X2.4852Y-2.6772
X2.4961Y-3.6043
X2.5089Y-3.9921
X2.524Y-3.7736
X2.5295Y-5.7844
X2.5482Y-2.3524
X2.5571Y-3.5965
X2.5768Y-4.7431
X2.5915Y-3.4281
X2.7205Y-3.7441
X2.7224Y-3.8169
X2.9441Y-4.726
X2.9441Y-5.7122
X2.9791Y-5.6073
X2.9843Y-2.6929
X2.9852Y-4.6004
X2.9951Y-4.2283
X3.0118Y-5.6289
X3.0404Y-3.2234
X3.0433Y-4.6043
X3.0433Y-5.2608
X3.0472Y-4.2195
X3.0551Y-2.8573
X3.0679Y-5.2323
X3.0699Y-5.622
X3.0709Y-3.45
X3.0758Y-4.6063
X3.1014Y-4.2323
X3.1053Y-2.8258
X3.1171Y-5.2579
X3.1211Y-3.2156
X3.1417Y-3.2392
X3.1476Y-2.8474
X3.1545Y-5.2638
X3.1575Y-4.9567
X3.1673Y-4.2244
X3.1801Y-5.3012
X3.1939Y-4.3091
X3.1949Y-3.7264
X3.2028Y-5.0039
X3.2096Y-5.5138
X3.2156Y-5.3681
X3.2215Y-2.9193
X3.2283Y-2.8455
X3.2343Y-3.7756
X3.2736Y-5.8051
X3.3337Y-4.9488
X3.3346Y-5.0827
X3.3366Y-3.5886
X3.3386Y-3.5079
X3.3642Y-5.7677
X3.372Y-3.7224
X3.3957Y-5.9331
X3.4311Y-3.7283
X3.4626Y-2.1329
X3.4705Y-5.874
X3.5098Y-3.8406
X3.5512Y-3.8976
X3.564Y-1.8307
X3.6063Y-3.3228
X3.6299Y-2.0719
X3.6307Y-3.0157
X3.6496Y-3.2717
X3.6604Y-2.0699
X3.846Y-4.2564
X3.9606Y-3.9754
X4.0197Y-3.0807
X4.0447Y-2.8632
X4.0492Y-2.6909
X4.0561Y-3.25
X4.0748Y-4.3406
X4.0906Y-3.0354
X4.0945Y-2.6496
X4.1299Y-4.9547
X4.1319Y-5.0157
X4.1831Y-4.4409
X4.187Y-6.3366
X4.2028Y-5.9587
X4.2036Y-6.0236
X4.2559Y-3.6102
X4.2805Y-4.8455
X4.2894Y-5.1791
X4.3031Y-3.1378
X4.3465Y-1.5039
X4.3504Y-1.5728
X4.3516Y-3.8756
X4.372Y-5.2303
X4.374Y-1.5394
X4.3761Y-4.0995
X4.3888Y-4.8917
X4.3917Y-1.5039
X4.3957Y-1.5728
X4.4157Y-4.1449
X4.4193Y-1.5394
X4.4272Y-3.4803
X4.4331Y-1.5039
X4.437Y-1.5728
X4.439Y-3.1673
X4.4429Y-4.2343
X4.4516Y-3.7843
X4.452Y-3.5512
X4.4587Y-5.8327
X4.4606Y-1.5394
X4.4783Y-1.502
X4.4783Y-1.5728
X4.4902Y-3.437
X4.5059Y-1.5394
X4.5059Y-3.1083
X4.5236Y-1.502
X4.5236Y-1.5728
X4.5402Y-5.9077
X4.5512Y-1.5394
X4.565Y-1.502
X4.565Y-1.5728
X4.565Y-5.6752
X4.5669Y-5.7569
X4.5925Y-1.5394
X4.6319Y-5.8799
X4.6348Y-4.753
X4.6535Y-3.372
X4.69Y-3.6102
X4.6947Y-3.311
X4.7126Y-4.311
X4.7254Y-3.5886
X4.7343Y-4.1693
X4.75Y-5.9715
X4.7982Y-4.748
X4.811Y-5.3474
X4.8268Y-3.877
X4.8445Y-4.124
X4.8953Y-5.0872
X4.8976Y-4.7449
X4.8996Y-4.2618
X4.9429Y-4.0197
X4.9646Y-4.2087
X4.9646Y-4.2638
X4.9675Y-4.746
X4.9685Y-4.0433
X4.9685Y-5.0886
X5.0Y-4.2441
X5.0177Y-3.2953
X5.0256Y-2.189
X5.0906Y-3.2972
X5.1152Y-2.189
X5.1791Y-3.565
X5.1791Y-3.6594
X5.1811Y-6.1181
X5.1816Y-3.6106
X5.185Y-3.4862
X5.187Y-4.4252
X5.2018Y-1.9606
X5.2126Y-5.9035
X5.2215Y-2.2362
X5.2461Y-2.0679
X5.252Y-4.3327
X5.2608Y-6.002
X5.2677Y-4.3868
X5.2687Y-4.4173
X5.2736Y-6.2323
X5.2913Y-4.7303
X5.3066Y-3.2987
X5.3189Y-5.1102
X5.32Y-1.8209
X5.3268Y-4.9055
X5.3346Y-4.6693
X5.3378Y-5.9949
X5.3406Y-4.4498
X5.3474Y-5.7648
X5.3494Y-3.3317
X5.3504Y-4.5049
X5.3553Y-5.8189
X5.4016Y-4.9193
X5.4094Y-3.935
X5.4131Y-5.1097
X5.4232Y-3.3169
X5.4331Y-5.7894
X5.438Y-5.2707
X5.4646Y-1.74
X5.4783Y-3.3169
X5.4921Y-5.7894
X5.4961Y-5.435
X5.5207Y-4.8287
X5.5295Y-4.128
X5.5315Y-5.4183
X5.5374Y-3.3179
X5.5374Y-3.374
X5.5374Y-4.5177
X5.5433Y-5.8366
X5.5433Y-5.9921
X5.5463Y-2.9528
X5.5575Y-3.9024
X5.564Y-5.437
X5.5787Y-5.2386
X5.5807Y-4.9193
X5.5817Y-5.7923
X5.6102Y-2.7921
X5.624Y-4.4488
X5.6496Y-3.4951
X5.6604Y-5.9577
X5.6791Y-4.4508
X5.6811Y-4.9213
X5.69Y-4.6073
X5.9134Y-2.7244
X5.9252Y-3.497
X5.9557Y-3.9193
X5.9675Y-5.2618
X6.0207Y-3.5354
X6.0246Y-2.6841
X6.0325Y-1.7431
X6.0512Y-3.9537
X6.065Y-4.6604
X6.0837Y-5.2224
X6.125Y-5.9577
X6.2096Y-4.6604
X6.2392Y-6.0039
X6.5817Y-5.6142
X6.6024Y-4.3012
X6.7874Y-1.9508
X6.7913Y-2.0197
X6.815Y-1.9862
X6.8327Y-1.9508
X6.8366Y-2.0197
X6.8602Y-1.9862
X6.874Y-1.9508
X6.878Y-2.0197
X6.9016Y-1.9862
X6.9193Y-1.9488
X6.9193Y-2.0197
X6.9469Y-1.9862
X6.9646Y-1.9488
X6.9646Y-2.0197
X6.9921Y-1.9862
X7.0059Y-1.9488
X7.0059Y-2.0197
X7.0335Y-1.9862
T2
X1.3337Y-3.5108
X1.3358Y-4.7256
X1.3382Y-2.489
X1.3406Y-5.3315
X1.3429Y-3.2385
X1.3524Y-1.976
X1.6703Y-1.878
X1.8295Y-5.4077
X1.8352Y-2.0713
X1.8709Y-1.9502
X1.8876Y-1.8049
X1.9962Y-3.037
X2.001Y-4.122
X2.0106Y-5.9709
X2.0106Y-6.2047
X2.0175Y-5.4116
X2.0581Y-4.9793
X2.064Y-4.812
X2.0874Y-1.5211
X2.0986Y-3.0395
X2.1244Y-4.8061
X2.1998Y-5.9734
X2.2431Y-2.4852
X2.253Y-3.5886
X2.2902Y-1.8734
X2.3091Y-6.1976
X2.3415Y-3.8228
X2.4724Y-2.7972
X2.4724Y-2.9016
X2.5787Y-2.7953
X2.5787Y-2.9016
X2.7169Y-6.2287
X2.7366Y-2.4102
X2.9104Y-5.1476
X2.9281Y-4.0709
X3.0303Y-1.7957
X3.062Y-4.7864
X3.063Y-5.8031
X3.1309Y-5.7982
X3.1407Y-3.4085
X3.1693Y-4.7461
X3.1921Y-5.585
X3.2057Y-3.4163
X3.2307Y-2.4917
X3.2352Y-5.6445
X3.2392Y-4.0719
X3.2392Y-4.6909
X3.2756Y-5.8661
X3.2807Y-3.9012
X3.3022Y-5.1437
X3.3051Y-3.249
X3.3189Y-3.4311
X3.3337Y-2.7362
X3.3898Y-4.7461
X3.4547Y-5.7587
X3.4843Y-4.7461
X3.4872Y-5.6329
X3.4882Y-4.625
X3.501Y-3.2254
X3.502Y-4.8366
X3.5039Y-4.9154
X3.5197Y-3.4528
X3.5555Y-4.0228
X3.628Y-4.4862
X3.6299Y-4.6102
X3.7264Y-5.3622
X3.7303Y-5.4921
X3.739Y-3.6937
X3.7402Y-3.4685
X3.7441Y-2.0236
X3.8002Y-2.7638
X3.8189Y-3.4075
X3.825Y-5.0366
X3.8386Y-4.685
X3.8858Y-4.7297
X3.8957Y-4.9252
X4.0748Y-4.6299
X4.1654Y-4.5285
X4.1831Y-5.2264
X4.2087Y-5.7972
X4.3937Y-2.3307
X4.4567Y-4.8268
X4.4799Y-3.6319
X4.5154Y-3.926
X4.5823Y-4.8559
X4.5827Y-3.9946
X4.648Y-4.0756
X4.6624Y-4.6437
X4.672Y-3.928
X4.6841Y-4.2835
X4.8019Y-3.9011
X4.8441Y-3.7854
X4.8602Y-4.6201
X4.878Y-5.3396
X4.8815Y-3.7256
X4.9459Y-5.6752
X4.9606Y-5.7608
X5.0606Y-6.1382
X5.061Y-4.4583
X5.0728Y-5.7563
X5.0752Y-5.1524
X5.0846Y-5.002
X5.1001Y-3.7343
X5.1122Y-4.0709
X5.1161Y-2.937
X5.1583Y-3.9697
X5.1644Y-5.3524
X5.1781Y-2.7352
X5.2126Y-1.7402
X5.2508Y-3.802
X5.3219Y-4.0404
X5.3248Y-5.3238
X5.3278Y-2.8691
X5.4172Y-1.959
X5.4183Y-4.501
X5.4213Y-6.2217
X5.4378Y-5.4366
X5.438Y-2.7362
X5.4852Y-4.0935
X5.4862Y-3.9252
X5.4862Y-4.5039
X5.4921Y-5.0429
X5.5039Y-2.7362
X5.5049Y-5.2618
X5.5059Y-2.9213
X5.5531Y-4.0955
X5.5709Y-2.9193
X5.5856Y-4.4931
X5.5866Y-3.5157
X5.7437Y-3.711
X5.939Y-5.0587
X6.0012Y-6.1453
X6.0128Y-2.1689
X6.0713Y-4.8421
X6.0799Y-3.7492
X6.2224Y-2.5
X6.3559Y-2.2159
X6.372Y-3.7205
X6.3967Y-5.0512
X6.4163Y-4.876
X6.4439Y-6.1722
X6.5328Y-3.122
X6.5972Y-2.2018
X6.5994Y-3.7283
X6.6382Y-6.2098
T3
X4.2451Y-5.0053
X4.2844Y-5.0053
X4.3238Y-5.0053
X4.3632Y-5.0053
T5
X2.9931Y-3.9006
X3.0413Y-5.0197
X3.0541Y-2.4852
X3.3543Y-2.9341
X3.3583Y-4.124
X3.435Y-5.2648
X4.0728Y-3.4783
X4.2455Y-2.8376
X4.2455Y-2.9376
X4.2455Y-3.0376
X4.2455Y-3.1376
X4.7587Y-6.0802
X4.8587Y-6.0802
X5.2077Y-5.8337
X5.4433Y-3.624
X5.4596Y-4.7402
X5.6004Y-6.0935
X5.7299Y-3.5768
X5.8791Y-4.7077
X6.1506Y-1.6177
X6.5305Y-1.6236
T6
X1.4067Y-3.9902
X1.4067Y-4.0886
X1.4067Y-4.187
X1.4067Y-4.2854
X1.4067Y-4.3839
X1.4067Y-4.4823
X1.5051Y-3.9902
X1.5051Y-4.0886
X1.5051Y-4.187
X1.5051Y-4.2854
X1.5051Y-4.3839
X1.5051Y-4.4823
X3.1041Y-6.1358
X3.2026Y-6.1358
X3.301Y-6.1358
X3.3994Y-6.1358
X3.8425Y-6.1348
X3.9409Y-6.1348
X4.0394Y-6.1348
X4.3415Y-6.1339
X4.44Y-6.1339
X4.5384Y-6.1339
X6.8986Y-3.2933
X6.8986Y-3.3917
X6.903Y-2.8917
X6.903Y-2.9902
X6.9045Y-5.7657
X6.9045Y-5.8642
X6.9055Y-5.3435
X6.9055Y-5.4419
X6.913Y-4.1368
X6.913Y-4.2352
X6.9173Y-4.5364
X6.9173Y-4.6348
T7
X2.1238Y-2.0998
X2.6433Y-5.9006
X2.7943Y-3.9449
X2.813Y-5.0394
X2.8189Y-3.4852
X2.8248Y-4.7799
X2.8642Y-2.0526
X2.8711Y-2.6206
X3.3553Y-2.0059
X3.3713Y-1.8172
X3.4459Y-5.0807
X3.4665Y-2.2557
X3.5034Y-2.5881
X3.5344Y-4.2136
X3.6654Y-2.253
X4.5465Y-2.1105
X5.0984Y-5.9882
X5.1299Y-4.6339
X5.2057Y-3.3396
X5.3071Y-2.5669
X5.4577Y-2.1211
X5.6471Y-2.5974
X5.7175Y-4.7677
X5.7323Y-5.187
X5.7421Y-3.8937
X5.7795Y-1.6138
X5.8004Y-6.0502
X5.9059Y-3.6169
X6.1124Y-2.2502
X6.5344Y-1.8583
T8
X2.218Y-4.1499
X2.218Y-4.2838
X2.2234Y-5.527
X2.2234Y-5.6608
X2.2282Y-4.4847
X2.2282Y-4.6186
X2.2305Y-5.199
X2.2305Y-5.3329
X2.2945Y-3.1345
X2.2945Y-3.2683
X2.2988Y-2.8028
X2.2988Y-2.9367
X2.7483Y-4.1499
X2.7483Y-4.2838
X2.7537Y-5.527
X2.7537Y-5.6608
X2.7586Y-4.4847
X2.7586Y-4.6186
X2.7608Y-5.199
X2.7608Y-5.3329
X2.8248Y-3.1345
X2.8248Y-3.2683
X2.8291Y-2.8028
X2.8291Y-2.9367
X4.8533Y-2.5321
X4.8533Y-3.0624
X4.9872Y-2.5321
X4.9872Y-3.0624
X5.8202Y-2.8755
X5.8202Y-3.0094
X5.8208Y-3.2318
X5.8208Y-3.3656
X5.8273Y-4.404
X5.8273Y-4.5379
X5.8284Y-4.068
X5.8284Y-4.2019
X5.8302Y-5.7096
X5.8302Y-5.8435
X5.8304Y-5.376
X5.8304Y-5.5098
X6.3505Y-2.8755
X6.3505Y-3.0094
X6.3511Y-3.2318
X6.3511Y-3.3656
X6.3576Y-4.404
X6.3576Y-4.5379
X6.3588Y-4.068
X6.3588Y-4.2019
X6.3605Y-5.7096
X6.3605Y-5.8435
X6.3607Y-5.376
X6.3607Y-5.5098
T9
X2.7618Y-1.5699
X2.9587Y-1.5699
T10
X1.4596Y-1.6256
X1.4596Y-6.1693
X6.8858Y-1.6256
X6.8858Y-6.1693
T4
G00X5.1685Y-1.5244
M15
G01X5.1685Y-1.4929
M16
G05
G00X5.1685Y-1.6949
M15
G01X5.1685Y-1.6516
M16
G05
G00X5.5087Y-1.5244
M15
G01X5.5087Y-1.4929
M16
G05
G00X5.5087Y-1.6949
M15
G01X5.5087Y-1.6516
M16
G05
M30
