%TF.GenerationSoftware,KiCad,Pcbnew,9.0.5*%
%TF.CreationDate,2026-03-01T20:46:16-06:00*%
%TF.ProjectId,PowerDistributionUnit_Mk1,506f7765-7244-4697-9374-726962757469,rev?*%
%TF.SameCoordinates,Original*%
%TF.FileFunction,Soldermask,Bot*%
%TF.FilePolarity,Negative*%
%FSLAX46Y46*%
G04 Gerber Fmt 4.6, Leading zero omitted, Abs format (unit mm)*
G04 Created by KiCad (PCBNEW 9.0.5) date 2026-03-01 20:46:16*
%MOMM*%
%LPD*%
G01*
G04 APERTURE LIST*
G04 Aperture macros list*
%AMRoundRect*
0 Rectangle with rounded corners*
0 $1 Rounding radius*
0 $2 $3 $4 $5 $6 $7 $8 $9 X,Y pos of 4 corners*
0 Add a 4 corners polygon primitive as box body*
4,1,4,$2,$3,$4,$5,$6,$7,$8,$9,$2,$3,0*
0 Add four circle primitives for the rounded corners*
1,1,$1+$1,$2,$3*
1,1,$1+$1,$4,$5*
1,1,$1+$1,$6,$7*
1,1,$1+$1,$8,$9*
0 Add four rect primitives between the rounded corners*
20,1,$1+$1,$2,$3,$4,$5,0*
20,1,$1+$1,$4,$5,$6,$7,0*
20,1,$1+$1,$6,$7,$8,$9,0*
20,1,$1+$1,$8,$9,$2,$3,0*%
G04 Aperture macros list end*
%ADD10R,1.700000X1.700000*%
%ADD11C,6.400000*%
%ADD12C,1.752600*%
%ADD13R,3.000000X3.000000*%
%ADD14C,3.000000*%
%ADD15C,1.346200*%
%ADD16C,2.780000*%
%ADD17C,1.524000*%
%ADD18C,7.400000*%
%ADD19C,3.200000*%
%ADD20RoundRect,0.200000X-0.275000X0.200000X-0.275000X-0.200000X0.275000X-0.200000X0.275000X0.200000X0*%
%ADD21R,0.500000X0.800000*%
%ADD22R,0.400000X0.800000*%
%ADD23RoundRect,0.200000X0.275000X-0.200000X0.275000X0.200000X-0.275000X0.200000X-0.275000X-0.200000X0*%
%ADD24C,1.000000*%
%ADD25RoundRect,0.200000X0.200000X0.275000X-0.200000X0.275000X-0.200000X-0.275000X0.200000X-0.275000X0*%
%ADD26RoundRect,0.200000X-0.200000X-0.275000X0.200000X-0.275000X0.200000X0.275000X-0.200000X0.275000X0*%
%ADD27RoundRect,0.225000X-0.225000X-0.250000X0.225000X-0.250000X0.225000X0.250000X-0.225000X0.250000X0*%
%ADD28RoundRect,0.225000X0.225000X0.250000X-0.225000X0.250000X-0.225000X-0.250000X0.225000X-0.250000X0*%
%ADD29RoundRect,0.100000X-0.225000X-0.100000X0.225000X-0.100000X0.225000X0.100000X-0.225000X0.100000X0*%
%ADD30RoundRect,0.100000X-0.100000X0.225000X-0.100000X-0.225000X0.100000X-0.225000X0.100000X0.225000X0*%
%ADD31RoundRect,0.150000X-0.825000X-0.150000X0.825000X-0.150000X0.825000X0.150000X-0.825000X0.150000X0*%
%ADD32RoundRect,0.225000X-0.250000X0.225000X-0.250000X-0.225000X0.250000X-0.225000X0.250000X0.225000X0*%
%ADD33RoundRect,0.375000X1.125000X-0.375000X1.125000X0.375000X-1.125000X0.375000X-1.125000X-0.375000X0*%
%ADD34RoundRect,0.225000X0.250000X-0.225000X0.250000X0.225000X-0.250000X0.225000X-0.250000X-0.225000X0*%
%ADD35RoundRect,0.150000X-0.150000X0.875000X-0.150000X-0.875000X0.150000X-0.875000X0.150000X0.875000X0*%
G04 APERTURE END LIST*
D10*
%TO.C,TP239*%
X179300000Y-167600000D03*
%TD*%
%TO.C,TP10*%
X113600000Y-97100000D03*
%TD*%
D11*
%TO.C,H2*%
X188800000Y33300000D03*
%TD*%
D10*
%TO.C,TP142*%
X135198000Y-87300000D03*
%TD*%
D12*
%TO.C,J2*%
X152200000Y-115900000D03*
X152200000Y-113400000D03*
X152200000Y-110900000D03*
X152200000Y-108400000D03*
X152200000Y-105900000D03*
X152200000Y-103400000D03*
X152200000Y-100900000D03*
X152200000Y-98399999D03*
X149700000Y-115900000D03*
X149700000Y-113400000D03*
X149700000Y-110900000D03*
X149700000Y-108400000D03*
X149700000Y-105900000D03*
X149700000Y-103400000D03*
X149700000Y-100900000D03*
X149700000Y-98399999D03*
%TD*%
D10*
%TO.C,TP8*%
X113600000Y-35300000D03*
%TD*%
%TO.C,TP12*%
X190600000Y-33600000D03*
%TD*%
%TO.C,TP15*%
X190600000Y-128850000D03*
%TD*%
D13*
%TO.C,J1*%
X129100000Y-25900000D03*
D14*
X129100000Y-20900000D03*
%TD*%
D10*
%TO.C,TP2*%
X190600000Y-20600000D03*
%TD*%
D11*
%TO.C,H3*%
X115400000Y-165700000D03*
%TD*%
D10*
%TO.C,TP6*%
X123800000Y34300000D03*
%TD*%
%TO.C,TP134*%
X135198000Y-151000000D03*
%TD*%
%TO.C,TP143*%
X135198000Y-48300000D03*
%TD*%
%TO.C,TP138*%
X169000000Y-154200000D03*
%TD*%
%TO.C,TP129*%
X169000000Y-51800000D03*
%TD*%
%TO.C,TP136*%
X169000000Y-128200000D03*
%TD*%
%TO.C,TP141*%
X135198000Y-74300000D03*
%TD*%
%TO.C,TP13*%
X190600000Y-65350000D03*
%TD*%
%TO.C,TP194*%
X113600000Y-158100000D03*
%TD*%
%TO.C,TP137*%
X169000000Y-115200000D03*
%TD*%
%TO.C,TP238*%
X124900000Y-167600000D03*
%TD*%
D11*
%TO.C,H4*%
X188800000Y-165700000D03*
%TD*%
D15*
%TO.C,J4*%
X159400000Y-38210000D03*
D12*
X160650000Y-39550000D03*
X158150000Y-39550000D03*
%TD*%
D10*
%TO.C,TP14*%
X190600000Y-97100000D03*
%TD*%
D15*
%TO.C,J3*%
X117940000Y-22750000D03*
D12*
X116600000Y-29000000D03*
X116600000Y-26500000D03*
X116600000Y-24000000D03*
X116600000Y-21500000D03*
X116600000Y-19000000D03*
X116600000Y-16500000D03*
%TD*%
D16*
%TO.C,F2*%
X146600000Y-56760000D03*
X150000000Y-56760000D03*
X146600000Y-46840000D03*
X150000000Y-46840000D03*
%TD*%
D17*
%TO.C,J10*%
X178496600Y30963300D03*
X178496600Y33503300D03*
X175956600Y30963300D03*
X175956600Y33503300D03*
X173416600Y30963300D03*
X173416600Y33503300D03*
X170876600Y30963300D03*
X170876600Y33503300D03*
X168336600Y30963300D03*
X168336600Y33503300D03*
%TD*%
D10*
%TO.C,TP16*%
X125000000Y30100000D03*
%TD*%
%TO.C,TP9*%
X113600000Y-65350000D03*
%TD*%
%TO.C,TP192*%
X154000000Y-36400000D03*
%TD*%
%TO.C,TP139*%
X169000000Y-141200000D03*
%TD*%
%TO.C,TP144*%
X135198000Y-61300000D03*
%TD*%
D18*
%TO.C,H5*%
X188200000Y5800000D03*
%TD*%
D10*
%TO.C,TP140*%
X135198000Y-125000000D03*
%TD*%
D15*
%TO.C,J5*%
X148300000Y-38200000D03*
D12*
X149550000Y-39540000D03*
X147050000Y-39540000D03*
%TD*%
D16*
%TO.C,F1*%
X154900000Y-56760000D03*
X158300000Y-56760000D03*
X154900000Y-46840000D03*
X158300000Y-46840000D03*
%TD*%
D10*
%TO.C,TP7*%
X120600000Y30100000D03*
%TD*%
D17*
%TO.C,J12*%
X186460000Y-13460000D03*
X189000000Y-13460000D03*
X186460000Y-10920000D03*
X189000000Y-10920000D03*
X186460000Y-8380000D03*
X189000000Y-8380000D03*
X186460000Y-5840000D03*
X189000000Y-5840000D03*
X186460000Y-3300000D03*
X189000000Y-3300000D03*
%TD*%
D10*
%TO.C,TP0*%
X137500000Y-25600000D03*
%TD*%
%TO.C,TP11*%
X113600000Y-128850000D03*
%TD*%
%TO.C,TP1*%
X149500000Y-25600000D03*
%TD*%
D18*
%TO.C,H6*%
X150200000Y-159700000D03*
%TD*%
D19*
%TO.C,H7*%
X158700000Y-107100000D03*
%TD*%
D10*
%TO.C,TP237*%
X190600000Y-158100000D03*
%TD*%
D16*
%TO.C,F0*%
X139040000Y-18300000D03*
X139040000Y-21700000D03*
X148960000Y-18300000D03*
X148960000Y-21700000D03*
%TD*%
D17*
%TO.C,J11*%
X186460000Y14720000D03*
X189000000Y14720000D03*
X186460000Y17260000D03*
X189000000Y17260000D03*
X186460000Y19800000D03*
X189000000Y19800000D03*
X186460000Y22340000D03*
X189000000Y22340000D03*
X186460000Y24880000D03*
X189000000Y24880000D03*
%TD*%
D10*
%TO.C,TP133*%
X135198000Y-138000000D03*
%TD*%
%TO.C,TP130*%
X169000000Y-64800000D03*
%TD*%
D15*
%TO.C,J8*%
X139000000Y32500000D03*
D12*
X137750000Y33840000D03*
X140250000Y33840000D03*
%TD*%
D10*
%TO.C,TP131*%
X169000000Y-77800000D03*
%TD*%
%TO.C,TP135*%
X135198000Y-112000000D03*
%TD*%
D11*
%TO.C,U1*%
X129000000Y23100000D03*
X178500000Y23100000D03*
X129000000Y-11400000D03*
X178500000Y-11400000D03*
%TD*%
D15*
%TO.C,J9*%
X131100000Y32500000D03*
D12*
X129850000Y33840000D03*
X132350000Y33840000D03*
%TD*%
D10*
%TO.C,TP191*%
X154000000Y-40000000D03*
%TD*%
%TO.C,TP132*%
X169000000Y-90800000D03*
%TD*%
D11*
%TO.C,H1*%
X115400000Y33300000D03*
%TD*%
D17*
%TO.C,J13*%
X157896600Y30960000D03*
X157896600Y33500000D03*
X155356600Y30960000D03*
X155356600Y33500000D03*
X152816600Y30960000D03*
X152816600Y33500000D03*
X150276600Y30960000D03*
X150276600Y33500000D03*
X147736600Y30960000D03*
X147736600Y33500000D03*
%TD*%
D20*
%TO.C,R91*%
X138600000Y-80475000D03*
X138600000Y-82125000D03*
%TD*%
D21*
%TO.C,RN32*%
X130848000Y-49250000D03*
D22*
X130048000Y-49250000D03*
X129248000Y-49250000D03*
D21*
X128448000Y-49250000D03*
X128448000Y-47450000D03*
D22*
X129248000Y-47450000D03*
X130048000Y-47450000D03*
D21*
X130848000Y-47450000D03*
%TD*%
D23*
%TO.C,R54*%
X123548000Y-151975000D03*
X123548000Y-150325000D03*
%TD*%
D24*
%TO.C,TP205*%
X141200000Y8900000D03*
%TD*%
D25*
%TO.C,R88*%
X134774866Y-108109998D03*
X133124866Y-108109998D03*
%TD*%
D26*
%TO.C,R197*%
X153275000Y6735000D03*
X154925000Y6735000D03*
%TD*%
D20*
%TO.C,R14*%
X179150000Y-50825000D03*
X179150000Y-52475000D03*
%TD*%
D27*
%TO.C,C130*%
X139325000Y-52500000D03*
X140875000Y-52500000D03*
%TD*%
D28*
%TO.C,C103*%
X167175000Y-9300000D03*
X165625000Y-9300000D03*
%TD*%
D20*
%TO.C,R63*%
X132548000Y-150325000D03*
X132548000Y-151975000D03*
%TD*%
%TO.C,R122*%
X179150000Y-127225000D03*
X179150000Y-128875000D03*
%TD*%
%TO.C,R94*%
X138600000Y-41475000D03*
X138600000Y-43125000D03*
%TD*%
D29*
%TO.C,U29*%
X133050000Y13650000D03*
X133050000Y14300000D03*
X133050000Y14950000D03*
X134950000Y14950000D03*
X134950000Y13650000D03*
%TD*%
D20*
%TO.C,R81*%
X138600000Y-131175000D03*
X138600000Y-132825000D03*
%TD*%
%TO.C,R38*%
X179150000Y-76825000D03*
X179150000Y-78475000D03*
%TD*%
D21*
%TO.C,RN22*%
X173350000Y-140250000D03*
D22*
X174150000Y-140250000D03*
X174950000Y-140250000D03*
D21*
X175750000Y-140250000D03*
X175750000Y-142050000D03*
D22*
X174950000Y-142050000D03*
X174150000Y-142050000D03*
D21*
X173350000Y-142050000D03*
%TD*%
D23*
%TO.C,R71*%
X165600000Y-122025000D03*
X165600000Y-120375000D03*
%TD*%
D21*
%TO.C,RN1*%
X177050000Y-61050000D03*
D22*
X176250000Y-61050000D03*
X175450000Y-61050000D03*
D21*
X174650000Y-61050000D03*
X174650000Y-59250000D03*
D22*
X175450000Y-59250000D03*
X176250000Y-59250000D03*
D21*
X177050000Y-59250000D03*
%TD*%
D25*
%TO.C,R202*%
X146825000Y11600000D03*
X145175000Y11600000D03*
%TD*%
D23*
%TO.C,R36*%
X164100000Y-97625000D03*
X164100000Y-95975000D03*
%TD*%
D24*
%TO.C,TP182*%
X182500000Y17500000D03*
%TD*%
D23*
%TO.C,R43*%
X164100000Y-122025000D03*
X164100000Y-120375000D03*
%TD*%
%TO.C,R68*%
X165500000Y-71625000D03*
X165500000Y-69975000D03*
%TD*%
D20*
%TO.C,R53*%
X122048000Y-150325000D03*
X122048000Y-151975000D03*
%TD*%
D23*
%TO.C,R25*%
X177650000Y-65475000D03*
X177650000Y-63825000D03*
%TD*%
D24*
%TO.C,TP214*%
X133100000Y1000000D03*
%TD*%
D23*
%TO.C,R66*%
X123548000Y-138975000D03*
X123548000Y-137325000D03*
%TD*%
D20*
%TO.C,R47*%
X140100000Y-131175000D03*
X140100000Y-132825000D03*
%TD*%
D21*
%TO.C,RN13*%
X127148000Y-115750000D03*
D22*
X127948000Y-115750000D03*
X128748000Y-115750000D03*
D21*
X129548000Y-115750000D03*
X129548000Y-117550000D03*
D22*
X128748000Y-117550000D03*
X127948000Y-117550000D03*
D21*
X127148000Y-117550000D03*
%TD*%
D27*
%TO.C,C24*%
X153325000Y5235000D03*
X154875000Y5235000D03*
%TD*%
D25*
%TO.C,R221*%
X134774866Y-45959998D03*
X133124866Y-45959998D03*
%TD*%
D21*
%TO.C,RN5*%
X177050000Y-87050000D03*
D22*
X176250000Y-87050000D03*
X175450000Y-87050000D03*
D21*
X174650000Y-87050000D03*
X174650000Y-85250000D03*
D22*
X175450000Y-85250000D03*
X176250000Y-85250000D03*
D21*
X177050000Y-85250000D03*
%TD*%
%TO.C,RN21*%
X177050000Y-150450000D03*
D22*
X176250000Y-150450000D03*
X175450000Y-150450000D03*
D21*
X174650000Y-150450000D03*
X174650000Y-148650000D03*
D22*
X175450000Y-148650000D03*
X176250000Y-148650000D03*
D21*
X177050000Y-148650000D03*
%TD*%
D27*
%TO.C,C22*%
X169473134Y-96240002D03*
X171023134Y-96240002D03*
%TD*%
%TO.C,C127*%
X139325000Y-116200000D03*
X140875000Y-116200000D03*
%TD*%
%TO.C,C124*%
X139325000Y-129200000D03*
X140875000Y-129200000D03*
%TD*%
D21*
%TO.C,RN26*%
X130848000Y-88250000D03*
D22*
X130048000Y-88250000D03*
X129248000Y-88250000D03*
D21*
X128448000Y-88250000D03*
X128448000Y-86450000D03*
D22*
X129248000Y-86450000D03*
X130048000Y-86450000D03*
D21*
X130848000Y-86450000D03*
%TD*%
D24*
%TO.C,TP215*%
X133100000Y-1000000D03*
%TD*%
D26*
%TO.C,R232*%
X130673000Y-162600000D03*
X132323000Y-162600000D03*
%TD*%
%TO.C,R208*%
X169423134Y-67140002D03*
X171073134Y-67140002D03*
%TD*%
D21*
%TO.C,RN9*%
X127148000Y-141750000D03*
D22*
X127948000Y-141750000D03*
X128748000Y-141750000D03*
D21*
X129548000Y-141750000D03*
X129548000Y-143550000D03*
D22*
X128748000Y-143550000D03*
X127948000Y-143550000D03*
D21*
X127148000Y-143550000D03*
%TD*%
D26*
%TO.C,R234*%
X130773000Y-99100000D03*
X132423000Y-99100000D03*
%TD*%
D20*
%TO.C,R82*%
X138600000Y-144175000D03*
X138600000Y-145825000D03*
%TD*%
%TO.C,R99*%
X132548000Y-111325000D03*
X132548000Y-112975000D03*
%TD*%
D21*
%TO.C,RN18*%
X173350000Y-114250000D03*
D22*
X174150000Y-114250000D03*
X174950000Y-114250000D03*
D21*
X175750000Y-114250000D03*
X175750000Y-116050000D03*
D22*
X174950000Y-116050000D03*
X174150000Y-116050000D03*
D21*
X173350000Y-116050000D03*
%TD*%
%TO.C,RN31*%
X127148000Y-39050000D03*
D22*
X127948000Y-39050000D03*
X128748000Y-39050000D03*
D21*
X129548000Y-39050000D03*
X129548000Y-40850000D03*
D22*
X128748000Y-40850000D03*
X127948000Y-40850000D03*
D21*
X127148000Y-40850000D03*
%TD*%
D24*
%TO.C,TP216*%
X133100000Y-3000000D03*
%TD*%
D28*
%TO.C,C28*%
X134724866Y-145559998D03*
X133174866Y-145559998D03*
%TD*%
D20*
%TO.C,R56*%
X140100000Y-118175000D03*
X140100000Y-119825000D03*
%TD*%
D23*
%TO.C,R162*%
X123548000Y-75275000D03*
X123548000Y-73625000D03*
%TD*%
%TO.C,R19*%
X116964359Y8003359D03*
X116964359Y9653359D03*
%TD*%
D25*
%TO.C,R231*%
X173525000Y-40200000D03*
X171875000Y-40200000D03*
%TD*%
%TO.C,R280*%
X137388000Y3500000D03*
X135738000Y3500000D03*
%TD*%
D21*
%TO.C,RN20*%
X173350000Y-127250000D03*
D22*
X174150000Y-127250000D03*
X174950000Y-127250000D03*
D21*
X175750000Y-127250000D03*
X175750000Y-129050000D03*
D22*
X174950000Y-129050000D03*
X174150000Y-129050000D03*
D21*
X173350000Y-129050000D03*
%TD*%
D27*
%TO.C,C115*%
X170325000Y-105175000D03*
X171875000Y-105175000D03*
%TD*%
D23*
%TO.C,R41*%
X182150000Y-91475000D03*
X182150000Y-89825000D03*
%TD*%
D27*
%TO.C,C131*%
X139325000Y-39500000D03*
X140875000Y-39500000D03*
%TD*%
D23*
%TO.C,R80*%
X165600000Y-161025000D03*
X165600000Y-159375000D03*
%TD*%
D20*
%TO.C,R93*%
X138600000Y-54475000D03*
X138600000Y-56125000D03*
%TD*%
%TO.C,R58*%
X140100000Y-67475000D03*
X140100000Y-69125000D03*
%TD*%
D21*
%TO.C,RN7*%
X177050000Y-100050000D03*
D22*
X176250000Y-100050000D03*
X175450000Y-100050000D03*
D21*
X174650000Y-100050000D03*
X174650000Y-98250000D03*
D22*
X175450000Y-98250000D03*
X176250000Y-98250000D03*
D21*
X177050000Y-98250000D03*
%TD*%
D20*
%TO.C,R61*%
X126548000Y-150325000D03*
X126548000Y-151975000D03*
%TD*%
%TO.C,R185*%
X122048000Y-47625000D03*
X122048000Y-49275000D03*
%TD*%
D28*
%TO.C,C122*%
X164875000Y-150000000D03*
X163325000Y-150000000D03*
%TD*%
%TO.C,C40*%
X134724866Y-106559998D03*
X133174866Y-106559998D03*
%TD*%
D24*
%TO.C,TP186*%
X177500000Y1000000D03*
%TD*%
D20*
%TO.C,R31*%
X162600000Y28625000D03*
X162600000Y26975000D03*
%TD*%
D25*
%TO.C,R212*%
X134774866Y-148659998D03*
X133124866Y-148659998D03*
%TD*%
D26*
%TO.C,R205*%
X164875000Y10100000D03*
X166525000Y10100000D03*
%TD*%
D23*
%TO.C,R125*%
X182150000Y-141875000D03*
X182150000Y-140225000D03*
%TD*%
D21*
%TO.C,RN2*%
X173350000Y-50850000D03*
D22*
X174150000Y-50850000D03*
X174950000Y-50850000D03*
D21*
X175750000Y-50850000D03*
X175750000Y-52650000D03*
D22*
X174950000Y-52650000D03*
X174150000Y-52650000D03*
D21*
X173350000Y-52650000D03*
%TD*%
D20*
%TO.C,R193*%
X126548000Y-47625000D03*
X126548000Y-49275000D03*
%TD*%
D21*
%TO.C,RN28*%
X130848000Y-75250000D03*
D22*
X130048000Y-75250000D03*
X129248000Y-75250000D03*
D21*
X128448000Y-75250000D03*
X128448000Y-73450000D03*
D22*
X129248000Y-73450000D03*
X130048000Y-73450000D03*
D21*
X130848000Y-73450000D03*
%TD*%
D25*
%TO.C,R213*%
X134774866Y-109659998D03*
X133124866Y-109659998D03*
%TD*%
D30*
%TO.C,U30*%
X135913000Y550000D03*
X136563000Y550000D03*
X137213000Y550000D03*
X137213000Y-1350000D03*
X136563000Y-1350000D03*
X135913000Y-1350000D03*
%TD*%
D28*
%TO.C,C121*%
X164875000Y-137000000D03*
X163325000Y-137000000D03*
%TD*%
D27*
%TO.C,C125*%
X139325000Y-142200000D03*
X140875000Y-142200000D03*
%TD*%
D20*
%TO.C,R102*%
X180650000Y-114225000D03*
X180650000Y-115875000D03*
%TD*%
D31*
%TO.C,U28*%
X125925000Y7955000D03*
X125925000Y9225000D03*
X125925000Y10495000D03*
X125925000Y11765000D03*
X125925000Y13035000D03*
X125925000Y14305000D03*
X125925000Y15575000D03*
X125925000Y16845000D03*
X130875000Y16845000D03*
X130875000Y15575000D03*
X130875000Y14305000D03*
X130875000Y13035000D03*
X130875000Y11765000D03*
X130875000Y10495000D03*
X130875000Y9225000D03*
X130875000Y7955000D03*
%TD*%
D25*
%TO.C,R148*%
X134774866Y-121109998D03*
X133124866Y-121109998D03*
%TD*%
D23*
%TO.C,R13*%
X177650000Y-52475000D03*
X177650000Y-50825000D03*
%TD*%
%TO.C,R33*%
X164000000Y-58625000D03*
X164000000Y-56975000D03*
%TD*%
%TO.C,R86*%
X125048000Y-125975000D03*
X125048000Y-124325000D03*
%TD*%
D32*
%TO.C,C81*%
X164800000Y6975000D03*
X164800000Y5425000D03*
%TD*%
D27*
%TO.C,C14*%
X169473134Y-70240002D03*
X171023134Y-70240002D03*
%TD*%
D24*
%TO.C,TP185*%
X177500000Y4800000D03*
%TD*%
D21*
%TO.C,RN8*%
X173350000Y-89850000D03*
D22*
X174150000Y-89850000D03*
X174950000Y-89850000D03*
D21*
X175750000Y-89850000D03*
X175750000Y-91650000D03*
D22*
X174950000Y-91650000D03*
X174150000Y-91650000D03*
D21*
X173350000Y-91650000D03*
%TD*%
%TO.C,RN6*%
X173350000Y-76850000D03*
D22*
X174150000Y-76850000D03*
X174950000Y-76850000D03*
D21*
X175750000Y-76850000D03*
X175750000Y-78650000D03*
D22*
X174950000Y-78650000D03*
X174150000Y-78650000D03*
D21*
X173350000Y-78650000D03*
%TD*%
D25*
%TO.C,R172*%
X134774866Y-83409998D03*
X133124866Y-83409998D03*
%TD*%
D20*
%TO.C,R55*%
X140100000Y-105175000D03*
X140100000Y-106825000D03*
%TD*%
D23*
%TO.C,R29*%
X182150000Y-78475000D03*
X182150000Y-76825000D03*
%TD*%
D32*
%TO.C,C79*%
X161800000Y6975000D03*
X161800000Y5425000D03*
%TD*%
D23*
%TO.C,R62*%
X125048000Y-151975000D03*
X125048000Y-150325000D03*
%TD*%
D20*
%TO.C,R87*%
X132548000Y-124325000D03*
X132548000Y-125975000D03*
%TD*%
D21*
%TO.C,RN4*%
X173350000Y-63850000D03*
D22*
X174150000Y-63850000D03*
X174950000Y-63850000D03*
D21*
X175750000Y-63850000D03*
X175750000Y-65650000D03*
D22*
X174950000Y-65650000D03*
X174150000Y-65650000D03*
D21*
X173350000Y-65650000D03*
%TD*%
D20*
%TO.C,R18*%
X180650000Y-63825000D03*
X180650000Y-65475000D03*
%TD*%
D27*
%TO.C,C129*%
X139325000Y-65500000D03*
X140875000Y-65500000D03*
%TD*%
D23*
%TO.C,R145*%
X177650000Y-154875000D03*
X177650000Y-153225000D03*
%TD*%
D25*
%TO.C,R218*%
X134774866Y-122659998D03*
X133124866Y-122659998D03*
%TD*%
D20*
%TO.C,R73*%
X126548000Y-137325000D03*
X126548000Y-138975000D03*
%TD*%
D25*
%TO.C,R196*%
X134774866Y-57409998D03*
X133124866Y-57409998D03*
%TD*%
D21*
%TO.C,RN24*%
X173350000Y-153250000D03*
D22*
X174150000Y-153250000D03*
X174950000Y-153250000D03*
D21*
X175750000Y-153250000D03*
X175750000Y-155050000D03*
D22*
X174950000Y-155050000D03*
X174150000Y-155050000D03*
D21*
X173350000Y-155050000D03*
%TD*%
D26*
%TO.C,R207*%
X169423134Y-54140002D03*
X171073134Y-54140002D03*
%TD*%
D33*
%TO.C,J6*%
X139900000Y14200000D03*
%TD*%
D21*
%TO.C,RN19*%
X177050000Y-137450000D03*
D22*
X176250000Y-137450000D03*
X175450000Y-137450000D03*
D21*
X174650000Y-137450000D03*
X174650000Y-135650000D03*
D22*
X175450000Y-135650000D03*
X176250000Y-135650000D03*
D21*
X177050000Y-135650000D03*
%TD*%
D26*
%TO.C,R28*%
X169423134Y-68690002D03*
X171073134Y-68690002D03*
%TD*%
D23*
%TO.C,R8*%
X179300000Y4875000D03*
X179300000Y6525000D03*
%TD*%
D20*
%TO.C,R171*%
X132548000Y-73625000D03*
X132548000Y-75275000D03*
%TD*%
D23*
%TO.C,R51*%
X171650000Y-91475000D03*
X171650000Y-89825000D03*
%TD*%
D26*
%TO.C,R100*%
X169423134Y-132090002D03*
X171073134Y-132090002D03*
%TD*%
D23*
%TO.C,R158*%
X125048000Y-88275000D03*
X125048000Y-86625000D03*
%TD*%
D20*
%TO.C,R169*%
X126548000Y-73625000D03*
X126548000Y-75275000D03*
%TD*%
%TO.C,R60*%
X140100000Y-41475000D03*
X140100000Y-43125000D03*
%TD*%
D28*
%TO.C,C123*%
X164875000Y-163000000D03*
X163325000Y-163000000D03*
%TD*%
D27*
%TO.C,C110*%
X135788000Y2000000D03*
X137338000Y2000000D03*
%TD*%
%TO.C,C56*%
X169473134Y-159640002D03*
X171023134Y-159640002D03*
%TD*%
D23*
%TO.C,R78*%
X123548000Y-125975000D03*
X123548000Y-124325000D03*
%TD*%
D25*
%TO.C,R160*%
X134774866Y-70409998D03*
X133124866Y-70409998D03*
%TD*%
D27*
%TO.C,C111*%
X135788000Y5000000D03*
X137338000Y5000000D03*
%TD*%
D25*
%TO.C,R219*%
X134774866Y-71959998D03*
X133124866Y-71959998D03*
%TD*%
D23*
%TO.C,R5*%
X182150000Y-52475000D03*
X182150000Y-50825000D03*
%TD*%
%TO.C,R17*%
X182150000Y-65475000D03*
X182150000Y-63825000D03*
%TD*%
D25*
%TO.C,R211*%
X134774866Y-135659998D03*
X133124866Y-135659998D03*
%TD*%
D23*
%TO.C,R123*%
X171650000Y-128875000D03*
X171650000Y-127225000D03*
%TD*%
D24*
%TO.C,TP212*%
X137200000Y6800000D03*
%TD*%
D26*
%TO.C,R204*%
X164875000Y8600000D03*
X166525000Y8600000D03*
%TD*%
D28*
%TO.C,C36*%
X134724866Y-119559998D03*
X133174866Y-119559998D03*
%TD*%
D31*
%TO.C,U27*%
X125925000Y-6045000D03*
X125925000Y-4775000D03*
X125925000Y-3505000D03*
X125925000Y-2235000D03*
X125925000Y-965000D03*
X125925000Y305000D03*
X125925000Y1575000D03*
X125925000Y2845000D03*
X130875000Y2845000D03*
X130875000Y1575000D03*
X130875000Y305000D03*
X130875000Y-965000D03*
X130875000Y-2235000D03*
X130875000Y-3505000D03*
X130875000Y-4775000D03*
X130875000Y-6045000D03*
%TD*%
D23*
%TO.C,R74*%
X125048000Y-138975000D03*
X125048000Y-137325000D03*
%TD*%
D21*
%TO.C,RN12*%
X130848000Y-138950000D03*
D22*
X130048000Y-138950000D03*
X129248000Y-138950000D03*
D21*
X128448000Y-138950000D03*
X128448000Y-137150000D03*
D22*
X129248000Y-137150000D03*
X130048000Y-137150000D03*
D21*
X130848000Y-137150000D03*
%TD*%
D24*
%TO.C,TP193*%
X160900000Y8900000D03*
%TD*%
D28*
%TO.C,C117*%
X133973000Y-97600000D03*
X132423000Y-97600000D03*
%TD*%
D20*
%TO.C,R181*%
X126548000Y-60625000D03*
X126548000Y-62275000D03*
%TD*%
D34*
%TO.C,C112*%
X136400000Y13525000D03*
X136400000Y15075000D03*
%TD*%
D23*
%TO.C,R111*%
X171650000Y-115875000D03*
X171650000Y-114225000D03*
%TD*%
D20*
%TO.C,R42*%
X180650000Y-89825000D03*
X180650000Y-91475000D03*
%TD*%
%TO.C,R75*%
X132548000Y-137325000D03*
X132548000Y-138975000D03*
%TD*%
D23*
%TO.C,R150*%
X123548000Y-88275000D03*
X123548000Y-86625000D03*
%TD*%
%TO.C,R37*%
X177650000Y-78475000D03*
X177650000Y-76825000D03*
%TD*%
D26*
%TO.C,R217*%
X169423134Y-143540002D03*
X171073134Y-143540002D03*
%TD*%
D23*
%TO.C,R101*%
X182150000Y-115875000D03*
X182150000Y-114225000D03*
%TD*%
D26*
%TO.C,R52*%
X169423134Y-94690002D03*
X171073134Y-94690002D03*
%TD*%
D23*
%TO.C,R24*%
X120862500Y33475000D03*
X120862500Y35125000D03*
%TD*%
%TO.C,R186*%
X123548000Y-49275000D03*
X123548000Y-47625000D03*
%TD*%
D26*
%TO.C,R214*%
X169423134Y-130540002D03*
X171073134Y-130540002D03*
%TD*%
D32*
%TO.C,C75*%
X145100000Y6975000D03*
X145100000Y5425000D03*
%TD*%
D25*
%TO.C,R22*%
X146862500Y-26400000D03*
X145212500Y-26400000D03*
%TD*%
D28*
%TO.C,C61*%
X134724866Y-81859998D03*
X133174866Y-81859998D03*
%TD*%
D23*
%TO.C,R34*%
X164000000Y-71625000D03*
X164000000Y-69975000D03*
%TD*%
D25*
%TO.C,R220*%
X134774866Y-84959998D03*
X133124866Y-84959998D03*
%TD*%
D28*
%TO.C,C116*%
X133873000Y-161100000D03*
X132323000Y-161100000D03*
%TD*%
D25*
%TO.C,R206*%
X166525000Y11600000D03*
X164875000Y11600000D03*
%TD*%
D28*
%TO.C,C119*%
X164875000Y-99600000D03*
X163325000Y-99600000D03*
%TD*%
D23*
%TO.C,R133*%
X177650000Y-141875000D03*
X177650000Y-140225000D03*
%TD*%
D28*
%TO.C,C69*%
X134724866Y-55859998D03*
X133174866Y-55859998D03*
%TD*%
D26*
%TO.C,R210*%
X169423134Y-93140002D03*
X171073134Y-93140002D03*
%TD*%
D21*
%TO.C,RN11*%
X127148000Y-128750000D03*
D22*
X127948000Y-128750000D03*
X128748000Y-128750000D03*
D21*
X129548000Y-128750000D03*
X129548000Y-130550000D03*
D22*
X128748000Y-130550000D03*
X127948000Y-130550000D03*
D21*
X127148000Y-130550000D03*
%TD*%
D28*
%TO.C,C107*%
X164875000Y-73600000D03*
X163325000Y-73600000D03*
%TD*%
D26*
%TO.C,R124*%
X169423134Y-158090002D03*
X171073134Y-158090002D03*
%TD*%
D23*
%TO.C,R239*%
X179300000Y12675000D03*
X179300000Y14325000D03*
%TD*%
D28*
%TO.C,C106*%
X164875000Y-60600000D03*
X163325000Y-60600000D03*
%TD*%
D20*
%TO.C,R30*%
X180650000Y-76825000D03*
X180650000Y-78475000D03*
%TD*%
D35*
%TO.C,U22*%
X143245000Y3150000D03*
X144515000Y3150000D03*
X145785000Y3150000D03*
X147055000Y3150000D03*
X148325000Y3150000D03*
X149595000Y3150000D03*
X150865000Y3150000D03*
X152135000Y3150000D03*
X153405000Y3150000D03*
X154675000Y3150000D03*
X155945000Y3150000D03*
X157215000Y3150000D03*
X158485000Y3150000D03*
X159755000Y3150000D03*
X159755000Y-6150000D03*
X158485000Y-6150000D03*
X157215000Y-6150000D03*
X155945000Y-6150000D03*
X154675000Y-6150000D03*
X153405000Y-6150000D03*
X152135000Y-6150000D03*
X150865000Y-6150000D03*
X149595000Y-6150000D03*
X148325000Y-6150000D03*
X147055000Y-6150000D03*
X145785000Y-6150000D03*
X144515000Y-6150000D03*
X143245000Y-6150000D03*
%TD*%
D20*
%TO.C,R65*%
X122048000Y-137325000D03*
X122048000Y-138975000D03*
%TD*%
%TO.C,R48*%
X140100000Y-144175000D03*
X140100000Y-145825000D03*
%TD*%
D27*
%TO.C,C48*%
X169473134Y-133640002D03*
X171023134Y-133640002D03*
%TD*%
D23*
%TO.C,R174*%
X123548000Y-62275000D03*
X123548000Y-60625000D03*
%TD*%
%TO.C,R21*%
X113964359Y8028359D03*
X113964359Y9678359D03*
%TD*%
%TO.C,R67*%
X165500000Y-58625000D03*
X165500000Y-56975000D03*
%TD*%
D20*
%TO.C,R77*%
X122048000Y-124325000D03*
X122048000Y-125975000D03*
%TD*%
D24*
%TO.C,TP187*%
X177500000Y8700000D03*
%TD*%
D23*
%TO.C,R12*%
X179300000Y8775000D03*
X179300000Y10425000D03*
%TD*%
D20*
%TO.C,R235*%
X180800000Y14325000D03*
X180800000Y12675000D03*
%TD*%
D27*
%TO.C,C44*%
X169473134Y-120640002D03*
X171023134Y-120640002D03*
%TD*%
D34*
%TO.C,C114*%
X161100000Y27025000D03*
X161100000Y28575000D03*
%TD*%
D28*
%TO.C,C101*%
X145650000Y-20300000D03*
X144100000Y-20300000D03*
%TD*%
D26*
%TO.C,R112*%
X169423134Y-119090002D03*
X171073134Y-119090002D03*
%TD*%
D20*
%TO.C,R6*%
X180650000Y-50825000D03*
X180650000Y-52475000D03*
%TD*%
D24*
%TO.C,TP181*%
X182700000Y-4500000D03*
%TD*%
D20*
%TO.C,R59*%
X140100000Y-54475000D03*
X140100000Y-56125000D03*
%TD*%
D28*
%TO.C,C1*%
X145650000Y-21800000D03*
X144100000Y-21800000D03*
%TD*%
D23*
%TO.C,R20*%
X115464359Y8028359D03*
X115464359Y9678359D03*
%TD*%
%TO.C,R113*%
X182150000Y-128875000D03*
X182150000Y-127225000D03*
%TD*%
D20*
%TO.C,R97*%
X126548000Y-111325000D03*
X126548000Y-112975000D03*
%TD*%
D26*
%TO.C,R281*%
X117100000Y24623250D03*
X118750000Y24623250D03*
%TD*%
D27*
%TO.C,C128*%
X139225000Y-78500000D03*
X140775000Y-78500000D03*
%TD*%
D26*
%TO.C,R136*%
X169423134Y-145090002D03*
X171073134Y-145090002D03*
%TD*%
D23*
%TO.C,R70*%
X165600000Y-97625000D03*
X165600000Y-95975000D03*
%TD*%
D27*
%TO.C,C18*%
X169473134Y-83240002D03*
X171023134Y-83240002D03*
%TD*%
D23*
%TO.C,R182*%
X125048000Y-62275000D03*
X125048000Y-60625000D03*
%TD*%
D24*
%TO.C,TP184*%
X177500000Y12600000D03*
%TD*%
D23*
%TO.C,R23*%
X167600000Y-18425000D03*
X167600000Y-16775000D03*
%TD*%
D20*
%TO.C,R138*%
X180650000Y-153225000D03*
X180650000Y-154875000D03*
%TD*%
D23*
%TO.C,R121*%
X177650000Y-128875000D03*
X177650000Y-127225000D03*
%TD*%
D20*
%TO.C,R9*%
X180800000Y2625000D03*
X180800000Y975000D03*
%TD*%
D28*
%TO.C,C118*%
X164875000Y-86600000D03*
X163325000Y-86600000D03*
%TD*%
D20*
%TO.C,R114*%
X180650000Y-127225000D03*
X180650000Y-128875000D03*
%TD*%
D27*
%TO.C,C25*%
X170325000Y-41700000D03*
X171875000Y-41700000D03*
%TD*%
D20*
%TO.C,R195*%
X132548000Y-47625000D03*
X132548000Y-49275000D03*
%TD*%
D32*
%TO.C,C76*%
X142100000Y6975000D03*
X142100000Y5425000D03*
%TD*%
D23*
%TO.C,R170*%
X125048000Y-75275000D03*
X125048000Y-73625000D03*
%TD*%
%TO.C,R15*%
X171650000Y-52475000D03*
X171650000Y-50825000D03*
%TD*%
D20*
%TO.C,R126*%
X180650000Y-140225000D03*
X180650000Y-141875000D03*
%TD*%
%TO.C,R159*%
X132548000Y-86625000D03*
X132548000Y-88275000D03*
%TD*%
D26*
%TO.C,R215*%
X169423134Y-117540002D03*
X171073134Y-117540002D03*
%TD*%
D20*
%TO.C,R50*%
X179150000Y-89825000D03*
X179150000Y-91475000D03*
%TD*%
%TO.C,R57*%
X140100000Y-80475000D03*
X140100000Y-82125000D03*
%TD*%
D23*
%TO.C,R10*%
X179300000Y975000D03*
X179300000Y2625000D03*
%TD*%
D21*
%TO.C,RN30*%
X130848000Y-62250000D03*
D22*
X130048000Y-62250000D03*
X129248000Y-62250000D03*
D21*
X128448000Y-62250000D03*
X128448000Y-60450000D03*
D22*
X129248000Y-60450000D03*
X130048000Y-60450000D03*
D21*
X130848000Y-60450000D03*
%TD*%
D25*
%TO.C,R64*%
X134774866Y-134109998D03*
X133124866Y-134109998D03*
%TD*%
D23*
%TO.C,R135*%
X171650000Y-141875000D03*
X171650000Y-140225000D03*
%TD*%
D20*
%TO.C,R149*%
X122048000Y-86625000D03*
X122048000Y-88275000D03*
%TD*%
%TO.C,R183*%
X132548000Y-60625000D03*
X132548000Y-62275000D03*
%TD*%
D23*
%TO.C,R79*%
X165600000Y-148025000D03*
X165600000Y-146375000D03*
%TD*%
D26*
%TO.C,R216*%
X169423134Y-156540002D03*
X171073134Y-156540002D03*
%TD*%
D28*
%TO.C,C100*%
X145650000Y-18800000D03*
X144100000Y-18800000D03*
%TD*%
D20*
%TO.C,R85*%
X126548000Y-124325000D03*
X126548000Y-125975000D03*
%TD*%
D23*
%TO.C,R137*%
X182150000Y-154875000D03*
X182150000Y-153225000D03*
%TD*%
D26*
%TO.C,R201*%
X145175000Y10100000D03*
X146825000Y10100000D03*
%TD*%
D23*
%TO.C,R194*%
X125048000Y-49275000D03*
X125048000Y-47625000D03*
%TD*%
D20*
%TO.C,R83*%
X138600000Y-105175000D03*
X138600000Y-106825000D03*
%TD*%
%TO.C,R173*%
X122048000Y-60625000D03*
X122048000Y-62275000D03*
%TD*%
D21*
%TO.C,RN17*%
X177050000Y-124450000D03*
D22*
X176250000Y-124450000D03*
X175450000Y-124450000D03*
D21*
X174650000Y-124450000D03*
X174650000Y-122650000D03*
D22*
X175450000Y-122650000D03*
X176250000Y-122650000D03*
D21*
X177050000Y-122650000D03*
%TD*%
D23*
%TO.C,R90*%
X123548000Y-112975000D03*
X123548000Y-111325000D03*
%TD*%
D25*
%TO.C,R76*%
X134774866Y-147109998D03*
X133124866Y-147109998D03*
%TD*%
D26*
%TO.C,R209*%
X169423134Y-80140002D03*
X171073134Y-80140002D03*
%TD*%
D21*
%TO.C,RN14*%
X130848000Y-125950000D03*
D22*
X130048000Y-125950000D03*
X129248000Y-125950000D03*
D21*
X128448000Y-125950000D03*
X128448000Y-124150000D03*
D22*
X129248000Y-124150000D03*
X130048000Y-124150000D03*
D21*
X130848000Y-124150000D03*
%TD*%
D28*
%TO.C,C73*%
X134724866Y-42859998D03*
X133174866Y-42859998D03*
%TD*%
D23*
%TO.C,R44*%
X164100000Y-135025000D03*
X164100000Y-133375000D03*
%TD*%
D20*
%TO.C,R7*%
X180800000Y6525000D03*
X180800000Y4875000D03*
%TD*%
%TO.C,R110*%
X179150000Y-114225000D03*
X179150000Y-115875000D03*
%TD*%
D24*
%TO.C,TP199*%
X153900000Y-8465000D03*
%TD*%
D23*
%TO.C,R39*%
X171650000Y-78475000D03*
X171650000Y-76825000D03*
%TD*%
%TO.C,R49*%
X177650000Y-91475000D03*
X177650000Y-89825000D03*
%TD*%
D21*
%TO.C,RN10*%
X130848000Y-151950000D03*
D22*
X130048000Y-151950000D03*
X129248000Y-151950000D03*
D21*
X128448000Y-151950000D03*
X128448000Y-150150000D03*
D22*
X129248000Y-150150000D03*
X130048000Y-150150000D03*
D21*
X130848000Y-150150000D03*
%TD*%
D20*
%TO.C,R134*%
X179150000Y-140225000D03*
X179150000Y-141875000D03*
%TD*%
D26*
%TO.C,R200*%
X145175000Y8600000D03*
X146825000Y8600000D03*
%TD*%
D20*
%TO.C,R92*%
X138600000Y-67475000D03*
X138600000Y-69125000D03*
%TD*%
D25*
%TO.C,R32*%
X118025000Y20900000D03*
X116375000Y20900000D03*
%TD*%
D23*
%TO.C,R46*%
X164100000Y-161025000D03*
X164100000Y-159375000D03*
%TD*%
%TO.C,R109*%
X177650000Y-115875000D03*
X177650000Y-114225000D03*
%TD*%
%TO.C,R98*%
X125048000Y-112975000D03*
X125048000Y-111325000D03*
%TD*%
D27*
%TO.C,C126*%
X139425000Y-103200000D03*
X140975000Y-103200000D03*
%TD*%
D20*
%TO.C,R157*%
X126548000Y-86625000D03*
X126548000Y-88275000D03*
%TD*%
D28*
%TO.C,C65*%
X134724866Y-68859998D03*
X133174866Y-68859998D03*
%TD*%
D21*
%TO.C,RN25*%
X127148000Y-78050000D03*
D22*
X127948000Y-78050000D03*
X128748000Y-78050000D03*
D21*
X129548000Y-78050000D03*
X129548000Y-79850000D03*
D22*
X128748000Y-79850000D03*
X127948000Y-79850000D03*
D21*
X127148000Y-79850000D03*
%TD*%
D23*
%TO.C,R69*%
X165600000Y-84625000D03*
X165600000Y-82975000D03*
%TD*%
D26*
%TO.C,R95*%
X167275000Y-6800000D03*
X168925000Y-6800000D03*
%TD*%
D23*
%TO.C,R27*%
X171650000Y-65475000D03*
X171650000Y-63825000D03*
%TD*%
D28*
%TO.C,C32*%
X134724866Y-132559998D03*
X133174866Y-132559998D03*
%TD*%
D21*
%TO.C,RN3*%
X177050000Y-74050000D03*
D22*
X176250000Y-74050000D03*
X175450000Y-74050000D03*
D21*
X174650000Y-74050000D03*
X174650000Y-72250000D03*
D22*
X175450000Y-72250000D03*
X176250000Y-72250000D03*
D21*
X177050000Y-72250000D03*
%TD*%
D25*
%TO.C,R222*%
X134774866Y-58959998D03*
X133124866Y-58959998D03*
%TD*%
D32*
%TO.C,C41*%
X143600000Y6975000D03*
X143600000Y5425000D03*
%TD*%
D24*
%TO.C,TP200*%
X156800000Y5435000D03*
%TD*%
D27*
%TO.C,C10*%
X169473134Y-57240002D03*
X171023134Y-57240002D03*
%TD*%
%TO.C,C113*%
X117150000Y23123250D03*
X118700000Y23123250D03*
%TD*%
D20*
%TO.C,R26*%
X179150000Y-63825000D03*
X179150000Y-65475000D03*
%TD*%
%TO.C,R84*%
X138600000Y-118175000D03*
X138600000Y-119825000D03*
%TD*%
D23*
%TO.C,R72*%
X165600000Y-135025000D03*
X165600000Y-133375000D03*
%TD*%
D21*
%TO.C,RN16*%
X130848000Y-112950000D03*
D22*
X130048000Y-112950000D03*
X129248000Y-112950000D03*
D21*
X128448000Y-112950000D03*
X128448000Y-111150000D03*
D22*
X129248000Y-111150000D03*
X130048000Y-111150000D03*
D21*
X130848000Y-111150000D03*
%TD*%
D28*
%TO.C,C120*%
X164875000Y-124000000D03*
X163325000Y-124000000D03*
%TD*%
D20*
%TO.C,R11*%
X180800000Y10425000D03*
X180800000Y8775000D03*
%TD*%
D23*
%TO.C,R35*%
X164100000Y-84625000D03*
X164100000Y-82975000D03*
%TD*%
D21*
%TO.C,RN23*%
X177050000Y-163450000D03*
D22*
X176250000Y-163450000D03*
X175450000Y-163450000D03*
D21*
X174650000Y-163450000D03*
X174650000Y-161650000D03*
D22*
X175450000Y-161650000D03*
X176250000Y-161650000D03*
D21*
X177050000Y-161650000D03*
%TD*%
D25*
%TO.C,R184*%
X134774866Y-44409998D03*
X133124866Y-44409998D03*
%TD*%
D26*
%TO.C,R16*%
X169423134Y-55690002D03*
X171073134Y-55690002D03*
%TD*%
D24*
%TO.C,TP211*%
X133100000Y-5900000D03*
%TD*%
D21*
%TO.C,RN29*%
X127148000Y-52050000D03*
D22*
X127948000Y-52050000D03*
X128748000Y-52050000D03*
D21*
X129548000Y-52050000D03*
X129548000Y-53850000D03*
D22*
X128748000Y-53850000D03*
X127948000Y-53850000D03*
D21*
X127148000Y-53850000D03*
%TD*%
D20*
%TO.C,R89*%
X122048000Y-111325000D03*
X122048000Y-112975000D03*
%TD*%
D23*
%TO.C,R45*%
X164100000Y-148025000D03*
X164100000Y-146375000D03*
%TD*%
D32*
%TO.C,C80*%
X163300000Y6975000D03*
X163300000Y5425000D03*
%TD*%
D24*
%TO.C,TP225*%
X131800000Y4600000D03*
%TD*%
D20*
%TO.C,R161*%
X122048000Y-73625000D03*
X122048000Y-75275000D03*
%TD*%
%TO.C,R146*%
X179150000Y-153225000D03*
X179150000Y-154875000D03*
%TD*%
D24*
%TO.C,TP201*%
X155900000Y-8465000D03*
%TD*%
D26*
%TO.C,R40*%
X169423134Y-81690002D03*
X171073134Y-81690002D03*
%TD*%
D25*
%TO.C,R233*%
X173525000Y-103675000D03*
X171875000Y-103675000D03*
%TD*%
D23*
%TO.C,R147*%
X171650000Y-154875000D03*
X171650000Y-153225000D03*
%TD*%
D21*
%TO.C,RN27*%
X127148000Y-65050000D03*
D22*
X127948000Y-65050000D03*
X128748000Y-65050000D03*
D21*
X129548000Y-65050000D03*
X129548000Y-66850000D03*
D22*
X128748000Y-66850000D03*
X127948000Y-66850000D03*
D21*
X127148000Y-66850000D03*
%TD*%
%TO.C,RN15*%
X127148000Y-102750000D03*
D22*
X127948000Y-102750000D03*
X128748000Y-102750000D03*
D21*
X129548000Y-102750000D03*
X129548000Y-104550000D03*
D22*
X128748000Y-104550000D03*
X127948000Y-104550000D03*
D21*
X127148000Y-104550000D03*
%TD*%
D24*
%TO.C,TP213*%
X133200000Y3000000D03*
%TD*%
D25*
%TO.C,R227*%
X180825000Y17500000D03*
X179175000Y17500000D03*
%TD*%
D27*
%TO.C,C52*%
X169473134Y-146640002D03*
X171023134Y-146640002D03*
%TD*%
M02*
