M48
; DRILL file {KiCad 9.0.5} date 2026-03-01T21:12:29-0600
; FORMAT={-:-/ absolute / inch / decimal}
; #@! TF.CreationDate,2026-03-01T21:12:29-06:00
; #@! TF.GenerationSoftware,Kicad,Pcbnew,9.0.5
; #@! TF.FileFunction,Plated,1,4,PTH
FMAT,2
INCH
; #@! TA.AperFunction,Plated,PTH,ComponentDrill
T1C0.0079
; #@! TA.AperFunction,Plated,PTH,ViaDrill
T2C0.0118
; #@! TA.AperFunction,Plated,PTH,ComponentDrill
T3C0.0394
; #@! TA.AperFunction,Plated,PTH,ComponentDrill
T4C0.0400
; #@! TA.AperFunction,Plated,PTH,ComponentDrill
T5C0.0490
; #@! TA.AperFunction,Plated,PTH,ComponentDrill
T6C0.0701
; #@! TA.AperFunction,Plated,PTH,ComponentDrill
T7C0.0709
; #@! TA.AperFunction,Plated,PTH,ComponentDrill
T8C0.1260
; #@! TA.AperFunction,Plated,PTH,ComponentDrill
T9C0.1732
%
G90
G05
T1
X5.0255Y-1.6909
X5.0255Y-1.7382
X5.0255Y-1.7854
X5.0255Y-2.2028
X5.0255Y-2.25
X5.0255Y-2.2972
X5.0255Y-2.7146
X5.0255Y-2.7618
X5.0255Y-2.8091
X5.0255Y-3.2264
X5.0255Y-3.2736
X5.0255Y-3.3209
X5.0255Y-4.1988
X5.0255Y-4.2461
X5.0255Y-4.2933
X5.0255Y-4.7106
X5.0255Y-4.7579
X5.0255Y-4.8051
X5.0255Y-5.2224
X5.0255Y-5.2697
X5.0255Y-5.3169
X5.0255Y-5.7343
X5.0255Y-5.7815
X5.0255Y-5.8287
X5.0728Y-1.6909
X5.0728Y-1.7382
X5.0728Y-1.7854
X5.0728Y-2.2028
X5.0728Y-2.25
X5.0728Y-2.2972
X5.0728Y-2.7146
X5.0728Y-2.7618
X5.0728Y-2.8091
X5.0728Y-3.2264
X5.0728Y-3.2736
X5.0728Y-3.3209
X5.0728Y-4.1988
X5.0728Y-4.2461
X5.0728Y-4.2933
X5.0728Y-4.7106
X5.0728Y-4.7579
X5.0728Y-4.8051
X5.0728Y-5.2224
X5.0728Y-5.2697
X5.0728Y-5.3169
X5.0728Y-5.7343
X5.0728Y-5.7815
X5.0728Y-5.8287
X5.12Y-1.6909
X5.12Y-1.7382
X5.12Y-1.7854
X5.12Y-2.2028
X5.12Y-2.25
X5.12Y-2.2972
X5.12Y-2.7146
X5.12Y-2.7618
X5.12Y-2.8091
X5.12Y-3.2264
X5.12Y-3.2736
X5.12Y-3.3209
X5.12Y-4.1988
X5.12Y-4.2461
X5.12Y-4.2933
X5.12Y-4.7106
X5.12Y-4.7579
X5.12Y-4.8051
X5.12Y-5.2224
X5.12Y-5.2697
X5.12Y-5.3169
X5.12Y-5.7343
X5.12Y-5.7815
X5.12Y-5.8287
X5.1672Y-1.6909
X5.1672Y-1.7382
X5.1672Y-1.7854
X5.1672Y-2.2028
X5.1672Y-2.25
X5.1672Y-2.2972
X5.1672Y-2.7146
X5.1672Y-2.7618
X5.1672Y-2.8091
X5.1672Y-3.2264
X5.1672Y-3.2736
X5.1672Y-3.3209
X5.1672Y-4.1988
X5.1672Y-4.2461
X5.1672Y-4.2933
X5.1672Y-4.7106
X5.1672Y-4.7579
X5.1672Y-4.8051
X5.1672Y-5.2224
X5.1672Y-5.2697
X5.1672Y-5.3169
X5.1672Y-5.7343
X5.1672Y-5.7815
X5.1672Y-5.8287
X6.8091Y-2.1555
X6.8091Y-2.2028
X6.8091Y-2.25
X6.8091Y-2.6673
X6.8091Y-2.7146
X6.8091Y-2.7618
X6.8091Y-3.1791
X6.8091Y-3.2264
X6.8091Y-3.2736
X6.8091Y-3.6909
X6.8091Y-3.7382
X6.8091Y-3.7854
X6.8091Y-4.6516
X6.8091Y-4.6988
X6.8091Y-4.7461
X6.8091Y-5.1634
X6.8091Y-5.2106
X6.8091Y-5.2579
X6.8091Y-5.6752
X6.8091Y-5.7224
X6.8091Y-5.7697
X6.8091Y-6.187
X6.8091Y-6.2343
X6.8091Y-6.2815
X6.8563Y-2.1555
X6.8563Y-2.2028
X6.8563Y-2.25
X6.8563Y-2.6673
X6.8563Y-2.7146
X6.8563Y-2.7618
X6.8563Y-3.1791
X6.8563Y-3.2264
X6.8563Y-3.2736
X6.8563Y-3.6909
X6.8563Y-3.7382
X6.8563Y-3.7854
X6.8563Y-4.6516
X6.8563Y-4.6988
X6.8563Y-4.7461
X6.8563Y-5.1634
X6.8563Y-5.2106
X6.8563Y-5.2579
X6.8563Y-5.6752
X6.8563Y-5.7224
X6.8563Y-5.7697
X6.8563Y-6.187
X6.8563Y-6.2343
X6.8563Y-6.2815
X6.9035Y-2.1555
X6.9035Y-2.2028
X6.9035Y-2.25
X6.9035Y-2.6673
X6.9035Y-2.7146
X6.9035Y-2.7618
X6.9035Y-3.1791
X6.9035Y-3.2264
X6.9035Y-3.2736
X6.9035Y-3.6909
X6.9035Y-3.7382
X6.9035Y-3.7854
X6.9035Y-4.6516
X6.9035Y-4.6988
X6.9035Y-4.7461
X6.9035Y-5.1634
X6.9035Y-5.2106
X6.9035Y-5.2579
X6.9035Y-5.6752
X6.9035Y-5.7224
X6.9035Y-5.7697
X6.9035Y-6.187
X6.9035Y-6.2343
X6.9035Y-6.2815
X6.9508Y-2.1555
X6.9508Y-2.2028
X6.9508Y-2.25
X6.9508Y-2.6673
X6.9508Y-2.7146
X6.9508Y-2.7618
X6.9508Y-3.1791
X6.9508Y-3.2264
X6.9508Y-3.2736
X6.9508Y-3.6909
X6.9508Y-3.7382
X6.9508Y-3.7854
X6.9508Y-4.6516
X6.9508Y-4.6988
X6.9508Y-4.7461
X6.9508Y-5.1634
X6.9508Y-5.2106
X6.9508Y-5.2579
X6.9508Y-5.6752
X6.9508Y-5.7224
X6.9508Y-5.7697
X6.9508Y-6.187
X6.9508Y-6.2343
X6.9508Y-6.2815
T2
X4.4587Y0.6043
X4.4853Y0.2806
X4.4907Y0.447
X4.5039Y1.1378
X4.505Y-0.366
X4.5118Y1.0394
X4.5118Y0.8228
X4.5277Y-0.4134
X4.5415Y0.1241
X4.5415Y0.0455
X4.5415Y-0.0334
X4.5415Y-0.1121
X4.5415Y-0.1908
X4.5415Y-0.3483
X4.5418Y-0.2696
X4.5443Y0.2806
X4.5689Y0.6201
X4.5695Y0.446
X4.6033Y0.6526
X4.6073Y0.2806
X4.6102Y1.0394
X4.6319Y0.7264
X4.6521Y0.447
X4.6552Y-0.3831
X4.6832Y-0.0334
X4.6832Y-0.112
X4.6832Y-0.1908
X4.6832Y-0.428
X4.6833Y0.1241
X4.6834Y0.0454
X4.6835Y-0.2696
X4.6835Y-0.3483
X4.7087Y1.0394
X4.7087Y0.8228
X4.7382Y0.626
X4.7382Y0.4508
X4.7638Y-0.4547
X4.7835Y-0.1004
X4.7913Y0.2106
X4.8017Y1.3189
X4.8307Y1.0551
X4.8543Y-3.7638
X4.8543Y-6.2638
X4.8582Y-3.9409
X4.8582Y-6.4409
X4.8602Y-1.5437
X4.8602Y-2.0555
X4.8602Y-2.5673
X4.8602Y-3.0791
X4.8602Y-4.0516
X4.8602Y-4.5634
X4.8602Y-5.0752
X4.8602Y-5.587
X4.8621Y-3.6496
X4.8621Y-6.1496
X4.8701Y0.8031
X4.8701Y0.7244
X4.8701Y0.6457
X4.8701Y0.5669
X4.8701Y0.4882
X4.8701Y0.4094
X4.8701Y0.3307
X4.8701Y0.252
X4.8701Y0.1732
X4.8701Y0.0945
X4.8701Y0.0157
X4.8701Y-0.063
X4.8701Y-0.1417
X4.8701Y-0.2205
X4.8701Y-0.2992
X4.8701Y-0.378
X4.8917Y-1.9676
X4.8917Y-2.4794
X4.8917Y-2.9912
X4.8917Y-3.503
X4.8917Y-4.4754
X4.8917Y-4.9872
X4.8917Y-5.4991
X4.8917Y-6.0109
X4.8917Y0.9449
X4.8917Y-0.4547
X4.8978Y-1.9168
X4.8978Y-2.4286
X4.8978Y-2.9404
X4.8978Y-3.4522
X4.8978Y-4.4246
X4.8978Y-4.9365
X4.8978Y-5.4483
X4.8978Y-5.9601
X4.9016Y-1.5437
X4.9016Y-2.0555
X4.9016Y-2.5673
X4.9016Y-3.0791
X4.9016Y-4.0516
X4.9016Y-4.5634
X4.9016Y-5.0752
X4.9016Y-5.587
X4.9251Y-3.7953
X4.9251Y-6.2953
X4.9409Y-3.6496
X4.9409Y-6.1496
X4.9535Y-1.8465
X4.9535Y-2.3583
X4.9535Y-2.8701
X4.9535Y-3.3819
X4.9535Y-4.3543
X4.9535Y-4.8661
X4.9535Y-5.378
X4.9535Y-5.8898
X4.9724Y-3.878
X4.9724Y0.1929
X4.9836Y-1.8374
X4.9836Y-2.3492
X4.9836Y-2.861
X4.9836Y-3.3728
X4.9836Y-4.3453
X4.9836Y-4.8571
X4.9836Y-5.3689
X4.9836Y-5.8807
X5.0058Y-1.5728
X5.0058Y-2.0846
X5.0058Y-2.5965
X5.0058Y-3.1083
X5.0058Y-4.0807
X5.0058Y-4.5925
X5.0058Y-5.1043
X5.0058Y-5.6161
X5.0059Y-1.4961
X5.0059Y-2.0079
X5.0059Y-2.5197
X5.0059Y-3.0315
X5.0059Y-4.0039
X5.0059Y-4.5157
X5.0059Y-5.0276
X5.0059Y-5.5394
X5.0118Y0.1102
X5.0129Y0.6142
X5.013Y0.6626
X5.0196Y-3.6496
X5.0196Y-6.1496
X5.0234Y-1.8979
X5.0234Y-2.4097
X5.0234Y-2.9215
X5.0234Y-3.4334
X5.0234Y-4.4058
X5.0234Y-4.9176
X5.0234Y-5.4294
X5.0234Y-5.9412
X5.0235Y-3.878
X5.0235Y-6.378
X5.0373Y-1.5728
X5.0373Y-2.0846
X5.0373Y-2.5965
X5.0373Y-3.1083
X5.0373Y-4.0807
X5.0373Y-4.5925
X5.0373Y-5.1043
X5.0373Y-5.6161
X5.0374Y-1.5004
X5.0374Y-2.0122
X5.0374Y-2.524
X5.0374Y-3.0358
X5.0374Y-4.0083
X5.0374Y-4.5201
X5.0374Y-5.0319
X5.0374Y-5.5437
X5.0472Y-6.3543
X5.0568Y-1.9035
X5.0568Y-2.4154
X5.0568Y-2.9272
X5.0568Y-3.439
X5.0568Y-4.4114
X5.0568Y-4.9232
X5.0568Y-5.435
X5.0568Y-5.9469
X5.0591Y0.4173
X5.0591Y-0.1378
X5.0688Y-1.5728
X5.0688Y-2.0846
X5.0688Y-2.5965
X5.0688Y-3.1083
X5.0688Y-4.0807
X5.0688Y-4.5925
X5.0688Y-5.1043
X5.0688Y-5.6161
X5.0707Y-1.4986
X5.0707Y-2.0104
X5.0707Y-2.5222
X5.0707Y-3.034
X5.0707Y-4.0065
X5.0707Y-4.5183
X5.0707Y-5.0301
X5.0707Y-5.5419
X5.0708Y-3.878
X5.0708Y-6.378
X5.0883Y-1.9035
X5.0883Y-2.4154
X5.0883Y-2.9272
X5.0883Y-3.439
X5.0883Y-4.4114
X5.0883Y-4.9232
X5.0883Y-5.435
X5.0883Y-5.9469
X5.0945Y0.315
X5.0945Y-0.2362
X5.0983Y-3.6496
X5.0983Y-6.1496
X5.1198Y-1.9035
X5.1198Y-2.4154
X5.1198Y-2.9272
X5.1198Y-3.439
X5.1198Y-4.4114
X5.1198Y-4.9232
X5.1198Y-5.435
X5.1198Y-5.9469
X5.1731Y-3.878
X5.1731Y-6.3425
X5.1731Y-6.378
X5.1771Y-3.6496
X5.1771Y-6.1496
X5.1772Y0.2362
X5.181Y-3.8425
X5.2087Y0.6142
X5.2264Y-0.3228
X5.2303Y-1.9866
X5.2402Y-0.1181
X5.2402Y-0.2323
X5.248Y0.815
X5.2558Y-3.6496
X5.2558Y-6.1496
X5.2579Y-1.9591
X5.2579Y-2.4709
X5.2579Y-2.9827
X5.2579Y-3.4945
X5.2579Y-4.4669
X5.2579Y-4.9787
X5.2579Y-5.4906
X5.2579Y-6.0024
X5.2602Y-1.4937
X5.2667Y0.564
X5.2697Y-0.1693
X5.2716Y-6.378
X5.2717Y1.122
X5.2755Y-3.878
X5.2854Y-1.9873
X5.2854Y-2.5
X5.2854Y-3.0118
X5.2854Y-4.4965
X5.2854Y-5.0083
X5.2854Y-5.5201
X5.2854Y-6.0319
X5.2913Y-1.5335
X5.2913Y-2.0472
X5.2913Y-2.5571
X5.2913Y-3.0689
X5.2913Y-3.5276
X5.2913Y-4.0413
X5.2913Y-4.5531
X5.2913Y-5.065
X5.2913Y-5.5768
X5.314Y0.5118
X5.3152Y0.6139
X5.3209Y1.0059
X5.3258Y-0.1132
X5.3346Y-3.6496
X5.3346Y-6.1496
X5.3406Y0.4232
X5.374Y-1.9567
X5.374Y-2.4646
X5.3746Y0.311
X5.378Y0.8189
X5.4192Y-1.5256
X5.4192Y-1.5591
X5.4192Y-1.5925
X5.4192Y-2.0374
X5.4192Y-2.0709
X5.4192Y-2.1043
X5.4192Y-2.5492
X5.4192Y-2.5827
X5.4192Y-2.6161
X5.4192Y-3.061
X5.4192Y-3.0945
X5.4192Y-3.128
X5.4192Y-4.0335
X5.4192Y-4.0669
X5.4192Y-4.1004
X5.4192Y-4.5453
X5.4192Y-4.5787
X5.4192Y-4.6122
X5.4192Y-5.0571
X5.4192Y-5.0906
X5.4192Y-5.124
X5.4192Y-5.5689
X5.4192Y-5.6024
X5.4192Y-5.6358
X5.4291Y1.122
X5.4291Y1.0512
X5.4311Y-0.4547
X5.4331Y-0.3248
X5.45Y-4.6055
X5.4501Y-1.5864
X5.4501Y-2.0982
X5.4501Y-2.61
X5.4501Y-3.1218
X5.4501Y-5.1179
X5.4501Y-5.6297
X5.4503Y-4.0622
X5.4503Y-4.574
X5.4504Y-1.5549
X5.4504Y-2.0667
X5.4504Y-2.5785
X5.4504Y-3.0903
X5.4504Y-5.0864
X5.4504Y-5.5982
X5.4513Y-4.0949
X5.4567Y-2.8425
X5.4567Y-3.3543
X5.4567Y-4.3268
X5.4567Y-4.8386
X5.4567Y-5.3465
X5.4567Y-5.8622
X5.4668Y0.4235
X5.4843Y0.7441
X5.5Y-0.5394
X5.5Y-0.5709
X5.5Y-0.6024
X5.5079Y0.7204
X5.5197Y0.315
X5.5298Y1.0079
X5.5298Y0.9764
X5.5298Y0.9449
X5.5298Y0.815
X5.5298Y0.7795
X5.5298Y0.6968
X5.5372Y0.1299
X5.5424Y0.6142
X5.5512Y-3.1299
X5.5512Y-5.122
X5.5512Y-5.6339
X5.5534Y1.0433
X5.5551Y-1.5906
X5.5551Y-2.1024
X5.5551Y-2.6181
X5.5551Y-4.1024
X5.5551Y-4.6102
X5.5591Y0.3504
X5.5709Y0.2402
X5.5849Y1.0415
X5.6102Y0.1614
X5.6134Y-0.1467
X5.622Y1.1142
X5.6417Y-0.2992
X5.643Y1.0906
X5.6506Y-0.1447
X5.6535Y0.2746
X5.6542Y0.9095
X5.6674Y0.1718
X5.6822Y0.2441
X5.6916Y0.8721
X5.6925Y-0.3005
X5.7116Y-0.1427
X5.7126Y0.2756
X5.7126Y0.2126
X5.7145Y0.1757
X5.7205Y0.9213
X5.7402Y1.065
X5.7402Y-0.2992
X5.7439Y0.7137
X5.752Y0.7441
X5.7805Y0.3386
X5.7835Y1.0236
X5.7835Y0.8976
X5.7894Y0.6358
X5.7913Y-0.2992
X5.8093Y0.4857
X5.815Y1.0236
X5.815Y-1.0394
X5.8189Y0.4528
X5.8215Y0.301
X5.8425Y-0.2992
X5.8465Y1.0236
X5.8465Y0.7402
X5.8473Y0.8542
X5.8661Y-0.1575
X5.878Y1.0236
X5.878Y0.7402
X5.8819Y0.8542
X5.8898Y-0.2992
X5.8908Y0.0404
X5.8976Y-0.0236
X5.9054Y-0.0943
X5.913Y0.5748
X5.9225Y-0.0022
X5.9242Y0.0404
X5.9378Y0.444
X5.9409Y0.3396
X5.9409Y-0.2992
X5.9449Y0.9567
X5.9498Y-0.0389
X5.9646Y0.6339
X5.9738Y-0.0593
X5.9764Y0.4676
X5.9764Y0.4046
X5.9773Y-0.0906
X5.9882Y-0.2992
X6.0019Y0.6024
X6.0059Y0.939
X6.0079Y0.6969
X6.0275Y0.6634
X6.0344Y0.2652
X6.0394Y-0.165
X6.0396Y0.0547
X6.0671Y-0.0496
X6.0758Y0.3239
X6.0827Y0.5757
X6.0945Y-0.4213
X6.0984Y0.7008
X6.0984Y0.6417
X6.1024Y0.4803
X6.1102Y-0.0258
X6.1299Y0.7992
X6.1417Y-0.165
X6.1693Y1.0965
X6.2165Y-0.6152
X6.2424Y0.4235
X6.2466Y0.7402
X6.2598Y0.872
X6.2795Y0.7402
X6.2834Y-0.9212
X6.2835Y-0.5472
X6.2874Y-0.1614
X6.2953Y0.315
X6.3071Y-0.5787
X6.3091Y0.7106
X6.311Y0.9173
X6.315Y0.5945
X6.315Y-0.6772
X6.3346Y0.3504
X6.3346Y-0.1614
X6.3425Y1.0276
X6.3425Y0.748
X6.3476Y0.24
X6.374Y0.9094
X6.3858Y-0.1614
X6.4005Y0.2441
X6.4025Y1.0974
X6.4055Y0.7461
X6.4065Y0.6417
X6.4134Y-0.4134
X6.4213Y-2.3474
X6.4252Y-2.8622
X6.4252Y-3.374
X6.4252Y-3.8858
X6.4252Y-4.8465
X6.4252Y-5.3583
X6.4252Y-5.8701
X6.4252Y-6.3819
X6.4291Y0.2746
X6.433Y-0.1624
X6.4356Y0.8976
X6.437Y0.748
X6.4694Y0.749
X6.4762Y0.8721
X6.4803Y-0.3268
X6.4882Y0.2746
X6.4882Y0.2136
X6.5071Y0.9115
X6.5079Y-0.1811
X6.5197Y-4.6181
X6.5197Y-5.1299
X6.5197Y-5.6417
X6.5197Y-6.1535
X6.5236Y-2.3504
X6.5251Y-2.8657
X6.5259Y-2.3861
X6.5259Y-3.4097
X6.5259Y-3.9215
X6.5259Y-4.8821
X6.5259Y-5.3939
X6.5259Y-5.9057
X6.5259Y-6.4175
X6.526Y-2.8985
X6.5262Y-3.3782
X6.5262Y-4.8506
X6.5262Y-3.89
X6.5262Y-5.3624
X6.5262Y-5.8742
X6.5262Y-6.3861
X6.5374Y0.5965
X6.5551Y-0.1811
X6.5551Y-0.6614
X6.5561Y0.3386
X6.5571Y-2.3484
X6.5571Y-2.3819
X6.5571Y-2.4154
X6.5571Y-2.8602
X6.5571Y-2.8937
X6.5571Y-2.9272
X6.5571Y-3.372
X6.5571Y-3.4055
X6.5571Y-3.439
X6.5571Y-3.8839
X6.5571Y-3.9173
X6.5571Y-3.9508
X6.5571Y-4.8445
X6.5571Y-4.878
X6.5571Y-4.9114
X6.5571Y-5.3563
X6.5571Y-5.3898
X6.5571Y-5.4232
X6.5571Y-5.8681
X6.5571Y-5.9016
X6.5571Y-5.935
X6.5571Y-6.3799
X6.5571Y-6.4134
X6.5571Y-6.4469
X6.563Y-0.7402
X6.5915Y0.4567
X6.5949Y0.2932
X6.5955Y-0.3282
X6.622Y-2.498
X6.622Y-3.0098
X6.622Y-3.5157
X6.6222Y-1.976
X6.6237Y-0.3605
X6.6299Y-0.5315
X6.6417Y-1.8346
X6.6417Y-4.3337
X6.6654Y-0.3923
X6.6693Y0.8287
X6.685Y-2.4075
X6.685Y-2.9193
X6.685Y-3.4311
X6.685Y-3.9429
X6.685Y-4.9035
X6.685Y-5.4154
X6.685Y-5.9252
X6.685Y-6.439
X6.689Y-0.4173
X6.689Y-1.9524
X6.689Y-4.4484
X6.6909Y-2.4642
X6.6909Y-2.976
X6.6909Y-3.4878
X6.6909Y-4.9602
X6.6909Y-5.472
X6.6909Y-5.9839
X6.7008Y1.0118
X6.7008Y-0.2677
X6.7008Y-4.1053
X6.7047Y-1.6063
X6.7048Y0.7217
X6.7165Y0.3416
X6.7165Y-0.1958
X6.7184Y-1.9819
X6.7184Y-2.4937
X6.7184Y-3.0055
X6.7184Y-3.5173
X6.7184Y-4.478
X6.7184Y-4.9898
X6.7184Y-5.5016
X6.7184Y-6.0134
X6.7205Y0.749
X6.7205Y-0.4409
X6.7205Y-1.8346
X6.7205Y-4.3337
X6.7402Y1.0965
X6.746Y-2.4646
X6.746Y-2.9781
X6.748Y-0.1181
X6.7559Y0.6969
X6.7992Y-1.6417
X6.7992Y-1.8346
X6.7992Y-4.1407
X6.7992Y-4.3337
X6.8031Y-1.6063
X6.8031Y-4.1053
X6.815Y-0.2677
X6.815Y-0.3937
X6.815Y-0.4409
X6.8189Y0.9508
X6.8366Y0.0256
X6.8416Y-0.4173
X6.8445Y-0.4862
X6.8565Y-2.0374
X6.8565Y-2.5492
X6.8565Y-3.061
X6.8565Y-3.5728
X6.8565Y-4.5335
X6.8565Y-5.0453
X6.8565Y-5.5571
X6.8565Y-6.0689
X6.8661Y-4.1063
X6.878Y-1.8346
X6.878Y-4.3337
X6.888Y-2.0374
X6.888Y-2.5492
X6.888Y-3.061
X6.888Y-3.5728
X6.888Y-4.5335
X6.888Y-5.0453
X6.888Y-5.5571
X6.888Y-6.0689
X6.9016Y-4.1063
X6.9055Y-1.6063
X6.9056Y-2.4423
X6.9056Y-2.9542
X6.9056Y-3.466
X6.9056Y-3.9778
X6.9056Y-4.9384
X6.9056Y-5.4502
X6.9056Y-5.962
X6.9056Y-6.4738
X6.9075Y-2.3681
X6.9075Y-2.8799
X6.9075Y-3.3917
X6.9075Y-3.9035
X6.9075Y-4.8642
X6.9075Y-5.376
X6.9075Y-5.8878
X6.9075Y-6.3996
X6.9195Y-2.0374
X6.9195Y-2.5492
X6.9195Y-3.061
X6.9195Y-3.5728
X6.9195Y-4.5335
X6.9195Y-5.0453
X6.9195Y-5.5571
X6.9195Y-6.0689
X6.9213Y-0.1693
X6.9291Y-1.63
X6.9389Y-2.4406
X6.9389Y-2.9524
X6.9389Y-3.4642
X6.9389Y-3.976
X6.9389Y-4.9366
X6.9389Y-5.4484
X6.9389Y-5.9602
X6.9389Y-6.472
X6.939Y-2.3681
X6.939Y-2.8799
X6.939Y-3.3917
X6.939Y-3.9035
X6.939Y-4.8642
X6.939Y-5.376
X6.939Y-5.8878
X6.939Y-6.3996
X6.9429Y1.0965
X6.9449Y-0.2361
X6.9528Y-1.4961
X6.9528Y-1.6063
X6.9528Y-4.1063
X6.9529Y-2.043
X6.9529Y-2.5548
X6.9529Y-3.0666
X6.9529Y-3.5785
X6.9529Y-4.5391
X6.9529Y-5.0509
X6.9529Y-5.5627
X6.9529Y-6.0745
X6.9567Y-1.8346
X6.9567Y-4.3337
X6.9704Y-2.4449
X6.9704Y-2.9567
X6.9704Y-3.4685
X6.9704Y-3.9803
X6.9704Y-4.9409
X6.9704Y-5.4528
X6.9704Y-5.9646
X6.9704Y-6.4764
X6.9705Y-2.3681
X6.9705Y-2.8799
X6.9705Y-3.3917
X6.9705Y-3.9035
X6.9705Y-4.8642
X6.9705Y-5.376
X6.9705Y-5.8878
X6.9705Y-6.3996
X6.9842Y-1.4975
X6.9874Y-0.2361
X6.9927Y-2.1036
X6.9927Y-2.6154
X6.9927Y-3.1272
X6.9927Y-3.639
X6.9927Y-4.5996
X6.9927Y-5.1114
X6.9927Y-5.6232
X6.9927Y-6.1351
X7.0039Y-4.1063
X7.0138Y-0.0354
X7.0228Y-2.0945
X7.0228Y-2.6063
X7.0228Y-3.1181
X7.0228Y-3.6299
X7.0228Y-4.5906
X7.0228Y-5.1024
X7.0228Y-5.6142
X7.0228Y-6.126
X7.0342Y0.5306
X7.0354Y-1.8346
X7.0354Y-4.3337
X7.0512Y-1.689
X7.0512Y-4.188
X7.0591Y0.4685
X7.0591Y0.311
X7.0591Y0.1535
X7.0591Y0.0039
X7.0747Y-2.3972
X7.0747Y-2.9091
X7.0747Y-3.4209
X7.0747Y-3.9327
X7.0747Y-4.8933
X7.0747Y-5.4051
X7.0747Y-5.9169
X7.0747Y-6.4287
X7.0785Y-2.0242
X7.0785Y-2.536
X7.0785Y-3.0478
X7.0785Y-3.5596
X7.0785Y-4.5202
X7.0785Y-5.0321
X7.0785Y-5.5439
X7.0785Y-6.0557
X7.0787Y-4.1299
X7.0846Y-1.9734
X7.0846Y-2.4852
X7.0846Y-2.997
X7.0846Y-3.5088
X7.0846Y-4.4694
X7.0846Y-4.9813
X7.0846Y-5.4931
X7.0846Y-6.0049
X7.1063Y-0.7953
X7.1063Y-4.1063
X7.1142Y-1.8346
X7.1142Y-4.3337
X7.1161Y-2.3972
X7.1161Y-2.9091
X7.1161Y-3.4209
X7.1161Y-3.9327
X7.1161Y-4.8933
X7.1161Y-5.4051
X7.1161Y-5.9169
X7.1161Y-6.4287
X7.117Y-0.0878
X7.1181Y-1.5433
X7.1181Y-4.0423
X7.122Y-0.2244
X7.122Y-1.7242
X7.122Y-4.2205
X7.1417Y-0.7953
X7.1496Y0.0709
X7.1772Y-0.7953
X7.1929Y-0.1772
X7.2126Y-0.7953
X7.2146Y1.0965
X7.2146Y0.9547
X7.2264Y-0.2421
X7.2264Y-0.4843
X7.248Y-0.7953
X7.2677Y1.3976
X7.2677Y1.248
T3
X4.4724Y-1.3898
X4.4724Y-2.5728
X4.4724Y-3.8228
X4.4724Y-5.0728
X4.4724Y-6.2244
X4.748Y1.185
X4.874Y1.3504
X4.9173Y-6.5984
X4.9213Y1.185
X5.3228Y-1.9016
X5.3228Y-2.4134
X5.3228Y-2.9252
X5.3228Y-3.437
X5.3228Y-4.4094
X5.3228Y-4.9213
X5.3228Y-5.4331
X5.3228Y-5.9449
X5.4134Y-1.0079
X5.8858Y-1.0079
X6.063Y-1.4331
X6.063Y-1.5748
X6.6535Y-2.0394
X6.6535Y-2.5512
X6.6535Y-3.063
X6.6535Y-3.5748
X6.6535Y-4.5354
X6.6535Y-5.0472
X6.6535Y-5.5591
X6.6535Y-6.0709
X7.0591Y-6.5984
X7.5039Y-0.811
X7.5039Y-1.3228
X7.5039Y-2.5728
X7.5039Y-3.8228
X7.5039Y-5.0728
X7.5039Y-6.2244
T4
X5.8164Y1.3189
X5.8164Y1.2189
X5.9164Y1.3189
X5.9164Y1.2189
X6.0164Y1.3189
X6.0164Y1.2189
X6.1164Y1.3189
X6.1164Y1.2189
X6.2164Y1.3189
X6.2164Y1.2189
X6.6274Y1.319
X6.6274Y1.219
X6.7274Y1.319
X6.7274Y1.219
X6.8274Y1.319
X6.8274Y1.219
X6.9274Y1.319
X6.9274Y1.219
X7.0274Y1.319
X7.0274Y1.219
X7.3409Y0.9795
X7.3409Y0.8795
X7.3409Y0.7795
X7.3409Y0.6795
X7.3409Y0.5795
X7.3409Y-0.1299
X7.3409Y-0.2299
X7.3409Y-0.3299
X7.3409Y-0.4299
X7.3409Y-0.5299
X7.4409Y0.9795
X7.4409Y0.8795
X7.4409Y0.7795
X7.4409Y0.6795
X7.4409Y0.5795
X7.4409Y-0.1299
X7.4409Y-0.2299
X7.4409Y-0.3299
X7.4409Y-0.4299
X7.4409Y-0.5299
T5
X4.5906Y-0.6496
X4.5906Y-0.748
X4.5906Y-0.8465
X4.5906Y-0.9449
X4.5906Y-1.0433
X4.5906Y-1.1417
X5.1122Y1.3323
X5.2106Y1.3323
X5.4232Y1.3323
X5.5217Y1.3323
X5.7894Y-1.5567
X5.8878Y-1.5567
X5.8937Y-3.874
X5.8937Y-3.9724
X5.8937Y-4.0709
X5.8937Y-4.1693
X5.8937Y-4.2677
X5.8937Y-4.3661
X5.8937Y-4.4646
X5.8937Y-4.563
X5.9921Y-3.874
X5.9921Y-3.9724
X5.9921Y-4.0709
X5.9921Y-4.1693
X5.9921Y-4.2677
X5.9921Y-4.3661
X5.9921Y-4.4646
X5.9921Y-4.563
X6.2264Y-1.5571
X6.3248Y-1.5571
T6
X5.474Y-0.7205
X5.474Y-0.8543
X5.7717Y-1.8441
X5.7717Y-2.2346
X5.8646Y-0.7205
X5.8646Y-0.8543
X5.9055Y-1.8441
X5.9055Y-2.2346
X6.0984Y-1.8441
X6.0984Y-2.2346
X6.2323Y-1.8441
X6.2323Y-2.2346
T7
X5.0827Y-0.8228
X5.0827Y-1.0197
T8
X4.5433Y1.311
X4.5433Y-6.5236
X5.0787Y0.9094
X5.0787Y-0.4488
X7.0276Y0.9094
X7.0276Y-0.4488
X7.4331Y1.311
X7.4331Y-6.5236
T9
X5.9134Y-6.2874
X7.4094Y0.2283
M30
